<svg width="15" height="15" viewBox="0 0 15 15" fill="none" xmlns="http://www.w3.org/2000/svg">
<path d="M6.13205 1.875H2.45281C2.29017 1.875 2.1342 1.94085 2.0192 2.05806C1.90421 2.17527 1.8396 2.33424 1.8396 2.5V6.25C1.8396 6.41576 1.90421 6.57473 2.0192 6.69194C2.1342 6.80915 2.29017 6.875 2.45281 6.875H6.13205C6.29469 6.875 6.45066 6.80915 6.56566 6.69194C6.68065 6.57473 6.74526 6.41576 6.74526 6.25V2.5C6.74526 2.33424 6.68065 2.17527 6.56566 2.05806C6.45066 1.94085 6.29469 1.875 6.13205 1.875V1.875ZM5.51885 5.625H3.06601V3.125H5.51885V5.625ZM12.2641 1.875H8.58488C8.42225 1.875 8.26628 1.94085 8.15128 2.05806C8.03628 2.17527 7.97168 2.33424 7.97168 2.5V6.25C7.97168 6.41576 8.03628 6.57473 8.15128 6.69194C8.26628 6.80915 8.42225 6.875 8.58488 6.875H12.2641C12.4268 6.875 12.5827 6.80915 12.6977 6.69194C12.8127 6.57473 12.8773 6.41576 12.8773 6.25V2.5C12.8773 2.33424 12.8127 2.17527 12.6977 2.05806C12.5827 1.94085 12.4268 1.875 12.2641 1.875V1.875ZM11.6509 5.625H9.19809V3.125H11.6509V5.625ZM6.13205 8.125H2.45281C2.29017 8.125 2.1342 8.19085 2.0192 8.30806C1.90421 8.42527 1.8396 8.58424 1.8396 8.75V12.5C1.8396 12.6658 1.90421 12.8247 2.0192 12.9419C2.1342 13.0592 2.29017 13.125 2.45281 13.125H6.13205C6.29469 13.125 6.45066 13.0592 6.56566 12.9419C6.68065 12.8247 6.74526 12.6658 6.74526 12.5V8.75C6.74526 8.58424 6.68065 8.42527 6.56566 8.30806C6.45066 8.19085 6.29469 8.125 6.13205 8.125ZM5.51885 11.875H3.06601V9.375H5.51885V11.875ZM10.4245 8.125C9.07177 8.125 7.97168 9.24625 7.97168 10.625C7.97168 12.0038 9.07177 13.125 10.4245 13.125C11.7772 13.125 12.8773 12.0038 12.8773 10.625C12.8773 9.24625 11.7772 8.125 10.4245 8.125ZM10.4245 11.875C9.74814 11.875 9.19809 11.3144 9.19809 10.625C9.19809 9.93562 9.74814 9.375 10.4245 9.375C11.1009 9.375 11.6509 9.93562 11.6509 10.625C11.6509 11.3144 11.1009 11.875 10.4245 11.875Z" fill="#FFA95E"/>
</svg>
