<svg width="100" height="100" viewBox="0 0 100 100" fill="none" xmlns="http://www.w3.org/2000/svg">
<path d="M80.3539 80.551L75.763 17.263C75.418 12.512 70.0629 9.916 66.1159 12.59L13.5999 48.21C9.65795 50.884 10.0889 56.824 14.3759 58.901L71.476 86.568C75.771 88.646 80.6999 85.3 80.3539 80.551Z" fill="#6DC8C2"/>
<path d="M52.4279 45.5C48.9629 45.386 46.0679 42.73 45.5789 39.215L44.351 30.4L48.9689 29.756C49.3169 29.715 50.7739 29.582 52.0819 30.594C52.6019 30.994 53.0399 31.54 53.4159 32.352C54.1519 33.942 57.2679 42.183 53.8599 44.837C53.4379 45.1619 52.9487 45.3884 52.4279 45.5V45.5Z" fill="black"/>
<path d="M67.232 86.686H39.482L37.24 52.886C41.1517 51.1739 45.2477 49.9186 49.447 49.145C55.447 48.045 60.199 47.999 64.494 48.533C65.408 61.278 66.317 73.941 67.232 86.686Z" fill="black"/>
<path d="M52.172 45.168L51.072 42.149C52.155 42.105 53.021 41.164 53.021 40.006C53.021 38.819 52.114 37.858 50.994 37.858C50.5139 37.8592 50.0511 38.0372 49.694 38.358L47.623 32.667L39.132 35.4C38.7384 35.5265 38.3737 35.7292 38.0585 35.9967C37.7434 36.2642 37.4841 36.5912 37.2954 36.9589C37.1066 37.3267 36.9923 37.728 36.9587 38.14C36.9252 38.552 36.9732 38.9666 37.1 39.36L39.4 46.507C39.7502 47.5906 40.516 48.491 41.5293 49.0107C42.5426 49.5303 43.7206 49.6268 44.805 49.279L46.04 48.727L47.072 50.933C47.1164 51.0305 47.1935 51.1094 47.29 51.156C49.083 52.018 51.084 51.807 52.316 50.656C53.167 49.863 53.638 49.149 53.774 48.682C53.8038 48.5727 53.7921 48.4562 53.741 48.355L52.172 45.168Z" fill="white"/>
<path d="M46.042 48.731L49.764 47.031C49.7887 47.0202 49.8163 47.0182 49.8423 47.0253C49.8683 47.0324 49.8911 47.0482 49.9069 47.0701C49.9227 47.0919 49.9305 47.1185 49.929 47.1454C49.9276 47.1724 49.917 47.198 49.899 47.218L46.859 50.478L46.042 48.731Z" fill="black"/>
<path d="M50.8239 40.894C50.6801 40.8942 50.5395 40.8517 50.4198 40.772C50.3001 40.6922 50.2068 40.5787 50.1516 40.4459C50.0964 40.3131 50.0819 40.1669 50.1098 40.0258C50.1377 39.8847 50.2069 39.7551 50.3085 39.6533C50.4102 39.5515 50.5397 39.4822 50.6807 39.454C50.8218 39.4259 50.968 39.4403 51.1009 39.4952C51.2338 39.5502 51.3474 39.6434 51.4273 39.763C51.5073 39.8826 51.5499 40.0232 51.5499 40.167C51.5499 40.3596 51.4735 40.5444 51.3374 40.6807C51.2012 40.817 51.0166 40.8937 50.8239 40.894V40.894ZM50.8239 39.841C50.7592 39.8408 50.6958 39.8598 50.6419 39.8957C50.588 39.9316 50.5459 39.9826 50.521 40.0424C50.4962 40.1022 50.4896 40.168 50.5022 40.2315C50.5148 40.2951 50.5459 40.3534 50.5917 40.3992C50.6375 40.445 50.6959 40.4762 50.7594 40.4888C50.8229 40.5013 50.8887 40.4948 50.9485 40.4699C51.0083 40.445 51.0594 40.403 51.0952 40.349C51.1311 40.2951 51.1501 40.2318 51.1499 40.167C51.1499 40.0805 51.1156 39.9976 51.0545 39.9365C50.9933 39.8753 50.9104 39.841 50.8239 39.841V39.841Z" fill="black"/>
<path d="M50.312 40.489C50.2627 40.4893 50.2151 40.4715 50.1781 40.4388C50.1412 40.4061 50.1177 40.361 50.112 40.312C50.061 39.879 50.16 39.529 50.406 39.27C50.868 38.783 51.678 38.828 51.712 38.83C51.7651 38.8333 51.8146 38.8576 51.8498 38.8974C51.885 38.9373 51.9028 38.9895 51.8995 39.0425C51.8962 39.0955 51.872 39.1451 51.8321 39.1803C51.7923 39.2154 51.7401 39.2333 51.687 39.23C51.681 39.23 51.027 39.195 50.695 39.546C50.533 39.717 50.473 39.952 50.509 40.266C50.5149 40.3185 50.4999 40.3712 50.4671 40.4126C50.4343 40.454 50.3865 40.4807 50.334 40.487L50.312 40.489Z" fill="black"/>
<path d="M42.9431 46.09C42.6848 46.0931 42.4294 46.0349 42.1981 45.92C42.1545 45.8923 42.1234 45.8489 42.1111 45.7988C42.0988 45.7487 42.1064 45.6958 42.1322 45.6511C42.158 45.6065 42.2001 45.5735 42.2496 45.5591C42.2992 45.5448 42.3523 45.5501 42.3981 45.574C42.4441 45.599 43.4731 46.156 44.5261 44.669C44.5406 44.6462 44.5597 44.6266 44.5821 44.6114C44.6045 44.5961 44.6297 44.5856 44.6563 44.5804C44.6828 44.5753 44.7102 44.5755 44.7366 44.5812C44.7631 44.5869 44.7881 44.5979 44.8102 44.6135C44.8323 44.6292 44.851 44.6492 44.8651 44.6722C44.8793 44.6953 44.8886 44.721 44.8925 44.7478C44.8964 44.7746 44.8948 44.8019 44.8879 44.8281C44.8809 44.8542 44.8688 44.8787 44.8521 44.9C44.1691 45.865 43.4571 46.09 42.9431 46.09Z" fill="black"/>
<path d="M44.171 40.736C44.4129 40.736 44.609 40.5399 44.609 40.298C44.609 40.0561 44.4129 39.86 44.171 39.86C43.9291 39.86 43.733 40.0561 43.733 40.298C43.733 40.5399 43.9291 40.736 44.171 40.736Z" fill="black"/>
<path d="M39.044 42.591C39.2859 42.591 39.482 42.3949 39.482 42.153C39.482 41.9111 39.2859 41.715 39.044 41.715C38.8021 41.715 38.606 41.9111 38.606 42.153C38.606 42.3949 38.8021 42.591 39.044 42.591Z" fill="black"/>
<path d="M38.933 44.551C37.928 44.551 36.995 43.741 36.754 42.586C36.482 41.286 37.189 40.034 38.329 39.795C38.6112 39.7391 38.9022 39.7453 39.1818 39.8131C39.4614 39.881 39.7229 40.0089 39.948 40.188C40.436 40.5694 40.7706 41.1135 40.891 41.721V41.721C41.0242 42.3258 40.9355 42.9583 40.641 43.503C40.5066 43.7574 40.3183 43.9795 40.0893 44.1538C39.8603 44.328 39.5961 44.4503 39.315 44.512C39.1893 44.5379 39.0613 44.5509 38.933 44.551V44.551ZM38.714 40.151C38.6132 40.1515 38.5127 40.1622 38.414 40.183C37.489 40.376 36.921 41.416 37.148 42.5C37.375 43.584 38.312 44.309 39.236 44.116C39.4609 44.0659 39.6721 43.9673 39.8548 43.827C40.0376 43.6868 40.1875 43.5083 40.294 43.304C40.541 42.8437 40.6141 42.3098 40.5 41.8V41.8C40.4011 41.2852 40.1194 40.8236 39.707 40.5C39.423 40.2789 39.074 40.1576 38.714 40.155V40.151Z" fill="black"/>
<path d="M40.866 41.8C40.8186 41.7997 40.7728 41.7825 40.7369 41.7515C40.701 41.7205 40.6772 41.6778 40.6699 41.6309C40.6626 41.584 40.6721 41.5361 40.6969 41.4956C40.7216 41.4552 40.76 41.4248 40.805 41.41L42.6111 40.828C42.6603 40.8158 42.7123 40.8227 42.7566 40.8474C42.801 40.872 42.8342 40.9126 42.8498 40.9609C42.8653 41.0092 42.8618 41.0616 42.8402 41.1075C42.8185 41.1534 42.7802 41.1893 42.7331 41.208L40.928 41.791C40.9079 41.7969 40.887 41.8 40.866 41.8V41.8Z" fill="black"/>
<path d="M41.764 43.934C41.662 43.9367 41.5606 43.9171 41.467 43.8765C41.3734 43.8359 41.2897 43.7753 41.222 43.699C41.022 43.456 41.056 43.123 41.151 42.912C41.2187 42.7641 41.3287 42.6396 41.467 42.554L40.644 40.354C40.6289 40.3052 40.633 40.2525 40.6554 40.2067C40.6779 40.1608 40.7171 40.1253 40.7649 40.1074C40.8127 40.0895 40.8656 40.0906 40.9126 40.1104C40.9597 40.1302 40.9974 40.1673 41.018 40.214L41.978 42.773L41.778 42.839C41.7205 42.858 41.6675 42.8883 41.622 42.9281C41.5764 42.968 41.5394 43.0166 41.513 43.071C41.477 43.15 41.434 43.328 41.525 43.436C41.616 43.544 41.825 43.576 42.019 43.451C42.0409 43.4349 42.0658 43.4234 42.0923 43.4172C42.1188 43.411 42.1462 43.4103 42.173 43.4151C42.1998 43.4199 42.2253 43.4301 42.2479 43.4451C42.2706 43.4601 42.29 43.4796 42.3049 43.5023C42.3198 43.5251 42.3299 43.5506 42.3347 43.5774C42.3394 43.6041 42.3386 43.6316 42.3323 43.6581C42.326 43.6845 42.3144 43.7094 42.2982 43.7313C42.282 43.7531 42.2615 43.7714 42.238 43.785C42.0977 43.8795 41.9331 43.9312 41.764 43.934V43.934Z" fill="black"/>
<path d="M43.3074 36.0961C45.8384 35.5669 47.5726 33.6185 47.1807 31.7443C46.7888 29.87 44.4193 28.7797 41.8882 29.3089C39.3571 29.8381 37.623 31.7865 38.0149 33.6608C38.4068 35.535 40.7763 36.6253 43.3074 36.0961Z" fill="black"/>
<path d="M51.028 36.111L48.519 36.763C47.836 36.9403 47.1107 36.8391 46.5023 36.4817C45.894 36.1242 45.4525 35.5399 45.275 34.857L44.746 32.821L49.83 31.5L51.028 36.111Z" fill="black"/>
<path d="M36.94 38.665C38.831 38.665 40.364 37.132 40.364 35.241C40.364 33.35 38.831 31.817 36.94 31.817C35.049 31.817 33.516 33.35 33.516 35.241C33.516 37.132 35.049 38.665 36.94 38.665Z" fill="black"/>
<path d="M46.278 39.856C46.2314 39.8561 46.1862 39.8399 46.1503 39.8103C46.1143 39.7807 46.0899 39.7394 46.0811 39.6936C46.0723 39.6479 46.0798 39.6005 46.1022 39.5597C46.1247 39.5188 46.1607 39.4871 46.204 39.47L49.948 37.97C49.9726 37.9586 49.9994 37.9523 50.0265 37.9516C50.0537 37.9509 50.0807 37.9557 50.1059 37.9657C50.1311 37.9758 50.1541 37.9909 50.1733 38.0101C50.1925 38.0293 50.2076 38.0522 50.2177 38.0774C50.2277 38.1027 50.2325 38.1297 50.2318 38.1568C50.2311 38.184 50.2249 38.2107 50.2135 38.2354C50.2021 38.26 50.1858 38.2821 50.1656 38.3003C50.1454 38.3184 50.1217 38.3323 50.096 38.341L46.352 39.841C46.3284 39.8504 46.3034 39.8555 46.278 39.856Z" fill="black"/>
<path d="M32.14 71.727L31.265 83.413L31.572 86.28H39.455L38.517 72.135L32.14 71.727Z" fill="white"/>
<path d="M39.6689 86.48H31.3919L31.0649 83.416L31.9559 71.516L38.7049 71.947L39.6689 86.48ZM31.7519 86.08H39.2409L38.3289 72.323L32.3289 71.939L31.4659 83.41L31.7519 86.08Z" fill="black"/>
<path d="M37.2401 52.887C36.9044 53.0228 36.5815 53.1881 36.2751 53.381C33.9851 54.825 33.2311 57.481 32.6511 60.072C32.0351 62.827 31.1281 69.165 30.8101 74.087C33.2941 74.245 36.1941 74.404 38.6781 74.563L37.2401 52.887Z" fill="black"/>
<path d="M35.025 62.71H11.044C10.991 62.71 10.9401 62.6889 10.9026 62.6514C10.8651 62.6139 10.844 62.563 10.844 62.51C10.844 62.457 10.8651 62.4061 10.9026 62.3686C10.9401 62.3311 10.991 62.31 11.044 62.31H35.025C35.078 62.31 35.1289 62.3311 35.1664 62.3686C35.2039 62.4061 35.225 62.457 35.225 62.51C35.225 62.563 35.2039 62.6139 35.1664 62.6514C35.1289 62.6889 35.078 62.71 35.025 62.71Z" fill="black"/>
<path d="M23.229 62.6H13.277C13.0765 62.5997 12.8843 62.52 12.7424 62.3783C12.6005 62.2367 12.5205 62.0445 12.52 61.844V60.429C12.5203 60.2283 12.6001 60.0359 12.742 59.894C12.8839 59.7521 13.0763 59.6723 13.277 59.672H23.229C23.4297 59.6723 23.6221 59.7521 23.764 59.894C23.9059 60.0359 23.9858 60.2283 23.986 60.429V61.845C23.9852 62.0453 23.9052 62.2372 23.7633 62.3787C23.6215 62.5202 23.4294 62.5997 23.229 62.6V62.6ZM13.277 60.071C13.2301 60.071 13.1837 60.0802 13.1404 60.0982C13.0971 60.1161 13.0577 60.1424 13.0246 60.1756C12.9914 60.2087 12.9651 60.2481 12.9472 60.2914C12.9293 60.3347 12.92 60.3811 12.92 60.428V61.844C12.9203 61.9385 12.958 62.0291 13.0249 62.0958C13.0919 62.1625 13.1825 62.2 13.277 62.2H23.229C23.3235 62.2 23.4142 62.1625 23.4811 62.0958C23.548 62.0291 23.5858 61.9385 23.586 61.844V60.429C23.586 60.3343 23.5484 60.2435 23.4815 60.1766C23.4145 60.1096 23.3237 60.072 23.229 60.072L13.277 60.071Z" fill="black"/>
<path d="M23.228 57.183H13.277C12.9693 57.183 12.72 57.4324 12.72 57.74V59.155C12.72 59.4626 12.9693 59.712 13.277 59.712H23.228C23.5356 59.712 23.785 59.4626 23.785 59.155V57.74C23.785 57.4324 23.5356 57.183 23.228 57.183Z" fill="#FFBB45"/>
<path d="M25.8419 62.55H24.4249C24.2245 62.5497 24.0324 62.47 23.8907 62.3283C23.7489 62.1866 23.6692 61.9944 23.6689 61.794V53.553C23.6692 53.3526 23.7489 53.1604 23.8907 53.0187C24.0324 52.877 24.2245 52.7973 24.4249 52.797H25.8419C26.0424 52.7973 26.2345 52.877 26.3762 53.0187C26.5179 53.1604 26.5977 53.3526 26.5979 53.553V61.794C26.5977 61.9944 26.5179 62.1866 26.3762 62.3283C26.2345 62.47 26.0424 62.5497 25.8419 62.55ZM24.4249 53.2C24.3306 53.2003 24.2402 53.2379 24.1735 53.3046C24.1068 53.3713 24.0692 53.4617 24.0689 53.556V61.797C24.0692 61.8913 24.1068 61.9817 24.1735 62.0484C24.2402 62.1151 24.3306 62.1527 24.4249 62.153H25.8419C25.9363 62.1527 26.0267 62.1151 26.0934 62.0484C26.1601 61.9817 26.1977 61.8913 26.1979 61.797V53.553C26.1977 53.4587 26.1601 53.3683 26.0934 53.3016C26.0267 53.2349 25.9363 53.1973 25.8419 53.197L24.4249 53.2Z" fill="black"/>
<path d="M28.5481 52.997H27.133C26.8254 52.997 26.576 53.2464 26.576 53.554V61.794C26.576 62.1016 26.8254 62.351 27.133 62.351H28.5481C28.8557 62.351 29.105 62.1016 29.105 61.794V53.554C29.105 53.2464 28.8557 52.997 28.5481 52.997Z" fill="#FFC1EB"/>
<path d="M49.5219 54.151C48.1949 54.1383 46.8987 53.7492 45.7839 53.029C45.7418 52.9991 45.7128 52.9541 45.7031 52.9033C45.6934 52.8526 45.7038 52.8 45.732 52.7567C45.7601 52.7134 45.804 52.6827 45.8543 52.671C45.9047 52.6593 45.9576 52.6676 46.0019 52.694C46.6229 53.094 48.3019 54.006 50.4249 53.683C53.3519 53.239 54.8019 50.862 55.0629 50.39C55.075 50.3659 55.0918 50.3445 55.1123 50.3271C55.1329 50.3097 55.1567 50.2966 55.1824 50.2886C55.2081 50.2806 55.2352 50.2779 55.262 50.2806C55.2888 50.2833 55.3148 50.2914 55.3384 50.3044C55.3619 50.3174 55.3826 50.3351 55.3992 50.3563C55.4158 50.3775 55.428 50.4018 55.435 50.4278C55.4419 50.4539 55.4436 50.481 55.4398 50.5077C55.436 50.5343 55.4269 50.56 55.4129 50.583C55.1359 51.083 53.5969 53.606 50.4849 54.078C50.1663 54.1268 49.8443 54.1512 49.5219 54.151Z" fill="white"/>
<path d="M42.2575 55.3393L37.6747 56.5459C37.0701 56.7051 36.709 57.3242 36.8682 57.9288L39.3253 67.2617C39.4845 67.8663 40.1036 68.2274 40.7082 68.0682L45.291 66.8617C45.8956 66.7025 46.2567 66.0834 46.0975 65.4788L43.6404 56.1458C43.4812 55.5412 42.8621 55.1801 42.2575 55.3393Z" fill="#FFC1EB"/>
<path d="M42.1669 56.9683L42.0908 56.9853C41.8445 57.0406 41.6897 57.285 41.7449 57.5313L42.1926 59.5277C42.2478 59.774 42.4923 59.9288 42.7385 59.8736L42.8146 59.8565C43.0609 59.8013 43.2158 59.5569 43.1606 59.3106L42.7129 57.3142C42.6576 57.0679 42.4132 56.913 42.1669 56.9683Z" fill="white"/>
<path d="M44.5 42.466C43.5 42.466 42.581 41.688 42.348 40.575C42.087 39.316 42.8 38.1 43.942 37.86C45.084 37.62 46.225 38.451 46.488 39.71C46.751 40.969 46.037 42.187 44.896 42.425C44.7658 42.4526 44.6331 42.4664 44.5 42.466V42.466ZM44.335 38.219C44.2299 38.2188 44.125 38.2295 44.022 38.251C43.097 38.445 42.522 39.451 42.74 40.493C42.958 41.535 43.887 42.227 44.812 42.034C45.737 41.841 46.312 40.834 46.094 39.792C45.9 38.867 45.15 38.219 44.337 38.219H44.335Z" fill="black"/>
<path d="M68.532 26.315H60.254C59.05 26.315 58.074 27.291 58.074 28.495V36.271C58.074 37.475 59.05 38.451 60.254 38.451H68.532C69.736 38.451 70.712 37.475 70.712 36.271V28.495C70.712 27.291 69.736 26.315 68.532 26.315Z" fill="white"/>
<path d="M67.2591 29.899H61.5261C61.0445 29.899 60.6541 30.2894 60.6541 30.771V35.628C60.6541 36.1096 61.0445 36.5 61.5261 36.5H67.2591C67.7406 36.5 68.1311 36.1096 68.1311 35.628V30.771C68.1311 30.2894 67.7406 29.899 67.2591 29.899Z" fill="#FFC1EB"/>
<path d="M68.131 32.258H60.654C60.6009 32.258 60.5501 32.2369 60.5126 32.1994C60.4751 32.1619 60.454 32.111 60.454 32.058C60.454 32.005 60.4751 31.9541 60.5126 31.9166C60.5501 31.8791 60.6009 31.858 60.654 31.858H68.131C68.184 31.858 68.2349 31.8791 68.2724 31.9166C68.3099 31.9541 68.331 32.005 68.331 32.058C68.331 32.111 68.3099 32.1619 68.2724 32.1994C68.2349 32.2369 68.184 32.258 68.131 32.258Z" fill="#FB6D6D"/>
<path d="M64.7 30.1H64.39C62.548 30.1 62.02 29.459 61.901 28.921C61.8788 28.8225 61.8782 28.7203 61.8993 28.6215C61.9204 28.5227 61.9625 28.4296 62.023 28.3487C62.0834 28.2677 62.1606 28.2008 62.2493 28.1526C62.3381 28.1043 62.4362 28.0758 62.537 28.069C63.727 27.988 64.537 29.743 64.572 29.818L64.7 30.1ZM62.614 28.467H62.564C62.5212 28.4702 62.4796 28.4826 62.4419 28.5033C62.4043 28.524 62.3716 28.5526 62.346 28.587C62.3195 28.6218 62.301 28.6619 62.2917 28.7045C62.2824 28.7472 62.2824 28.7914 62.292 28.834C62.403 29.34 63.025 29.639 64.056 29.691C63.771 29.192 63.221 28.466 62.617 28.466L62.614 28.467Z" fill="#FB6D6D"/>
<path d="M64.367 30.1H64.057L64.185 29.818C64.219 29.743 65.03 27.988 66.22 28.069C66.3208 28.0758 66.4189 28.1043 66.5077 28.1526C66.5964 28.2008 66.6736 28.2677 66.734 28.3487C66.7945 28.4296 66.8366 28.5227 66.8577 28.6215C66.8788 28.7203 66.8782 28.8225 66.856 28.921C66.737 29.458 66.209 30.1 64.367 30.1ZM66.143 28.467C65.543 28.467 64.989 29.193 64.701 29.692C65.732 29.64 66.354 29.341 66.465 28.835C66.4745 28.7924 66.4746 28.7482 66.4653 28.7055C66.456 28.6629 66.4375 28.6228 66.411 28.588C66.3854 28.5536 66.3527 28.525 66.3151 28.5043C66.2774 28.4836 66.2358 28.4712 66.193 28.468L66.143 28.467Z" fill="#FB6D6D"/>
<path d="M66.385 33.612C66.3499 33.612 66.3154 33.6027 66.2851 33.5852C66.2547 33.5676 66.2295 33.5424 66.212 33.512L64.349 30.3L62.5739 33.394C62.5608 33.4168 62.5433 33.4368 62.5225 33.4528C62.5016 33.4688 62.4778 33.4806 62.4524 33.4874C62.427 33.4942 62.4005 33.496 62.3745 33.4926C62.3484 33.4892 62.3232 33.4806 62.3005 33.4675C62.2777 33.4544 62.2577 33.4369 62.2417 33.416C62.2256 33.3952 62.2139 33.3714 62.2071 33.346C62.2002 33.3206 62.1985 33.2941 62.2019 33.268C62.2053 33.2419 62.2138 33.2168 62.227 33.194L64.347 29.494L66.558 33.306C66.5844 33.3519 66.5916 33.4064 66.5779 33.4576C66.5642 33.5088 66.5308 33.5524 66.485 33.579C66.4554 33.5991 66.4207 33.6105 66.385 33.612Z" fill="#FB6D6D"/>
<path d="M64.425 36.7C64.3719 36.7 64.3211 36.6789 64.2836 36.6414C64.246 36.6039 64.225 36.553 64.225 36.5V30.11C64.225 30.057 64.246 30.0061 64.2836 29.9686C64.3211 29.9311 64.3719 29.91 64.425 29.91C64.478 29.91 64.5289 29.9311 64.5664 29.9686C64.6039 30.0061 64.625 30.057 64.625 30.11V36.5C64.625 36.553 64.6039 36.6039 64.5664 36.6414C64.5289 36.6789 64.478 36.7 64.425 36.7Z" fill="#FB6D6D"/>
<path d="M63.045 67.76L38.478 70.605L38.186 67.133L62.33 64.281L63.045 67.76Z" fill="#C7B8F8"/>
<path d="M64.796 75.393L38.734 78.34L38.483 74.586L63.975 71.612L64.796 75.393Z" fill="#C7B8F8"/>
<path d="M46.892 63.39C46.892 63.39 43.618 63.68 41.91 60.747C41.7497 60.4702 41.5314 60.2314 41.27 60.047C40.821 59.731 40.149 59.533 39.455 60.326C39.455 60.326 38.327 58.833 37.494 59.686C37.494 59.686 36.9 60.439 37.694 61.708C37.694 61.708 36.425 62.235 37.682 64.454C37.875 64.795 38.063 65.139 38.23 65.493C38.906 66.919 41.31 70.968 47.04 71.556C47.4136 71.596 47.7679 71.7421 48.061 71.977L61.645 82.762C62.8964 83.7648 64.3581 84.472 65.921 84.831C68.157 85.331 72.182 85.069 74.265 82.165C75.4881 80.4356 76.0163 78.3097 75.745 76.209L75.114 71.079L63.8 72.933L52.379 65.772C51.9978 65.5318 51.6872 65.1946 51.479 64.795C50.816 63.53 49.146 60.595 47.293 59.318C47.229 59.274 47.166 59.231 47.104 59.185C46.704 58.885 46.204 58.637 45.699 58.629C44.899 58.617 44.221 59.356 44.715 60.106C44.932 60.436 45.281 60.706 45.604 60.928C45.939 61.1558 46.2238 61.4497 46.4412 61.7915C46.6585 62.1334 46.8038 62.516 46.868 62.916C46.8918 63.0728 46.8999 63.2316 46.892 63.39V63.39Z" fill="white"/>
<path d="M43.34 65.474C43.3094 65.4738 43.2793 65.4666 43.252 65.453C42.7198 65.1937 42.2212 64.8707 41.767 64.491C40.228 63.2 39.555 61.539 39.261 60.373C39.2477 60.3215 39.2554 60.2669 39.2824 60.2212C39.3095 60.1754 39.3535 60.1423 39.405 60.129C39.4564 60.1157 39.511 60.1235 39.5568 60.1505C39.6026 60.1775 39.6357 60.2215 39.649 60.273C39.928 61.382 40.567 62.96 42.024 64.183C42.452 64.5417 42.9222 64.8469 43.424 65.092C43.4648 65.1118 43.4977 65.1448 43.5172 65.1857C43.5368 65.2266 43.5419 65.2729 43.5317 65.3171C43.5214 65.3613 43.4965 65.4007 43.4609 65.4288C43.4254 65.457 43.3813 65.4722 43.336 65.472L43.34 65.474Z" fill="black"/>
<path d="M42.0561 67.164C42.0251 67.1644 41.9946 67.1572 41.9671 67.143C41.6987 67.0223 41.4489 66.8641 41.2251 66.673C41.1481 66.611 41.0511 66.534 40.9251 66.432C39.4251 65.271 38.2471 63.662 37.5111 61.779C37.5001 61.7543 37.4943 61.7277 37.4939 61.7007C37.4935 61.6737 37.4986 61.6469 37.5089 61.6219C37.5192 61.597 37.5344 61.5743 37.5536 61.5554C37.5728 61.5365 37.5957 61.5216 37.6208 61.5118C37.646 61.5019 37.6728 61.4972 37.6998 61.498C37.7268 61.4988 37.7533 61.5051 37.7778 61.5164C37.8023 61.5277 37.8243 61.5439 37.8424 61.5639C37.8605 61.584 37.8743 61.6075 37.8831 61.633C38.5941 63.449 39.7301 64.999 41.1701 66.116C41.3031 66.216 41.4011 66.298 41.4791 66.361C41.6808 66.5347 41.9068 66.6779 42.1501 66.786C42.1899 66.8064 42.2218 66.8396 42.2405 66.8803C42.2593 66.921 42.2638 66.9668 42.2535 67.0103C42.2431 67.0539 42.2184 67.0927 42.1833 67.1206C42.1483 67.1484 42.1049 67.1637 42.0601 67.164H42.0561Z" fill="black"/>
<path d="M47.894 86.682H31.08V83.053H47.894C48.1175 83.0533 48.3317 83.1422 48.4898 83.3002C48.6478 83.4582 48.7367 83.6725 48.737 83.896V85.84C48.7367 86.0634 48.6478 86.2776 48.4897 86.4354C48.3316 86.5933 48.1174 86.682 47.894 86.682V86.682Z" fill="black"/>
<path d="M32.974 86.682H13.305C12.9386 86.6857 12.5807 86.5709 12.2848 86.3546C11.9889 86.1384 11.7708 85.8323 11.663 85.482L6.84604 69.152C6.53404 68.094 7.35304 67.04 8.48804 67.04H27.04C27.4226 67.0365 27.7952 67.1621 28.0975 67.3966C28.3998 67.631 28.6142 67.9606 28.706 68.332L32.974 86.682Z" fill="black"/>
<path d="M18.689 81.136C20.1945 81.136 21.415 79.9155 21.415 78.41C21.415 76.9045 20.1945 75.684 18.689 75.684C17.1835 75.684 15.963 76.9045 15.963 78.41C15.963 79.9155 17.1835 81.136 18.689 81.136Z" fill="#FFC1EB"/>
<path d="M18.09 76.465C18.0452 76.4649 18.0018 76.4498 17.9666 76.422C17.9314 76.3943 17.9066 76.3555 17.896 76.312L17.57 74.977C17.5638 74.9515 17.5627 74.9249 17.5667 74.8989C17.5707 74.873 17.5798 74.848 17.5934 74.8256C17.6071 74.8031 17.625 74.7835 17.6462 74.768C17.6674 74.7524 17.6915 74.7412 17.717 74.735C17.7426 74.7288 17.7691 74.7276 17.7951 74.7316C17.8211 74.7356 17.846 74.7447 17.8685 74.7584C17.891 74.772 17.9105 74.79 17.9261 74.8112C17.9416 74.8324 17.9528 74.8565 17.959 74.882L18.284 76.217C18.2913 76.2464 18.2918 76.2772 18.2855 76.3068C18.2791 76.3365 18.2661 76.3643 18.2474 76.3882C18.2287 76.4121 18.2048 76.4314 18.1776 76.4447C18.1503 76.458 18.1204 76.465 18.09 76.465V76.465Z" fill="#6DC8C2"/>
<path d="M77.337 70.941L64.047 73.165L59.167 48.235L62.631 48.284C64.7801 48.3025 66.8667 49.009 68.585 50.3C69.4805 50.9764 70.2422 51.8137 70.831 52.769C71.2538 53.4631 71.5798 54.2117 71.8 54.994L77.337 70.941Z" fill="black"/>
<path d="M83.124 42.153H68.497C67.5073 42.153 66.705 42.9553 66.705 43.945V53.302C66.705 54.2917 67.5073 55.094 68.497 55.094H83.124C84.1137 55.094 84.916 54.2917 84.916 53.302V43.945C84.916 42.9553 84.1137 42.153 83.124 42.153Z" fill="white"/>
<path d="M83.124 55.294H68.5C67.9715 55.2927 67.465 55.0822 67.0911 54.7086C66.7173 54.3349 66.5066 53.8285 66.505 53.3V43.946C66.5069 43.4176 66.7177 42.9115 67.0915 42.5381C67.4653 42.1647 67.9717 41.9543 68.5 41.953H83.124C83.652 41.9548 84.1579 42.1654 84.5312 42.5388C84.9046 42.9121 85.1152 43.418 85.117 43.946V53.3C85.1154 53.8282 84.905 54.3343 84.5316 54.7079C84.1582 55.0815 83.6522 55.2922 83.124 55.294V55.294ZM68.5 42.353C68.0783 42.3551 67.6744 42.5236 67.3763 42.822C67.0781 43.1203 66.9098 43.5243 66.908 43.946V53.3C66.908 53.7224 67.0757 54.1276 67.3742 54.4264C67.6727 54.7253 68.0776 54.8935 68.5 54.894H83.124C83.5466 54.8937 83.9518 54.7257 84.2505 54.4268C84.5492 54.1279 84.717 53.7226 84.717 53.3V43.946C84.7152 43.5241 84.5467 43.12 84.2484 42.8216C83.95 42.5233 83.5459 42.3548 83.124 42.353H68.5Z" fill="black"/>
<path d="M82.506 46.628H77.079C77.026 46.628 76.9751 46.6069 76.9376 46.5694C76.9001 46.5319 76.879 46.481 76.879 46.428C76.879 46.375 76.9001 46.3241 76.9376 46.2866C76.9751 46.2491 77.026 46.228 77.079 46.228H82.506C82.5591 46.228 82.6099 46.2491 82.6474 46.2866C82.685 46.3241 82.706 46.375 82.706 46.428C82.706 46.481 82.685 46.5319 82.6474 46.5694C82.6099 46.6069 82.5591 46.628 82.506 46.628Z" fill="black"/>
<path d="M82.506 48.824H77.079C77.026 48.824 76.9751 48.8029 76.9376 48.7654C76.9001 48.7279 76.879 48.677 76.879 48.624C76.879 48.571 76.9001 48.5201 76.9376 48.4826C76.9751 48.4451 77.026 48.424 77.079 48.424H82.506C82.5591 48.424 82.6099 48.4451 82.6474 48.4826C82.685 48.5201 82.706 48.571 82.706 48.624C82.706 48.677 82.685 48.7279 82.6474 48.7654C82.6099 48.8029 82.5591 48.824 82.506 48.824Z" fill="black"/>
<path d="M80.612 51.019H77.079C77.026 51.019 76.9751 50.9979 76.9376 50.9604C76.9001 50.9229 76.879 50.872 76.879 50.819C76.879 50.766 76.9001 50.7151 76.9376 50.6776C76.9751 50.6401 77.026 50.619 77.079 50.619H80.612C80.6651 50.619 80.7159 50.6401 80.7535 50.6776C80.791 50.7151 80.812 50.766 80.812 50.819C80.812 50.872 80.791 50.9229 80.7535 50.9604C80.7159 50.9979 80.6651 51.019 80.612 51.019Z" fill="black"/>
<path d="M70.9 45.575C70.911 45.8137 71.0137 46.0389 71.1865 46.2039C71.3593 46.3689 71.589 46.4609 71.828 46.4609C72.0669 46.4609 72.2966 46.3689 72.4695 46.2039C72.6423 46.0389 72.7449 45.8137 72.756 45.575C72.756 45.575 74.664 45.262 74.69 48H73.749V51.684H69.825V48H68.736C68.736 48 68.788 45.371 70.9 45.575Z" fill="#C7B8F8"/>
<path d="M66.949 74.815C66.914 74.8158 66.8795 74.8072 66.849 74.79L63.874 73.148C63.8298 73.1213 63.7976 73.0785 63.7843 73.0286C63.7709 72.9786 63.7774 72.9255 63.8023 72.8802C63.8273 72.835 63.8688 72.8012 63.9181 72.7858C63.9675 72.7705 64.0208 72.7749 64.067 72.798L67.042 74.44C67.0811 74.4616 67.1118 74.4956 67.1293 74.5367C67.1467 74.5777 67.15 74.6234 67.1385 74.6666C67.127 74.7097 67.1014 74.7477 67.0658 74.7746C67.0302 74.8015 66.9866 74.8157 66.942 74.815H66.949Z" fill="black"/>
<path d="M35.025 49.16H11.044C10.991 49.16 10.9401 49.1389 10.9026 49.1014C10.8651 49.0639 10.844 49.013 10.844 48.96C10.844 48.907 10.8651 48.8561 10.9026 48.8186C10.9401 48.7811 10.991 48.76 11.044 48.76H35.025C35.078 48.76 35.1289 48.7811 35.1664 48.8186C35.2039 48.8561 35.225 48.907 35.225 48.96C35.225 49.013 35.2039 49.0639 35.1664 49.1014C35.1289 49.1389 35.078 49.16 35.025 49.16Z" fill="black"/>
<path d="M27.652 48.671C29.6143 48.671 31.205 47.0803 31.205 45.118C31.205 43.1557 29.6143 41.565 27.652 41.565C25.6897 41.565 24.099 43.1557 24.099 45.118C24.099 47.0803 25.6897 48.671 27.652 48.671Z" fill="white"/>
<path d="M20.408 49.007H15.3C14.8279 49.0065 14.3752 48.8187 14.0413 48.4848C13.7074 48.1509 13.5196 47.6982 13.519 47.226V39.883C13.519 39.4105 13.7066 38.9573 14.0406 38.6229C14.3745 38.2886 14.8275 38.1005 15.3 38.1H20.411C20.8832 38.1005 21.3359 38.2883 21.6698 38.6222C22.0037 38.9561 22.1915 39.4088 22.192 39.881V47.224C22.192 47.4582 22.1459 47.6902 22.0562 47.9066C21.9666 48.1229 21.8351 48.3195 21.6695 48.4851C21.5038 48.6507 21.3071 48.782 21.0907 48.8716C20.8742 48.9611 20.6423 49.0071 20.408 49.007ZM15.3 38.5C14.9339 38.5005 14.583 38.6462 14.3241 38.9051C14.0652 39.1639 13.9196 39.5149 13.919 39.881V47.224C13.9189 47.4055 13.9545 47.5852 14.0239 47.7529C14.0932 47.9207 14.1949 48.0731 14.3231 48.2015C14.4514 48.3299 14.6036 48.4318 14.7713 48.5014C14.9389 48.571 15.1186 48.6069 15.3 48.607H20.411C20.7771 48.6065 21.1281 48.4608 21.387 48.2019C21.6458 47.9431 21.7915 47.5921 21.792 47.226V39.883C21.792 39.7013 21.7562 39.5214 21.6867 39.3535C21.6171 39.1857 21.5151 39.0332 21.3866 38.9047C21.2581 38.7763 21.1055 38.6744 20.9376 38.605C20.7697 38.5355 20.5897 38.4999 20.408 38.5H15.3Z" fill="black"/>
<path d="M21.883 46.369H13.716C13.6629 46.369 13.6121 46.3479 13.5746 46.3104C13.5371 46.2729 13.516 46.222 13.516 46.169C13.516 46.1159 13.5371 46.0651 13.5746 46.0276C13.6121 45.9901 13.6629 45.969 13.716 45.969H21.883C21.936 45.969 21.9869 45.9901 22.0244 46.0276C22.0619 46.0651 22.083 46.1159 22.083 46.169C22.083 46.222 22.0619 46.2729 22.0244 46.3104C21.9869 46.3479 21.936 46.369 21.883 46.369V46.369Z" fill="black"/>
<path d="M17 48.052C17.2679 48.052 17.485 47.8349 17.485 47.567C17.485 47.2991 17.2679 47.082 17 47.082C16.7322 47.082 16.515 47.2991 16.515 47.567C16.515 47.8349 16.7322 48.052 17 48.052Z" fill="white"/>
<path d="M18.702 48.052C18.9699 48.052 19.187 47.8349 19.187 47.567C19.187 47.2991 18.9699 47.082 18.702 47.082C18.4342 47.082 18.217 47.2991 18.217 47.567C18.217 47.8349 18.4342 48.052 18.702 48.052Z" fill="white"/>
<path d="M26.9069 42.494C26.8613 42.4939 26.817 42.4781 26.7816 42.4494C26.7461 42.4206 26.7215 42.3806 26.7119 42.336C26.1919 39.936 26.7789 38.294 27.3629 37.336C28.0009 36.295 28.7629 35.83 28.7919 35.811C28.8374 35.7837 28.8919 35.7755 28.9434 35.7884C28.9949 35.8012 29.0391 35.834 29.0664 35.8795C29.0938 35.925 29.1019 35.9795 29.089 36.0309C29.0762 36.0824 29.0434 36.1267 28.9979 36.154C28.8779 36.227 26.1679 37.932 27.0979 42.248C27.1089 42.2997 27.099 42.3537 27.0703 42.3981C27.0417 42.4425 26.9966 42.4737 26.9449 42.485C26.9326 42.4891 26.9199 42.4921 26.9069 42.494V42.494Z" fill="black"/>
<path d="M31.4 36.1L30.539 35.913C30.532 35.866 30.523 35.813 30.512 35.772L31.264 35.35C31.4058 35.2545 31.5065 35.1091 31.5461 34.9427C31.5857 34.7763 31.5612 34.6012 31.4776 34.452C31.3939 34.3028 31.2572 34.1906 31.0946 34.1376C30.932 34.0846 30.7554 34.0948 30.6 34.166L29.809 34.61C29.796 34.617 29.786 34.626 29.774 34.634C29.736 34.606 29.697 34.579 29.657 34.554L29.831 33.749C29.869 33.5726 29.8354 33.3884 29.7376 33.2367C29.6398 33.0851 29.4858 32.9786 29.3095 32.9405C29.1331 32.9024 28.9488 32.936 28.7972 33.0338C28.6456 33.1316 28.539 33.2856 28.501 33.462L28.327 34.262C28.2596 34.271 28.1929 34.2837 28.127 34.3C28.1126 34.2732 28.0969 34.2472 28.08 34.222L27.534 33.5C27.4253 33.356 27.264 33.261 27.0853 33.236C26.9067 33.2109 26.7255 33.2579 26.5815 33.3665C26.4374 33.4751 26.3425 33.6365 26.3174 33.8151C26.2924 33.9937 26.3393 34.175 26.448 34.319L26.994 35.044C26.994 35.05 27.004 35.054 27.009 35.06C26.99 35.086 26.974 35.113 26.956 35.139L26.123 34.959C25.9466 34.921 25.7624 34.9545 25.6107 35.0521C25.459 35.1498 25.3523 35.3037 25.314 35.48V35.48C25.295 35.5673 25.2934 35.6575 25.3093 35.7455C25.3253 35.8334 25.3584 35.9174 25.4068 35.9925C25.4551 36.0676 25.5179 36.1325 25.5913 36.1834C25.6648 36.2342 25.7476 36.2701 25.835 36.289L26.661 36.468C26.661 36.488 26.666 36.508 26.669 36.528H26.662L25.87 36.972C25.7195 37.0639 25.6105 37.2105 25.566 37.381C25.5214 37.5515 25.5447 37.7327 25.6309 37.8864C25.7172 38.0402 25.8597 38.1545 26.0285 38.2053C26.1972 38.2561 26.3792 38.2395 26.536 38.159L27.328 37.715C27.334 37.715 27.338 37.707 27.344 37.704C27.4075 37.7571 27.4743 37.8062 27.544 37.851L27.371 38.651C27.3496 38.7393 27.3462 38.831 27.3608 38.9206C27.3755 39.0103 27.4079 39.0961 27.4562 39.173C27.5045 39.2499 27.5678 39.3164 27.6421 39.3685C27.7165 39.4206 27.8006 39.4574 27.8894 39.4765C27.9782 39.4957 28.0699 39.4968 28.1592 39.48C28.2484 39.4632 28.3334 39.4286 28.4091 39.3785C28.4849 39.3283 28.5498 39.2635 28.6001 39.1878C28.6503 39.1122 28.685 39.0272 28.702 38.938L28.874 38.138C28.924 38.131 28.974 38.122 29.023 38.111L29.552 38.811C29.6027 38.8889 29.6689 38.9555 29.7464 39.0069C29.8239 39.0582 29.9111 39.0932 30.0026 39.1095C30.0941 39.1259 30.188 39.1234 30.2785 39.1021C30.369 39.0808 30.4541 39.0412 30.5288 38.9857C30.6034 38.9302 30.6658 38.8601 30.7123 38.7796C30.7588 38.6991 30.7883 38.6099 30.799 38.5175C30.8097 38.4252 30.8013 38.3316 30.7745 38.2426C30.7477 38.1536 30.7029 38.071 30.643 38L30.173 37.375C30.203 37.334 30.232 37.292 30.259 37.248L31.112 37.433C31.1993 37.452 31.2895 37.4535 31.3774 37.4376C31.4654 37.4217 31.5493 37.3886 31.6244 37.3402C31.6996 37.2918 31.7644 37.2291 31.8153 37.1556C31.8662 37.0821 31.9021 36.9993 31.921 36.912V36.912C31.9404 36.8244 31.9423 36.7339 31.9265 36.6457C31.9108 36.5574 31.8778 36.4731 31.8294 36.3976C31.781 36.3221 31.7181 36.257 31.6444 36.2059C31.5707 36.1548 31.4876 36.1188 31.4 36.1V36.1Z" fill="#FFC1EB"/>
<path d="M31.4 36.1L30.539 35.913C30.532 35.866 30.523 35.813 30.512 35.772L31.264 35.35C31.4058 35.2545 31.5065 35.1091 31.5461 34.9427C31.5857 34.7763 31.5612 34.6012 31.4776 34.452C31.3939 34.3028 31.2572 34.1906 31.0946 34.1376C30.932 34.0846 30.7554 34.0948 30.6 34.166L29.809 34.61C29.796 34.617 29.786 34.626 29.774 34.634C29.736 34.606 29.697 34.579 29.657 34.554L29.831 33.749C29.869 33.5726 29.8354 33.3884 29.7376 33.2367C29.6398 33.0851 29.4858 32.9786 29.3095 32.9405C29.1331 32.9024 28.9488 32.936 28.7972 33.0338C28.6456 33.1316 28.539 33.2856 28.501 33.462L28.327 34.262C28.2596 34.271 28.1929 34.2837 28.127 34.3C28.1126 34.2732 28.0969 34.2472 28.08 34.222L27.534 33.5C27.4253 33.356 27.264 33.261 27.0853 33.236C26.9067 33.2109 26.7255 33.2579 26.5815 33.3665C26.4374 33.4751 26.3425 33.6365 26.3174 33.8151C26.2924 33.9937 26.3393 34.175 26.448 34.319L26.994 35.044C26.994 35.05 27.004 35.054 27.009 35.06C26.99 35.086 26.974 35.113 26.956 35.139L26.123 34.959C25.9466 34.921 25.7624 34.9545 25.6107 35.0521C25.459 35.1498 25.3523 35.3037 25.314 35.48V35.48C25.295 35.5673 25.2934 35.6575 25.3093 35.7455C25.3253 35.8334 25.3584 35.9174 25.4068 35.9925C25.4551 36.0676 25.5179 36.1325 25.5913 36.1834C25.6648 36.2342 25.7476 36.2701 25.835 36.289L26.661 36.468C26.661 36.488 26.666 36.508 26.669 36.528H26.662L25.87 36.972C25.7195 37.0639 25.6105 37.2105 25.566 37.381C25.5214 37.5515 25.5447 37.7327 25.6309 37.8864C25.7172 38.0402 25.8597 38.1545 26.0285 38.2053C26.1972 38.2561 26.3792 38.2395 26.536 38.159L27.328 37.715C27.334 37.715 27.338 37.707 27.344 37.704C27.4075 37.7571 27.4743 37.8062 27.544 37.851L27.371 38.651C27.3496 38.7393 27.3462 38.831 27.3608 38.9206C27.3755 39.0103 27.4079 39.0961 27.4562 39.173C27.5045 39.2499 27.5678 39.3164 27.6421 39.3685C27.7165 39.4206 27.8006 39.4574 27.8894 39.4765C27.9782 39.4957 28.0699 39.4968 28.1592 39.48C28.2484 39.4632 28.3334 39.4286 28.4091 39.3785C28.4849 39.3283 28.5498 39.2635 28.6001 39.1878C28.6503 39.1122 28.685 39.0272 28.702 38.938L28.874 38.138C28.924 38.131 28.974 38.122 29.023 38.111L29.552 38.811C29.6027 38.8889 29.6689 38.9555 29.7464 39.0069C29.8239 39.0582 29.9111 39.0932 30.0026 39.1095C30.0941 39.1259 30.188 39.1234 30.2785 39.1021C30.369 39.0808 30.4541 39.0412 30.5288 38.9857C30.6034 38.9302 30.6658 38.8601 30.7123 38.7796C30.7588 38.6991 30.7883 38.6099 30.799 38.5175C30.8097 38.4252 30.8013 38.3316 30.7745 38.2426C30.7477 38.1536 30.7029 38.071 30.643 38L30.173 37.375C30.203 37.334 30.232 37.292 30.259 37.248L31.112 37.433C31.1993 37.452 31.2895 37.4535 31.3774 37.4376C31.4654 37.4217 31.5493 37.3886 31.6244 37.3402C31.6996 37.2918 31.7644 37.2291 31.8153 37.1556C31.8662 37.0821 31.9021 36.9993 31.921 36.912V36.912C31.9404 36.8244 31.9423 36.7339 31.9265 36.6457C31.9108 36.5574 31.8778 36.4731 31.8294 36.3976C31.781 36.3221 31.7181 36.257 31.6444 36.2059C31.5707 36.1548 31.4876 36.1188 31.4 36.1V36.1Z" fill="#FFC1EB"/>
<path d="M31.4 36.1L30.539 35.913C30.532 35.866 30.523 35.813 30.512 35.772L31.264 35.35C31.4058 35.2545 31.5065 35.1091 31.5461 34.9427C31.5857 34.7763 31.5612 34.6012 31.4776 34.452C31.3939 34.3028 31.2572 34.1906 31.0946 34.1376C30.932 34.0846 30.7554 34.0948 30.6 34.166L29.809 34.61C29.796 34.617 29.786 34.626 29.774 34.634C29.736 34.606 29.697 34.579 29.657 34.554L29.831 33.749C29.869 33.5726 29.8354 33.3884 29.7376 33.2367C29.6398 33.0851 29.4858 32.9786 29.3095 32.9405C29.1331 32.9024 28.9488 32.936 28.7972 33.0338C28.6456 33.1316 28.539 33.2856 28.501 33.462L28.327 34.262C28.2596 34.271 28.1929 34.2837 28.127 34.3C28.1126 34.2732 28.0969 34.2472 28.08 34.222L27.534 33.5C27.4253 33.356 27.264 33.261 27.0853 33.236C26.9067 33.2109 26.7255 33.2579 26.5815 33.3665C26.4374 33.4751 26.3425 33.6365 26.3174 33.8151C26.2924 33.9937 26.3393 34.175 26.448 34.319L26.994 35.044C26.994 35.05 27.004 35.054 27.009 35.06C26.99 35.086 26.974 35.113 26.956 35.139L26.123 34.959C25.9466 34.921 25.7624 34.9545 25.6107 35.0521C25.459 35.1498 25.3523 35.3037 25.314 35.48V35.48C25.295 35.5673 25.2934 35.6575 25.3093 35.7455C25.3253 35.8334 25.3584 35.9174 25.4068 35.9925C25.4551 36.0676 25.5179 36.1325 25.5913 36.1834C25.6648 36.2342 25.7476 36.2701 25.835 36.289L26.661 36.468C26.661 36.488 26.666 36.508 26.669 36.528H26.662L25.87 36.972C25.7195 37.0639 25.6105 37.2105 25.566 37.381C25.5214 37.5515 25.5447 37.7327 25.6309 37.8864C25.7172 38.0402 25.8597 38.1545 26.0285 38.2053C26.1972 38.2561 26.3792 38.2395 26.536 38.159L27.328 37.715C27.334 37.715 27.338 37.707 27.344 37.704C27.4075 37.7571 27.4743 37.8062 27.544 37.851L27.371 38.651C27.3496 38.7393 27.3462 38.831 27.3608 38.9206C27.3755 39.0103 27.4079 39.0961 27.4562 39.173C27.5045 39.2499 27.5678 39.3164 27.6421 39.3685C27.7165 39.4206 27.8006 39.4574 27.8894 39.4765C27.9782 39.4957 28.0699 39.4968 28.1592 39.48C28.2484 39.4632 28.3334 39.4286 28.4091 39.3785C28.4849 39.3283 28.5498 39.2635 28.6001 39.1878C28.6503 39.1122 28.685 39.0272 28.702 38.938L28.874 38.138C28.924 38.131 28.974 38.122 29.023 38.111L29.552 38.811C29.6027 38.8889 29.6689 38.9555 29.7464 39.0069C29.8239 39.0582 29.9111 39.0932 30.0026 39.1095C30.0941 39.1259 30.188 39.1234 30.2785 39.1021C30.369 39.0808 30.4541 39.0412 30.5288 38.9857C30.6034 38.9302 30.6658 38.8601 30.7123 38.7796C30.7588 38.6991 30.7883 38.6099 30.799 38.5175C30.8097 38.4252 30.8013 38.3316 30.7745 38.2426C30.7477 38.1536 30.7029 38.071 30.643 38L30.173 37.375C30.203 37.334 30.232 37.292 30.259 37.248L31.112 37.433C31.1993 37.452 31.2895 37.4535 31.3774 37.4376C31.4654 37.4217 31.5493 37.3886 31.6244 37.3402C31.6996 37.2918 31.7644 37.2291 31.8153 37.1556C31.8662 37.0821 31.9021 36.9993 31.921 36.912V36.912C31.9404 36.8244 31.9423 36.7339 31.9265 36.6457C31.9108 36.5574 31.8778 36.4731 31.8294 36.3976C31.781 36.3221 31.7181 36.257 31.6444 36.2059C31.5707 36.1548 31.4876 36.1188 31.4 36.1V36.1Z" fill="#FFC1EB"/>
<path d="M31.4 36.1L30.539 35.913C30.532 35.866 30.523 35.813 30.512 35.772L31.264 35.35C31.4058 35.2545 31.5065 35.1091 31.5461 34.9427C31.5857 34.7763 31.5612 34.6012 31.4776 34.452C31.3939 34.3028 31.2572 34.1906 31.0946 34.1376C30.932 34.0846 30.7554 34.0948 30.6 34.166L29.809 34.61C29.796 34.617 29.786 34.626 29.774 34.634C29.736 34.606 29.697 34.579 29.657 34.554L29.831 33.749C29.869 33.5726 29.8354 33.3884 29.7376 33.2367C29.6398 33.0851 29.4858 32.9786 29.3095 32.9405C29.1331 32.9024 28.9488 32.936 28.7972 33.0338C28.6456 33.1316 28.539 33.2856 28.501 33.462L28.327 34.262C28.2596 34.271 28.1929 34.2837 28.127 34.3C28.1126 34.2732 28.0969 34.2472 28.08 34.222L27.534 33.5C27.4253 33.356 27.264 33.261 27.0853 33.236C26.9067 33.2109 26.7255 33.2579 26.5815 33.3665C26.4374 33.4751 26.3425 33.6365 26.3174 33.8151C26.2924 33.9937 26.3393 34.175 26.448 34.319L26.994 35.044C26.994 35.05 27.004 35.054 27.009 35.06C26.99 35.086 26.974 35.113 26.956 35.139L26.123 34.959C25.9466 34.921 25.7624 34.9545 25.6107 35.0521C25.459 35.1498 25.3523 35.3037 25.314 35.48V35.48C25.295 35.5673 25.2934 35.6575 25.3093 35.7455C25.3253 35.8334 25.3584 35.9174 25.4068 35.9925C25.4551 36.0676 25.5179 36.1325 25.5913 36.1834C25.6648 36.2342 25.7476 36.2701 25.835 36.289L26.661 36.468C26.661 36.488 26.666 36.508 26.669 36.528H26.662L25.87 36.972C25.7195 37.0639 25.6105 37.2105 25.566 37.381C25.5214 37.5515 25.5447 37.7327 25.6309 37.8864C25.7172 38.0402 25.8597 38.1545 26.0285 38.2053C26.1972 38.2561 26.3792 38.2395 26.536 38.159L27.328 37.715C27.334 37.715 27.338 37.707 27.344 37.704C27.4075 37.7571 27.4743 37.8062 27.544 37.851L27.371 38.651C27.3496 38.7393 27.3462 38.831 27.3608 38.9206C27.3755 39.0103 27.4079 39.0961 27.4562 39.173C27.5045 39.2499 27.5678 39.3164 27.6421 39.3685C27.7165 39.4206 27.8006 39.4574 27.8894 39.4765C27.9782 39.4957 28.0699 39.4968 28.1592 39.48C28.2484 39.4632 28.3334 39.4286 28.4091 39.3785C28.4849 39.3283 28.5498 39.2635 28.6001 39.1878C28.6503 39.1122 28.685 39.0272 28.702 38.938L28.874 38.138C28.924 38.131 28.974 38.122 29.023 38.111L29.552 38.811C29.6027 38.8889 29.6689 38.9555 29.7464 39.0069C29.8239 39.0582 29.9111 39.0932 30.0026 39.1095C30.0941 39.1259 30.188 39.1234 30.2785 39.1021C30.369 39.0808 30.4541 39.0412 30.5288 38.9857C30.6034 38.9302 30.6658 38.8601 30.7123 38.7796C30.7588 38.6991 30.7883 38.6099 30.799 38.5175C30.8097 38.4252 30.8013 38.3316 30.7745 38.2426C30.7477 38.1536 30.7029 38.071 30.643 38L30.173 37.375C30.203 37.334 30.232 37.292 30.259 37.248L31.112 37.433C31.1993 37.452 31.2895 37.4535 31.3774 37.4376C31.4654 37.4217 31.5493 37.3886 31.6244 37.3402C31.6996 37.2918 31.7644 37.2291 31.8153 37.1556C31.8662 37.0821 31.9021 36.9993 31.921 36.912V36.912C31.9404 36.8244 31.9423 36.7339 31.9265 36.6457C31.9108 36.5574 31.8778 36.4731 31.8294 36.3976C31.781 36.3221 31.7181 36.257 31.6444 36.2059C31.5707 36.1548 31.4876 36.1188 31.4 36.1V36.1Z" fill="#FFC1EB"/>
<path d="M31.4 36.1L30.539 35.913C30.532 35.866 30.523 35.813 30.512 35.772L31.264 35.35C31.4058 35.2545 31.5065 35.1091 31.5461 34.9427C31.5857 34.7763 31.5612 34.6012 31.4776 34.452C31.3939 34.3028 31.2572 34.1906 31.0946 34.1376C30.932 34.0846 30.7554 34.0948 30.6 34.166L29.809 34.61C29.796 34.617 29.786 34.626 29.774 34.634C29.736 34.606 29.697 34.579 29.657 34.554L29.831 33.749C29.869 33.5726 29.8354 33.3884 29.7376 33.2367C29.6398 33.0851 29.4858 32.9786 29.3095 32.9405C29.1331 32.9024 28.9488 32.936 28.7972 33.0338C28.6456 33.1316 28.539 33.2856 28.501 33.462L28.327 34.262C28.2596 34.271 28.1929 34.2837 28.127 34.3C28.1126 34.2732 28.0969 34.2472 28.08 34.222L27.534 33.5C27.4253 33.356 27.264 33.261 27.0853 33.236C26.9067 33.2109 26.7255 33.2579 26.5815 33.3665C26.4374 33.4751 26.3425 33.6365 26.3174 33.8151C26.2924 33.9937 26.3393 34.175 26.448 34.319L26.994 35.044C26.994 35.05 27.004 35.054 27.009 35.06C26.99 35.086 26.974 35.113 26.956 35.139L26.123 34.959C25.9466 34.921 25.7624 34.9545 25.6107 35.0521C25.459 35.1498 25.3523 35.3037 25.314 35.48V35.48C25.295 35.5673 25.2934 35.6575 25.3093 35.7455C25.3253 35.8334 25.3584 35.9174 25.4068 35.9925C25.4551 36.0676 25.5179 36.1325 25.5913 36.1834C25.6648 36.2342 25.7476 36.2701 25.835 36.289L26.661 36.468C26.661 36.488 26.666 36.508 26.669 36.528H26.662L25.87 36.972C25.7195 37.0639 25.6105 37.2105 25.566 37.381C25.5214 37.5515 25.5447 37.7327 25.6309 37.8864C25.7172 38.0402 25.8597 38.1545 26.0285 38.2053C26.1972 38.2561 26.3792 38.2395 26.536 38.159L27.328 37.715C27.334 37.715 27.338 37.707 27.344 37.704C27.4075 37.7571 27.4743 37.8062 27.544 37.851L27.371 38.651C27.3496 38.7393 27.3462 38.831 27.3608 38.9206C27.3755 39.0103 27.4079 39.0961 27.4562 39.173C27.5045 39.2499 27.5678 39.3164 27.6421 39.3685C27.7165 39.4206 27.8006 39.4574 27.8894 39.4765C27.9782 39.4957 28.0699 39.4968 28.1592 39.48C28.2484 39.4632 28.3334 39.4286 28.4091 39.3785C28.4849 39.3283 28.5498 39.2635 28.6001 39.1878C28.6503 39.1122 28.685 39.0272 28.702 38.938L28.874 38.138C28.924 38.131 28.974 38.122 29.023 38.111L29.552 38.811C29.6027 38.8889 29.6689 38.9555 29.7464 39.0069C29.8239 39.0582 29.9111 39.0932 30.0026 39.1095C30.0941 39.1259 30.188 39.1234 30.2785 39.1021C30.369 39.0808 30.4541 39.0412 30.5288 38.9857C30.6034 38.9302 30.6658 38.8601 30.7123 38.7796C30.7588 38.6991 30.7883 38.6099 30.799 38.5175C30.8097 38.4252 30.8013 38.3316 30.7745 38.2426C30.7477 38.1536 30.7029 38.071 30.643 38L30.173 37.375C30.203 37.334 30.232 37.292 30.259 37.248L31.112 37.433C31.1993 37.452 31.2895 37.4535 31.3774 37.4376C31.4654 37.4217 31.5493 37.3886 31.6244 37.3402C31.6996 37.2918 31.7644 37.2291 31.8153 37.1556C31.8662 37.0821 31.9021 36.9993 31.921 36.912V36.912C31.9404 36.8244 31.9423 36.7339 31.9265 36.6457C31.9108 36.5574 31.8778 36.4731 31.8294 36.3976C31.781 36.3221 31.7181 36.257 31.6444 36.2059C31.5707 36.1548 31.4876 36.1188 31.4 36.1V36.1Z" fill="#FFC1EB"/>
<path d="M31.4 36.1L30.539 35.913C30.532 35.866 30.523 35.813 30.512 35.772L31.264 35.35C31.4058 35.2545 31.5065 35.1091 31.5461 34.9427C31.5857 34.7763 31.5612 34.6012 31.4776 34.452C31.3939 34.3028 31.2572 34.1906 31.0946 34.1376C30.932 34.0846 30.7554 34.0948 30.6 34.166L29.809 34.61C29.796 34.617 29.786 34.626 29.774 34.634C29.736 34.606 29.697 34.579 29.657 34.554L29.831 33.749C29.869 33.5726 29.8354 33.3884 29.7376 33.2367C29.6398 33.0851 29.4858 32.9786 29.3095 32.9405C29.1331 32.9024 28.9488 32.936 28.7972 33.0338C28.6456 33.1316 28.539 33.2856 28.501 33.462L28.327 34.262C28.2596 34.271 28.1929 34.2837 28.127 34.3C28.1126 34.2732 28.0969 34.2472 28.08 34.222L27.534 33.5C27.4253 33.356 27.264 33.261 27.0853 33.236C26.9067 33.2109 26.7255 33.2579 26.5815 33.3665C26.4374 33.4751 26.3425 33.6365 26.3174 33.8151C26.2924 33.9937 26.3393 34.175 26.448 34.319L26.994 35.044C26.994 35.05 27.004 35.054 27.009 35.06C26.99 35.086 26.974 35.113 26.956 35.139L26.123 34.959C25.9466 34.921 25.7624 34.9545 25.6107 35.0521C25.459 35.1498 25.3523 35.3037 25.314 35.48V35.48C25.295 35.5673 25.2934 35.6575 25.3093 35.7455C25.3253 35.8334 25.3584 35.9174 25.4068 35.9925C25.4551 36.0676 25.5179 36.1325 25.5913 36.1834C25.6648 36.2342 25.7476 36.2701 25.835 36.289L26.661 36.468C26.661 36.488 26.666 36.508 26.669 36.528H26.662L25.87 36.972C25.7195 37.0639 25.6105 37.2105 25.566 37.381C25.5214 37.5515 25.5447 37.7327 25.6309 37.8864C25.7172 38.0402 25.8597 38.1545 26.0285 38.2053C26.1972 38.2561 26.3792 38.2395 26.536 38.159L27.328 37.715C27.334 37.715 27.338 37.707 27.344 37.704C27.4075 37.7571 27.4743 37.8062 27.544 37.851L27.371 38.651C27.3496 38.7393 27.3462 38.831 27.3608 38.9206C27.3755 39.0103 27.4079 39.0961 27.4562 39.173C27.5045 39.2499 27.5678 39.3164 27.6421 39.3685C27.7165 39.4206 27.8006 39.4574 27.8894 39.4765C27.9782 39.4957 28.0699 39.4968 28.1592 39.48C28.2484 39.4632 28.3334 39.4286 28.4091 39.3785C28.4849 39.3283 28.5498 39.2635 28.6001 39.1878C28.6503 39.1122 28.685 39.0272 28.702 38.938L28.874 38.138C28.924 38.131 28.974 38.122 29.023 38.111L29.552 38.811C29.6027 38.8889 29.6689 38.9555 29.7464 39.0069C29.8239 39.0582 29.9111 39.0932 30.0026 39.1095C30.0941 39.1259 30.188 39.1234 30.2785 39.1021C30.369 39.0808 30.4541 39.0412 30.5288 38.9857C30.6034 38.9302 30.6658 38.8601 30.7123 38.7796C30.7588 38.6991 30.7883 38.6099 30.799 38.5175C30.8097 38.4252 30.8013 38.3316 30.7745 38.2426C30.7477 38.1536 30.7029 38.071 30.643 38L30.173 37.375C30.203 37.334 30.232 37.292 30.259 37.248L31.112 37.433C31.1993 37.452 31.2895 37.4535 31.3774 37.4376C31.4654 37.4217 31.5493 37.3886 31.6244 37.3402C31.6996 37.2918 31.7644 37.2291 31.8153 37.1556C31.8662 37.0821 31.9021 36.9993 31.921 36.912V36.912C31.9404 36.8244 31.9423 36.7339 31.9265 36.6457C31.9108 36.5574 31.8778 36.4731 31.8294 36.3976C31.781 36.3221 31.7181 36.257 31.6444 36.2059C31.5707 36.1548 31.4876 36.1188 31.4 36.1V36.1Z" fill="#FFC1EB"/>
<path d="M31.4 36.1L30.539 35.913C30.532 35.866 30.523 35.813 30.512 35.772L31.264 35.35C31.4058 35.2545 31.5065 35.1091 31.5461 34.9427C31.5857 34.7763 31.5612 34.6012 31.4776 34.452C31.3939 34.3028 31.2572 34.1906 31.0946 34.1376C30.932 34.0846 30.7554 34.0948 30.6 34.166L29.809 34.61C29.796 34.617 29.786 34.626 29.774 34.634C29.736 34.606 29.697 34.579 29.657 34.554L29.831 33.749C29.869 33.5726 29.8354 33.3884 29.7376 33.2367C29.6398 33.0851 29.4858 32.9786 29.3095 32.9405C29.1331 32.9024 28.9488 32.936 28.7972 33.0338C28.6456 33.1316 28.539 33.2856 28.501 33.462L28.327 34.262C28.2596 34.271 28.1929 34.2837 28.127 34.3C28.1126 34.2732 28.0969 34.2472 28.08 34.222L27.534 33.5C27.4253 33.356 27.264 33.261 27.0853 33.236C26.9067 33.2109 26.7255 33.2579 26.5815 33.3665C26.4374 33.4751 26.3425 33.6365 26.3174 33.8151C26.2924 33.9937 26.3393 34.175 26.448 34.319L26.994 35.044C26.994 35.05 27.004 35.054 27.009 35.06C26.99 35.086 26.974 35.113 26.956 35.139L26.123 34.959C25.9466 34.921 25.7624 34.9545 25.6107 35.0521C25.459 35.1498 25.3523 35.3037 25.314 35.48V35.48C25.295 35.5673 25.2934 35.6575 25.3093 35.7455C25.3253 35.8334 25.3584 35.9174 25.4068 35.9925C25.4551 36.0676 25.5179 36.1325 25.5913 36.1834C25.6648 36.2342 25.7476 36.2701 25.835 36.289L26.661 36.468C26.661 36.488 26.666 36.508 26.669 36.528H26.662L25.87 36.972C25.7195 37.0639 25.6105 37.2105 25.566 37.381C25.5214 37.5515 25.5447 37.7327 25.6309 37.8864C25.7172 38.0402 25.8597 38.1545 26.0285 38.2053C26.1972 38.2561 26.3792 38.2395 26.536 38.159L27.328 37.715C27.334 37.715 27.338 37.707 27.344 37.704C27.4075 37.7571 27.4743 37.8062 27.544 37.851L27.371 38.651C27.3496 38.7393 27.3462 38.831 27.3608 38.9206C27.3755 39.0103 27.4079 39.0961 27.4562 39.173C27.5045 39.2499 27.5678 39.3164 27.6421 39.3685C27.7165 39.4206 27.8006 39.4574 27.8894 39.4765C27.9782 39.4957 28.0699 39.4968 28.1592 39.48C28.2484 39.4632 28.3334 39.4286 28.4091 39.3785C28.4849 39.3283 28.5498 39.2635 28.6001 39.1878C28.6503 39.1122 28.685 39.0272 28.702 38.938L28.874 38.138C28.924 38.131 28.974 38.122 29.023 38.111L29.552 38.811C29.6027 38.8889 29.6689 38.9555 29.7464 39.0069C29.8239 39.0582 29.9111 39.0932 30.0026 39.1095C30.0941 39.1259 30.188 39.1234 30.2785 39.1021C30.369 39.0808 30.4541 39.0412 30.5288 38.9857C30.6034 38.9302 30.6658 38.8601 30.7123 38.7796C30.7588 38.6991 30.7883 38.6099 30.799 38.5175C30.8097 38.4252 30.8013 38.3316 30.7745 38.2426C30.7477 38.1536 30.7029 38.071 30.643 38L30.173 37.375C30.203 37.334 30.232 37.292 30.259 37.248L31.112 37.433C31.1993 37.452 31.2895 37.4535 31.3774 37.4376C31.4654 37.4217 31.5493 37.3886 31.6244 37.3402C31.6996 37.2918 31.7644 37.2291 31.8153 37.1556C31.8662 37.0821 31.9021 36.9993 31.921 36.912V36.912C31.9404 36.8244 31.9423 36.7339 31.9265 36.6457C31.9108 36.5574 31.8778 36.4731 31.8294 36.3976C31.781 36.3221 31.7181 36.257 31.6444 36.2059C31.5707 36.1548 31.4876 36.1188 31.4 36.1V36.1Z" fill="#FFC1EB"/>
<path d="M28.618 37.103C29.1156 37.103 29.519 36.6996 29.519 36.202C29.519 35.7044 29.1156 35.301 28.618 35.301C28.1204 35.301 27.717 35.7044 27.717 36.202C27.717 36.6996 28.1204 37.103 28.618 37.103Z" fill="white"/>
<path d="M27.0876 43.2865C27.564 43.2052 27.8964 42.8242 27.8301 42.4355C27.7638 42.0468 27.3239 41.7975 26.8475 41.8788C26.3712 41.9601 26.0387 42.341 26.105 42.7298C26.1713 43.1185 26.6113 43.3677 27.0876 43.2865Z" fill="black"/>
<path d="M25.893 48.067C25.8498 48.0668 25.8078 48.0526 25.7733 48.0265C25.7388 48.0004 25.7137 47.9638 25.7017 47.9222C25.6898 47.8807 25.6917 47.8363 25.707 47.7959C25.7224 47.7555 25.7505 47.7211 25.787 47.698C26.2926 47.3806 26.8693 47.1943 27.465 47.156C28.2025 47.1147 28.9351 47.2992 29.565 47.685C29.6094 47.7131 29.6409 47.7576 29.6527 47.8087C29.6646 47.8599 29.6559 47.9136 29.6284 47.9584C29.601 48.0032 29.557 48.0354 29.5061 48.048C29.4551 48.0607 29.4012 48.0528 29.356 48.026C28.7959 47.6834 28.1447 47.5194 27.489 47.556C26.9604 47.59 26.4486 47.7553 26 48.037C25.9678 48.0567 25.9308 48.0671 25.893 48.067V48.067Z" fill="black"/>
</svg>
