<svg width="35" height="98" viewBox="0 0 35 98" fill="none" xmlns="http://www.w3.org/2000/svg">
<path fill-rule="evenodd" clip-rule="evenodd" d="M6.81073 97.7873C5.55807 97.7873 4.30331 97.5693 3.08985 97.3581L3.04675 97.3493C2.54076 97.2464 2.01751 97.1399 1.55664 96.9398C1.00321 96.6905 0.583707 96.2167 0.378337 95.607C0.134365 94.8828 0.220483 94.0406 0.602766 93.407C0.68525 93.2919 0.768333 93.177 0.851492 93.062C1.63077 91.9842 2.4366 90.8697 2.81109 89.5634L2.94263 89.1046L2.48939 89.3255C2.48415 89.3281 2.47711 89.3307 2.46453 89.3307C2.37022 89.3307 2.16091 89.2025 1.92241 88.9213C0.984224 87.5119 1.12108 85.7452 1.25347 84.0366C1.2905 83.5587 1.32547 83.1072 1.33839 82.6597C1.72865 77.976 3.13501 73.3773 4.49509 68.9299L4.69304 68.2822C5.72689 64.6768 6.30964 61.0613 6.42608 57.5329C6.45742 56.768 6.51737 55.8839 6.83274 55.0915L6.89392 54.9378L6.74723 54.8465C6.12483 54.459 5.93533 53.689 5.76815 53.0097L5.75595 52.9601C5.46877 51.809 5.26437 50.3691 6.2397 49.4403L6.39512 49.2923L6.03261 48.9597L5.87483 49.1172C5.86561 49.1264 5.84888 49.1342 5.83428 49.1365C4.19331 45.3446 3.31125 41.1061 3.13781 36.1799C2.96648 31.3127 3.52306 26.5072 4.02732 22.8638C4.30765 21.2645 4.53418 20.1511 5.10183 19.2815C5.70188 18.3625 6.69496 17.7475 8.32185 17.2876L8.33087 17.2849C8.72476 17.1565 9.13662 17.0347 9.53497 16.9168C11.4293 16.3565 13.3881 15.7771 14.6573 14.1928C14.6657 14.1825 14.6742 14.1752 14.6805 14.1709C15.7683 14.5609 17.0096 14.7506 18.4743 14.7506C19.098 14.7506 19.7715 14.7176 20.5858 14.647C21.1275 15.2027 22.347 16.3024 23.5103 16.3024C23.5527 16.3024 23.5953 16.3008 23.6367 16.2979C23.7647 16.2902 23.8959 16.2862 24.024 16.2862C25.92 16.2862 27.5446 17.1428 28.8527 18.8323C29.8721 20.149 30.6801 21.983 31.1279 23.9965L31.1301 24.0056C31.7263 26.1861 31.912 28.4664 32.0917 30.6716C32.1228 31.0538 32.155 31.4489 32.1889 31.8375L32.1895 31.8438C32.3298 33.0108 32.5952 34.1725 32.852 35.2959C32.9717 35.8196 33.0955 36.3611 33.2045 36.8947C33.2961 37.4826 33.4765 38.2391 33.6853 39.1146C34.2551 41.5039 35.0355 44.7761 34.2142 46.1199L34.1905 46.1586L34.186 46.2028C34.1412 46.6401 34.0801 47.1424 33.9212 47.5706L33.9015 47.6238L33.9133 47.679C33.9341 47.7758 33.836 47.8509 33.6082 47.9827C33.5756 48.0016 33.5438 48.02 33.514 48.0382L33.3973 48.1094L33.4146 48.2379C33.5903 49.5452 33.3742 50.8756 32.8058 51.9844C32.5702 52.4111 32.1766 53.1213 31.632 53.1213C31.5779 53.1213 31.5218 53.1144 31.4651 53.1007L31.3696 53.0778L31.2867 53.1274C31.2092 53.1738 31.1074 53.1964 30.9757 53.1964C30.8301 53.1964 30.6728 53.1696 30.5206 53.1437C30.4775 53.1363 30.4355 53.1291 30.3949 53.1228L30.1845 53.0897L30.1381 53.2828C29.2386 57.0266 28.552 61.129 28.0391 65.8243C27.5838 69.993 27.3081 74.1862 27.043 78.4736C26.7904 81.2282 26.466 84.1437 25.5385 86.8484L25.4949 86.9758L25.6015 87.0656C26.4332 87.7665 27.4756 88.1317 28.4838 88.485C29.308 88.7737 30.1602 89.0724 30.8728 89.5514L30.8784 89.555C32.3256 90.4669 33.9655 91.5003 34.5782 93.0784C34.7512 93.6529 34.6866 94.1317 34.3862 94.5017C33.9279 95.0664 32.8819 95.4076 31.5882 95.4144L31.5796 95.4145L31.5711 95.4151C30.7417 95.4784 29.9148 95.5104 29.1132 95.5104C27.7899 95.5104 26.4989 95.4233 25.276 95.2515L25.2702 95.2507C24.1904 95.1256 23.1041 94.8772 22.0535 94.6369C21.4604 94.5013 20.847 94.3611 20.2438 94.2452C19.503 94.0895 18.8173 93.704 18.3127 93.1593C17.7943 92.5998 17.5152 91.9147 17.5266 91.2302C17.5366 90.4969 17.867 89.6134 18.5825 89.2911L19.0781 89.0679L18.5555 88.9062C18.2606 88.8151 18.1306 88.5385 17.9801 88.2182C17.9185 88.0871 17.8549 87.9517 17.7766 87.8279C17.1438 86.5857 16.6522 85.2293 16.3152 83.796L16.3131 83.7878C15.3523 80.3699 15.995 76.8837 16.6165 73.5122C17.1572 70.5787 17.7164 67.5454 17.2393 64.5323L16.7997 64.5098C16.1261 66.8946 15.6447 69.4074 15.1791 71.8374C14.6148 74.7828 14.0313 77.8286 13.0993 80.691C12.0567 83.8931 10.6801 86.515 8.89082 88.7067L8.79601 88.8228L8.88112 88.9452C8.88883 88.9563 8.8919 88.9635 8.8931 88.9669C8.87315 89.0044 8.73588 89.0836 8.56365 89.1046L8.46847 89.1161L8.41171 89.1879C8.1273 89.5478 8.45847 90.0056 8.65636 90.2791C8.69077 90.3267 8.7233 90.3716 8.74637 90.4072C9.02067 90.8299 9.27194 91.2569 9.46024 91.5818L9.52771 91.6947C10.0355 92.5439 10.6675 93.6008 10.9129 94.6175C11.1887 95.7602 10.9195 96.6261 10.09 97.2645C9.75329 97.4957 9.34798 97.6282 8.97708 97.6282C8.88404 97.6282 8.79235 97.62 8.70454 97.6038L8.65643 97.5949L8.60873 97.6055C8.05343 97.7279 7.46529 97.7873 6.81073 97.7873Z" fill="#8FA7DF"/>
<path fill-rule="evenodd" clip-rule="evenodd" d="M10.6046 48.5569C10.5987 48.4596 10.6933 48.4986 10.7121 48.566C10.8776 48.6078 10.9995 48.7723 10.9611 48.9261C11.5863 49.7318 12.5159 50.4039 12.6101 51.4447L12.6121 51.4944C12.6387 52.2905 12.4179 52.3068 11.6441 52.4997C11.6009 53.2514 11.5535 54.0028 11.5216 54.755C11.5144 54.9259 11.3719 55.0661 11.1841 55.0679C10.5709 55.0741 9.95798 55.056 9.34509 55.0422C8.36535 54.9437 7.08045 55.2817 6.37047 54.4858C5.63152 53.127 5.04735 50.7825 6.13717 49.4775C6.49078 49.1339 7.08105 49.2292 7.54436 49.1951C8.59378 49.125 9.61602 48.8793 10.6046 48.5569ZM30.9379 48.7872C32.6664 48.969 33.3548 47.8319 33.5986 48.3988C33.7566 48.8642 33.4778 49.381 33.3264 49.8191C32.8772 50.9357 32.7068 52.5045 31.3818 53.0377C30.6495 53.26 30.1983 52.7766 30.5179 52.1267C30.8268 51.1377 30.7028 50.1093 30.5611 49.1111C30.3701 48.9081 30.7287 48.5806 30.9379 48.7872ZM15.6462 12.7529L15.7444 12.7449C17.0391 12.6407 18.3904 12.5891 19.6653 12.8639C20.2355 13.168 20.3134 13.8781 20.5955 14.3863C20.6704 14.5616 20.4347 14.6608 20.2989 14.5767C19.3485 14.9158 18.4559 14.8587 17.4736 14.7197L17.3652 14.7124C16.5085 14.656 15.6039 14.6294 14.8138 14.2815C14.5458 14.0948 14.8681 13.7176 14.8967 13.4729L14.9048 13.4391C14.9934 13.0787 15.1675 12.7399 15.6462 12.7529Z" fill="#D08B5B"/>
<path fill-rule="evenodd" clip-rule="evenodd" d="M6.26469 89.2873C6.83823 89.3086 7.62687 88.9999 8.08726 89.4042C8.10725 89.3914 8.14035 89.4025 8.15079 89.4254C8.29697 89.7468 8.47579 90.0627 8.64443 90.3745C9.33744 91.7795 10.4804 93.0212 10.6778 94.5987C10.831 95.8498 9.99976 97.6346 8.41446 97.4877C6.31943 97.4696 4.19587 97.336 2.17898 96.777C1.65041 96.9093 1.08234 96.4218 0.825299 96.0438C0.162875 95.0696 0.652768 93.8749 1.198 92.9663C1.80085 92.0295 2.2712 91.0326 2.66981 90.0082C2.56452 89.8906 2.5871 89.6552 2.78135 89.6284C3.11024 89.6051 3.41018 89.4953 3.74507 89.5101C4.58287 89.4179 5.42434 89.3507 6.26469 89.2873ZM25.5172 87.2046C25.7878 86.6864 26.1415 87.3816 26.3521 87.5917C27.4284 88.3868 28.9803 88.4192 30.0825 89.2107L30.1553 89.2538C30.5868 89.5079 31.0699 89.7732 31.3604 90.1618L31.434 90.2083C32.6439 90.9731 34.176 92.0108 34.3883 93.4244C34.4381 93.4835 34.469 93.5587 34.478 93.6389C34.4288 95.8079 30.9359 95.0814 29.3882 95.1438L29.146 95.1342C26.5338 95.0338 23.8628 95.0087 21.4046 94.0777C21.0214 94.2066 20.5558 94.1276 20.1814 93.9858C19.1952 93.735 18.3575 93.1114 18.127 92.1558C17.8084 91.2337 18.0799 89.3824 19.1758 89.0318C19.7707 88.8562 20.4095 88.851 20.9992 88.6483C21.5926 88.4739 22.1573 88.2299 22.7207 87.9867C23.5984 87.6653 24.5456 87.0561 25.5172 87.2046Z" fill="white"/>
<path fill-rule="evenodd" clip-rule="evenodd" d="M14.477 14.0688C14.5364 13.9947 14.6355 13.9351 14.7408 13.9692C16.6528 14.6587 18.7135 14.6043 20.6776 14.4295C21.3014 15.1278 22.104 15.6843 23.0051 16.0302C23.1267 16.0111 23.2513 16.0092 23.3748 16.0262C23.4731 16.0397 23.5698 16.064 23.6664 16.0887C24.6888 16.0468 25.7171 16.2427 26.632 16.6749C29.4804 18.0957 30.6411 21.2034 31.348 23.9543C32.0522 26.5315 32.1832 29.1834 32.4127 31.8206C32.6173 33.5217 33.0829 35.1807 33.4259 36.8601C33.7762 39.0763 35.5699 44.4096 34.4095 46.2224L34.4011 46.3033C34.3538 46.7498 34.2895 47.219 34.1337 47.6384C34.1796 47.853 34.0091 47.9893 33.8275 48.1003C33.8609 48.2585 33.821 48.4638 33.8195 48.6094C33.8173 48.8441 33.8076 49.0648 33.7615 49.2958C33.7531 49.3379 33.7265 49.3588 33.695 49.3646C33.6634 50.3003 33.4399 51.2336 33.0075 52.0764L32.9606 52.1608C32.6543 52.7082 32.1687 53.4853 31.4085 53.3022C31.1249 53.4549 30.6264 53.4443 30.3674 53.2688L30.2991 53.5858C29.1863 58.7629 28.2582 63.972 27.9188 69.2508C27.5114 73.8318 27.4742 78.4474 26.7152 82.997L26.6886 83.1436C26.4573 84.4138 26.1937 85.6897 25.7526 86.9116C26.411 87.5405 27.3421 87.8439 28.2117 88.1385C29.1876 88.4689 30.1218 88.8714 31.0048 89.3828L31.2292 89.5244C32.6572 90.428 34.1935 91.4632 34.7921 93.0149C35.3848 95.0125 33.3125 95.605 31.5895 95.6227C29.4818 95.7833 27.3351 95.7513 25.2423 95.4573C23.9623 95.2764 22.6881 95.0304 21.4378 94.7174L21.3276 94.6896C21.1454 94.6432 20.9496 94.608 20.7837 94.5202C20.5785 94.516 20.3705 94.4845 20.1967 94.4486C18.6038 94.1154 17.2763 92.7795 17.302 91.2271C17.313 90.4315 17.6684 89.4715 18.4842 89.1038C18.1831 89.023 18.0214 88.7913 17.9039 88.5381C17.7912 88.3357 17.6826 88.1315 17.578 87.9255C16.9136 86.623 16.4262 85.2473 16.0958 83.8403C14.5087 78.1961 17.2003 72.5835 17.1963 66.9371C17.1716 66.7989 17.1522 66.6599 17.1342 66.5205C17.1008 66.2604 17.1147 65.9972 17.075 65.737C17.0396 65.5046 16.9696 65.2888 16.8743 65.0819C14.7165 73.0917 14.6357 82.0155 9.06979 88.8323C9.25771 89.1022 8.85738 89.2787 8.59282 89.3111C8.363 89.6018 8.78426 90.0616 8.93886 90.2999C9.19035 90.6876 9.42702 91.0847 9.65789 91.4833L9.81706 91.7495C10.8463 93.4744 12.2144 95.9057 10.2287 97.4282C9.79044 97.7311 9.20818 97.909 8.6607 97.8079C8.04534 97.965 7.40411 98.0116 6.76647 97.9855C5.51531 97.9605 4.26778 97.8055 3.04499 97.5623L2.87107 97.5269C2.39171 97.4286 1.9056 97.3214 1.46112 97.1285C-0.0152939 96.4631 -0.352384 94.5534 0.411208 93.298C0.667125 92.8567 1.02211 92.4746 1.31641 92.0562C1.86725 91.2734 2.30128 90.405 2.59408 89.51C2.52695 89.5535 2.43514 89.5651 2.33786 89.5176C0.338533 88.4047 1.05757 84.5386 1.11396 82.6487C1.52432 77.7179 3.03091 72.9612 4.47689 68.2255C5.47873 64.732 6.08184 61.1412 6.20158 57.5264L6.20518 57.4415C6.24123 56.6196 6.31628 55.7876 6.62194 55.0194C5.97372 54.6157 5.75533 53.8829 5.58597 53.2056L5.5368 53.0067C5.36939 52.3353 5.23962 51.584 5.32319 50.8804C5.30286 50.8651 5.29058 50.8418 5.29485 50.811L5.31768 50.6446C5.35291 50.3914 5.39293 50.147 5.48999 49.9022C5.55058 49.7494 5.61265 49.5973 5.68458 49.4487L5.71297 49.3899C5.72256 49.3702 5.73239 49.3507 5.74288 49.3315C5.69739 49.3149 5.65826 49.283 5.63407 49.2323C3.08929 43.6407 2.75523 37.4663 2.99767 31.4739L3.00418 31.2581C3.11415 27.7329 3.39797 24.1918 4.25332 20.7481C4.63912 18.6691 6.20903 17.6797 8.2564 17.0883C9.67047 16.6274 11.1972 16.2849 12.5055 15.6181L12.519 15.596C12.6121 15.446 12.7257 15.3153 12.9285 15.2649C12.9989 15.2473 13.0737 15.2427 13.1461 15.2515C13.6419 14.9323 14.093 14.548 14.477 14.0688ZM8.42287 89.3412C7.43151 89.5426 6.41215 89.4747 5.40616 89.4443C5.09154 89.9957 4.89238 90.6033 4.73917 91.2071C4.58723 92.1301 4.00381 91.8491 4.34247 91.074C4.55417 90.4719 4.91698 89.9328 5.33839 89.4423L5.25506 89.44C4.39367 89.4177 3.52239 89.4321 2.70105 89.6811C2.68409 91.1161 1.87909 92.3461 1.04271 93.5022C0.366165 94.579 0.735755 96.3177 2.16473 96.651C4.14429 97.2484 6.23678 97.2777 8.29204 97.3886C8.34008 97.2004 8.57683 97.13 8.76643 97.1513C9.29658 97.2354 9.84241 96.9736 10.1525 96.5794C11.4102 94.7511 9.2622 92.4639 8.65317 90.704L8.63831 90.6715C8.47224 90.3134 8.1232 89.6937 8.42287 89.3412ZM14.7614 14.4323C14.4233 14.8856 14.0052 15.2553 13.534 15.5668L13.5439 15.5784C13.5456 15.5803 13.5473 15.5822 13.5491 15.584C13.5995 15.634 13.6748 15.6148 13.7484 15.6375C13.8381 15.6652 13.8982 15.7665 13.8407 15.8478C13.7387 15.9922 13.5501 16.0027 13.3903 15.9268C13.324 15.8952 13.2618 15.8509 13.2167 15.7956C13.211 15.7886 13.2059 15.7809 13.201 15.7725C10.407 17.3883 6.10071 17.3104 5.02575 19.962C3.74639 24.0281 3.61108 28.3322 3.49587 32.5418C3.29219 38.1098 3.8294 43.7478 6.05076 48.9679L6.16181 48.9753C6.55012 49.0009 6.93519 49.0214 7.32671 49.003L7.42811 48.9976C8.56286 48.9153 9.67942 48.6496 10.6519 48.0814C10.5471 48.1011 10.4439 48.0397 10.4131 47.9456C10.2414 47.5639 10.612 47.2334 10.7338 46.8849C11.9034 44.5306 11.6037 41.9096 11.3374 39.4108C11.067 35.8315 11.0844 32.2189 11.5972 28.6586L11.6448 28.334C11.7342 27.7269 11.8311 27.1141 12.0076 26.5259C12.0195 26.4865 12.0828 26.4953 12.0835 26.5354C12.081 26.745 12.0757 26.9547 12.0684 27.1643C12.1684 26.9597 12.2834 26.7547 12.4836 26.6229C12.5565 26.5749 12.6642 26.6552 12.6357 26.7314C12.5529 26.952 12.3954 27.1393 12.2928 27.3531C12.1909 27.5656 12.1183 27.7904 12.0517 28.0143C12.0423 28.046 12.0334 28.0779 12.0243 28.1097C11.9621 29.2161 11.8724 30.3226 11.8556 31.4298C11.5385 35.7105 12.3921 39.9663 12.2545 44.2302C13.0867 44.1315 13.9191 44.3169 14.7466 44.378C17.811 44.6814 20.9196 44.6704 23.9632 44.1954C24.2201 44.1201 24.7963 44.18 24.5448 44.5296C24.368 44.6952 24.1342 44.6961 23.8974 44.7287C23.215 44.8223 22.5297 44.898 21.8422 44.9518C19.3775 45.1419 16.8853 45.0785 14.4448 44.6968C13.7114 44.5694 12.9828 44.4158 12.2429 44.3242C12.2137 44.5506 12.175 44.7761 12.1299 44.9998C15.3139 46.0664 18.7368 45.8544 22.0485 45.6074C22.2428 45.6105 22.2969 45.8951 22.0956 45.9302L21.6968 45.9625C18.4962 46.22 15.0671 46.4454 12.1036 45.1259C11.9035 46.0565 11.5563 46.9637 11.0836 47.8054C11.2399 47.6421 11.6907 47.7134 11.5896 47.985C11.5904 48.1524 11.3856 48.2716 11.1793 48.3718L11.1775 48.3911C11.1697 48.4712 11.1564 48.5482 11.1555 48.5692C11.146 48.7824 11.2346 48.9661 11.2646 49.1689C11.5422 49.4595 11.8839 49.7082 12.1711 49.985C12.8289 50.6422 13.0942 51.6288 12.7236 52.4746C12.6786 52.5774 12.6058 52.6332 12.4837 52.6439C12.2461 52.642 12.0279 52.8731 11.7965 52.8073C11.8466 53.3018 11.8742 53.7949 11.8967 54.2901L11.9028 54.3469C11.9354 54.6644 11.948 55.0621 11.6931 55.28C11.6722 55.3147 11.6365 55.3427 11.5834 55.3563L11.5726 55.3588C11.549 55.3703 11.5242 55.381 11.4975 55.3904L11.477 55.3771C11.1784 55.4322 10.877 55.4502 10.5735 55.4267L10.5374 55.4309C10.1795 55.47 9.76269 55.4616 9.63906 55.469C8.6786 55.4234 7.62116 55.505 6.7455 55.0893C6.4378 56.2257 6.56391 57.432 6.54511 58.5918C6.52617 59.7764 6.4338 60.9568 6.28163 62.1328C5.71809 66.8977 3.92361 71.4173 2.80158 76.0741C1.99265 79.5536 1.4202 83.1273 1.6247 86.6943C1.66132 87.1592 1.74074 87.6227 1.91061 88.063C2.06704 88.4684 2.34318 88.8285 2.63785 89.1573C2.69259 89.2183 2.70936 89.2879 2.69899 89.3514C2.72602 89.4237 2.70064 89.5139 2.70554 89.5913C4.46468 88.7558 6.53133 89.3726 8.37737 88.8709C8.39153 88.7089 8.45574 88.5302 8.52857 88.3814C10.0802 86.4338 11.244 84.2387 12.1122 81.9593C13.9121 77.2657 14.5218 72.2896 15.6183 67.4358C16.7231 62.6092 18.3723 57.8246 21.1437 53.5852C21.1641 53.5538 21.21 53.5813 21.1952 53.6131L21.055 53.9251C19.5447 57.2882 18.0877 60.687 17.1129 64.2213C19.1853 71.7435 13.9306 78.5751 17.8142 86.5523C17.9792 86.9238 18.1577 87.2906 18.3477 87.6517C18.4714 87.9686 18.8849 88.4305 18.8545 88.7395C20.3267 89.0149 21.5548 88.0522 22.7804 87.4662L22.8183 87.4511C23.2373 87.2821 23.9861 86.9095 24.3914 87.1169C24.6422 87.2674 24.584 87.6219 24.367 87.7274C24.6422 87.9588 24.9099 88.2113 25.1431 88.4814L25.1747 88.5183C25.4223 88.811 25.7186 89.0673 25.8399 89.4325C25.8797 89.5523 25.7296 89.648 25.6182 89.5905C25.2534 89.4021 25.04 89.0556 24.8158 88.7425C24.5967 88.4363 24.423 88.0966 24.2951 87.7513C23.2514 87.7906 22.2475 88.5394 21.2969 88.9252C20.7674 89.7572 20.6597 90.7291 20.6864 91.6756C20.2934 92.3797 19.7666 90.1127 21.0596 89.0289L21.014 89.0461C20.3142 89.3082 19.5442 89.4422 18.8066 89.198C18.8203 89.2234 18.8204 89.3128 18.7652 89.2773C18.6171 89.1121 18.2756 89.7511 18.2341 89.8348C17.314 91.5486 18.4506 93.4566 20.4196 93.8605C20.5454 93.5702 21.0314 93.6321 20.877 93.9562L20.8812 93.9628C20.882 93.964 20.8828 93.9652 20.8837 93.9665C21.0738 94.0173 21.3741 94.0201 21.4462 94.2136C24.1355 94.8811 26.933 95.1277 29.7123 95.1073C30.9315 95.0111 33.6495 95.2778 34.2074 94.0648C34.6395 92.602 32.8507 91.351 31.7821 90.5274C31.089 90.0268 30.3396 89.5876 29.5562 89.2188C28.2179 88.5889 26.5824 88.2112 25.713 86.9846C25.6407 87.1055 25.5463 87.216 25.4605 87.3287C25.3192 87.5142 24.9739 87.4615 24.9765 87.2072C24.9417 86.8308 25.0323 86.4696 25.1663 86.1174C26.9335 80.1887 26.6567 73.9743 27.3206 67.8996L27.3806 67.308C27.6771 64.3989 27.9994 61.4861 28.57 58.6114C29.6931 53.6749 30.905 49.9532 29.2924 44.9021L29.1317 44.934C28.5512 45.0483 27.9513 45.1548 27.3621 45.0612C27.3396 45.0571 27.3411 45.0255 27.3621 45.0205C27.8008 44.9199 28.2574 44.8869 28.6929 44.7676C28.5313 44.6594 28.5918 44.4429 28.6072 44.2833L28.4929 44.2968C26.6627 44.5125 26.6127 44.4641 27.4374 44.2154C27.423 44.2163 27.4087 44.2177 27.3943 44.2185C27.3688 44.2198 27.368 44.1874 27.3887 44.1801C27.6809 44.078 27.9825 43.9998 28.2784 43.9069C28.421 43.8621 28.5626 43.8145 28.7032 43.7644L28.7166 43.7594C30.5909 36.3938 28.826 28.862 27.8735 21.4975C27.8705 21.4673 27.9202 21.4634 27.9288 21.4905C29.8999 28.7058 31.1949 36.3861 29.4775 43.7549C29.5475 43.7319 29.617 43.7197 29.6854 43.7179C29.7997 43.5707 29.9531 43.4385 30.0959 43.318L30.143 43.2782C30.2936 43.1511 30.4733 43.0133 30.6656 42.9362C30.9611 42.7307 31.3021 42.5791 31.6564 42.4925L31.6877 42.485C31.9038 42.4345 32.1643 42.3822 32.365 42.504C33.161 43.0589 31.1894 44.0368 30.7155 44.183C31.21 44.3611 32.1652 44.9633 31.8903 45.538C31.6838 45.9347 31.2223 45.7671 30.9138 45.5944C30.5745 45.3931 30.2363 45.2364 29.8967 45.0244C29.8546 45.047 29.8109 45.0664 29.7664 45.0807C30.0045 45.807 30.2033 46.544 30.3519 47.2882C30.5293 47.2556 30.721 47.2567 30.8952 47.2379C31.1727 47.2079 31.4513 47.184 31.7273 47.1425C32.0098 47.1 32.2919 47.0469 32.5681 46.9772L32.6043 46.9679C32.845 46.9046 33.0754 46.8226 33.3287 46.8741C33.4128 46.8912 33.4718 47.0042 33.4158 47.0725C33.2379 47.2893 32.9737 47.354 32.6991 47.4177C32.4107 47.4845 32.1187 47.5327 31.8228 47.5598C31.5262 47.5869 31.2264 47.596 30.9296 47.5639L30.813 47.5516C30.6735 47.5367 30.5241 47.5181 30.3886 47.4772C30.6325 48.7759 30.7208 50.0958 30.5936 51.4186L30.5991 51.3836C30.6924 50.7995 30.9958 49.6347 31.586 49.3853C31.76 49.3972 31.2918 50.1607 31.2796 50.3077C31.0085 51.2117 30.8202 52.1402 30.4536 53.0186L30.485 53.0262C30.7265 53.0826 30.9773 53.0985 31.202 52.9822C31.2047 52.7993 31.3905 52.6869 31.5954 52.7301C31.9898 52.7878 32.3953 51.9905 32.5678 51.714C33.1713 50.6431 33.2671 49.4186 33.552 48.259C32.6877 48.7174 31.6014 48.9311 30.633 48.6546C30.5927 48.6424 30.6014 48.5896 30.6428 48.5874C31.713 48.5525 32.8016 48.298 33.6372 47.6493C33.4376 47.4905 33.8236 46.5607 33.8319 46.2576C33.8478 46.1148 33.8779 46.0015 33.9733 45.8965C34.8239 43.982 33.2243 38.9947 32.8554 36.7564C30.9635 30.9727 32.6574 17.0302 23.999 16.2586C23.9322 16.2728 23.8649 16.2792 23.7968 16.2812C23.8164 16.2926 23.7683 16.2902 23.6971 16.2817C23.6173 16.2802 23.536 16.2754 23.4527 16.2724L23.423 16.2715C23.2801 16.2681 23.1419 16.2787 23.0237 16.3601C22.9019 16.444 22.8674 16.5013 22.7001 16.4787C22.6325 16.4695 22.5798 16.3955 22.5778 16.3358L22.5777 16.3296L22.5787 16.2946C22.5804 16.2292 22.6167 16.1557 22.6832 16.1256C22.7202 16.1089 22.7582 16.0947 22.7966 16.0817C21.9215 15.8148 21.1273 15.3504 20.4979 14.7128C20.2413 14.7636 19.983 14.8059 19.7237 14.8397C19.7009 14.8814 19.6466 14.9317 19.6362 14.9607C19.5919 15.0847 19.6047 15.2341 19.6153 15.3723C19.6722 15.5362 19.7059 15.7027 19.7298 15.8105L19.7611 15.9506C19.8185 16.2091 19.8726 16.4758 19.8732 16.7374C19.8737 16.9381 19.8637 17.1403 19.8465 17.3415C20.5385 21.7368 21.061 26.1556 21.8386 30.5394C21.9737 30.6082 22.0463 30.7554 22.0446 30.8985L22.0616 30.9051C22.3404 31.0254 22.3969 31.3333 22.3914 31.5913L22.3911 31.6031C22.3838 31.8606 22.3273 32.1707 22.0976 32.3412C21.9051 32.4839 21.5931 32.4933 21.3374 32.4008C21.2391 32.4043 21.1536 32.3579 21.0944 32.2803C21.0843 32.267 21.0747 32.2536 21.0656 32.2398C20.9646 32.1447 20.9035 32.0217 20.9131 31.8761C20.9147 31.8517 20.9202 31.8241 20.9288 31.794C20.9215 31.4712 21.0852 31.1399 21.3863 30.9732C20.6177 26.7825 19.9643 22.544 19.6087 18.2934C19.5164 17.7078 19.441 17.1209 19.4071 16.5287L19.4027 16.4479C19.396 16.3166 19.3877 16.1836 19.3801 16.05C19.3487 15.8745 19.3119 15.7001 19.2768 15.5252L19.256 15.4202C19.2183 15.2265 19.2128 15.0351 19.0214 14.9142C19.0196 14.913 19.0182 14.9115 19.0166 14.9101C17.5826 15.0112 16.1321 14.8547 14.7614 14.4323ZM29.2783 92.583C28.7775 92.6163 28.6636 91.6079 28.942 91.8856C28.9746 91.9916 29.031 92.1017 29.1077 92.1877L29.1259 92.2075C29.2187 92.3039 29.5331 92.5109 29.2783 92.583ZM6.22196 89.8543C6.23196 89.8374 6.26187 89.8448 6.26124 89.8641C6.2533 90.0959 6.23491 90.2995 6.29752 90.5283C6.35757 90.748 6.47058 90.9388 6.60612 91.1258C6.70466 91.2618 6.47365 91.3796 6.3727 91.2523C6.08159 90.8851 5.97672 90.2672 6.22196 89.8543ZM23.1913 88.0549C23.1982 88.0275 23.246 88.0264 23.2522 88.0549C23.4157 88.5421 23.4637 89.0566 23.5905 89.5531C23.6122 89.836 24.1315 90.7612 23.6499 90.8279C23.2031 90.8343 23.1759 89.8559 23.1036 89.5491L23.0972 89.4959C23.0405 89.016 23.0124 88.5142 23.1913 88.0549ZM4.81563 89.4876C4.83825 89.4876 4.83825 89.5202 4.81563 89.5202C4.79302 89.5202 4.79306 89.4876 4.81563 89.4876ZM7.08161 83.9555C7.10478 83.9168 7.17282 83.9434 7.15862 83.9856C6.66776 85.4224 6.2474 86.8791 5.88313 88.3477C5.67079 89.3505 4.97557 89.0475 5.28705 88.1613C5.68543 86.6954 6.29559 85.2795 7.08161 83.9555ZM19.5356 84.3926C19.5336 84.3563 19.5901 84.3526 19.6011 84.3844C19.9142 85.2949 20.3365 86.1843 20.9294 86.9689C21.1142 87.2118 21.3728 87.4369 21.4637 87.7287C21.5065 87.8658 21.3454 87.9553 21.2214 87.9014C20.9078 87.765 20.7106 87.4335 20.5343 87.1692L20.5246 87.1546C19.9628 86.321 19.592 85.378 19.5356 84.3926ZM9.02702 86.3365C9.06858 86.2883 9.14376 86.3502 9.1152 86.3996L9.10216 86.4235C8.97017 86.6681 8.19232 88.1548 8.0861 87.5669C8.29128 87.1054 8.6936 86.7235 9.02702 86.3365ZM25.2607 87.45C25.2811 87.45 25.2811 87.4793 25.2607 87.4793C25.2404 87.4793 25.2404 87.45 25.2607 87.45ZM21.7872 78.214C21.7991 78.1575 21.8871 78.1828 21.8785 78.2373C21.7675 78.9492 21.7585 79.6693 21.7967 80.3867C21.4419 80.87 21.7053 78.3247 21.7872 78.214ZM8.18481 73.295C7.98689 75.125 7.40789 77.2107 6.90635 79.0855C6.8813 79.1728 6.73861 79.1358 6.76081 79.0483C7.2467 77.1328 7.72701 75.2165 8.18481 73.295ZM22.0638 67.9119C22.0635 67.8669 22.1324 67.8693 22.1375 67.9119C22.2532 68.8825 22.1817 69.8628 21.9402 70.8126C21.9202 70.8912 21.7971 70.8568 21.8116 70.7797C21.9898 69.8317 22.0691 68.8737 22.0638 67.9119ZM10.6344 57.2241C10.643 57.1981 10.6797 57.2056 10.6826 57.2302C10.7233 57.5761 10.681 57.9474 10.6622 58.2966L10.6602 58.3354C10.5117 61.1897 10.2875 64.0389 9.80165 66.8628C9.77836 66.9954 9.5497 66.9605 9.55341 66.8317C9.57396 66.1174 9.61432 65.4036 9.65854 64.6904C9.87376 62.1945 10.1612 59.6885 10.6344 57.2241ZM26.5138 53.5166C26.5187 53.4938 26.555 53.5038 26.551 53.5261C26.4372 54.2718 26.3435 55.0215 26.2011 55.7637C25.7208 58.3466 25.3057 60.9455 24.6893 63.5041C24.6587 63.6218 24.4418 63.5978 24.4583 63.4752C24.8716 60.7787 25.5062 58.1147 26.0529 55.4395C26.1956 54.7966 26.3759 54.1596 26.5138 53.5166ZM10.7451 48.591C10.3462 48.7894 9.91725 48.958 9.47252 49.0856C9.26142 49.1716 9.02374 49.2118 8.79598 49.2445C8.56443 49.2867 8.33061 49.3165 8.09637 49.3328C7.96748 49.3466 7.83846 49.3593 7.70944 49.3714L7.53113 49.3878C7.10036 49.4265 6.57823 49.4632 6.1486 49.3209C6.13129 49.489 6.06408 49.677 6.03778 49.7583L6.01333 49.835C5.95727 50.0102 5.89653 50.1889 5.80941 50.3514C5.75048 50.4614 5.68117 50.5671 5.61048 50.6717C5.5414 51.5207 5.81226 52.4282 6.06713 53.2245L6.10378 53.3434C6.24324 53.7905 6.42226 54.2846 6.83282 54.5703L6.83632 54.5648C6.86827 54.5115 6.99918 54.2313 7.01434 54.384C6.97581 54.4615 6.94035 54.54 6.90733 54.6193C7.75067 55.0669 8.98405 54.8827 9.93661 54.9416C10.1412 54.9634 10.4745 54.9572 10.7422 54.9974C10.7556 54.9929 10.769 54.9885 10.7819 54.9838C10.9605 54.9192 11.1355 54.8463 11.3075 54.7678C11.313 54.7552 11.3179 54.7427 11.3199 54.7325C11.3442 54.2603 11.307 53.7778 11.3314 53.3034L11.3328 53.2433C11.3519 52.5406 11.474 50.1248 11.7396 52.3087C11.9298 52.2132 12.13 52.1774 12.3395 52.1774C12.9013 50.8759 11.8097 50.1723 11.1502 49.3359C11.1288 49.3365 11.1075 49.3317 11.089 49.3201C10.9097 49.2074 10.8354 49.0146 10.8255 48.8177C10.7929 48.7441 10.7657 48.6686 10.7451 48.591ZM30.553 51.8743L30.5445 51.9575C30.5387 52.0133 30.5326 52.069 30.5262 52.1247C30.5352 52.058 30.5424 51.9911 30.5486 51.924L30.553 51.8743ZM9.06616 47.6484C9.38756 47.6015 9.72821 47.5041 10.0529 47.5542C10.1386 47.5674 10.145 47.685 10.0764 47.7207C9.7719 47.8794 9.3717 47.8936 9.02844 47.9382L9.00513 47.9413C8.64853 47.9896 8.2907 48.0311 7.93133 48.057L7.84731 48.0629C7.18923 48.1077 6.42725 48.1267 5.82368 47.8618C5.79148 47.8477 5.81035 47.806 5.84049 47.8042C6.19076 47.7843 6.54822 47.8128 6.8992 47.8181C7.2555 47.8236 7.6121 47.8047 7.96698 47.7765C8.33507 47.7472 8.70129 47.7016 9.06616 47.6484ZM30.311 44.1979C30.3591 44.3829 30.3254 44.5799 30.2174 44.7424C30.4014 44.8425 30.5829 44.9465 30.7639 45.0511L30.8544 45.1034C30.9751 45.1729 31.5205 45.5833 31.5885 45.3205C31.6277 44.8973 30.8523 44.468 30.5386 44.2237C30.46 44.2302 30.3879 44.2183 30.311 44.1979ZM29.5949 43.9116C29.552 43.9084 29.5086 43.9106 29.4663 43.9194C29.5246 44.1875 29.5924 44.4541 29.665 44.7197C29.8874 44.6768 30.0476 44.4605 30.0025 44.2501C29.9869 44.1394 29.9179 44.0487 29.8249 43.9887C29.7512 44.0596 29.6151 44.003 29.5949 43.9116ZM29.223 44.5733C29.2155 44.5893 29.2078 44.6052 29.1998 44.621C29.21 44.6173 29.2203 44.6136 29.2305 44.61L29.223 44.5733ZM32.0364 42.8433C31.3045 42.8483 30.6155 43.2342 30.0926 43.6937C30.0637 43.7288 30.0347 43.7637 30.0051 43.798C30.055 43.8264 30.1009 43.8609 30.141 43.9009C30.2203 43.8228 30.2781 43.7477 30.3861 43.7001C30.9912 43.5261 31.5758 43.2549 32.0364 42.8433ZM14.4004 33.1292C14.3975 33.0961 14.4558 33.0893 14.4625 33.1214C14.6531 34.0305 14.7629 34.9568 14.8417 35.8795L14.8441 35.9163C14.8729 36.3259 15.1178 39.4035 14.5993 38.642C14.5657 36.8035 14.6221 34.9622 14.4004 33.1292ZM7.24443 29.4099L7.23916 29.3898C7.23085 29.3667 7.26852 29.3528 7.28087 29.3735C7.53904 29.8039 7.26032 30.3426 7.14904 30.7781C6.68876 32.4085 6.7582 34.0901 6.85419 35.7561L6.8601 35.8581C6.86485 35.9798 6.67023 35.9986 6.63601 35.8862C6.31513 34.8309 6.35343 33.6877 6.50747 32.6088C6.58471 32.0677 6.69678 31.5313 6.85819 31.0062C6.97046 30.4754 7.38177 29.9605 7.24443 29.4099ZM21.7746 31.4736C21.6837 31.4744 21.6057 31.5306 21.5712 31.6064C21.5567 31.6381 21.5505 31.6711 21.5486 31.7057C21.5455 31.7635 21.5877 31.8157 21.6488 31.8287C21.7065 31.8411 21.7619 31.8158 21.7914 31.7694C21.7975 31.7599 21.8018 31.7494 21.807 31.7395C21.8087 31.736 21.8109 31.7325 21.8128 31.729L21.8158 31.7228L21.8163 31.7215C21.8339 31.7034 21.8445 31.6798 21.8471 31.6558C21.8718 31.6366 21.8884 31.6088 21.8869 31.5777C21.8842 31.5217 21.8376 31.473 21.7746 31.4736ZM22.4866 16.6827C22.4959 16.6724 22.5124 16.6857 22.5059 16.6965C22.2864 17.0635 21.9118 17.3602 21.4876 17.5066C21.3554 17.5523 21.2901 17.3442 21.4288 17.309C21.8588 17.1996 22.2 17.0007 22.4866 16.6827ZM14.2084 16.441L14.2053 16.4323C14.1877 16.38 14.1247 16.1615 14.1938 16.2166C14.2667 16.3115 14.3964 16.4091 14.4876 16.4912C14.7985 16.7953 15.2382 16.9328 15.6663 17.0316C15.761 17.0552 15.7753 17.2089 15.6663 17.223C15.3084 17.2695 14.9948 17.167 14.7061 16.9702C14.5016 16.8315 14.3179 16.6547 14.2084 16.441ZM19.3903 14.8786C19.349 14.8828 19.3076 14.8859 19.2663 14.8897C19.3118 14.9103 19.3526 14.9397 19.3896 14.9755C19.391 14.9701 19.3925 14.9648 19.3941 14.9594L19.3903 14.8786Z" fill="black"/>
<path fill-rule="evenodd" clip-rule="evenodd" d="M16.7486 13.9277C16.5383 14.1219 16.2331 13.9679 15.973 13.9251C13.7397 13.3742 11.3426 11.693 10.8969 9.65965L10.6743 9.07166C10.595 8.95258 10.534 8.59077 10.5538 8.56029C10.5711 8.56348 10.6959 8.48496 10.7128 8.48875C10.5538 7.42443 10.5843 6.48053 11.0392 5.12808C10.2835 4.65904 10.7932 3.87288 11.5552 3.9175C11.5651 3.46254 11.7067 3.12098 12.1128 2.6387C13.6935 0.851979 16.4307 0.145994 18.982 0.286202C20.9534 0.343152 22.2618 0.768518 23.1372 1.63591C23.5844 1.98377 23.9278 2.36322 23.8968 2.86233L24.0959 2.8664L24.1016 2.93912C24.3151 2.85888 26.7229 3.44971 26.778 3.69072L26.7103 3.77083C26.8008 3.91388 26.8061 4.0294 26.7607 4.22531C26.6744 4.59342 26.7658 4.99207 26.743 5.35649C26.7223 5.41862 26.4111 5.48488 26.2922 5.49623C25.7189 5.62086 25.1109 5.76307 24.4805 5.84483C24.5116 7.11968 24.3498 8.42476 24.8596 9.65965L25.0882 9.48287C25.4717 11.9778 24.4704 15.7335 21.2531 15.6974C19.6726 15.6697 18.0619 14.6501 16.7486 13.9277Z" fill="#8FA7DF"/>
<path fill-rule="evenodd" clip-rule="evenodd" d="M14.976 10.6565C14.7409 10.4332 14.8339 9.87034 15.2277 10.1737C15.3495 10.0819 15.5147 10.0986 15.6602 10.1449C16.0577 10.2778 16.4676 10.3841 16.8925 10.4094C17.0431 10.3405 17.2476 10.4124 17.4229 10.3758L17.4392 10.372C17.5517 10.3437 17.6521 10.4398 17.6243 10.5398C17.579 10.642 17.5991 10.8031 17.4847 10.8632C17.3406 11.4171 17.1879 11.9639 17.0402 12.5165C17.155 12.7104 17.0195 12.9505 16.9639 13.151L16.9465 13.2324C16.8628 13.6134 16.686 14.2375 16.1752 13.9087C15.9275 13.8957 15.6876 13.8073 15.5151 13.6401C15.3347 13.4781 15.4247 13.2778 15.3481 13.0914L15.3248 12.997C15.1354 12.2265 14.9695 11.4515 14.976 10.6565ZM14.9774 7.93784C15.0208 7.70157 15.1547 5.42302 15.6465 5.95542L15.6472 5.95532C15.6461 5.93832 15.649 5.94279 15.6532 5.95593C15.6588 5.95697 15.6636 5.95975 15.6677 5.96344C16.7981 5.90575 17.9139 6.17682 19.0438 6.20489C20.2229 6.30399 21.4293 6.21064 22.5968 6.23908C23.2044 6.16659 23.8066 6.07741 24.3942 5.91672C24.5459 5.87741 24.6222 6.03905 24.547 6.12932C24.6664 6.70241 24.4826 7.2975 24.548 7.87926C24.568 8.34252 24.6178 8.80733 24.6796 9.26388C24.7597 9.5364 24.3786 9.81536 24.2217 9.49767C22.4232 8.8183 21.4065 9.19142 19.6351 9.57405C19.6614 9.80971 17.6209 9.89761 17.4843 9.71772C16.7544 9.68931 16.023 9.62698 15.304 9.50732C14.995 9.49723 14.9021 9.30545 15.0091 9.06099C15.0055 8.67826 14.9012 8.32532 14.9774 7.93784Z" fill="#D08B5B"/>
<path fill-rule="evenodd" clip-rule="evenodd" d="M24.7217 9.7354C23.2138 9.31468 21.5942 9.1124 20.103 9.68441C19.6021 9.79252 19.093 9.87757 18.5779 9.90256C18.3231 9.92257 18.0147 9.84744 17.7962 9.99462C16.3189 9.8276 14.9297 9.53882 13.483 9.22099C13.2664 9.1734 12.5111 8.93377 12.3193 8.90378C11.7874 8.82064 10.3102 8.04221 10.4274 8.78171C10.4116 9.02051 10.506 9.24652 10.798 9.27567C13.0913 9.68756 15.3703 10.1614 17.7032 10.3916C17.7293 10.4701 17.7698 10.5463 17.807 10.6209C17.6198 11.6656 17.2793 12.6887 16.892 13.6861C16.1606 14.0687 17.7188 14.5411 18.0533 14.627C18.3464 14.7959 18.6523 14.946 18.9588 15.0939C19.9145 15.6069 21.118 16.0663 22.1581 15.4687C22.636 15.3286 23.0293 15.0547 23.3688 14.7332C24.4594 13.5896 25.2499 11.4837 24.933 9.98738C24.9192 9.89569 24.8645 9.66471 24.7217 9.7354Z" fill="white"/>
<path fill-rule="evenodd" clip-rule="evenodd" d="M26.7328 4.10713C26.589 4.51005 26.5294 4.95732 26.574 5.38157C21.879 6.51346 16.9398 6.25302 12.292 5.06293C12.5124 4.76328 12.5679 4.35745 12.4108 4.02418C16.2494 5.28758 20.4978 5.40104 24.503 4.81383C25.2193 4.70338 26.1948 4.6143 26.734 4.10409C26.7336 4.1051 26.7332 4.10612 26.7328 4.10713ZM15.2945 5.96224C14.942 7.0725 14.7606 8.24299 14.743 9.39584C14.6216 9.37485 14.4998 9.35284 14.3784 9.33016C14.3594 8.12929 14.3566 6.92376 14.2024 5.72997C14.5699 5.81113 14.9326 5.88312 15.3012 5.95005C15.2986 5.95378 15.2964 5.95784 15.2945 5.96224ZM17.0084 13.5554C17.2961 12.675 17.6368 11.7721 17.734 10.8518C17.749 10.7497 17.7561 10.6465 17.7571 10.5415C17.7622 10.4183 17.7623 10.2948 17.7569 10.171C17.7658 10.1334 17.7752 10.1001 17.7988 10.0725C17.8112 10.0654 17.8221 10.0558 17.8308 10.0448C17.8376 10.0403 17.8448 10.0361 17.8531 10.0321C18.015 9.95481 18.3154 10.0349 18.4984 10.0426C18.8963 10.0595 19.3202 10.0683 19.6998 9.94459C19.7149 9.93971 19.7255 9.93121 19.7324 9.92129C20.8116 9.73372 21.8911 9.35138 22.9842 9.57025C23.6086 9.66282 24.3066 9.99355 24.9409 9.85534C24.9186 10.5848 24.9096 11.3183 24.7862 12.0408C24.4189 14.5652 22.3561 16.3658 19.524 15.2079C18.6016 14.8697 17.7392 14.4101 16.8215 14.0608C16.9262 13.9187 16.9673 13.6742 17.0084 13.5554ZM15.0292 11.2249C15 10.9121 14.9916 10.5979 14.984 10.2843C15.8204 10.3635 16.6917 10.5155 17.524 10.469C17.5213 10.5288 17.5183 10.5845 17.5191 10.6309C17.5194 10.6461 17.5198 10.6613 17.5201 10.6765C17.2875 11.762 16.913 12.8204 16.4838 13.8543C16.1842 13.7999 15.8872 13.7317 15.5983 13.641C15.291 12.8618 15.0966 12.0511 15.0292 11.2249ZM14.3799 9.93352C14.3802 9.81501 14.3802 9.6965 14.3799 9.578C15.3986 9.77956 16.4318 9.91621 17.4695 10.0054C17.5005 10.0644 17.5164 10.1357 17.5232 10.2111C17.5056 10.2058 17.4874 10.2028 17.4698 10.2024C16.4341 10.1678 15.4032 10.077 14.3799 9.93352ZM14.8137 10.2626C14.6927 11.4576 14.8286 12.3964 15.1918 13.5019C14.8813 13.383 14.5813 13.2405 14.2947 13.0797C14.3418 12.1208 14.3709 11.1609 14.378 10.201C14.523 10.2227 14.6683 10.2433 14.8137 10.2626ZM24.5576 9.40803C24.0218 9.36188 23.5136 9.18521 22.9831 9.11143C21.1923 8.83162 19.5659 9.87315 17.7881 9.79232C17.7052 9.73107 17.5658 9.74323 17.4668 9.73575C16.6565 9.67338 15.8483 9.57658 15.0479 9.44697C15.1455 8.29246 15.2328 7.12126 15.4047 5.96834C18.4091 6.50341 21.5193 6.53496 24.5378 6.07228C24.2996 7.17076 24.2532 8.31667 24.5576 9.40803ZM26.1421 10.2514C26.1425 12.0598 26.0253 13.8685 25.8948 15.6695C22.235 17.4298 17.6584 17.1055 14.1662 15.1585C14.2061 14.6172 14.2413 14.0751 14.2711 13.5327C14.7007 13.7667 16.3026 14.4429 16.7319 14.2041C17.5141 14.6713 18.3414 15.0849 19.1896 15.4447C23.0215 17.1597 25.3573 14.1171 25.3309 10.8798C25.3199 10.6564 25.4946 9.29779 25.1199 9.27964C25.0921 9.26999 25.0629 9.26257 25.0366 9.25275C24.9974 9.23799 24.9586 9.22662 24.9175 9.22729C24.5928 8.19887 24.7127 7.1071 24.6909 6.04824C25.1613 5.97508 25.6299 5.88938 26.0939 5.78855C26.0465 7.27592 26.1757 8.76319 26.1421 10.2514ZM14.0234 9.25973C12.9121 9.02831 11.8469 8.64824 10.7325 8.42644C10.7595 7.4163 10.7722 6.39408 11.1095 5.42051C11.5149 5.56518 11.9647 5.4374 12.2304 5.13813C12.8289 5.38529 13.4697 5.56407 14.1142 5.71C14.0148 6.88828 14.0488 8.07874 14.0234 9.25973ZM14.0081 9.879C12.9063 9.72095 11.8344 9.46193 10.7459 9.24446C10.7392 9.23434 10.7254 9.22858 10.7097 9.23671C10.6704 9.24378 10.6262 9.2319 10.586 9.23535C10.4667 9.07652 10.4895 8.8818 10.4657 8.70817C10.465 8.60017 10.4306 8.53918 10.5573 8.55683C11.7287 8.81605 12.8414 9.25865 14.0178 9.50385C14.0145 9.62879 14.0115 9.75376 14.0081 9.879ZM13.8927 12.8369C12.6643 12.0853 11.8531 10.962 11.1112 9.82886C11.0648 9.6939 11.0031 9.56185 10.9282 9.44402C10.9184 9.42845 10.9079 9.41308 10.897 9.39808C11.8929 9.75667 12.951 9.95715 14.0006 10.1414C13.9749 11.0404 13.9401 11.939 13.8927 12.8369ZM10.9862 4.13693C11.0429 4.08059 11.1083 4.03468 11.1788 3.99791C11.2316 3.98968 11.2851 3.98297 11.3402 3.97847C11.5226 3.96364 11.8213 3.9568 11.9435 4.10639C12.011 4.18907 12.0395 4.31401 12.0547 4.43048C12.0553 4.44562 12.0554 4.46068 12.0544 4.47585C11.9924 5.61909 10.2144 5.01038 10.9862 4.13693ZM12.378 3.88468C16.1425 4.2211 19.9663 3.70178 23.6612 3.05075C24.6273 3.18885 25.634 3.31786 26.5116 3.76685C26.0831 4.26661 25.1561 4.32684 24.5277 4.42266C20.4794 5.08307 16.3491 4.71621 12.3671 3.89416C12.3705 3.89078 12.3742 3.88776 12.378 3.88468ZM19.3824 0.903469C20.6383 0.8496 22.0114 1.02323 23.0033 1.77052C23.3235 2.0595 23.5379 2.43019 23.8316 2.72943C20.0955 3.51359 16.2506 3.74518 12.425 3.84402C14.2441 2.13115 16.7309 0.967868 19.3824 0.903469ZM26.9826 3.90865C26.984 3.90354 26.9852 3.89839 26.9856 3.89294C26.9876 3.86802 26.9868 3.84158 26.9858 3.81659C26.9854 3.80708 26.9846 3.79736 26.9833 3.78768C27.1853 3.39929 25.4132 2.95977 24.623 2.82149C24.5488 2.79488 24.4714 2.77405 24.3987 2.75282C24.2987 2.72371 24.1955 2.69212 24.0907 2.68081C24.0542 2.2054 23.6673 1.83685 23.2685 1.51661C22.1786 0.440386 20.5151 0.160003 18.9718 0.115919C16.3834 -0.0177885 13.6045 0.66138 11.9195 2.54558C11.6199 2.89859 11.3606 3.30665 11.3273 3.75907C10.5203 3.81585 10.0822 4.72922 10.765 5.23496C10.4476 6.23139 10.2916 7.31499 10.5885 8.33089C10.5347 8.34331 10.4831 8.36326 10.4388 8.3941C10.4372 8.39522 10.4358 8.39651 10.4343 8.39769C10.2278 8.46717 10.3294 8.84909 10.3824 9.01595C10.411 9.12402 10.4906 9.31624 10.6248 9.31908C10.7535 9.45293 10.8403 9.61697 10.9248 9.78176C11.2876 11.1171 12.6614 12.5663 13.8669 13.3014C13.8288 13.9559 13.7836 14.6097 13.7346 15.2632C13.7294 15.3302 13.7787 15.3955 13.8396 15.4291C17.4966 17.4747 22.3104 17.8882 26.1249 15.9488C26.4407 16.0397 26.5727 15.6486 26.3723 15.5209C26.5887 12.2748 26.7486 8.98483 26.2576 5.75367C26.4368 5.69747 26.8195 5.66906 26.9036 5.50925C27.0387 5.22359 26.8886 4.8723 26.9331 4.56351C26.9263 4.35982 27.0344 4.10883 26.9826 3.90865Z" fill="black"/>
<path fill-rule="evenodd" clip-rule="evenodd" d="M18.61 7.03458L18.6912 7.01444L18.774 6.99422L18.8301 6.98083C19.2148 6.88977 19.6391 6.80964 20.0206 6.84876C20.1597 6.86305 20.2726 6.93385 20.2923 7.06566C20.3089 7.17688 20.2294 7.32038 20.0942 7.34015C19.6461 7.4057 19.1874 7.38444 18.7373 7.45202C18.5131 7.48564 18.2907 7.52739 18.0673 7.56501C17.8975 7.59365 17.7221 7.60371 17.5508 7.62687L17.5902 7.63181C17.604 7.6335 17.6005 7.65446 17.5869 7.65361C17.5305 7.64852 17.4739 7.64773 17.4173 7.6513L17.3931 7.65311C17.3561 7.65781 17.3343 7.61793 17.3673 7.59768C17.5759 7.46966 17.753 7.33091 17.9866 7.23654C18.1887 7.15494 18.3967 7.08767 18.61 7.03458ZM22.1123 6.83824C22.4081 6.56784 23.0371 6.67175 23.389 6.79544C23.5898 6.86607 23.7808 6.95535 23.9398 7.08893L23.9553 7.10207L23.9792 7.12284C24.0866 7.21789 24.2063 7.34869 24.1893 7.48572C24.1867 7.50661 24.1741 7.53048 24.148 7.53468C24.0071 7.55726 23.8687 7.49002 23.7385 7.44955L23.6523 7.42281C23.5229 7.38294 23.3926 7.34485 23.2592 7.31734C23.0932 7.28321 22.924 7.26347 22.7536 7.26543C22.5814 7.26746 22.3964 7.31141 22.2324 7.24959C22.0495 7.18068 21.9546 6.98241 22.1123 6.83824ZM19.1901 9.01899C19.1146 9.08868 19.0149 9.128 18.8874 9.10461C18.7877 9.08635 18.5979 8.99571 18.4463 8.85613C18.3426 8.76064 18.2558 8.64132 18.2323 8.50309C18.2268 8.47099 18.208 8.45041 18.1832 8.43745C18.1637 8.42721 18.1379 8.42207 18.1099 8.42464C18.0861 8.42682 18.0608 8.43462 18.0412 8.44496C18.004 8.46463 17.9888 8.49256 17.9857 8.51342C17.9559 8.71466 18.0419 8.91434 18.1759 9.0827C18.3567 9.30992 18.6223 9.47642 18.7784 9.51539C19.0455 9.58212 19.3269 9.529 19.5344 9.36089C19.7003 9.22647 19.7854 9.05135 19.8643 8.87127L19.8795 8.83636C19.8973 8.7955 19.9149 8.75494 19.9336 8.71481C19.971 8.63439 19.959 8.56489 19.9227 8.51071C19.8825 8.45069 19.8084 8.40844 19.7258 8.39546C19.6495 8.38347 19.5678 8.39659 19.5034 8.43874C19.4489 8.47435 19.405 8.53076 19.3894 8.61419C19.364 8.74985 19.3052 8.90549 19.2014 9.00819L19.1901 9.01899ZM23.7702 8.23382C23.7079 8.2045 23.6592 8.19566 23.5902 8.21436C23.552 8.22473 23.5143 8.24461 23.4848 8.27132C23.4555 8.2978 23.4344 8.33072 23.4261 8.36725C23.4059 8.45739 23.3514 8.54177 23.2737 8.59677C23.2073 8.64379 23.1234 8.66871 23.0304 8.65465C22.93 8.6395 22.8344 8.58129 22.7686 8.51267C22.7502 8.49354 22.7352 8.47224 22.7206 8.45068L22.712 8.43773C22.6795 8.38929 22.648 8.34426 22.6032 8.30868C22.5863 8.29515 22.5607 8.28577 22.5359 8.28577C22.5259 8.28577 22.5157 8.28725 22.5059 8.29C22.406 8.38066 22.3868 8.44944 22.3901 8.51766C22.3934 8.58919 22.4246 8.66162 22.475 8.7292C22.5932 8.88773 22.8177 9.0177 22.9692 9.04714C23.1766 9.08745 23.3827 9.03906 23.5478 8.93429C23.7178 8.82648 23.8437 8.6591 23.883 8.47047C23.8924 8.42504 23.8884 8.376 23.8693 8.33349C23.8506 8.29194 23.818 8.25636 23.7702 8.23382Z" fill="black"/>
</svg>
