<svg width="15" height="15" viewBox="0 0 15 15" fill="none" xmlns="http://www.w3.org/2000/svg">
<path d="M6.03978 12.1328C6.0388 12.3237 6.07542 12.5128 6.14754 12.6895C6.21966 12.8662 6.32588 13.027 6.46014 13.1626C6.59439 13.2983 6.75405 13.4062 6.92999 13.4801C7.10593 13.554 7.29472 13.5926 7.48557 13.5936C7.871 13.5956 8.24144 13.4444 8.51539 13.1732C8.78934 12.9021 8.94436 12.5332 8.94635 12.1478V12.1328M11.6485 10.2119V6.70937C11.648 5.77707 11.3333 4.87215 10.7552 4.14067C10.1772 3.4092 9.36953 2.89385 8.4626 2.67781V2.37C8.45804 2.11596 8.35392 1.87387 8.17265 1.69583C7.99138 1.51778 7.74746 1.41803 7.49338 1.41803C7.2393 1.41803 6.99538 1.51778 6.81411 1.69583C6.63284 1.87387 6.52872 2.11596 6.52416 2.37V2.68125C5.62029 2.89974 4.81609 3.41569 4.24074 4.14623C3.66538 4.87676 3.35226 5.77947 3.35166 6.70937V10.2119L2.0376 11.5259V12.1328H12.9626V11.5259L11.6485 10.2119Z" stroke="#FFA95E" stroke-width="0.729167" stroke-linecap="round" stroke-linejoin="round"/>
</svg>
