<svg width="100" height="100" viewBox="0 0 100 100" fill="none" xmlns="http://www.w3.org/2000/svg">
<path d="M62.8689 42.272L51.3399 41.739C51.3399 41.739 48.5259 41.208 46.4509 45.314C46.4509 45.314 46.1509 46.075 47.0269 46.352C47.0269 46.352 47.1889 47.528 48.3189 46.905C48.3189 46.905 49.0109 47.938 50.0029 47.087C50.0029 47.087 50.9029 47.687 53.1389 46.098C55.4756 47.1227 57.9293 47.8565 60.4449 48.283C60.9323 48.365 61.4106 48.434 61.8799 48.49L63.6799 48.776C64.2881 48.8728 64.9094 48.8489 65.5083 48.7056C66.1072 48.5623 66.672 48.3024 67.1705 47.9408C67.6689 47.5792 68.0913 47.123 68.4134 46.5982C68.7356 46.0733 68.9512 45.4902 69.0479 44.882L62.8689 42.272Z" fill="white"/>
<path d="M64.427 49.036C64.1661 49.0356 63.9056 49.0149 63.6479 48.974L61.8479 48.687C61.3749 48.631 60.8889 48.561 60.411 48.48C57.917 48.0567 55.4833 47.3335 53.163 46.326C51.342 47.594 50.375 47.451 50.03 47.326C49.716 47.563 49.395 47.661 49.073 47.617C48.7589 47.5625 48.4734 47.4011 48.265 47.16C47.918 47.318 47.614 47.334 47.365 47.207C47.042 47.044 46.909 46.694 46.86 46.507C46.6146 46.4216 46.4118 46.2446 46.294 46.013C46.1887 45.769 46.1798 45.4943 46.269 45.244L46.277 45.228C48.341 41.146 51.112 41.501 51.367 41.544L62.9189 42.078L69.2749 44.763L69.2509 44.918C69.0679 46.0653 68.4825 47.1101 67.5996 47.8653C66.7167 48.6205 65.5938 49.0369 64.4319 49.04L64.427 49.036ZM53.116 45.869L53.216 45.915C55.538 46.932 57.9758 47.661 60.475 48.086C60.946 48.165 61.426 48.234 61.9 48.291L63.708 48.579C64.8583 48.7627 66.035 48.4921 66.9894 47.8242C67.9439 47.1564 68.6014 46.1436 68.8229 45L62.8229 42.467L51.316 41.934H51.302C51.194 41.914 48.609 41.495 46.634 45.392C46.5847 45.538 46.5904 45.6969 46.65 45.839C46.6967 45.9196 46.7595 45.9897 46.8345 46.0449C46.9095 46.1001 46.9951 46.1393 47.086 46.16L47.207 46.198L47.224 46.323C47.224 46.323 47.284 46.717 47.54 46.845C47.705 46.926 47.934 46.888 48.221 46.729L48.382 46.64L48.482 46.793C48.482 46.793 48.739 47.165 49.127 47.216C49.365 47.249 49.615 47.153 49.869 46.934L49.985 46.834L50.111 46.919C50.111 46.919 50.959 47.399 53.02 45.933L53.116 45.869Z" fill="black"/>
<path d="M47.027 46.6C46.9796 46.5998 46.9332 46.5862 46.893 46.561C46.8371 46.5254 46.7975 46.4691 46.7831 46.4044C46.7687 46.3397 46.7805 46.272 46.816 46.216L48.075 44.227C48.093 44.1991 48.1162 44.175 48.1435 44.1561C48.1707 44.1371 48.2014 44.1238 48.2338 44.1167C48.2662 44.1097 48.2997 44.1091 48.3323 44.1149C48.365 44.1208 48.3961 44.1331 48.424 44.151C48.452 44.1689 48.4761 44.1922 48.495 44.2194C48.5139 44.2466 48.5273 44.2773 48.5343 44.3098C48.5414 44.3422 48.542 44.3756 48.5361 44.4083C48.5302 44.4409 48.518 44.4721 48.5 44.5L47.241 46.489C47.2178 46.5242 47.186 46.5529 47.1485 46.5724C47.111 46.5918 47.0692 46.6013 47.027 46.6V46.6Z" fill="black"/>
<path d="M48.319 47.155C48.2735 47.1553 48.2288 47.1432 48.1897 47.1198C48.1506 47.0965 48.1186 47.0629 48.0973 47.0227C48.076 46.9825 48.066 46.9373 48.0686 46.8918C48.0712 46.8464 48.0862 46.8025 48.112 46.765L49.339 44.965C49.3575 44.9379 49.3812 44.9147 49.4087 44.8967C49.4362 44.8787 49.4669 44.8664 49.4992 44.8603C49.5314 44.8542 49.5646 44.8545 49.5967 44.8613C49.6289 44.868 49.6594 44.881 49.6865 44.8995C49.7136 44.918 49.7368 44.9417 49.7548 44.9692C49.7728 44.9967 49.7851 45.0274 49.7912 45.0597C49.7973 45.092 49.797 45.1251 49.7902 45.1572C49.7835 45.1894 49.7705 45.2199 49.752 45.247L48.525 47.047C48.5022 47.0805 48.4714 47.1079 48.4355 47.1268C48.3996 47.1456 48.3596 47.1553 48.319 47.155V47.155Z" fill="black"/>
<path d="M50 47.337C49.9479 47.3371 49.8971 47.3206 49.855 47.29C49.8282 47.2709 49.8055 47.2467 49.7881 47.2188C49.7707 47.1909 49.759 47.1598 49.7537 47.1274C49.7484 47.0949 49.7496 47.0618 49.7572 47.0298C49.7648 46.9978 49.7787 46.9676 49.798 46.941L50.93 45.366C50.9491 45.3393 50.9734 45.3167 51.0013 45.2994C51.0292 45.2821 51.0602 45.2705 51.0927 45.2652C51.1251 45.2599 51.1582 45.2611 51.1902 45.2686C51.2221 45.2761 51.2523 45.2898 51.279 45.309C51.3056 45.3282 51.3282 45.3524 51.3455 45.3803C51.3628 45.4082 51.3744 45.4393 51.3797 45.4717C51.385 45.5041 51.3839 45.5372 51.3764 45.5692C51.3689 45.6012 51.3551 45.6313 51.336 45.658L50.203 47.233C50.1799 47.2653 50.1494 47.2916 50.1141 47.3097C50.0788 47.3278 50.0396 47.3372 50 47.337V47.337Z" fill="black"/>
<path d="M54.3 81.168L44.969 85C44.839 85.0534 44.7285 85.1452 44.6521 85.2631C44.5758 85.3811 44.5374 85.5196 44.542 85.66V85.66C44.5477 85.8408 44.6244 86.0121 44.7554 86.1369C44.8863 86.2617 45.0611 86.33 45.242 86.327L56.342 86.127L56.213 87.397C56.2053 87.47 56.2122 87.5438 56.2332 87.6141C56.2542 87.6844 56.289 87.7498 56.3355 87.8065C56.382 87.8633 56.4393 87.9102 56.5042 87.9447C56.569 87.9791 56.64 88.0003 56.713 88.007L59.172 88.229C59.3115 88.2421 59.4507 88.2021 59.562 88.1171C59.6732 88.032 59.7482 87.908 59.772 87.77L60.7381 82.222L54.3 81.168Z" fill="#C7B8F8"/>
<path d="M80.5 80.14L76.61 89.44C76.5559 89.5697 76.5428 89.7129 76.5722 89.8503C76.6017 89.9877 76.6725 90.1129 76.775 90.209C76.9073 90.3325 77.0828 90.399 77.2637 90.3943C77.4445 90.3896 77.6163 90.3141 77.742 90.184L85.442 82.195L86.248 83.185C86.2944 83.2421 86.3518 83.2893 86.4166 83.324C86.4815 83.3587 86.5526 83.3802 86.6258 83.3872C86.699 83.3942 86.7729 83.3865 86.8432 83.3647C86.9134 83.3428 86.9786 83.3073 87.035 83.26L88.935 81.678C89.0422 81.5888 89.1119 81.4627 89.1304 81.3245C89.149 81.1863 89.1149 81.0462 89.035 80.932L85.795 76.326L80.5 80.14Z" fill="#C7B8F8"/>
<path d="M54.4001 54.184C54.3535 54.1844 54.3077 54.1717 54.268 54.1473C54.2283 54.123 54.1962 54.088 54.1753 54.0464C54.1545 54.0047 54.1458 53.958 54.1501 53.9116C54.1545 53.8653 54.1718 53.821 54.2001 53.784L59.0121 47.446C59.1098 47.3148 59.1692 47.159 59.1835 46.996C59.1977 46.833 59.1664 46.6692 59.0929 46.523C59.0195 46.3768 58.9068 46.2539 58.7675 46.1681C58.6281 46.0822 58.4677 46.0369 58.3041 46.037H51.071C51.0047 46.037 50.9412 46.0107 50.8943 45.9638C50.8474 45.9169 50.821 45.8533 50.821 45.787C50.821 45.7207 50.8474 45.6571 50.8943 45.6102C50.9412 45.5633 51.0047 45.537 51.071 45.537H58.3081C58.5646 45.5371 58.816 45.6085 59.0342 45.7433C59.2525 45.8781 59.4289 46.0709 59.5439 46.3002C59.6589 46.5295 59.7078 46.7862 59.6852 47.0417C59.6626 47.2972 59.5695 47.5414 59.4161 47.747L54.6001 54.086C54.5764 54.1165 54.5461 54.1412 54.5114 54.1582C54.4768 54.1752 54.4387 54.184 54.4001 54.184V54.184Z" fill="black"/>
<path d="M66.436 51.256C65.2219 51.956 64.3276 53.1005 63.9418 54.4478C63.5561 55.7951 63.7093 57.2395 64.369 58.476L76.4099 81C76.5438 81.2568 76.7311 81.4818 76.9594 81.66C77.1876 81.8382 77.4514 81.9654 77.7329 82.033C78.6329 82.242 79.9679 82.111 80.9619 80.125C81.0469 80.161 82.5489 80.776 83.8799 79.836C85.0399 79.016 85.1229 77.683 85.1299 77.521C85.2639 77.567 86.1679 77.86 87.0349 77.341C87.0709 77.319 87.1069 77.297 87.1409 77.273C88.0469 76.657 88.2549 75.405 87.6549 74.488C83.2849 67.802 78.2469 60.039 73.6469 52.988C72.8929 51.8337 71.7259 51.0115 70.3852 50.69C69.0444 50.3686 67.6315 50.5721 66.436 51.259V51.256Z" fill="black"/>
<path d="M70.1001 28L67.9261 28.888C67.0357 29.2509 66.0377 29.2454 65.1514 28.8726C64.2652 28.4998 63.5633 27.7902 63.2001 26.9L62.0001 23.971C61.7951 23.4689 61.798 22.906 62.008 22.4061C62.218 21.9061 62.618 21.5101 63.1201 21.305L66.2881 20.011C67.1785 19.6481 68.1767 19.6538 69.0629 20.0268C69.9492 20.3998 70.6511 21.1096 71.0141 22L71.8051 23.935C72.1175 24.7002 72.1134 25.5581 71.7937 26.3203C71.474 27.0825 70.8649 27.6866 70.1001 28V28Z" fill="black"/>
<path d="M64.1001 24.921C63.6973 24.9201 63.3032 24.8034 62.9649 24.5848C62.6266 24.3662 62.3583 24.0549 62.1921 23.688L62.1541 23.605L62.1921 23.523C62.387 23.0958 62.7222 22.7482 63.1421 22.538L65.3001 21.461C65.5604 21.3314 65.8441 21.2554 66.1344 21.2377C66.4247 21.2199 66.7156 21.2607 66.9897 21.3577C67.2639 21.4546 67.5158 21.6057 67.7304 21.8019C67.9451 21.9982 68.118 22.2356 68.2391 22.5L68.7181 23.55L68.6601 23.641C68.5074 23.8834 68.3066 24.0919 68.07 24.2534C67.8334 24.4149 67.5661 24.526 67.2848 24.5799C67.0034 24.6337 66.714 24.6291 66.4345 24.5663C66.155 24.5035 65.8914 24.384 65.6601 24.215C65.4642 24.4357 65.2241 24.6126 64.9553 24.7342C64.6865 24.8559 64.3951 24.9195 64.1001 24.921V24.921ZM62.6001 23.606C62.733 23.8628 62.9295 24.0813 63.1708 24.2406C63.4121 24.3999 63.6902 24.4948 63.9785 24.5161C64.2669 24.5375 64.5559 24.4846 64.8181 24.3626C65.0802 24.2406 65.3068 24.0534 65.4761 23.819L65.6001 23.64L65.7661 23.787C65.9426 23.9454 66.1505 24.0649 66.3762 24.1377C66.6019 24.2105 66.8405 24.2349 67.0763 24.2094C67.3121 24.184 67.5399 24.1092 67.7449 23.9899C67.9498 23.8706 68.1274 23.7094 68.2661 23.517L67.8781 22.668C67.7796 22.4517 67.6386 22.2575 67.4634 22.0969C67.2882 21.9364 67.0825 21.8128 66.8585 21.7335C66.6344 21.6543 66.3967 21.621 66.1596 21.6357C65.9224 21.6504 65.6906 21.7127 65.4781 21.819L63.3171 22.9C63.0085 23.0544 62.7557 23.3012 62.5941 23.606H62.6001Z" fill="black"/>
<path d="M70.3121 27.388L69.4871 25.717C69.7811 25.6071 70.0194 25.3848 70.1495 25.0992C70.2797 24.8136 70.291 24.488 70.1811 24.194C70.0711 23.9 69.8489 23.6617 69.5633 23.5316C69.2777 23.4014 68.9521 23.3901 68.6581 23.5C68.6061 23.5191 68.5556 23.5422 68.5071 23.569L68.4911 23.535C68.3445 23.7676 68.1489 23.9654 67.9179 24.1147C67.687 24.2639 67.4262 24.3609 67.1539 24.399C66.8816 24.4371 66.6043 24.4153 66.3413 24.3352C66.0782 24.255 65.8359 24.1185 65.6311 23.935C65.4369 24.2043 65.1752 24.4178 64.8724 24.554C64.5695 24.6902 64.2362 24.7443 63.9058 24.7109C63.5754 24.6774 63.2597 24.5576 62.9903 24.3635C62.7209 24.1694 62.5073 23.9078 62.371 23.605C62.2697 23.8255 62.2129 24.0638 62.2038 24.3062C62.1947 24.5487 62.2335 24.7906 62.318 25.018L62.51 25.536C62.6986 26.0447 62.7436 26.5955 62.64 27.128C62.6165 27.2388 62.6357 27.3545 62.6937 27.4518C62.7518 27.5491 62.8444 27.621 62.9531 27.653L63.3391 27.763L63.747 28.863C63.8281 29.0813 63.9555 29.2794 64.1204 29.4438C64.2853 29.6082 64.4838 29.735 64.7023 29.8155C64.9208 29.8959 65.1541 29.9282 65.3862 29.91C65.6183 29.8918 65.8438 29.8235 66.0471 29.71L67.0471 29.149L67.9421 30.9L71.1851 29.241L70.3121 27.388Z" fill="white"/>
<path d="M67.855 31.165L66.967 29.429L66.146 29.889C65.9173 30.0168 65.6637 30.0936 65.4026 30.1142C65.1414 30.1348 64.8789 30.0986 64.6331 30.0081C64.3872 29.9177 64.1638 29.7751 63.9783 29.5903C63.7927 29.4054 63.6493 29.1825 63.558 28.937L63.186 27.932L62.9 27.85C62.7434 27.8056 62.6093 27.7036 62.5247 27.5645C62.4402 27.4254 62.4113 27.2595 62.444 27.1V27.087C62.4902 26.851 62.505 26.6099 62.488 26.37C62.4693 26.1092 62.4137 25.8523 62.323 25.607L62.13 25.088C62.0361 24.8361 61.993 24.5682 62.0032 24.2996C62.0133 24.031 62.0764 23.7671 62.189 23.523L62.372 23.123L62.553 23.523C62.6747 23.794 62.8655 24.0282 63.1063 24.2022C63.3471 24.3761 63.6295 24.4837 63.925 24.5141C64.2205 24.5445 64.5188 24.4966 64.79 24.3753C65.0612 24.254 65.2957 24.0636 65.47 23.823L65.6 23.64L65.766 23.787C65.9492 23.951 66.166 24.073 66.4013 24.1447C66.6365 24.2163 66.8845 24.2357 67.1281 24.2016C67.3716 24.1675 67.6047 24.0807 67.8113 23.9473C68.0178 23.8139 68.1928 23.637 68.324 23.429L68.524 23.117L68.611 23.307C68.9534 23.1852 69.3299 23.2032 69.6591 23.3571C69.9884 23.5109 70.2437 23.7882 70.37 24.129C70.4832 24.4363 70.4841 24.7737 70.3724 25.0815C70.2608 25.3894 70.0438 25.6478 69.76 25.811L70.493 27.3L71.449 29.324L67.855 31.165ZM67.134 28.877L68.029 30.627L70.921 29.147L70.132 27.475L69.21 25.608L69.416 25.53C69.6602 25.4386 69.8582 25.254 69.9663 25.0167C70.0744 24.7793 70.0838 24.5088 69.9925 24.2645C69.9011 24.0202 69.7165 23.8223 69.4791 23.7142C69.2418 23.606 68.9712 23.5966 68.727 23.688C68.6841 23.7045 68.6423 23.7239 68.602 23.746L68.583 23.757C68.4216 23.9792 68.2179 24.1674 67.9836 24.3108C67.7494 24.4542 67.4892 24.55 67.2179 24.5927C66.9466 24.6355 66.6695 24.6243 66.4025 24.5598C66.1355 24.4953 65.8839 24.3788 65.662 24.217C65.4565 24.4487 65.2022 24.6319 64.9173 24.7534C64.6324 24.8748 64.3241 24.9315 64.0147 24.9192C63.7052 24.907 63.4023 24.8261 63.1279 24.6826C62.8536 24.539 62.6145 24.3362 62.428 24.089C62.3759 24.3774 62.4025 24.6745 62.505 24.949L62.698 25.468C62.8998 26.0111 62.9476 26.5995 62.836 27.168C62.8209 27.2304 62.8302 27.2962 62.862 27.3519C62.8938 27.4076 62.9456 27.4492 63.007 27.468L63.49 27.6L63.933 28.8C64.0041 28.9914 64.1158 29.1651 64.2604 29.3092C64.4051 29.4534 64.5792 29.5645 64.7708 29.635C64.9624 29.7055 65.167 29.7337 65.3706 29.7176C65.5741 29.7016 65.7718 29.6417 65.95 29.542L67.134 28.877Z" fill="black"/>
<path d="M71.1849 21.101C72.8247 21.101 74.1539 19.7717 74.1539 18.132C74.1539 16.4923 72.8247 15.163 71.1849 15.163C69.5452 15.163 68.2159 16.4923 68.2159 18.132C68.2159 19.7717 69.5452 21.101 71.1849 21.101Z" fill="black"/>
<path d="M75.762 17.339C78.1573 17.339 80.099 15.3973 80.099 13.002C80.099 10.6067 78.1573 8.665 75.762 8.665C73.3668 8.665 71.425 10.6067 71.425 13.002C71.425 15.3973 73.3668 17.339 75.762 17.339Z" fill="black"/>
<path d="M62.48 47.174L50.606 79.338C50.245 80.238 50.47 81.246 51.136 81.822C51.956 82.531 53.315 82.475 54.174 81.586C54.226 81.693 54.811 82.829 56.12 83.03C56.5869 83.0981 57.0634 83.0393 57.4998 82.8598C57.9361 82.6804 58.3161 82.3868 58.6 82.01C58.7987 82.4175 59.0998 82.7665 59.4738 83.0228C59.8478 83.2791 60.2819 83.434 60.7336 83.4723C61.1854 83.5106 61.6394 83.431 62.0512 83.2413C62.463 83.0516 62.8185 82.7583 63.083 82.39C63.2719 82.1293 63.4137 81.8376 63.502 81.528L70.602 57.828C70.602 57.828 74.286 54.975 73.434 48.934L62.48 47.174Z" fill="black"/>
<path d="M64.646 26.287C64.8045 26.287 64.933 26.1585 64.933 26C64.933 25.8415 64.8045 25.713 64.646 25.713C64.4875 25.713 64.359 25.8415 64.359 26C64.359 26.1585 64.4875 26.287 64.646 26.287Z" fill="black"/>
<path d="M67.0081 28.936L67.5081 29.915L68.8561 28.076C68.8642 28.0631 68.8678 28.048 68.8665 28.0328C68.8651 28.0177 68.8589 28.0034 68.8488 27.9921C68.8386 27.9808 68.825 27.9732 68.8101 27.9703C68.7952 27.9674 68.7798 27.9694 68.7661 27.976L67.0081 28.936Z" fill="black"/>
<path d="M64.846 28.443C64.7604 28.4442 64.675 28.4341 64.592 28.413C64.5436 28.3966 64.5034 28.3624 64.4795 28.3173C64.4556 28.2722 64.4498 28.2197 64.4634 28.1705C64.4769 28.1213 64.5087 28.0791 64.5524 28.0526C64.596 28.0262 64.6481 28.0173 64.698 28.028C64.8538 28.0625 65.0168 28.0394 65.157 27.963C65.307 27.871 65.411 27.699 65.466 27.451C65.4776 27.3992 65.5094 27.3541 65.5543 27.3257C65.5993 27.2972 65.6536 27.2878 65.7055 27.2995C65.7573 27.3112 65.8024 27.343 65.8308 27.3879C65.8592 27.4328 65.8686 27.4872 65.857 27.539C65.776 27.899 65.609 28.158 65.357 28.308C65.202 28.3983 65.0254 28.445 64.846 28.443V28.443Z" fill="black"/>
<path d="M69.084 25.087C69.0106 25.0876 68.9385 25.068 68.8756 25.0304C68.8126 24.9927 68.7612 24.9385 68.727 24.8736C68.6928 24.8088 68.677 24.7357 68.6815 24.6625C68.686 24.5893 68.7106 24.5187 68.7525 24.4585C68.7944 24.3983 68.852 24.3508 68.9191 24.3212C68.9862 24.2915 69.0601 24.2809 69.1328 24.2904C69.2056 24.3 69.2743 24.3293 69.3314 24.3753C69.3886 24.4212 69.432 24.482 69.4569 24.551C69.4929 24.65 69.4884 24.7591 69.4444 24.8548C69.4004 24.9504 69.3205 25.0249 69.2219 25.062C69.1778 25.0786 69.1311 25.0871 69.084 25.087V25.087ZM69.084 24.587C69.0625 24.5867 69.0416 24.5933 69.0242 24.6058C69.0069 24.6183 68.994 24.6361 68.9874 24.6565C68.9809 24.6768 68.9811 24.6988 68.9879 24.7191C68.9948 24.7393 69.008 24.7569 69.0255 24.7691C69.0431 24.7813 69.0641 24.7876 69.0855 24.787C69.1069 24.7863 69.1276 24.7789 69.1444 24.7657C69.1612 24.7524 69.1734 24.7342 69.1791 24.7135C69.1847 24.6929 69.1837 24.671 69.1759 24.651V24.651C69.1681 24.6331 69.1553 24.6179 69.1389 24.6072C69.1226 24.5966 69.1035 24.5909 69.084 24.591V24.587Z" fill="black"/>
<path d="M68.867 24.972C68.8414 24.972 68.8162 24.9655 68.7938 24.953C68.7714 24.9406 68.7525 24.9227 68.739 24.901C68.6791 24.8041 68.6456 24.6932 68.6419 24.5793C68.6383 24.4654 68.6645 24.3526 68.718 24.252C68.7711 24.1586 68.8457 24.0793 68.9356 24.0205C69.0255 23.9617 69.1281 23.9252 69.235 23.914C69.2744 23.9115 69.3134 23.9243 69.3436 23.9499C69.3738 23.9754 69.3929 24.0116 69.397 24.051C69.3986 24.0706 69.3964 24.0904 69.3904 24.1092C69.3844 24.1279 69.3747 24.1453 69.362 24.1604C69.3493 24.1754 69.3337 24.1878 69.3162 24.1968C69.2987 24.2059 69.2796 24.2114 69.26 24.213C69.2028 24.2197 69.148 24.2396 69.0998 24.271C69.0516 24.3024 69.0113 24.3445 68.982 24.394C68.9533 24.4482 68.9394 24.5089 68.9415 24.5701C68.9436 24.6313 68.9617 24.6909 68.994 24.743C69.0044 24.7597 69.0115 24.7782 69.0147 24.7976C69.018 24.817 69.0173 24.8368 69.0129 24.856C69.0084 24.8751 69.0002 24.8932 68.9887 24.9092C68.9772 24.9251 68.9627 24.9387 68.946 24.949C68.9224 24.9641 68.895 24.9721 68.867 24.972V24.972Z" fill="black"/>
<path d="M67.236 31.3C66.9806 31.4234 66.7166 31.5281 66.446 31.613C66.1237 31.71 65.8245 31.8715 65.5667 32.0878C65.3088 32.3041 65.0976 32.5705 64.946 32.871L62.468 37.778C62.468 37.778 60.843 40.889 63.091 42.273L75.039 43.054L77.232 31.1C77.232 31.1 75.518 29.233 71.832 29.442L71.276 28.581C71.226 28.5029 71.149 28.4461 71.0597 28.4213C70.9703 28.3966 70.875 28.4058 70.792 28.447L67.516 30.076C67.4336 30.1169 67.369 30.1866 67.3345 30.272C67.3001 30.3573 67.2981 30.4523 67.329 30.539L67.548 31.16L67.236 31.3Z" fill="#FFC1EB"/>
<path d="M75.638 30.366C74.7858 30.2303 73.9146 30.4384 73.2158 30.9447C72.5169 31.451 72.0477 32.2139 71.911 33.066L70.391 42.616L58.862 42.082C58.862 42.082 56.048 41.551 53.973 45.657C53.973 45.657 53.673 46.418 54.549 46.695C54.549 46.695 54.711 47.871 55.841 47.248C55.841 47.248 56.533 48.281 57.525 47.43C57.525 47.43 58.425 48.03 60.661 46.441C62.9976 47.4661 65.4513 48.1999 67.967 48.626C68.4537 48.708 68.932 48.777 69.402 48.833L71.202 49.119C71.8102 49.2158 72.4315 49.1919 73.0304 49.0486C73.6293 48.9053 74.1941 48.6454 74.6926 48.2838C75.191 47.9222 75.6134 47.466 75.9355 46.9412C76.2577 46.4163 76.4733 45.8332 76.57 45.225L78.342 34.09C78.4765 33.2377 78.2673 32.3669 77.7604 31.6687C77.2534 30.9705 76.4901 30.502 75.638 30.366V30.366Z" fill="white"/>
<path d="M71.949 49.383C71.6882 49.3826 71.4277 49.3619 71.1701 49.321L69.3701 49.034C68.8961 48.978 68.4101 48.908 67.9331 48.827C65.4391 48.4038 63.0054 47.6805 60.6851 46.673C58.8641 47.941 57.8971 47.798 57.5521 47.673C57.2381 47.91 56.9171 48.008 56.5951 47.964C56.281 47.9096 55.9955 47.7481 55.7871 47.507C55.4401 47.665 55.1361 47.681 54.8871 47.554C54.5641 47.391 54.4321 47.041 54.3821 46.854C54.1367 46.7686 53.9339 46.5916 53.8161 46.36C53.7103 46.1161 53.7017 45.841 53.7921 45.591L53.7991 45.575C55.8631 41.493 58.6331 41.848 58.8891 41.891L70.2271 42.416L71.718 33.043C71.8621 32.1377 72.3598 31.3267 73.1018 30.7883C73.8438 30.25 74.7692 30.0285 75.6745 30.1725C76.5799 30.3165 77.3909 30.8143 77.9292 31.5563C78.4675 32.2982 78.6891 33.2237 78.545 34.129L76.768 45.261C76.585 46.4084 75.9996 47.4531 75.1167 48.2083C74.2338 48.9636 73.1109 49.38 71.949 49.383V49.383ZM60.6381 46.216L60.7381 46.262C63.0611 47.2792 65.4999 48.0083 68.0001 48.433C68.4701 48.512 68.9501 48.581 69.4251 48.638L71.2331 48.926C72.4087 49.113 73.6104 48.8255 74.5742 48.1269C75.5381 47.4282 76.185 46.3755 76.373 45.2L78.145 34.064C78.2721 33.2634 78.0762 32.4451 77.6003 31.7888C77.1244 31.1326 76.4075 30.6921 75.607 30.564V30.564C74.8065 30.4375 73.9885 30.6337 73.3324 31.1094C72.6762 31.5852 72.2356 32.3018 72.1071 33.102L70.56 42.828L58.8241 42.282C58.7151 42.262 56.1311 41.843 54.1561 45.74C54.1074 45.8861 54.113 46.0448 54.1721 46.187C54.2188 46.2676 54.2816 46.3377 54.3566 46.3929C54.4316 46.4482 54.5172 46.4873 54.6081 46.508L54.7291 46.546L54.7461 46.671C54.7461 46.671 54.8061 47.071 55.0621 47.193C55.2261 47.274 55.4561 47.236 55.7431 47.077L55.9041 46.989L56.0041 47.141C56.0041 47.141 56.2621 47.513 56.6491 47.564C56.8871 47.595 57.1371 47.501 57.3911 47.282L57.5071 47.182L57.6331 47.267C57.6331 47.267 58.4811 47.747 60.5421 46.281L60.6381 46.216Z" fill="black"/>
<path d="M54.5489 46.949C54.5043 46.9487 54.4606 46.9364 54.4222 46.9136C54.3839 46.8907 54.3523 46.858 54.3308 46.8189C54.3093 46.7797 54.2987 46.7356 54.2999 46.691C54.3012 46.6463 54.3143 46.6029 54.3379 46.565L55.6 44.576C55.6166 44.5465 55.6391 44.5207 55.666 44.5001C55.693 44.4796 55.7238 44.4647 55.7567 44.4565C55.7896 44.4482 55.8238 44.4467 55.8572 44.4521C55.8907 44.4574 55.9227 44.4695 55.9513 44.4876C55.98 44.5058 56.0046 44.5295 56.0238 44.5575C56.043 44.5854 56.0563 44.6169 56.0629 44.6502C56.0695 44.6834 56.0693 44.7176 56.0622 44.7508C56.0552 44.7839 56.0415 44.8153 56.022 44.843L54.7599 46.832C54.7377 46.8679 54.7066 46.8975 54.6697 46.918C54.6328 46.9385 54.5912 46.9492 54.5489 46.949Z" fill="black"/>
<path d="M55.841 47.5C55.7955 47.5003 55.7507 47.4882 55.7116 47.4648C55.6726 47.4415 55.6406 47.4079 55.6193 47.3677C55.5979 47.3275 55.588 47.2822 55.5906 47.2368C55.5932 47.1914 55.6082 47.1475 55.634 47.11L56.861 45.31C56.8788 45.2813 56.9021 45.2565 56.9297 45.2371C56.9573 45.2177 56.9886 45.204 57.0216 45.197C57.0546 45.19 57.0887 45.1897 57.1218 45.1962C57.1549 45.2027 57.1863 45.2159 57.2142 45.2348C57.2421 45.2538 57.2659 45.2782 57.2841 45.3067C57.3023 45.3351 57.3146 45.3669 57.3202 45.4002C57.3258 45.4334 57.3245 45.4675 57.3166 45.5003C57.3087 45.5331 57.2942 45.5639 57.274 45.591L56.048 47.391C56.0249 47.4246 55.994 47.4521 55.958 47.4711C55.9219 47.4901 55.8817 47.5 55.841 47.5Z" fill="black"/>
<path d="M57.524 47.684C57.4719 47.6841 57.4211 47.6676 57.379 47.637C57.3523 47.6178 57.3297 47.5936 57.3124 47.5657C57.2951 47.5378 57.2835 47.5067 57.2782 47.4743C57.2729 47.4419 57.274 47.4088 57.2815 47.3768C57.2891 47.3448 57.3028 47.3147 57.322 47.288L58.454 45.713C58.4927 45.6592 58.5512 45.6229 58.6167 45.6122C58.6821 45.6015 58.7491 45.6173 58.803 45.656C58.8568 45.6947 58.8931 45.7532 58.9038 45.8187C58.9145 45.8841 58.8987 45.9512 58.86 46.005L57.728 47.58C57.7047 47.6123 57.674 47.6385 57.6385 47.6566C57.6031 47.6747 57.5638 47.6841 57.524 47.684Z" fill="black"/>
<path d="M68.3 65.72C68.2804 65.72 68.2608 65.717 68.242 65.711C68.1913 65.6957 68.1486 65.6609 68.1235 65.6143C68.0984 65.5676 68.0928 65.5128 68.108 65.462L70.429 57.711L70.48 57.672C72.695 55.972 73.189 52.672 73.193 52.635C73.2006 52.582 73.2289 52.5341 73.2718 52.5019C73.3146 52.4698 73.3685 52.4559 73.4215 52.4635C73.4746 52.4711 73.5225 52.4994 73.5546 52.5422C73.5868 52.5851 73.6006 52.639 73.593 52.692C73.573 52.833 73.081 56.144 70.779 57.95L68.495 65.577C68.4826 65.6189 68.4568 65.6555 68.4216 65.6813C68.3864 65.7071 68.3437 65.7207 68.3 65.72V65.72Z" fill="white"/>
<path d="M72.631 43.026H72.614L70.374 42.869C70.3412 42.8667 70.3091 42.858 70.2796 42.8433C70.2502 42.8286 70.2239 42.8082 70.2023 42.7834C70.1587 42.7332 70.1368 42.6678 70.1415 42.6015C70.1461 42.5352 70.1769 42.4735 70.2271 42.4299C70.2772 42.3863 70.3427 42.3644 70.409 42.369L72.649 42.526C72.6818 42.5272 72.7141 42.5348 72.744 42.5485C72.7738 42.5621 72.8007 42.5815 72.8231 42.6056C72.8455 42.6296 72.8629 42.6579 72.8744 42.6887C72.8859 42.7194 72.8912 42.7522 72.89 42.785C72.8888 42.8178 72.8812 42.8501 72.8675 42.88C72.8538 42.9099 72.8344 42.9368 72.8104 42.9591C72.7863 42.9815 72.7581 42.999 72.7273 43.0104C72.6965 43.0219 72.6638 43.0272 72.631 43.026V43.026Z" fill="black"/>
<path d="M43.929 16.561H29.024C27.8576 16.561 26.912 17.5066 26.912 18.673V24.995C26.912 26.1614 27.8576 27.107 29.024 27.107H43.929C45.0954 27.107 46.041 26.1614 46.041 24.995V18.673C46.041 17.5066 45.0954 16.561 43.929 16.561Z" fill="white"/>
<path d="M43.929 27.307H29.029C28.4159 27.3062 27.8282 27.0622 27.3947 26.6286C26.9613 26.195 26.7176 25.6071 26.717 24.994V18.674C26.7176 18.0609 26.9613 17.473 27.3947 17.0394C27.8282 16.6058 28.4159 16.3618 29.029 16.361H43.929C44.5422 16.3618 45.1299 16.6058 45.5633 17.0394C45.9968 17.473 46.2405 18.0609 46.241 18.674V24.994C46.2405 25.6071 45.9968 26.195 45.5633 26.6286C45.1299 27.0622 44.5422 27.3062 43.929 27.307V27.307ZM29.029 16.761C28.522 16.7618 28.036 16.9636 27.6776 17.3222C27.3191 17.6808 27.1176 18.167 27.117 18.674V24.994C27.1176 25.501 27.3191 25.9871 27.6776 26.3458C28.036 26.7044 28.522 26.9062 29.029 26.907H43.929C44.4361 26.9062 44.9221 26.7044 45.2805 26.3458C45.6389 25.9871 45.8405 25.501 45.841 24.994V18.674C45.8405 18.167 45.6389 17.6808 45.2805 17.3222C44.9221 16.9636 44.4361 16.7618 43.929 16.761H29.029Z" fill="black"/>
<path d="M30.4 20.186C30.347 20.186 30.2961 20.1649 30.2586 20.1274C30.2211 20.0899 30.2 20.039 30.2 19.986C30.187 19.419 30.4 19.079 30.578 18.894C30.6762 18.7893 30.794 18.7051 30.9247 18.646C31.0555 18.587 31.1966 18.5544 31.34 18.55C31.48 18.5518 31.6182 18.5813 31.7468 18.6367C31.8753 18.6922 31.9916 18.7725 32.089 18.873C32.273 19.058 32.489 19.4 32.483 19.984C32.483 20.037 32.462 20.0879 32.4244 20.1254C32.3869 20.1629 32.3361 20.184 32.283 20.184C32.23 20.184 32.1791 20.1629 32.1416 20.1254C32.1041 20.0879 32.083 20.037 32.083 19.984C32.083 19.632 31.992 19.347 31.806 19.161C31.6854 19.0356 31.5209 18.9617 31.347 18.955V18.955C31.1649 18.9639 30.9934 19.0436 30.869 19.177C30.688 19.364 30.596 19.642 30.604 19.977C30.6047 20.0033 30.6002 20.0294 30.5907 20.0539C30.5813 20.0784 30.5671 20.1009 30.549 20.1199C30.5309 20.1389 30.5092 20.1542 30.4852 20.1649C30.4612 20.1755 30.4353 20.1814 30.409 20.182L30.4 20.186Z" fill="black"/>
<path d="M33.2409 25.249H29.467C29.3741 25.2484 29.2824 25.228 29.1981 25.1892C29.1137 25.1504 29.0386 25.0941 28.9778 25.024C28.9169 24.9538 28.8717 24.8715 28.8452 24.7826C28.8187 24.6936 28.8114 24.6 28.824 24.508L29.3499 20.553C29.3701 20.3966 29.4464 20.2528 29.5647 20.1485C29.683 20.0441 29.8352 19.9864 29.9929 19.986H32.6259C32.7811 19.9868 32.9309 20.0429 33.0484 20.1443C33.1659 20.2457 33.2434 20.3856 33.2669 20.539L33.8819 24.494C33.8968 24.5869 33.8914 24.6819 33.866 24.7725C33.8407 24.8632 33.796 24.9472 33.7351 25.019C33.6742 25.0907 33.5985 25.1484 33.5132 25.1881C33.4279 25.2278 33.335 25.2486 33.2409 25.249V25.249Z" fill="#FFC1EB"/>
<path d="M43.291 19.383H36.55C36.1523 19.383 35.83 19.7051 35.83 20.1025C35.83 20.4999 36.1523 20.822 36.55 20.822H43.291C43.6886 20.822 44.011 20.4999 44.011 20.1025C44.011 19.7051 43.6886 19.383 43.291 19.383Z" fill="#FFBB45"/>
<path d="M43.67 22.711H36.17C36.1169 22.711 36.0661 22.6899 36.0285 22.6524C35.991 22.6149 35.97 22.564 35.97 22.511C35.97 22.458 35.991 22.4071 36.0285 22.3696C36.0661 22.3321 36.1169 22.311 36.17 22.311H43.67C43.723 22.311 43.7739 22.3321 43.8114 22.3696C43.8489 22.4071 43.87 22.458 43.87 22.511C43.87 22.564 43.8489 22.6149 43.8114 22.6524C43.7739 22.6899 43.723 22.711 43.67 22.711Z" fill="black"/>
<path d="M42.614 24.421H36.172C36.119 24.421 36.0681 24.3999 36.0306 24.3624C35.9931 24.3249 35.972 24.274 35.972 24.221C35.972 24.168 35.9931 24.1171 36.0306 24.0796C36.0681 24.0421 36.119 24.021 36.172 24.021H42.614C42.6671 24.021 42.718 24.0421 42.7555 24.0796C42.793 24.1171 42.814 24.168 42.814 24.221C42.814 24.274 42.793 24.3249 42.7555 24.3624C42.718 24.3999 42.6671 24.421 42.614 24.421V24.421Z" fill="black"/>
<path d="M55.738 12.059H50.533C49.7504 12.059 49.116 12.6934 49.116 13.476V18.681C49.116 19.4636 49.7504 20.098 50.533 20.098H55.738C56.5206 20.098 57.155 19.4636 57.155 18.681V13.476C57.155 12.6934 56.5206 12.059 55.738 12.059Z" fill="white"/>
<path d="M55.738 20.3H50.533C50.1042 20.2997 49.6931 20.1293 49.3899 19.8261C49.0867 19.5229 48.9163 19.1118 48.916 18.683V13.476C48.9163 13.0472 49.0867 12.6361 49.3899 12.3329C49.6931 12.0297 50.1042 11.8593 50.533 11.859H55.738C56.1668 11.8593 56.5779 12.0297 56.8811 12.3329C57.1843 12.6361 57.3547 13.0472 57.355 13.476V18.681C57.3551 18.8935 57.3134 19.1039 57.2322 19.3003C57.151 19.4966 57.032 19.6751 56.8818 19.8254C56.7317 19.9757 56.5534 20.095 56.3571 20.1765C56.1609 20.2579 55.9505 20.2999 55.738 20.3V20.3ZM50.533 12.261C50.2103 12.2613 49.9009 12.3896 49.6728 12.6177C49.4446 12.8459 49.3163 13.1553 49.316 13.478V18.683C49.3163 19.0057 49.4446 19.3151 49.6728 19.5433C49.9009 19.7714 50.2103 19.8997 50.533 19.9H55.738C56.0607 19.8997 56.3701 19.7714 56.5983 19.5433C56.8264 19.3151 56.9547 19.0057 56.955 18.683V13.476C56.9547 13.1533 56.8264 12.8439 56.5983 12.6157C56.3701 12.3876 56.0607 12.2593 55.738 12.259L50.533 12.261Z" fill="black"/>
<path d="M54.621 14.513H51.6509C51.1693 14.513 50.7789 14.9034 50.7789 15.385V17.803C50.7789 18.2846 51.1693 18.675 51.6509 18.675H54.621C55.1026 18.675 55.493 18.2846 55.493 17.803V15.385C55.493 14.9034 55.1026 14.513 54.621 14.513Z" fill="#FFC1EB"/>
<path d="M55.492 16.074H50.779C50.7259 16.074 50.6751 16.0529 50.6376 16.0154C50.6001 15.9779 50.579 15.927 50.579 15.874C50.579 15.821 50.6001 15.7701 50.6376 15.7326C50.6751 15.6951 50.7259 15.674 50.779 15.674H55.492C55.545 15.674 55.5959 15.6951 55.6334 15.7326C55.6709 15.7701 55.692 15.821 55.692 15.874C55.692 15.927 55.6709 15.9779 55.6334 16.0154C55.5959 16.0529 55.545 16.074 55.492 16.074V16.074Z" fill="#FB6D6D"/>
<path d="M53.446 14.713H53.135C51.925 14.713 51.575 14.277 51.494 13.913C51.478 13.8402 51.4779 13.7648 51.4938 13.6919C51.5097 13.6191 51.5411 13.5505 51.586 13.491C51.63 13.4316 51.6865 13.3825 51.7514 13.3471C51.8163 13.3117 51.8882 13.2909 51.962 13.286C52.762 13.23 53.295 14.386 53.317 14.431L53.446 14.713ZM52.017 13.683H51.989C51.9727 13.6843 51.9568 13.689 51.9425 13.6969C51.9281 13.7049 51.9157 13.7158 51.906 13.729C51.8958 13.7424 51.8887 13.7578 51.885 13.7742C51.8814 13.7906 51.8814 13.8076 51.885 13.824C51.943 14.086 52.259 14.249 52.785 14.297C52.606 14.014 52.32 13.683 52.017 13.683V13.683Z" fill="#FB6D6D"/>
<path d="M53.119 14.713H52.809L52.937 14.43C52.96 14.381 53.492 13.23 54.292 13.285C54.3661 13.2901 54.4382 13.3112 54.5034 13.3468C54.5686 13.3823 54.6254 13.4316 54.6698 13.4911C54.7143 13.5506 54.7453 13.6191 54.7609 13.6917C54.7764 13.7643 54.7761 13.8395 54.76 13.912C54.68 14.277 54.33 14.713 53.119 14.713ZM54.238 13.683C53.938 13.683 53.65 14.017 53.468 14.298C53.996 14.25 54.312 14.087 54.368 13.825C54.3716 13.8086 54.3715 13.7916 54.3679 13.7752C54.3643 13.7588 54.3571 13.7434 54.347 13.73C54.3371 13.7167 54.3245 13.7057 54.31 13.6977C54.2955 13.6898 54.2795 13.6851 54.263 13.684L54.238 13.683Z" fill="#FB6D6D"/>
<path d="M54.3919 16.927C54.3567 16.9271 54.322 16.918 54.2915 16.9004C54.2609 16.8828 54.2356 16.8575 54.2179 16.827L53.108 14.913L52.053 16.753C52.0398 16.7758 52.0223 16.7958 52.0015 16.8118C51.9806 16.8278 51.9568 16.8396 51.9314 16.8464C51.906 16.8532 51.8795 16.855 51.8535 16.8516C51.8274 16.8481 51.8022 16.8396 51.7795 16.8265C51.7567 16.8134 51.7367 16.7959 51.7207 16.775C51.7046 16.7542 51.6929 16.7304 51.6861 16.705C51.6792 16.6796 51.6775 16.6531 51.6809 16.627C51.6843 16.6009 51.6928 16.5758 51.706 16.553L53.1059 14.111L54.5639 16.626C54.5905 16.6718 54.5978 16.7262 54.5843 16.7774C54.5708 16.8285 54.5376 16.8723 54.4919 16.899C54.4617 16.917 54.4272 16.9266 54.3919 16.927V16.927Z" fill="#FB6D6D"/>
<path d="M53.1561 18.874C53.103 18.874 53.0521 18.8529 53.0146 18.8154C52.9771 18.7779 52.9561 18.7271 52.9561 18.674V14.645C52.9561 14.592 52.9771 14.5411 53.0146 14.5036C53.0521 14.4661 53.103 14.445 53.1561 14.445C53.2091 14.445 53.26 14.4661 53.2975 14.5036C53.335 14.5411 53.3561 14.592 53.3561 14.645V18.674C53.3561 18.7003 53.3509 18.7263 53.3408 18.7505C53.3308 18.7748 53.3161 18.7969 53.2975 18.8154C53.2789 18.834 53.2569 18.8487 53.2326 18.8588C53.2083 18.8688 53.1823 18.874 53.1561 18.874Z" fill="#FB6D6D"/>
<path d="M61.852 23.619C61.518 23.619 61.206 23.419 60.97 23.06C60.7431 22.6709 60.617 22.2313 60.603 21.7812C60.589 21.331 60.6877 20.8844 60.89 20.482C61.108 20.096 61.417 19.882 61.762 19.867C62.107 19.852 62.429 20.055 62.67 20.427C62.9054 20.8121 63.0325 21.2537 63.038 21.705C63.07 22.757 62.561 23.598 61.879 23.619H61.852ZM61.787 20.267H61.774C61.574 20.273 61.385 20.42 61.238 20.679C61.072 21.0177 60.9913 21.3918 61.003 21.7688C61.0146 22.1458 61.1183 22.5143 61.305 22.842C61.468 23.091 61.667 23.223 61.866 23.219C62.31 23.205 62.666 22.519 62.638 21.719C62.6355 21.341 62.5319 20.9705 62.338 20.646C62.176 20.4 61.982 20.267 61.787 20.267Z" fill="#FB6D6D"/>
<path d="M64.853 22.913C64.064 22.913 63.422 22.071 63.422 21.037C63.422 20.003 64.064 19.16 64.853 19.16C65.642 19.16 66.286 20.002 66.286 21.037C66.286 22.072 65.643 22.913 64.853 22.913ZM64.853 19.56C64.284 19.56 63.822 20.222 63.822 21.037C63.822 21.852 64.284 22.513 64.853 22.513C65.422 22.513 65.886 21.851 65.886 21.037C65.886 20.223 65.423 19.56 64.853 19.56Z" fill="#FB6D6D"/>
<path d="M62.821 21.7C62.7728 21.6994 62.7263 21.6814 62.6903 21.6493C62.6543 21.6172 62.6311 21.5731 62.625 21.5253C62.6189 21.4774 62.6304 21.4289 62.6572 21.3888C62.684 21.3487 62.7244 21.3196 62.771 21.307L63.492 21.12C63.5178 21.1123 63.5448 21.1099 63.5716 21.1128C63.5983 21.1158 63.6242 21.1242 63.6476 21.1374C63.6711 21.1506 63.6916 21.1684 63.708 21.1898C63.7244 21.2111 63.7363 21.2355 63.743 21.2616C63.7497 21.2876 63.7511 21.3148 63.7471 21.3414C63.7431 21.368 63.7338 21.3935 63.7197 21.4164C63.7056 21.4393 63.687 21.4591 63.6651 21.4747C63.6432 21.4903 63.6183 21.5013 63.592 21.507L62.871 21.694C62.8546 21.6979 62.8379 21.6999 62.821 21.7Z" fill="#FB6D6D"/>
<path d="M68.391 21.237H66.091C66.0379 21.237 65.9871 21.2159 65.9496 21.1784C65.9121 21.1409 65.891 21.09 65.891 21.037C65.891 20.984 65.9121 20.9331 65.9496 20.8956C65.9871 20.8581 66.0379 20.837 66.091 20.837H68.391C68.444 20.837 68.4949 20.8581 68.5324 20.8956C68.5699 20.9331 68.591 20.984 68.591 21.037C68.591 21.09 68.5699 21.1409 68.5324 21.1784C68.4949 21.2159 68.444 21.237 68.391 21.237Z" fill="#FB6D6D"/>
<path d="M67.717 31.375C67.66 31.3744 67.6049 31.3544 67.5609 31.3182C67.5168 31.2821 67.4864 31.232 67.4748 31.1762C67.4631 31.1204 67.4708 31.0623 67.4967 31.0116C67.5226 30.9608 67.565 30.9204 67.617 30.897L70.291 29.687C70.3514 29.6597 70.4203 29.6575 70.4824 29.6809C70.5444 29.7044 70.5947 29.7515 70.622 29.812C70.6493 29.8725 70.6515 29.9413 70.628 30.0034C70.6046 30.0655 70.5574 30.1157 70.497 30.143L67.823 31.353C67.7897 31.368 67.7535 31.3756 67.717 31.375V31.375Z" fill="black"/>
<path d="M34.777 54.161C34.7279 54.1614 34.6797 54.1472 34.6386 54.1202C34.5975 54.0933 34.5653 54.0547 34.546 54.0095C34.5268 53.9643 34.5213 53.9143 34.5304 53.866C34.5395 53.8177 34.5627 53.7732 34.597 53.738L40.966 47.087C41.104 46.942 41.232 46.787 41.366 46.631L41.406 46.583C41.6847 46.2547 42.0314 45.991 42.4222 45.8102C42.813 45.6294 43.2384 45.5359 43.669 45.536H46.42C46.4863 45.536 46.5499 45.5623 46.5968 45.6092C46.6437 45.6561 46.67 45.7197 46.67 45.786C46.67 45.8523 46.6437 45.9159 46.5968 45.9628C46.5499 46.0097 46.4863 46.036 46.42 46.036H43.671C43.313 46.0358 42.9593 46.1136 42.6344 46.264C42.3096 46.4144 42.0214 46.6338 41.79 46.907L41.749 46.955C41.615 47.113 41.476 47.277 41.327 47.432L34.958 54.084C34.9346 54.1084 34.9065 54.1277 34.8754 54.141C34.8443 54.1542 34.8108 54.161 34.777 54.161V54.161Z" fill="black"/>
<path d="M36.312 65.471L30.406 64.479C30.0024 64.4109 29.6188 64.2543 29.2829 64.0203C28.947 63.7864 28.6672 63.4809 28.4634 63.1259C28.2596 62.7709 28.1371 62.3751 28.1045 61.9671C28.0719 61.559 28.1301 61.1488 28.275 60.766L39.553 30.99C39.7705 30.4161 40.1724 29.9307 40.6957 29.6099C41.2189 29.2892 41.8339 29.1514 42.444 29.218L48.396 29.868C48.8163 29.9137 49.2205 30.055 49.5777 30.281C49.9349 30.5071 50.2357 30.8119 50.4569 31.1721C50.6781 31.5323 50.814 31.9384 50.854 32.3593C50.8941 32.7801 50.8373 33.2045 50.688 33.6L39.364 63.715C39.1379 64.3163 38.7098 64.8202 38.1531 65.1406C37.5963 65.4609 36.9454 65.5777 36.312 65.471Z" fill="#FFC1EB"/>
<path d="M32.827 65.086C32.8033 65.0861 32.7799 65.0817 32.758 65.073C32.7083 65.0548 32.6679 65.0176 32.6456 64.9696C32.6233 64.9216 32.6209 64.8667 32.639 64.817L45.615 29.517C45.6231 29.4912 45.6364 29.4674 45.6541 29.4469C45.6717 29.4264 45.6933 29.4098 45.7176 29.3979C45.7419 29.386 45.7683 29.3791 45.7953 29.3777C45.8223 29.3763 45.8493 29.3804 45.8747 29.3898C45.9 29.3991 45.9233 29.4135 45.9429 29.432C45.9626 29.4506 45.9783 29.473 45.989 29.4977C45.9998 29.5225 46.0054 29.5493 46.0056 29.5763C46.0058 29.6033 46.0004 29.6301 45.99 29.655L33.014 64.955C32.9999 64.9933 32.9744 65.0264 32.941 65.0498C32.9076 65.0732 32.8678 65.0859 32.827 65.086V65.086Z" fill="#FB6D6D"/>
<path d="M46.8 44.149H46.777L35.134 42.8C35.1077 42.797 35.0823 42.7888 35.0592 42.776C35.0361 42.7631 35.0158 42.7459 34.9993 42.7252C34.9829 42.7045 34.9707 42.6807 34.9634 42.6553C34.9562 42.6299 34.954 42.6033 34.957 42.577C34.96 42.5507 34.9682 42.5253 34.981 42.5022C34.9939 42.4791 35.0111 42.4588 35.0318 42.4423C35.0526 42.4259 35.0763 42.4137 35.1017 42.4064C35.1271 42.3992 35.1537 42.397 35.18 42.4L46.818 43.752C46.8443 43.7535 46.87 43.7602 46.8937 43.7716C46.9174 43.7831 46.9386 43.7991 46.9561 43.8187C46.9736 43.8383 46.987 43.8612 46.9957 43.8861C47.0043 43.9109 47.008 43.9372 47.0065 43.9635C47.005 43.9898 46.9983 44.0155 46.9869 44.0392C46.9754 44.0628 46.9594 44.084 46.9398 44.1015C46.9202 44.1191 46.8973 44.1325 46.8724 44.1412C46.8476 44.1498 46.8213 44.1535 46.795 44.152L46.8 44.149Z" fill="#FB6D6D"/>
<path d="M40.8081 43.4C40.7199 43.3999 40.6345 43.3687 40.5671 43.312C38.7761 41.812 37.7061 40.553 37.3861 39.574C37.3367 39.4244 37.3305 39.2639 37.3682 39.1109C37.4058 38.9579 37.4857 38.8186 37.5988 38.709C37.712 38.5993 37.8537 38.5237 38.0077 38.4908C38.1618 38.4579 38.322 38.4691 38.4701 38.523C40.0781 39.095 40.8951 41.802 41.1701 42.938C41.1897 43.0144 41.1842 43.0951 41.1543 43.168C41.1244 43.241 41.0717 43.3024 41.0041 43.343C40.9453 43.3799 40.8774 43.3996 40.8081 43.4V43.4ZM38.1821 38.872C38.0695 38.8735 37.9619 38.9187 37.8821 38.998C37.8226 39.0548 37.7806 39.1275 37.7613 39.2075C37.742 39.2875 37.7461 39.3713 37.7731 39.449C37.9731 40.067 38.6581 41.175 40.7731 42.954C39.9891 39.797 38.8161 39.067 38.3461 38.9C38.293 38.8796 38.2368 38.8688 38.1801 38.868L38.1821 38.872Z" fill="#FB6D6D"/>
<path d="M35.466 49.037C35.4287 49.0369 35.3921 49.0264 35.3605 49.0066C35.3289 48.9868 35.3034 48.9586 35.2869 48.9251C35.2705 48.8916 35.2638 48.8542 35.2675 48.8171C35.2712 48.7799 35.2852 48.7446 35.308 48.715C35.437 48.547 38.484 44.615 40.494 43.128C40.743 42.821 43.228 39.828 45.282 40.143C45.438 40.1655 45.5845 40.2314 45.7047 40.3333C45.825 40.4351 45.9141 40.5688 45.9619 40.719C46.0097 40.8692 46.0142 41.0298 45.975 41.1824C45.9357 41.335 45.8543 41.4735 45.74 41.582C44.945 42.341 43.255 42.974 40.716 43.462C38.749 44.924 35.656 48.919 35.624 48.962C35.6051 48.9857 35.581 49.0047 35.5536 49.0177C35.5263 49.0307 35.4963 49.0373 35.466 49.037ZM44.966 40.52C43.56 40.52 41.897 42.158 41.166 42.962C43.85 42.397 44.984 41.749 45.466 41.292C45.5265 41.2362 45.5697 41.1643 45.5906 41.0847C45.6115 41.0052 45.6092 40.9213 45.584 40.843C45.5586 40.764 45.5112 40.6939 45.4475 40.6408C45.3838 40.5877 45.3062 40.5538 45.224 40.543C45.1397 40.5287 45.0545 40.521 44.969 40.52H44.966Z" fill="#FB6D6D"/>
<path d="M41.7999 50.2H41.7899C41.7637 50.1988 41.7379 50.1923 41.7141 50.181C41.6903 50.1698 41.669 50.154 41.6514 50.1345C41.6337 50.1149 41.6201 50.0921 41.6113 50.0674C41.6024 50.0426 41.5986 50.0163 41.5999 49.99C41.7259 47.48 40.4589 43.374 40.4459 43.333C40.4302 43.2823 40.4352 43.2275 40.4598 43.1805C40.4845 43.1335 40.5268 43.0983 40.5774 43.0825C40.6281 43.0667 40.6829 43.0717 40.7299 43.0964C40.7769 43.121 40.8122 43.1633 40.8279 43.214C40.8809 43.385 42.1279 47.43 41.9999 50.014C41.9964 50.0646 41.9738 50.112 41.9366 50.1465C41.8995 50.181 41.8506 50.2002 41.7999 50.2Z" fill="#FB6D6D"/>
<path d="M21.203 60.057H37.107C37.8239 60.057 38.405 59.4759 38.405 58.759V47.308C38.405 46.5911 37.8239 46.01 37.107 46.01H21.203C20.4862 46.01 19.905 46.5911 19.905 47.308V58.759C19.905 59.4759 20.4862 60.057 21.203 60.057Z" fill="#6DC8C2"/>
<path d="M23.32 60.256C23.267 60.256 23.2161 60.2349 23.1786 60.1974C23.1411 60.1599 23.12 60.109 23.12 60.056V52.547C23.12 52.494 23.1411 52.4431 23.1786 52.4056C23.2161 52.3681 23.267 52.347 23.32 52.347C23.373 52.347 23.4239 52.3681 23.4614 52.4056C23.4989 52.4431 23.52 52.494 23.52 52.547V60.056C23.52 60.109 23.4989 60.1599 23.4614 60.1974C23.4239 60.2349 23.373 60.256 23.32 60.256Z" fill="black"/>
<path d="M36.574 47.417H33.875C33.5734 47.417 33.329 47.6615 33.329 47.963V49.461C33.329 49.7625 33.5734 50.007 33.875 50.007H36.574C36.8755 50.007 37.12 49.7625 37.12 49.461V47.963C37.12 47.6615 36.8755 47.417 36.574 47.417Z" fill="white"/>
<path d="M36.808 51.627H33.753C33.6999 51.627 33.6491 51.6059 33.6116 51.5684C33.574 51.5309 33.553 51.48 33.553 51.427C33.553 51.374 33.574 51.3231 33.6116 51.2856C33.6491 51.2481 33.6999 51.227 33.753 51.227H36.808C36.861 51.227 36.9119 51.2481 36.9494 51.2856C36.9869 51.3231 37.008 51.374 37.008 51.427C37.008 51.48 36.9869 51.5309 36.9494 51.5684C36.9119 51.6059 36.861 51.627 36.808 51.627Z" fill="black"/>
<path d="M36.808 52.843H34.56C34.5069 52.843 34.4561 52.8219 34.4186 52.7844C34.3811 52.7469 34.36 52.696 34.36 52.643C34.36 52.59 34.3811 52.5391 34.4186 52.5016C34.4561 52.4641 34.5069 52.443 34.56 52.443H36.808C36.861 52.443 36.9119 52.4641 36.9494 52.5016C36.9869 52.5391 37.008 52.59 37.008 52.643C37.008 52.696 36.9869 52.7469 36.9494 52.7844C36.9119 52.8219 36.861 52.843 36.808 52.843V52.843Z" fill="black"/>
<path d="M23.338 52.747H23.313C22.913 52.737 22.554 52.474 22.354 52.047L20.126 46.827C20.1052 46.7782 20.1046 46.7231 20.1244 46.6739C20.1442 46.6247 20.1827 46.5853 20.2315 46.5645C20.2803 46.5437 20.3354 46.5431 20.3846 46.5629C20.4339 46.5827 20.4732 46.6212 20.494 46.67L22.719 51.884C22.851 52.167 23.078 52.343 23.324 52.35H23.338C23.574 52.35 23.79 52.198 23.932 51.93L26.954 46.63C26.9672 46.6072 26.9847 46.5873 27.0055 46.5712C27.0264 46.5552 27.0502 46.5434 27.0756 46.5366C27.101 46.5298 27.1274 46.528 27.1535 46.5314C27.1796 46.5349 27.2047 46.5434 27.2275 46.5565C27.2503 46.5696 27.2703 46.5871 27.2863 46.608C27.3023 46.6288 27.3141 46.6526 27.3209 46.678C27.3277 46.7034 27.3295 46.7299 27.3261 46.756C27.3227 46.7821 27.3142 46.8072 27.301 46.83L24.282 52.13C24.073 52.512 23.721 52.747 23.338 52.747Z" fill="black"/>
<path d="M27.5 60.207C27.4469 60.207 27.3961 60.1859 27.3585 60.1484C27.321 60.1109 27.3 60.06 27.3 60.007V48.18C27.336 46.653 26.65 46.337 26.621 46.324C26.5722 46.3035 26.5337 46.2645 26.5136 46.2156C26.4936 46.1667 26.4937 46.1118 26.514 46.063C26.5341 46.0149 26.5723 45.9766 26.6203 45.9562C26.6683 45.9359 26.7224 45.9351 26.771 45.954C26.811 45.97 27.743 46.362 27.7 48.185V60.007C27.7 60.06 27.6789 60.1109 27.6414 60.1484C27.6039 60.1859 27.553 60.207 27.5 60.207Z" fill="black"/>
<path d="M36.453 38.41H22.327C21.904 38.41 21.561 38.753 21.561 39.176V45.244C21.561 45.667 21.904 46.01 22.327 46.01H36.453C36.8761 46.01 37.219 45.667 37.219 45.244V39.176C37.219 38.753 36.8761 38.41 36.453 38.41Z" fill="#FFBB45"/>
<path d="M28.3 46.152C28.2469 46.152 28.1961 46.1309 28.1586 46.0934C28.121 46.0559 28.1 46.005 28.1 45.952V38.586C28.1 38.533 28.121 38.4821 28.1586 38.4446C28.1961 38.4071 28.2469 38.386 28.3 38.386C28.353 38.386 28.4039 38.4071 28.4414 38.4446C28.4789 38.4821 28.5 38.533 28.5 38.586V45.952C28.5 46.005 28.4789 46.0559 28.4414 46.0934C28.4039 46.1309 28.353 46.152 28.3 46.152Z" fill="black"/>
<path d="M25.76 43.012H23.3771L21.5241 39.306C21.5123 39.2825 21.5053 39.2569 21.5034 39.2307C21.5016 39.2045 21.5049 39.1781 21.5132 39.1532C21.5215 39.1283 21.5347 39.1052 21.5519 39.0854C21.5691 39.0655 21.5901 39.0493 21.6136 39.0375C21.6371 39.0257 21.6627 39.0187 21.6889 39.0169C21.7151 39.015 21.7414 39.0183 21.7663 39.0266C21.7913 39.035 21.8143 39.0481 21.8342 39.0653C21.854 39.0825 21.8703 39.1035 21.8821 39.127L23.6241 42.612H25.534L27.924 38.66C27.9515 38.6145 27.9959 38.5818 28.0475 38.569C28.099 38.5563 28.1536 38.5645 28.199 38.592C28.2445 38.6194 28.2772 38.6638 28.29 38.7154C28.3027 38.767 28.2945 38.8215 28.267 38.867L25.76 43.012Z" fill="black"/>
<path d="M27.943 46.152C27.9114 46.1521 27.8803 46.1447 27.8522 46.1304C27.824 46.1162 27.7996 46.0955 27.781 46.07L25.545 43.012H23.61L21.994 45.518C21.9797 45.5401 21.9612 45.5591 21.9395 45.5741C21.9179 45.589 21.8935 45.5995 21.8677 45.605C21.842 45.6105 21.8155 45.6108 21.7896 45.606C21.7637 45.6012 21.7391 45.5913 21.717 45.577C21.6727 45.5481 21.6416 45.5029 21.6305 45.4512C21.6195 45.3995 21.6293 45.3455 21.658 45.301L23.392 42.612H25.748L28.1 45.833C28.1155 45.8543 28.1267 45.8784 28.133 45.904C28.1392 45.9296 28.1402 45.9561 28.1362 45.9821C28.1321 46.0082 28.1229 46.0331 28.1091 46.0556C28.0954 46.078 28.0773 46.0975 28.056 46.113C28.0232 46.1372 27.9838 46.1508 27.943 46.152Z" fill="black"/>
<path d="M47.162 85.448H17.335L15.782 75.765H49.354L47.162 85.448ZM17.762 84.948H46.762L48.728 76.265H16.368L17.762 84.948Z" fill="black"/>
<path d="M31.871 85.577C31.8047 85.577 31.7411 85.5507 31.6942 85.5038C31.6473 85.4569 31.621 85.3933 31.621 85.327V76.232C31.621 76.1657 31.6473 76.1021 31.6942 76.0552C31.7411 76.0083 31.8047 75.982 31.871 75.982C31.9373 75.982 32.0009 76.0083 32.0477 76.0552C32.0946 76.1021 32.121 76.1657 32.121 76.232V85.327C32.121 85.3933 32.0946 85.4569 32.0477 85.5038C32.0009 85.5507 31.9373 85.577 31.871 85.577V85.577Z" fill="black"/>
<path d="M19.067 87.674C20.3522 87.674 21.394 86.6232 21.394 85.327C21.394 84.0308 20.3522 82.98 19.067 82.98C17.7818 82.98 16.74 84.0308 16.74 85.327C16.74 86.6232 17.7818 87.674 19.067 87.674Z" fill="black"/>
<path d="M31.889 87.674C33.1852 87.674 34.236 86.6232 34.236 85.327C34.236 84.0308 33.1852 82.98 31.889 82.98C30.5928 82.98 29.542 84.0308 29.542 85.327C29.542 86.6232 30.5928 87.674 31.889 87.674Z" fill="black"/>
<path d="M45.307 87.674C46.5905 87.674 47.631 86.6232 47.631 85.327C47.631 84.0308 46.5905 82.98 45.307 82.98C44.0235 82.98 42.983 84.0308 42.983 85.327C42.983 86.6232 44.0235 87.674 45.307 87.674Z" fill="black"/>
<path d="M53.262 53.729H13.814C12.566 53.729 11.638 55.029 11.906 56.4L15.893 76.786H49.179L55.162 56.733C55.6 55.258 54.635 53.729 53.262 53.729Z" fill="#C7B8F8"/>
<path d="M31.871 70.981C31.8047 70.981 31.7411 70.9547 31.6942 70.9078C31.6473 70.8609 31.621 70.7973 31.621 70.731V55.923C31.621 55.8567 31.6473 55.7931 31.6942 55.7462C31.7411 55.6993 31.8047 55.673 31.871 55.673C31.9373 55.673 32.0009 55.6993 32.0477 55.7462C32.0946 55.7931 32.121 55.8567 32.121 55.923V70.731C32.121 70.7638 32.1145 70.7964 32.1019 70.8267C32.0894 70.857 32.071 70.8846 32.0477 70.9078C32.0245 70.931 31.997 70.9494 31.9666 70.962C31.9363 70.9745 31.9038 70.981 31.871 70.981Z" fill="black"/>
<path d="M25.831 57.436H16.939C16.2934 57.436 15.77 57.9594 15.77 58.605C15.77 59.2506 16.2934 59.774 16.939 59.774H25.831C26.4766 59.774 27 59.2506 27 58.605C27 57.9594 26.4766 57.436 25.831 57.436Z" fill="white"/>
<path d="M90.7 40.327H81.98C81.5172 40.3265 81.0735 40.1423 80.7463 39.815C80.4192 39.4876 80.2352 39.0438 80.235 38.581V21.981C80.2355 21.5183 80.4195 21.0746 80.7466 20.7473C81.0737 20.42 81.5173 20.2358 81.98 20.235H90.7C91.1629 20.2355 91.6067 20.4197 91.934 20.747C92.2613 21.0743 92.4455 21.5181 92.446 21.981V38.581C92.4455 39.0439 92.2613 39.4877 91.934 39.815C91.6067 40.1423 91.1629 40.3265 90.7 40.327ZM81.98 20.636C81.6233 20.6365 81.2813 20.7785 81.0292 21.0309C80.777 21.2832 80.6353 21.6253 80.635 21.982V38.582C80.6353 38.9387 80.777 39.2808 81.0292 39.5331C81.2813 39.7855 81.6233 39.9275 81.98 39.928H90.7C91.0568 39.9275 91.3989 39.7855 91.6512 39.5332C91.9035 39.2809 92.0455 38.9388 92.046 38.582V21.982C92.0455 21.6252 91.9035 21.2831 91.6512 21.0308C91.3989 20.7785 91.0568 20.6365 90.7 20.636H81.98Z" fill="black"/>
<path d="M88.856 31.83H83.828C83.3911 31.83 83.037 32.1841 83.037 32.621V35.721C83.037 36.1579 83.3911 36.512 83.828 36.512H88.856C89.2928 36.512 89.647 36.1579 89.647 35.721V32.621C89.647 32.1841 89.2928 31.83 88.856 31.83Z" fill="#C7B8F8"/>
<path d="M89.468 33.709H83.2C83.147 33.709 83.0961 33.6879 83.0586 33.6504C83.0211 33.6129 83 33.562 83 33.509C83 33.456 83.0211 33.4051 83.0586 33.3676C83.0961 33.3301 83.147 33.309 83.2 33.309H89.47C89.523 33.309 89.5739 33.3301 89.6114 33.3676C89.6489 33.4051 89.67 33.456 89.67 33.509C89.67 33.562 89.6489 33.6129 89.6114 33.6504C89.5739 33.6879 89.523 33.709 89.47 33.709H89.468Z" fill="black"/>
<path d="M85.131 35.949H84.331C84.1569 35.9423 83.9921 35.8684 83.8713 35.7428C83.7505 35.6173 83.683 35.4498 83.683 35.2755C83.683 35.1012 83.7505 34.9338 83.8713 34.8082C83.9921 34.6826 84.1569 34.6087 84.331 34.602H85.131C85.2217 34.5985 85.3121 34.6133 85.3968 34.6456C85.4816 34.6779 85.559 34.7269 85.6243 34.7898C85.6897 34.8527 85.7417 34.9281 85.7772 35.0116C85.8127 35.095 85.831 35.1848 85.831 35.2755C85.831 35.3662 85.8127 35.456 85.7772 35.5394C85.7417 35.6229 85.6897 35.6983 85.6243 35.7612C85.559 35.8241 85.4816 35.8731 85.3968 35.9054C85.3121 35.9377 85.2217 35.9525 85.131 35.949V35.949ZM84.331 35.002C84.2613 35.0062 84.1959 35.0369 84.1481 35.0877C84.1002 35.1385 84.0736 35.2057 84.0736 35.2755C84.0736 35.3453 84.1002 35.4125 84.1481 35.4633C84.1959 35.5141 84.2613 35.5448 84.331 35.549H85.131C85.1683 35.5513 85.2057 35.5459 85.2409 35.5331C85.276 35.5204 85.3082 35.5006 85.3354 35.475C85.3626 35.4494 85.3843 35.4185 85.3991 35.3842C85.4139 35.3499 85.4216 35.3129 85.4216 35.2755C85.4216 35.2381 85.4139 35.2011 85.3991 35.1668C85.3843 35.1325 85.3626 35.1016 85.3354 35.076C85.3082 35.0504 85.276 35.0306 85.2409 35.0179C85.2057 35.0051 85.1683 34.9997 85.131 35.002H84.331Z" fill="black"/>
<path d="M89.009 23.525H83.664C83.1526 23.525 82.738 23.9396 82.738 24.451V27.281C82.738 27.7924 83.1526 28.207 83.664 28.207H89.009C89.5205 28.207 89.935 27.7924 89.935 27.281V24.451C89.935 23.9396 89.5205 23.525 89.009 23.525Z" fill="#6DC8C2"/>
<path d="M86.336 27.065C86.0987 27.065 85.8667 26.9946 85.6693 26.8628C85.472 26.7309 85.3182 26.5435 85.2273 26.3242C85.1365 26.105 85.1127 25.8637 85.159 25.6309C85.2053 25.3981 85.3196 25.1843 85.4875 25.0165C85.6553 24.8487 85.8691 24.7344 86.1019 24.6881C86.3347 24.6418 86.576 24.6655 86.7953 24.7564C87.0145 24.8472 87.202 25.001 87.3338 25.1983C87.4657 25.3957 87.5361 25.6277 87.5361 25.865C87.5361 26.1833 87.4096 26.4885 87.1846 26.7135C86.9595 26.9386 86.6543 27.065 86.336 27.065V27.065ZM86.336 25.065C86.1778 25.065 86.0231 25.1119 85.8916 25.1998C85.76 25.2877 85.6575 25.4127 85.5969 25.5589C85.5363 25.705 85.5205 25.8659 85.5514 26.0211C85.5822 26.1763 85.6584 26.3188 85.7703 26.4307C85.8822 26.5426 86.0248 26.6188 86.1799 26.6496C86.3351 26.6805 86.496 26.6647 86.6422 26.6041C86.7884 26.5436 86.9133 26.441 87.0012 26.3095C87.0891 26.1779 87.136 26.0232 87.136 25.865C87.1364 25.7597 87.116 25.6553 87.076 25.5579C87.036 25.4605 86.9771 25.372 86.9028 25.2974C86.8285 25.2228 86.7401 25.1636 86.6429 25.1232C86.5456 25.0828 86.4413 25.062 86.336 25.062V25.065Z" fill="black"/>
<path d="M89.946 27.07H89.268C88.9707 27.07 88.6855 26.9519 88.4753 26.7417C88.2651 26.5314 88.147 26.2463 88.147 25.949C88.147 25.6517 88.2651 25.3666 88.4753 25.1563C88.6855 24.9461 88.9707 24.828 89.268 24.828H89.946V25.228H89.268C89.0768 25.228 88.8934 25.304 88.7582 25.4392C88.6229 25.5744 88.547 25.7578 88.547 25.949C88.547 26.1402 88.6229 26.3236 88.7582 26.4588C88.8934 26.594 89.0768 26.67 89.268 26.67H89.946V27.07Z" fill="black"/>
<path d="M83.426 27.07H82.7469V26.67H83.426C83.6172 26.67 83.8006 26.594 83.9358 26.4588C84.071 26.3236 84.147 26.1402 84.147 25.949C84.147 25.7578 84.071 25.5744 83.9358 25.4392C83.8006 25.304 83.6172 25.228 83.426 25.228H82.7469V24.828H83.426C83.7233 24.828 84.0084 24.9461 84.2186 25.1563C84.4288 25.3666 84.547 25.6517 84.547 25.949C84.547 26.2463 84.4288 26.5314 84.2186 26.7417C84.0084 26.9519 83.7233 27.07 83.426 27.07V27.07Z" fill="black"/>
<path d="M81.449 82.96C81.4305 82.9601 81.412 82.9578 81.394 82.953L79.766 82.582C79.7013 82.5673 79.6451 82.5275 79.6097 82.4713C79.5744 82.4151 79.5628 82.3472 79.5775 82.2825C79.5922 82.2178 79.6321 82.1616 79.6882 82.1262C79.7444 82.0909 79.8123 82.0793 79.877 82.094L81.505 82.466C81.5652 82.4794 81.6184 82.5147 81.6542 82.5649C81.69 82.6151 81.706 82.6769 81.699 82.7382C81.6921 82.7995 81.6627 82.856 81.6165 82.897C81.5704 82.938 81.5107 82.9604 81.449 82.96V82.96Z" fill="black"/>
<path d="M80.873 84.326C80.8541 84.3261 80.8353 84.3237 80.817 84.319L79.189 83.947C79.1558 83.941 79.1241 83.9283 79.0959 83.9097C79.0677 83.8911 79.0436 83.867 79.0249 83.8388C79.0063 83.8106 78.9936 83.779 78.9876 83.7457C78.9815 83.7125 78.9823 83.6784 78.9898 83.6454C78.9973 83.6125 79.0114 83.5814 79.0312 83.5541C79.0511 83.5268 79.0763 83.5037 79.1053 83.4864C79.1343 83.4691 79.1665 83.4578 79.1999 83.4533C79.2334 83.4487 79.2675 83.451 79.3 83.46L80.928 83.832C80.9882 83.8454 81.0414 83.8807 81.0772 83.9309C81.113 83.9811 81.129 84.0428 81.122 84.1041C81.1151 84.1655 81.0857 84.222 81.0395 84.263C80.9934 84.3039 80.9337 84.3264 80.872 84.326H80.873Z" fill="black"/>
<path d="M52.293 84.036C52.2576 84.036 52.2226 84.0284 52.1903 84.0138C52.1581 83.9991 52.1293 83.9777 52.106 83.951L51 82.7C50.9596 82.6498 50.9401 82.586 50.9456 82.5218C50.9511 82.4576 50.9812 82.3981 51.0295 82.3555C51.0779 82.3129 51.1408 82.2907 51.2052 82.2934C51.2696 82.2961 51.3304 82.3235 51.375 82.37L52.475 83.623C52.5187 83.6728 52.5409 83.7379 52.5368 83.804C52.5327 83.8702 52.5026 83.932 52.453 83.976C52.4082 84.0137 52.3517 84.0349 52.293 84.036Z" fill="black"/>
<path d="M50.668 84.749C50.6324 84.7493 50.5971 84.7418 50.5647 84.7272C50.5322 84.7125 50.5033 84.6909 50.48 84.664L49.38 83.412C49.3582 83.3874 49.3416 83.3587 49.3309 83.3276C49.3203 83.2966 49.3158 83.2637 49.3179 83.2309C49.3199 83.1982 49.3284 83.1661 49.3428 83.1366C49.3573 83.1071 49.3774 83.0807 49.402 83.059C49.4266 83.0373 49.4553 83.0206 49.4863 83.0099C49.5174 82.9993 49.5503 82.9948 49.583 82.9969C49.6158 82.9989 49.6479 83.0074 49.6774 83.0218C49.7069 83.0363 49.7333 83.0564 49.755 83.081L50.855 84.334C50.8871 84.3699 50.9082 84.4144 50.9155 84.462C50.9229 84.5096 50.9162 84.5584 50.8964 84.6023C50.8766 84.6462 50.8445 84.6835 50.804 84.7095C50.7634 84.7356 50.7162 84.7493 50.668 84.749V84.749Z" fill="black"/>
</svg>
