<svg width="100" height="100" viewBox="0 0 100 100" fill="none" xmlns="http://www.w3.org/2000/svg">
<path d="M60.2009 77.5921L50.3566 78.6216C50.1325 78.645 49.9698 78.8457 49.9932 79.0698L50.1013 80.1032C50.1247 80.3273 50.3254 80.49 50.5495 80.4665L60.3939 79.4371C60.618 79.4136 60.7806 79.2129 60.7572 78.9888L60.6491 77.9555C60.6257 77.7314 60.425 77.5687 60.2009 77.5921Z" fill="black"/>
<path d="M60.833 72.225L53.916 72.18L44.516 76.811C44.2127 76.9605 43.9806 77.2237 43.8703 77.5433C43.76 77.863 43.7804 78.2133 43.927 78.518L61.08 75.972L60.833 72.225Z" fill="black"/>
<path d="M60.91 76.041L44.146 78.592C44.2609 78.8336 44.4493 79.0328 44.6843 79.1608C44.9192 79.2889 45.1886 79.3394 45.454 79.305L59.866 77.444C60.1708 77.4045 60.449 77.2505 60.6444 77.0134C60.8398 76.7762 60.9376 76.4736 60.918 76.167L60.91 76.041Z" fill="white"/>
<path d="M45.289 79.516C45.0115 79.5159 44.7397 79.437 44.5054 79.2885C44.271 79.1399 44.0836 78.9279 43.965 78.677L43.849 78.434L61.1 75.811L61.122 76.154C61.144 76.5113 61.0296 76.8637 60.8018 77.1399C60.5741 77.4161 60.25 77.5956 59.895 77.642L45.479 79.5C45.4161 79.5093 45.3526 79.5147 45.289 79.516V79.516ZM44.48 78.743C44.5954 78.8775 44.7425 78.9812 44.908 79.0448C45.0735 79.1083 45.2522 79.1297 45.428 79.107L59.84 77.246C60.0783 77.2146 60.2976 77.0994 60.4588 76.9212C60.62 76.743 60.7126 76.5132 60.72 76.273L44.48 78.743Z" fill="black"/>
<path d="M52.912 75.437C52.8843 75.4369 52.857 75.4311 52.8317 75.4199C52.8064 75.4087 52.7837 75.3924 52.765 75.372L51.2451 73.724C51.2272 73.7046 51.2134 73.682 51.2043 73.6573C51.1953 73.6325 51.1912 73.6063 51.1923 73.58C51.1934 73.5537 51.1997 73.5279 51.2108 73.5041C51.2219 73.4802 51.2376 73.4588 51.2571 73.441C51.296 73.4052 51.3475 73.3862 51.4003 73.3883C51.4532 73.3903 51.503 73.4133 51.539 73.452L53.059 75.1C53.0769 75.1193 53.0908 75.1419 53.0999 75.1666C53.1091 75.1913 53.1133 75.2175 53.1122 75.2438C53.1112 75.2701 53.105 75.2959 53.094 75.3198C53.083 75.3437 53.0673 75.3652 53.048 75.383C53.0111 75.4175 52.9625 75.4368 52.912 75.437Z" fill="white"/>
<path d="M51.364 76.339C51.3364 76.339 51.3091 76.3334 51.2838 76.3224C51.2585 76.3114 51.2357 76.2952 51.217 76.275L49.6999 74.626C49.6813 74.6069 49.6667 74.5842 49.6569 74.5593C49.6472 74.5344 49.6425 74.5078 49.6433 74.4811C49.644 74.4543 49.65 74.428 49.6611 74.4037C49.6722 74.3794 49.688 74.3575 49.7076 74.3394C49.7273 74.3213 49.7504 74.3073 49.7755 74.2982C49.8007 74.2892 49.8274 74.2853 49.8541 74.2867C49.8808 74.2882 49.9069 74.295 49.9309 74.3067C49.955 74.3184 49.9764 74.3349 49.994 74.355L51.511 76C51.5288 76.0193 51.5426 76.042 51.5517 76.0667C51.5607 76.0914 51.5648 76.1177 51.5637 76.144C51.5626 76.1703 51.5563 76.1961 51.5452 76.2199C51.5341 76.2438 51.5184 76.2652 51.499 76.283C51.4626 76.318 51.4144 76.338 51.364 76.339Z" fill="white"/>
<path d="M59.465 72.887H55.265C54.6441 72.887 54.0486 72.6404 53.6096 72.2013C53.1706 71.7623 52.924 71.1669 52.924 70.546V46.715H61.806V70.546C61.8057 71.1668 61.559 71.7621 61.12 72.201C60.681 72.64 60.0857 72.8867 59.465 72.887V72.887Z" fill="#C7B8F8"/>
<path d="M84.714 84.734H66.037C65.984 84.734 65.9331 84.7129 65.8956 84.6754C65.8581 84.6379 65.837 84.587 65.837 84.534C65.837 84.481 65.8581 84.4301 65.8956 84.3926C65.9331 84.3551 65.984 84.334 66.037 84.334H84.714C84.7671 84.334 84.8179 84.3551 84.8555 84.3926C84.893 84.4301 84.914 84.481 84.914 84.534C84.914 84.587 84.893 84.6379 84.8555 84.6754C84.8179 84.7129 84.7671 84.734 84.714 84.734Z" fill="black"/>
<path d="M30.43 84.705H23.071C23.0179 84.705 22.9671 84.6839 22.9296 84.6464C22.892 84.6089 22.871 84.558 22.871 84.505C22.871 84.452 22.892 84.4011 22.9296 84.3636C22.9671 84.3261 23.0179 84.305 23.071 84.305H30.43C30.483 84.305 30.5339 84.3261 30.5714 84.3636C30.6089 84.4011 30.63 84.452 30.63 84.505C30.63 84.558 30.6089 84.6089 30.5714 84.6464C30.5339 84.6839 30.483 84.705 30.43 84.705Z" fill="black"/>
<path d="M80.4 81.349H72.4791C72.426 81.349 72.3751 81.3279 72.3376 81.2904C72.3001 81.2529 72.2791 81.202 72.2791 81.149C72.2791 81.096 72.3001 81.0451 72.3376 81.0076C72.3751 80.9701 72.426 80.949 72.4791 80.949H80.4C80.4531 80.949 80.504 80.9701 80.5415 81.0076C80.579 81.0451 80.6 81.096 80.6 81.149C80.6 81.202 80.579 81.2529 80.5415 81.2904C80.504 81.3279 80.4531 81.349 80.4 81.349Z" fill="black"/>
<path d="M74.53 62.44C74.4886 62.44 74.4483 62.4271 74.4145 62.4031C74.3807 62.3792 74.3552 62.3453 74.3415 62.3063C74.3278 62.2672 74.3265 62.2248 74.3379 62.185C74.3493 62.1452 74.3727 62.1099 74.405 62.084L79.5181 57.984C79.5384 57.9666 79.5621 57.9535 79.5876 57.9454C79.6132 57.9373 79.6401 57.9345 79.6668 57.937C79.6934 57.9395 79.7193 57.9474 79.7429 57.9601C79.7665 57.9728 79.7873 57.9901 79.804 58.011C79.8208 58.0319 79.8331 58.056 79.8404 58.0818C79.8477 58.1076 79.8497 58.1346 79.8464 58.1611C79.843 58.1877 79.8343 58.2133 79.8209 58.2365C79.8074 58.2597 79.7895 58.2799 79.7681 58.296L74.655 62.396C74.6196 62.4244 74.5755 62.44 74.53 62.44Z" fill="black"/>
<path d="M65.844 28.652H59.846C59.2976 28.652 58.853 29.0966 58.853 29.645V33.459C58.853 34.0074 59.2976 34.452 59.846 34.452H65.844C66.3924 34.452 66.837 34.0074 66.837 33.459V29.645C66.837 29.0966 66.3924 28.652 65.844 28.652Z" fill="white"/>
<path d="M65.843 34.652H59.843C59.5267 34.6517 59.2234 34.526 58.9997 34.3023C58.7761 34.0786 58.6503 33.7753 58.65 33.459V29.645C58.6503 29.3287 58.7761 29.0254 58.9997 28.8017C59.2234 28.578 59.5267 28.4523 59.843 28.452H65.843C66.159 28.4536 66.4617 28.5797 66.6852 28.8031C66.9088 29.0265 67.0352 29.329 67.037 29.645V33.459C67.0352 33.775 66.9088 34.0775 66.6852 34.3009C66.4617 34.5243 66.159 34.6504 65.843 34.652ZM59.843 28.852C59.6328 28.8523 59.4312 28.9359 59.2826 29.0846C59.1339 29.2332 59.0503 29.4348 59.05 29.645V33.459C59.0503 33.6692 59.1339 33.8708 59.2826 34.0194C59.4312 34.1681 59.6328 34.2517 59.843 34.252H65.843C66.0534 34.252 66.2552 34.1685 66.4041 34.0198C66.553 33.8711 66.6368 33.6694 66.637 33.459V29.645C66.6368 29.4346 66.553 29.2329 66.4041 29.0842C66.2552 28.9355 66.0534 28.852 65.843 28.852H59.843Z" fill="black"/>
<path d="M68.1239 24.9448L65.1249 30.1392C64.8507 30.6141 65.0134 31.2214 65.4884 31.4956L68.7914 33.4026C69.2664 33.6769 69.8737 33.5141 70.1479 33.0392L73.1469 27.8448C73.4211 27.3698 73.2584 26.7625 72.7834 26.4883L69.4804 24.5813C69.0055 24.3071 68.3981 24.4698 68.1239 24.9448Z" fill="white"/>
<path d="M69.286 33.735C69.0774 33.7348 68.8725 33.6797 68.692 33.575L65.3921 31.668C65.2563 31.5897 65.1373 31.4854 65.0419 31.3611C64.9465 31.2368 64.8764 31.0949 64.8359 30.9435C64.7953 30.7922 64.7849 30.6343 64.8054 30.4789C64.8258 30.3235 64.8767 30.1737 64.9551 30.038L67.955 24.845C68.0332 24.7091 68.1373 24.5899 68.2616 24.4943C68.3859 24.3987 68.5278 24.3286 68.6793 24.288C68.8307 24.2474 68.9887 24.2371 69.1441 24.2577C69.2996 24.2783 69.4494 24.3294 69.585 24.408L72.885 26.314C73.159 26.4725 73.359 26.7333 73.4409 27.0391C73.5228 27.3449 73.4801 27.6707 73.322 27.945L70.322 33.138C70.2171 33.3198 70.066 33.4707 69.8841 33.5755C69.7023 33.6803 69.4959 33.7353 69.286 33.735ZM68.892 33.229C69.0743 33.3337 69.2907 33.3619 69.4937 33.3074C69.6967 33.2528 69.8698 33.12 69.975 32.938L72.975 27.745C73.0801 27.5628 73.1087 27.3462 73.0543 27.143C72.9999 26.9397 72.8671 26.7664 72.685 26.661L69.385 24.754C69.2947 24.7018 69.195 24.668 69.0915 24.6543C68.9881 24.6407 68.883 24.6476 68.7822 24.6747C68.6815 24.7017 68.587 24.7483 68.5043 24.8118C68.4215 24.8754 68.3521 24.9546 68.3 25.045L65.3001 30.238C65.2477 30.3282 65.2137 30.4278 65.2 30.5311C65.1862 30.6345 65.193 30.7395 65.22 30.8402C65.2469 30.9409 65.2935 31.0353 65.357 31.118C65.4205 31.2007 65.4997 31.27 65.5901 31.322L68.892 33.229Z" fill="black"/>
<path d="M69.556 28.9C69.5113 28.9 69.4679 28.885 69.4327 28.8574C69.3975 28.8298 69.3726 28.7913 69.3619 28.7479C69.3512 28.7045 69.3553 28.6588 69.3737 28.618C69.392 28.5773 69.4234 28.5438 69.463 28.523L73.038 26.648C73.0851 26.6233 73.14 26.6184 73.1908 26.6342C73.2415 26.6501 73.2838 26.6854 73.3085 26.7325C73.3332 26.7796 73.3381 26.8345 73.3223 26.8853C73.3064 26.936 73.2711 26.9783 73.224 27.003L69.649 28.877C69.6203 28.8921 69.5884 28.9 69.556 28.9Z" fill="black"/>
<path d="M67.502 28.2088L63.0257 32.2012C62.6165 32.5662 62.5806 33.1939 62.9456 33.6032L65.4843 36.4495C65.8494 36.8588 66.4771 36.8947 66.8864 36.5297L71.3626 32.5373C71.7719 32.1722 71.8078 31.5445 71.4427 31.1352L68.904 28.2889C68.539 27.8796 67.9113 27.8437 67.502 28.2088Z" fill="white"/>
<path d="M66.227 36.985C66.204 36.985 66.181 36.985 66.158 36.985C66.0011 36.9763 65.8476 36.9364 65.7063 36.8677C65.565 36.799 65.4388 36.7029 65.335 36.585V36.585L62.8 33.74C62.6958 33.6228 62.6158 33.4863 62.5645 33.3382C62.5131 33.19 62.4915 33.0333 62.5008 32.8768C62.51 32.7203 62.5501 32.5672 62.6186 32.4262C62.6871 32.2852 62.7827 32.159 62.9 32.055L67.376 28.063C67.6129 27.8532 67.9233 27.7459 68.2392 27.7646C68.5551 27.7834 68.8506 27.9266 69.061 28.163L71.599 31.009C71.7032 31.1262 71.7832 31.2627 71.8346 31.4108C71.8859 31.559 71.9075 31.7157 71.8982 31.8722C71.889 32.0287 71.8489 32.1818 71.7804 32.3228C71.7119 32.4638 71.6163 32.59 71.499 32.694L67.02 36.682C66.8023 36.8776 66.5197 36.9856 66.227 36.985ZM68.162 28.161C67.9677 28.1602 67.7799 28.2315 67.635 28.361L63.159 32.352C63.0018 32.4922 62.9068 32.689 62.8948 32.8992C62.8828 33.1095 62.9548 33.3159 63.095 33.473L65.634 36.319C65.7033 36.3968 65.7873 36.4601 65.8811 36.5054C65.9749 36.5507 66.0767 36.5771 66.1807 36.5831C66.2847 36.589 66.3889 36.5744 66.4873 36.5401C66.5856 36.5057 66.6763 36.4524 66.754 36.383L71.23 32.391C71.3078 32.3217 71.3712 32.2377 71.4165 32.1439C71.4618 32.0501 71.4882 31.9483 71.4941 31.8443C71.5 31.7402 71.4854 31.6361 71.4511 31.5377C71.4168 31.4394 71.3634 31.3487 71.294 31.271L68.755 28.425C68.686 28.3471 68.6021 28.2837 68.5084 28.2384C68.4147 28.1931 68.3129 28.1668 68.209 28.161H68.162Z" fill="black"/>
<path d="M65.518 71.06H65.5L49.154 69.693L49.107 69.655L27.469 52.612C27.4329 52.5842 27.4064 52.5458 27.3934 52.5022C27.3803 52.4585 27.3813 52.4119 27.3963 52.3688C27.4112 52.3258 27.4393 52.2886 27.4766 52.2624C27.5139 52.2362 27.5584 52.2224 27.604 52.223H59.11L66.8 69.417C66.8216 69.4655 66.823 69.5207 66.804 69.5703C66.785 69.6199 66.747 69.6599 66.6985 69.6815C66.6745 69.6922 66.6485 69.6981 66.6223 69.6988C66.596 69.6995 66.5698 69.695 66.5452 69.6855C66.4956 69.6665 66.4556 69.6285 66.434 69.58L58.85 52.623H28.128L49.308 69.3L65.534 70.657C65.587 70.6591 65.6371 70.6822 65.6731 70.7212C65.7091 70.7602 65.7281 70.812 65.726 70.865C65.7239 70.918 65.7008 70.9681 65.6617 71.0041C65.6227 71.0401 65.571 71.0591 65.518 71.057V71.06Z" fill="black"/>
<path d="M49.231 69.7C49.196 69.7002 49.1615 69.6913 49.131 69.674C49.1082 69.661 49.0881 69.6437 49.0719 69.6229C49.0558 69.6021 49.0439 69.5784 49.0369 69.5531C49.03 69.5277 49.0281 69.5012 49.0313 69.4751C49.0346 69.449 49.043 69.4238 49.056 69.401L60.9 48.646C60.9266 48.6 60.9703 48.5664 61.0216 48.5526C61.0729 48.5388 61.1275 48.546 61.1735 48.5725C61.2196 48.599 61.2532 48.6427 61.2669 48.694C61.2807 48.7453 61.2736 48.8 61.247 48.846L49.405 69.6C49.3874 69.6305 49.3621 69.6558 49.3315 69.6734C49.3009 69.691 49.2663 69.7001 49.231 69.7Z" fill="black"/>
<path d="M50.3519 69.824L43.7959 72.024L36.4149 79.457C36.2215 79.6513 36.0955 79.9025 36.0553 80.1738C36.0152 80.445 36.0631 80.722 36.1919 80.964C36.2508 81.0741 36.3252 81.1751 36.4129 81.264L51.8069 73.282L50.3519 69.824Z" fill="black"/>
<path d="M42.669 76.8C42.6358 76.8 42.6032 76.7918 42.574 76.776L40.6 75.714C40.5769 75.7015 40.5565 75.6846 40.5399 75.6642C40.5233 75.6439 40.5109 75.6204 40.5034 75.5953C40.4959 75.5701 40.4934 75.5437 40.496 75.5176C40.4987 75.4915 40.5065 75.4661 40.519 75.443C40.5315 75.4199 40.5484 75.3995 40.5688 75.3829C40.5891 75.3663 40.6126 75.3539 40.6377 75.3464C40.6629 75.3389 40.6893 75.3364 40.7154 75.339C40.7415 75.3417 40.7669 75.3495 40.79 75.362L42.763 76.427C42.8022 76.4481 42.8332 76.4818 42.8511 76.5225C42.869 76.5633 42.8728 76.6088 42.8619 76.652C42.851 76.6952 42.826 76.7334 42.7909 76.7608C42.7558 76.7881 42.7125 76.803 42.668 76.803L42.669 76.8Z" fill="white"/>
<path d="M76.24 46.008H61.948V32.908C61.9493 32.5916 62.0755 32.2886 62.2991 32.0648C62.5227 31.841 62.8256 31.7146 63.142 31.713H75.042C75.1989 31.713 75.3542 31.7439 75.4992 31.804C75.6441 31.864 75.7758 31.9521 75.8866 32.0631C75.9975 32.174 76.0855 32.3058 76.1454 32.4508C76.2053 32.5957 76.2361 32.7511 76.236 32.908L76.24 46.008Z" fill="#C7B8F8"/>
<path d="M49.0001 24.05H43.2001C42.7595 24.05 42.3371 23.875 42.0256 23.5635C41.7141 23.252 41.5391 22.8295 41.5391 22.389V20.05C41.5391 19.6158 41.7115 19.1995 42.0185 18.8925C42.3255 18.5855 42.7419 18.413 43.1761 18.413H48.9631C49.2174 18.4129 49.4692 18.4628 49.7042 18.5601C49.9392 18.6573 50.1528 18.7999 50.3327 18.9797C50.5125 19.1595 50.6552 19.3729 50.7526 19.6079C50.85 19.8428 50.9001 20.0947 50.9001 20.349V22.149C50.9002 22.3986 50.8511 22.6458 50.7557 22.8764C50.6603 23.107 50.5204 23.3166 50.3439 23.4932C50.1675 23.6697 49.958 23.8097 49.7274 23.9053C49.4968 24.0008 49.2497 24.05 49.0001 24.05V24.05Z" fill="black"/>
<path d="M51.6029 74.8983L42.6279 79.072C42.4236 79.167 42.335 79.4097 42.43 79.614L42.8681 80.5561C42.9631 80.7604 43.2058 80.849 43.4101 80.754L52.3851 76.5803C52.5894 76.4853 52.678 76.2427 52.583 76.0384L52.1449 75.0962C52.0498 74.8919 51.8072 74.8033 51.6029 74.8983Z" fill="black"/>
<path d="M51.665 73.408L36.64 81.268C36.8272 81.4593 37.0701 81.5864 37.334 81.6313C37.5978 81.6762 37.8691 81.6366 38.109 81.518L51.133 75.074C51.4086 74.9378 51.6221 74.7018 51.73 74.4139C51.8379 74.126 51.8322 73.8078 51.714 73.524L51.665 73.408Z" fill="white"/>
<path d="M37.545 81.85C37.3502 81.8497 37.1573 81.8105 36.9779 81.7346C36.7984 81.6587 36.6359 81.5476 36.5 81.408L36.311 81.216L51.766 73.13L51.898 73.447C52.035 73.7777 52.0414 74.148 51.9159 74.4832C51.7905 74.8185 51.5424 75.0936 51.222 75.253L38.2 81.7C37.9962 81.8 37.772 81.8513 37.545 81.85V81.85ZM37.005 81.303C37.158 81.3926 37.3309 81.4428 37.5081 81.4489C37.6853 81.455 37.8612 81.4169 38.02 81.338L51.045 74.9C51.26 74.7925 51.4299 74.6122 51.5244 74.3911C51.6188 74.1701 51.6318 73.9227 51.561 73.693L37.005 81.303Z" fill="black"/>
<path d="M43.84 75.446C43.8068 75.4463 43.7741 75.4381 43.745 75.422L41.772 74.357C41.7253 74.3318 41.6906 74.2891 41.6754 74.2383C41.6602 74.1875 41.6658 74.1327 41.691 74.086C41.7162 74.0393 41.7589 74.0046 41.8097 73.9894C41.8605 73.9742 41.9153 73.9798 41.962 74.005L43.935 75.07C43.9746 75.0913 44.0059 75.1254 44.0237 75.1666C44.0416 75.2079 44.045 75.254 44.0334 75.2975C44.0219 75.3409 43.996 75.3792 43.96 75.4062C43.924 75.4331 43.88 75.4471 43.835 75.446H43.84Z" fill="white"/>
<path d="M48.96 71.06L44.983 72.408C44.6918 72.5067 44.384 72.5471 44.0772 72.5269C43.7704 72.5067 43.4706 72.4262 43.1949 72.29C42.9191 72.1539 42.673 71.9648 42.4703 71.7335C42.2677 71.5022 42.1127 71.2332 42.014 70.942L36.235 53.887C35.8572 52.7715 35.9379 51.5516 36.4594 50.4956C36.9809 49.4396 37.9006 48.634 39.016 48.256V48.256C40.1315 47.8781 41.3515 47.9588 42.4075 48.4803C43.4635 49.0019 44.2691 49.9215 44.647 51.037L50.426 68.091C50.5248 68.3822 50.5652 68.69 50.5449 68.9968C50.5247 69.3036 50.4442 69.6035 50.3081 69.8792C50.1719 70.1549 49.9828 70.4011 49.7515 70.6037C49.5202 70.8063 49.2513 70.9614 48.96 71.06Z" fill="#C7B8F8"/>
<path d="M61.923 46.023L43.7 55.891C41.049 57.428 37.853 56.869 36.563 54.643C35.272 52.417 36.376 49.367 39.027 47.83L57.105 37.35L61.923 46.023Z" fill="#C7B8F8"/>
<path d="M44.633 55.211C44.5885 55.2108 44.5454 55.1958 44.5105 55.1683C44.4755 55.1409 44.4507 55.1026 44.4399 55.0595C44.4292 55.0164 44.433 54.9709 44.451 54.9303C44.4689 54.8896 44.4999 54.8561 44.539 54.835L46.259 53.916C46.2822 53.9015 46.3082 53.8918 46.3353 53.8878C46.3624 53.8837 46.3901 53.8852 46.4166 53.8923C46.4431 53.8994 46.4678 53.9118 46.4893 53.9288C46.5108 53.9459 46.5286 53.9671 46.5415 53.9913C46.5544 54.0155 46.5622 54.0421 46.5644 54.0694C46.5666 54.0968 46.5632 54.1242 46.5543 54.1502C46.5455 54.1761 46.5314 54.2 46.5129 54.2203C46.4944 54.2405 46.472 54.2568 46.447 54.268L44.727 55.187C44.6981 55.2026 44.6658 55.2108 44.633 55.211Z" fill="black"/>
<path d="M52.925 51.03C52.8805 51.0298 52.8374 51.0148 52.8025 50.9873C52.7675 50.9599 52.7427 50.9216 52.7319 50.8785C52.7211 50.8354 52.725 50.7899 52.743 50.7493C52.7609 50.7086 52.7919 50.6751 52.831 50.654L57.271 48.281C57.2942 48.267 57.32 48.258 57.3468 48.2543C57.3736 48.2506 57.4009 48.2524 57.427 48.2596C57.4531 48.2668 57.4775 48.2792 57.4987 48.2961C57.5199 48.3129 57.5374 48.3339 57.5502 48.3578C57.563 48.3817 57.5708 48.4079 57.5732 48.4349C57.5756 48.4618 57.5725 48.489 57.564 48.5147C57.5556 48.5405 57.542 48.5642 57.5241 48.5845C57.5062 48.6049 57.4844 48.6214 57.46 48.633L53.019 51.006C52.9901 51.0216 52.9578 51.0298 52.925 51.03Z" fill="black"/>
<path d="M66.143 84.864C65.914 84.8641 65.685 84.8528 65.457 84.83C62.857 84.573 60.572 82.878 59.014 80.06C57.479 77.283 56.833 73.736 57.197 70.072C57.561 66.408 58.889 63.057 60.939 60.636C63.021 58.178 65.596 56.967 68.1941 57.224C70.7921 57.481 73.0791 59.175 74.6371 61.994C76.1721 64.77 76.8171 68.317 76.4541 71.981C76.0911 75.645 74.7621 78.996 72.7121 81.417C70.8141 83.659 68.5051 84.864 66.143 84.864ZM67.5131 57.89C62.825 57.89 58.58 63.214 57.893 70.141C57.544 73.665 58.159 77.067 59.626 79.721C61.07 82.332 63.165 83.899 65.526 84.133C70.4531 84.622 75.0411 79.139 75.7581 71.912C76.4751 64.685 73.0501 58.412 68.1251 57.92C67.9204 57.9 67.7164 57.89 67.5131 57.89Z" fill="#6DC8C2"/>
<path d="M66.6171 71.826C67.1517 71.826 67.5851 71.3049 67.5851 70.662C67.5851 70.0191 67.1517 69.498 66.6171 69.498C66.0824 69.498 65.649 70.0191 65.649 70.662C65.649 71.3049 66.0824 71.826 66.6171 71.826Z" fill="black"/>
<path d="M23.414 84.864C23.1849 84.8641 22.956 84.8528 22.728 84.83C20.128 84.573 17.842 82.878 16.284 80.06C14.749 77.283 14.104 73.736 14.467 70.072C14.83 66.408 16.159 63.057 18.209 60.636C20.291 58.178 22.868 56.967 25.464 57.224C28.06 57.481 30.349 59.175 31.907 61.994C33.442 64.77 34.088 68.317 33.725 71.981C33.362 75.645 32.032 79 29.982 81.417C28.084 83.659 25.775 84.864 23.414 84.864ZM24.784 57.89C20.095 57.89 15.85 63.214 15.164 70.141C14.814 73.665 15.43 77.067 16.897 79.721C18.34 82.332 20.436 83.899 22.797 84.133C23 84.1538 23.204 84.1641 23.408 84.164C28.096 84.164 32.341 78.84 33.028 71.912C33.744 64.685 30.32 58.412 25.395 57.92C25.191 57.9 24.9873 57.89 24.784 57.89V57.89Z" fill="#6DC8C2"/>
<path d="M23.8869 71.826C24.4216 71.826 24.8549 71.3049 24.8549 70.662C24.8549 70.0191 24.4216 69.498 23.8869 69.498C23.3523 69.498 22.9189 70.0191 22.9189 70.662C22.9189 71.3049 23.3523 71.826 23.8869 71.826Z" fill="black"/>
<path d="M23.888 69.7C23.8737 69.7014 23.8593 69.7014 23.845 69.7C23.8193 69.6944 23.795 69.6838 23.7734 69.6689C23.7518 69.6539 23.7334 69.6348 23.7191 69.6127C23.7049 69.5906 23.6952 69.5659 23.6906 69.5401C23.6859 69.5142 23.6864 69.4877 23.692 69.462L28.548 46.827C28.6161 46.5163 28.788 46.2381 29.0354 46.0382C29.2828 45.8382 29.5909 45.7285 29.909 45.727H36.784C36.837 45.727 36.8879 45.7481 36.9254 45.7856C36.9629 45.8231 36.984 45.874 36.984 45.927C36.984 45.98 36.9629 46.0309 36.9254 46.0684C36.8879 46.1059 36.837 46.127 36.784 46.127H29.909C29.6824 46.1285 29.463 46.2068 29.2868 46.3493C29.1105 46.4917 28.9879 46.6898 28.939 46.911L24.083 69.54C24.0738 69.585 24.0494 69.6255 24.0139 69.6546C23.9783 69.6837 23.9339 69.6998 23.888 69.7V69.7Z" fill="black"/>
<path d="M24.059 42.2C23.8118 42.1995 23.572 42.1157 23.3782 41.9623C23.1845 41.8088 23.0481 41.5945 22.991 41.354L20.855 32.24C20.8191 32.0797 20.8197 31.9133 20.8565 31.7532C20.8934 31.5931 20.9656 31.4433 21.068 31.3148C21.1703 31.1862 21.3001 31.0823 21.4479 31.0105C21.5957 30.9387 21.7577 30.901 21.922 30.9H33.444C33.6882 30.8996 33.9255 30.9809 34.1181 31.1309C34.3107 31.281 34.4476 31.4912 34.507 31.728L36.707 40.464C36.7462 40.6227 36.7495 40.7881 36.7168 40.9482C36.684 41.1084 36.616 41.2592 36.5176 41.3897C36.4193 41.5203 36.293 41.6272 36.1481 41.7029C36.0033 41.7785 35.8433 41.8209 35.68 41.827L24.1 42.2H24.059ZM21.922 31.3C21.8173 31.3007 21.7141 31.3249 21.62 31.3707C21.5258 31.4166 21.4432 31.483 21.3781 31.565C21.3131 31.6471 21.2673 31.7427 21.244 31.8448C21.2208 31.9469 21.2208 32.0529 21.244 32.155L23.381 41.269C23.4175 41.4215 23.5042 41.5574 23.6271 41.6547C23.7501 41.7521 23.9022 41.8054 24.059 41.806H24.082L35.666 41.428C35.7697 41.4239 35.8711 41.3967 35.963 41.3486C36.0549 41.3004 36.1349 41.2325 36.1973 41.1496C36.2597 41.0667 36.3029 40.971 36.3238 40.8694C36.3447 40.7678 36.3427 40.6628 36.318 40.562L34.118 31.826C34.0795 31.676 33.9924 31.543 33.8702 31.4478C33.7481 31.3527 33.5978 31.3007 33.443 31.3H21.922Z" fill="black"/>
<path d="M33.487 34.733H29.67C29.6169 34.733 29.5661 34.7119 29.5285 34.6744C29.491 34.6369 29.47 34.586 29.47 34.533C29.47 34.48 29.491 34.4291 29.5285 34.3916C29.5661 34.3541 29.6169 34.333 29.67 34.333H33.487C33.54 34.333 33.5909 34.3541 33.6284 34.3916C33.6659 34.4291 33.687 34.48 33.687 34.533C33.687 34.586 33.6659 34.6369 33.6284 34.6744C33.5909 34.7119 33.54 34.733 33.487 34.733Z" fill="black"/>
<path d="M33.77 36.407H29.952C29.8989 36.407 29.848 36.3859 29.8105 36.3484C29.773 36.3109 29.752 36.26 29.752 36.207C29.752 36.154 29.773 36.1031 29.8105 36.0656C29.848 36.0281 29.8989 36.007 29.952 36.007H33.77C33.823 36.007 33.8739 36.0281 33.9114 36.0656C33.9489 36.1031 33.97 36.154 33.97 36.207C33.97 36.26 33.9489 36.3109 33.9114 36.3484C33.8739 36.3859 33.823 36.407 33.77 36.407Z" fill="black"/>
<path d="M32.829 38.08H30.178C30.125 38.08 30.0741 38.0589 30.0366 38.0214C29.9991 37.9839 29.978 37.933 29.978 37.88C29.978 37.827 29.9991 37.7761 30.0366 37.7386C30.0741 37.7011 30.125 37.68 30.178 37.68H32.829C32.8821 37.68 32.9329 37.7011 32.9705 37.7386C33.008 37.7761 33.029 37.827 33.029 37.88C33.029 37.933 33.008 37.9839 32.9705 38.0214C32.9329 38.0589 32.8821 38.08 32.829 38.08V38.08Z" fill="black"/>
<path d="M28.581 38.618H24.721C24.6278 38.618 24.5371 38.587 24.4633 38.53C24.3895 38.473 24.3367 38.3932 24.313 38.303L23.472 35.06C23.456 34.9977 23.4545 34.9326 23.4675 34.8696C23.4805 34.8067 23.5077 34.7475 23.5471 34.6967C23.5864 34.6458 23.6369 34.6046 23.6946 34.5763C23.7523 34.5479 23.8157 34.5331 23.88 34.533H27.74C27.8333 34.533 27.9239 34.564 27.9977 34.621C28.0715 34.678 28.1244 34.7578 28.148 34.848L28.989 38.091C29.0052 38.1533 29.0069 38.2185 28.994 38.2815C28.9811 38.3446 28.9539 38.4038 28.9145 38.4547C28.8751 38.5056 28.8245 38.5468 28.7667 38.5751C28.7089 38.6034 28.6454 38.6181 28.581 38.618V38.618Z" fill="#FFBB45"/>
<path d="M26.6 38.628C26.5528 38.6288 26.5068 38.6129 26.4702 38.5831C26.4336 38.5532 26.4087 38.5114 26.4 38.465L25.7 34.759C25.6914 34.7074 25.7034 34.6545 25.7333 34.6117C25.7633 34.5688 25.8089 34.5394 25.8603 34.5297C25.9116 34.52 25.9648 34.5309 26.0083 34.5599C26.0518 34.5889 26.0822 34.6338 26.093 34.685L26.793 38.391C26.7979 38.4169 26.7976 38.4435 26.7923 38.4692C26.7869 38.495 26.7765 38.5195 26.7616 38.5412C26.7467 38.563 26.7277 38.5816 26.7056 38.5959C26.6836 38.6103 26.6589 38.6202 26.633 38.625C26.6221 38.6268 26.611 38.6278 26.6 38.628V38.628Z" fill="black"/>
<path d="M27.364 35.933C27.272 35.9332 27.1827 35.901 27.112 35.842L25.919 34.856C25.8969 34.84 25.8783 34.8196 25.8644 34.7961C25.8505 34.7726 25.8415 34.7465 25.838 34.7194C25.8346 34.6923 25.8367 34.6648 25.8443 34.6386C25.8519 34.6123 25.8647 34.5879 25.8821 34.5668C25.8995 34.5458 25.921 34.5285 25.9453 34.516C25.9696 34.5036 25.9962 34.4963 26.0235 34.4945C26.0508 34.4927 26.0781 34.4966 26.1038 34.5058C26.1295 34.515 26.1531 34.5293 26.173 34.548L27.366 35.533L27.779 34.523C27.8006 34.4762 27.8393 34.4394 27.8873 34.4205C27.9352 34.4016 27.9886 34.4019 28.0363 34.4213C28.0841 34.4408 28.1224 34.478 28.1434 34.525C28.1644 34.5721 28.1664 34.6255 28.149 34.674L27.733 35.686C27.7097 35.7439 27.673 35.7954 27.6259 35.8362C27.5788 35.8771 27.5226 35.9061 27.462 35.921C27.43 35.9289 27.3971 35.9329 27.364 35.933V35.933Z" fill="black"/>
<path d="M27.9399 38.592C27.894 38.5918 27.8495 38.5758 27.814 38.5466C27.7785 38.5175 27.7541 38.477 27.7449 38.432L27.2 35.769C27.1894 35.717 27.1998 35.663 27.2291 35.6187C27.2583 35.5744 27.304 35.5436 27.356 35.533C27.4079 35.5224 27.462 35.5329 27.5063 35.5621C27.5505 35.5914 27.5813 35.637 27.5919 35.689L28.1349 38.352C28.1402 38.3777 28.1403 38.4043 28.1353 38.4301C28.1303 38.4558 28.1203 38.4804 28.1058 38.5023C28.0913 38.5242 28.0727 38.5431 28.0509 38.5578C28.0291 38.5725 28.0047 38.5828 27.9789 38.588C27.9661 38.5907 27.953 38.592 27.9399 38.592V38.592Z" fill="black"/>
<path d="M82.851 43.354H66.947C66.2302 43.354 65.649 43.9351 65.649 44.652V56.103C65.649 56.8199 66.2302 57.401 66.947 57.401H82.851C83.5679 57.401 84.149 56.8199 84.149 56.103V44.652C84.149 43.9351 83.5679 43.354 82.851 43.354Z" fill="#6DC8C2"/>
<path d="M80.7339 57.6C80.6809 57.6 80.63 57.5789 80.5925 57.5414C80.555 57.5039 80.5339 57.453 80.5339 57.4V49.891C80.5339 49.838 80.555 49.7871 80.5925 49.7496C80.63 49.7121 80.6809 49.691 80.7339 49.691C80.787 49.691 80.8378 49.7121 80.8754 49.7496C80.9129 49.7871 80.9339 49.838 80.9339 49.891V57.4C80.9339 57.453 80.9129 57.5039 80.8754 57.5414C80.8378 57.5789 80.787 57.6 80.7339 57.6Z" fill="black"/>
<path d="M70.179 44.761H67.48C67.1784 44.761 66.934 45.0055 66.934 45.307V46.805C66.934 47.1065 67.1784 47.351 67.48 47.351H70.179C70.4805 47.351 70.725 47.1065 70.725 46.805V45.307C70.725 45.0055 70.4805 44.761 70.179 44.761Z" fill="white"/>
<path d="M70.3 48.972H67.246C67.193 48.972 67.1421 48.9509 67.1046 48.9134C67.0671 48.8759 67.046 48.825 67.046 48.772C67.046 48.719 67.0671 48.6681 67.1046 48.6306C67.1421 48.5931 67.193 48.572 67.246 48.572H70.3C70.3531 48.572 70.4039 48.5931 70.4414 48.6306C70.4789 48.6681 70.5 48.719 70.5 48.772C70.5 48.825 70.4789 48.8759 70.4414 48.9134C70.4039 48.9509 70.3531 48.972 70.3 48.972Z" fill="black"/>
<path d="M69.493 50.188H67.246C67.193 50.188 67.1421 50.1669 67.1046 50.1294C67.0671 50.0919 67.046 50.041 67.046 49.988C67.046 49.935 67.0671 49.8841 67.1046 49.8466C67.1421 49.8091 67.193 49.788 67.246 49.788H69.493C69.5461 49.788 69.5969 49.8091 69.6344 49.8466C69.6719 49.8841 69.693 49.935 69.693 49.988C69.693 50.041 69.6719 50.0919 69.6344 50.1294C69.5969 50.1669 69.5461 50.188 69.493 50.188V50.188Z" fill="black"/>
<path d="M80.716 50.0921C80.333 50.0921 79.98 49.8571 79.769 49.4601L76.752 44.17C76.7255 44.1239 76.7184 44.0691 76.7323 44.0177C76.7462 43.9663 76.7799 43.9225 76.826 43.896C76.8722 43.8695 76.927 43.8624 76.9784 43.8763C77.0297 43.8901 77.0735 43.9239 77.1 43.97L80.119 49.2651C80.267 49.5431 80.491 49.7001 80.73 49.6891C80.969 49.6781 81.203 49.5071 81.338 49.218L83.56 44.01C83.5703 43.9858 83.5853 43.9639 83.6041 43.9456C83.6228 43.9272 83.6451 43.9127 83.6694 43.9029C83.6938 43.8931 83.7199 43.8882 83.7461 43.8885C83.7724 43.8887 83.7984 43.8942 83.8225 43.9045C83.8467 43.9148 83.8686 43.9298 83.887 43.9485C83.9053 43.9673 83.9198 43.9895 83.9296 44.0139C83.9394 44.0383 83.9443 44.0643 83.9441 44.0906C83.9438 44.1169 83.9383 44.1428 83.928 44.167L81.7 49.3831C81.5 49.8181 81.138 50.0831 80.738 50.0911L80.716 50.0921Z" fill="black"/>
<path d="M76.549 57.552C76.4959 57.552 76.4451 57.5309 76.4076 57.4934C76.3701 57.4559 76.349 57.405 76.349 57.352V45.525C76.306 43.706 77.2379 43.314 77.2769 43.299C77.3254 43.2816 77.3788 43.2836 77.4259 43.3046C77.473 43.3256 77.5101 43.364 77.5296 43.4117C77.5491 43.4594 77.5493 43.5128 77.5304 43.5608C77.5115 43.6087 77.4748 43.6475 77.4279 43.669C77.3929 43.685 76.713 44.005 76.748 45.52V57.352C76.748 57.4049 76.727 57.4556 76.6897 57.4931C76.6524 57.5305 76.6018 57.5517 76.549 57.552Z" fill="black"/>
<path d="M64.754 48.772H56.218C55.9802 48.7707 55.7525 48.6753 55.5848 48.5066C55.4171 48.338 55.323 48.1098 55.323 47.872V47.872C55.3227 47.6591 55.3984 47.4531 55.5364 47.2911C55.6745 47.1291 55.8658 47.0216 56.076 46.988L64.612 45.616C64.7399 45.5963 64.8705 45.6044 64.995 45.6398C65.1195 45.6751 65.2348 45.7369 65.3333 45.8209C65.4317 45.9049 65.5108 46.0092 65.5653 46.1265C65.6198 46.2439 65.6484 46.3716 65.649 46.501V47.872C65.649 48.1098 65.5549 48.338 65.3872 48.5066C65.2195 48.6753 64.9918 48.7707 64.754 48.772Z" fill="black"/>
<path d="M81.065 35.755H70.258C69.4693 35.755 68.83 36.3943 68.83 37.183V41.927C68.83 42.7157 69.4693 43.355 70.258 43.355H81.065C81.8536 43.355 82.493 42.7157 82.493 41.927V37.183C82.493 36.3943 81.8536 35.755 81.065 35.755Z" fill="#FFBB45"/>
<path d="M75.9581 43.5C75.905 43.5 75.8541 43.4789 75.8166 43.4414C75.7791 43.4039 75.7581 43.353 75.7581 43.3V35.754C75.7581 35.701 75.7791 35.6501 75.8166 35.6126C75.8541 35.5751 75.905 35.554 75.9581 35.554C76.0111 35.554 76.062 35.5751 76.0995 35.6126C76.137 35.6501 76.1581 35.701 76.1581 35.754V43.3C76.1581 43.353 76.137 43.4039 76.0995 43.4414C76.062 43.4789 76.0111 43.5 75.9581 43.5Z" fill="black"/>
<path d="M80.677 40.357H78.2941L75.7871 36.212C75.7617 36.1667 75.755 36.1134 75.7682 36.0633C75.7815 36.0131 75.8137 35.9701 75.858 35.9432C75.9024 35.9164 75.9555 35.9078 76.006 35.9193C76.0566 35.9309 76.1007 35.9616 76.1291 36.005L78.5201 39.957H80.429L82.172 36.472C82.1958 36.4245 82.2374 36.3884 82.2878 36.3716C82.3381 36.3549 82.3931 36.3588 82.4405 36.3825C82.488 36.4062 82.5241 36.4479 82.5409 36.4982C82.5577 36.5486 82.5538 36.6035 82.53 36.651L80.677 40.357Z" fill="black"/>
<path d="M76.111 43.5C76.0741 43.4999 76.038 43.4896 76.0066 43.4703C75.9752 43.4509 75.9497 43.4233 75.9331 43.3903C75.9164 43.3574 75.9092 43.3205 75.9122 43.2838C75.9152 43.247 75.9283 43.2118 75.95 43.182L78.305 39.961H80.662L82.4 42.646C82.4159 42.668 82.4271 42.6931 82.433 42.7196C82.4389 42.7461 82.4393 42.7735 82.4342 42.8002C82.4291 42.8269 82.4187 42.8522 82.4035 42.8748C82.3883 42.8973 82.3687 42.9165 82.3459 42.9311C82.323 42.9458 82.2974 42.9557 82.2707 42.9602C82.2439 42.9646 82.2165 42.9636 82.1901 42.9571C82.1637 42.9507 82.1389 42.9389 82.1172 42.9225C82.0956 42.9062 82.0775 42.8856 82.064 42.862L80.448 40.357H78.508L76.273 43.414C76.2548 43.4402 76.2306 43.4617 76.2025 43.4767C76.1743 43.4916 76.1429 43.4996 76.111 43.5Z" fill="black"/>
<path d="M62.5201 16.504H58.219C57.6021 16.504 57.1021 17.0041 57.1021 17.621V21.513C57.1021 22.1299 57.6021 22.63 58.219 22.63H62.5201C63.137 22.63 63.6371 22.1299 63.6371 21.513V17.621C63.6371 17.0041 63.137 16.504 62.5201 16.504Z" fill="white"/>
<path d="M62.52 22.83H58.22C58.0469 22.8303 57.8753 22.7964 57.7153 22.7303C57.5552 22.6643 57.4097 22.5673 57.2871 22.445C57.1645 22.3227 57.0673 22.1775 57.0008 22.0175C56.9344 21.8576 56.9002 21.6862 56.9 21.513V17.621C56.8998 17.4476 56.9337 17.2759 56.9999 17.1156C57.066 16.9554 57.1631 16.8097 57.2856 16.687C57.4082 16.5643 57.5536 16.467 57.7138 16.4006C57.874 16.3342 58.0456 16.3 58.219 16.3H62.519C62.8681 16.3005 63.2028 16.4395 63.4497 16.6863C63.6965 16.9332 63.8355 17.2679 63.836 17.617V21.509C63.8364 21.6822 63.8027 21.8537 63.7367 22.0138C63.6708 22.174 63.5739 22.3195 63.4517 22.4422C63.3295 22.5649 63.1843 22.6623 63.0245 22.7288C62.8646 22.7954 62.6932 22.8297 62.52 22.83V22.83ZM58.22 16.704C57.977 16.7045 57.744 16.8013 57.5722 16.9732C57.4003 17.145 57.3036 17.378 57.303 17.621V21.513C57.3033 21.7561 57.4 21.9892 57.5719 22.1611C57.7438 22.333 57.9769 22.4297 58.22 22.43H62.52C62.7631 22.4297 62.9962 22.333 63.1681 22.1611C63.34 21.9892 63.4367 21.7561 63.437 21.513V17.621C63.4373 17.5003 63.4137 17.3808 63.3678 17.2692C63.3219 17.1576 63.2544 17.0561 63.1692 16.9706C63.0841 16.8851 62.9829 16.8171 62.8715 16.7707C62.7601 16.7243 62.6407 16.7003 62.52 16.7L58.22 16.704Z" fill="black"/>
<path d="M61.7669 19.7C61.8965 19.4539 61.9589 19.1779 61.9478 18.9C61.9274 18.4865 61.7465 18.0972 61.4436 17.8149C61.1408 17.5326 60.7398 17.3795 60.3258 17.3881C59.9119 17.3967 59.5176 17.5663 59.2267 17.8609C58.9358 18.1555 58.7713 18.552 58.7679 18.966C58.7688 19.209 58.8256 19.4485 58.9339 19.666V19.666C58.9649 19.734 58.9979 19.803 59.0339 19.871C59.3073 20.4381 59.6159 20.9875 59.9579 21.516C59.9945 21.573 60.0445 21.6202 60.1037 21.6532C60.1628 21.6863 60.2292 21.7043 60.2969 21.7056C60.3647 21.7069 60.4317 21.6914 60.492 21.6606C60.5524 21.6298 60.6042 21.5846 60.6429 21.529C61.0309 20.965 61.3975 20.3767 61.7429 19.764C61.7499 19.753 61.7559 19.741 61.7619 19.73L61.7719 19.713C61.7619 19.706 61.7649 19.7 61.7669 19.7Z" fill="#FB6D6D"/>
<path d="M60.358 19.75C60.7357 19.75 61.042 19.4438 61.042 19.066C61.042 18.6882 60.7357 18.382 60.358 18.382C59.9802 18.382 59.674 18.6882 59.674 19.066C59.674 19.4438 59.9802 19.75 60.358 19.75Z" fill="white"/>
<path d="M41.693 19.617C41.693 19.617 40.569 20.2 41.112 22.8C41.1786 23.1184 41.1436 23.4496 41.012 23.747L40.891 24.018C40.8611 24.0865 40.8571 24.1634 40.8797 24.2346C40.9023 24.3058 40.9501 24.3664 41.014 24.405L41.376 24.62L41.791 26.265C41.791 26.265 42.112 28.06 44.102 27.323L45.38 26.888L47.369 27.874L50.4 24.591L48.857 23.369C49.448 23.16 49.832 22.616 49.809 22.05C49.782 21.375 49.195 21.01 49.169 20.995C48.8998 20.8364 48.5834 20.7773 48.275 20.828C47.729 20.928 47.275 21.399 47.127 22.023C47.126 22.023 43.906 23.9 41.693 19.617Z" fill="white"/>
<path d="M47.416 28.124L45.367 27.108L44.167 27.516C43.475 27.772 42.885 27.768 42.418 27.501C41.776 27.134 41.618 26.401 41.597 26.312L41.2 24.753L40.91 24.581C40.8043 24.5171 40.7256 24.4168 40.6888 24.2989C40.652 24.181 40.6595 24.0537 40.71 23.941L40.83 23.67C40.9445 23.4108 40.9742 23.1221 40.915 22.845C40.348 20.119 41.549 19.466 41.6 19.439L41.778 19.348L41.869 19.525C42.595 20.925 43.502 21.796 44.569 22.106C45.3658 22.3229 46.214 22.2452 46.958 21.887C47.15 21.227 47.646 20.739 48.242 20.631C48.5979 20.5728 48.9629 20.6407 49.274 20.823C49.303 20.84 49.979 21.254 50.011 22.041C50.0154 22.3178 49.9458 22.5907 49.8094 22.8316C49.6729 23.0724 49.4746 23.2725 49.235 23.411L50.695 24.568L47.416 28.124ZM45.4 26.676L47.329 27.632L50.11 24.614L48.448 23.3L48.789 23.179C49.289 23.002 49.628 22.54 49.608 22.056C49.585 21.487 49.071 21.168 49.065 21.165C48.8374 21.0315 48.5705 20.9813 48.31 21.023C47.843 21.108 47.454 21.523 47.32 22.07L47.3 22.153L47.226 22.195C46.3732 22.6426 45.3817 22.7477 44.454 22.489C43.34 22.164 42.391 21.302 41.631 19.925C41.5186 20.0507 41.4286 20.1948 41.365 20.351C41.193 20.751 41.044 21.497 41.308 22.762C41.385 23.1212 41.3472 23.4955 41.2 23.832L41.076 24.1C41.0658 24.1238 41.0645 24.1504 41.0724 24.1751C41.0803 24.1997 41.0969 24.2206 41.119 24.234L41.551 24.492L41.99 26.231C41.99 26.237 42.113 26.864 42.621 27.153C42.979 27.353 43.455 27.353 44.034 27.136L45.4 26.676Z" fill="black"/>
<path d="M48.4 22.791C48.2656 22.7917 48.1359 22.7418 48.0366 22.6513C47.9374 22.5607 47.8758 22.4361 47.8642 22.3023C47.8526 22.1684 47.8917 22.0351 47.9739 21.9288C48.0561 21.8225 48.1753 21.751 48.3077 21.7285C48.4402 21.7061 48.5763 21.7343 48.6889 21.8075C48.8016 21.8808 48.8825 21.9938 48.9157 22.124C48.9488 22.2542 48.9318 22.3921 48.8679 22.5103C48.8041 22.6285 48.6981 22.7184 48.571 22.762C48.5161 22.7814 48.4582 22.7912 48.4 22.791ZM48.4 22.124C48.3853 22.1242 48.3708 22.1269 48.357 22.132C48.3264 22.1433 48.3012 22.1656 48.2863 22.1946C48.2714 22.2235 48.2679 22.2571 48.2766 22.2885C48.2852 22.3199 48.3053 22.3469 48.3329 22.3642C48.3606 22.3815 48.3937 22.3877 48.4257 22.3818C48.4577 22.3758 48.4863 22.3581 48.5059 22.332C48.5254 22.3059 48.5345 22.2735 48.5313 22.2411C48.528 22.2087 48.5127 22.1786 48.4884 22.157C48.4641 22.1353 48.4325 22.1235 48.4 22.124V22.124Z" fill="black"/>
<path d="M48.088 22.565C48.0485 22.5652 48.0099 22.5537 47.977 22.532C47.9441 22.5103 47.9183 22.4793 47.903 22.443C47.83 22.2769 47.8166 22.0908 47.865 21.916C47.965 21.579 48.305 21.343 48.712 21.328C48.765 21.3261 48.8166 21.3454 48.8554 21.3816C48.8942 21.4178 48.9171 21.468 48.919 21.521C48.9208 21.574 48.9015 21.6257 48.8653 21.6645C48.8291 21.7033 48.779 21.7261 48.726 21.728C48.495 21.736 48.299 21.86 48.249 22.028C48.2268 22.1144 48.235 22.2058 48.272 22.287C48.2821 22.3112 48.2875 22.3372 48.2876 22.3635C48.2877 22.3898 48.2827 22.4158 48.2728 22.4402C48.2628 22.4645 48.2482 22.4866 48.2297 22.5053C48.2112 22.524 48.1892 22.5388 48.165 22.549C48.1405 22.5592 48.1144 22.5646 48.088 22.565V22.565Z" fill="black"/>
<path d="M43.329 23.324C43.4869 23.324 43.615 23.196 43.615 23.038C43.615 22.88 43.4869 22.752 43.329 22.752C43.171 22.752 43.043 22.88 43.043 23.038C43.043 23.196 43.171 23.324 43.329 23.324Z" fill="black"/>
<path d="M42.793 25.758C42.7465 25.7583 42.7 25.7553 42.654 25.749C42.6009 25.7402 42.5535 25.7108 42.5222 25.6671C42.4909 25.6234 42.4782 25.569 42.487 25.516C42.4957 25.463 42.5252 25.4156 42.5689 25.3842C42.6126 25.3529 42.6669 25.3402 42.72 25.349C42.746 25.349 43.277 25.423 43.659 24.831C43.6731 24.8087 43.6915 24.7893 43.7131 24.7742C43.7348 24.759 43.7592 24.7482 43.785 24.7426C43.8108 24.7369 43.8375 24.7364 43.8635 24.741C43.8895 24.7457 43.9143 24.7555 43.9365 24.7699C43.9587 24.7842 43.9779 24.8028 43.9928 24.8246C44.0078 24.8464 44.0183 24.8709 44.0237 24.8967C44.0292 24.9226 44.0294 24.9493 44.0245 24.9753C44.0196 25.0012 44.0095 25.0259 43.995 25.048C43.592 25.678 43.046 25.758 42.793 25.758Z" fill="black"/>
<path d="M44.557 16.412H47.594C48.4709 16.4128 49.3117 16.7616 49.9316 17.3819C50.5514 18.0021 50.8998 18.8431 50.9 19.72V19.72H41.249C41.2493 18.8427 41.5979 18.0015 42.2182 17.3812C42.8385 16.7609 43.6798 16.4123 44.557 16.412V16.412Z" fill="#6DC8C2"/>
<path d="M45.976 26.974C45.976 26.974 46.168 26.811 47.1219 25.019L46.9289 27.451L45.976 26.974Z" fill="black"/>
<path d="M47.067 19.72C47.359 20.8162 47.4183 21.9615 47.241 23.082C46.9973 24.5704 46.349 25.9632 45.3671 27.108L46.0671 27.461C46.417 27.059 46.7264 26.6236 46.991 26.161C48.436 23.627 48.129 20.954 47.897 19.723L47.067 19.72Z" fill="#FFBB45"/>
<path d="M46.97 28.3L50.529 24.523C50.8839 24.1217 51.3296 23.8111 51.829 23.617C52.905 23.21 54.044 23.479 55.67 24.25C56.9492 24.862 58.1648 25.5989 59.299 26.45C61.591 28.156 63.399 30.443 64.432 33.107C65.211 35.117 65.676 37.617 65.041 40.351C64.394 43.136 62.865 45.051 61.902 46.06L55.031 42.61L46.97 28.3Z" fill="black"/>
<path d="M58.167 38.769C58.1184 38.7686 58.0715 38.7505 58.0353 38.718C57.999 38.6856 57.9758 38.641 57.97 38.5927C57.9643 38.5444 57.9763 38.4956 58.0039 38.4555C58.0316 38.4155 58.0728 38.3868 58.12 38.375L61.3901 37.575C61.4161 37.5669 61.4436 37.5643 61.4708 37.5672C61.4979 37.5702 61.5242 37.5787 61.5479 37.5922C61.5717 37.6057 61.5924 37.6239 61.6089 37.6457C61.6253 37.6675 61.6371 37.6924 61.6435 37.719C61.65 37.7455 61.6509 37.7731 61.6463 37.8C61.6416 37.8269 61.6315 37.8526 61.6166 37.8755C61.6016 37.8983 61.5822 37.9179 61.5594 37.933C61.5366 37.948 61.511 37.9582 61.4841 37.963L58.215 38.763C58.1993 38.7665 58.1832 38.7685 58.167 38.769V38.769Z" fill="white"/>
<path d="M57.683 36.416C56.56 32.795 54.083 27.495 50.649 27.141C50.127 27.088 48.491 26.919 47.307 27.941C47.0914 28.1303 46.9008 28.3464 46.74 28.584C45.697 30.119 46.226 32.038 46.365 32.545C46.4637 32.9023 46.5949 33.2497 46.757 33.583C47.497 34.995 48.2364 36.4073 48.975 37.82L41.77 40.28C41.5814 40.3185 41.4035 40.3981 41.249 40.513L43.628 46C43.9339 45.9644 44.2336 45.8877 44.519 45.772L55.319 42.609C56.145 42.367 56.957 41.654 57.433 40.965C58.349 39.638 58.137 37.882 57.683 36.416Z" fill="black"/>
<path d="M54.4479 43.031C54.4005 43.0314 54.3545 43.0149 54.3181 42.9845C54.2817 42.9541 54.2573 42.9117 54.2492 42.865C54.2412 42.8182 54.25 42.7701 54.2741 42.7293C54.2983 42.6884 54.3361 42.6575 54.3809 42.642L55.2279 42.342C56.1764 42.0085 56.9653 41.3315 57.4389 40.4447C57.9125 39.5579 58.0363 38.5257 57.7859 37.552C57.6479 37.008 57.4859 36.463 57.3069 35.932C56.8788 34.6657 56.3362 33.441 55.6859 32.273C55.6602 32.2266 55.654 32.1719 55.6686 32.1208C55.6832 32.0698 55.7175 32.0267 55.7639 32.001C55.8104 31.9753 55.8651 31.969 55.9161 31.9837C55.9671 31.9983 56.0102 32.0326 56.0359 32.079C56.6974 33.2668 57.2497 34.5123 57.6859 35.8C57.8689 36.341 58.0329 36.9 58.1739 37.449C58.4493 38.5193 58.3134 39.6539 57.7929 40.6289C57.2725 41.6038 56.4054 42.3482 55.3629 42.715L54.5159 43.015C54.4944 43.0243 54.4714 43.0297 54.4479 43.031V43.031Z" fill="white"/>
<path d="M75.172 33.747H63.233C63.1799 33.747 63.129 33.7259 63.0915 33.6884C63.054 33.6509 63.033 33.6 63.033 33.547C63.033 33.494 63.054 33.4431 63.0915 33.4056C63.129 33.3681 63.1799 33.347 63.233 33.347H75.172C75.225 33.347 75.2759 33.3681 75.3134 33.4056C75.3509 33.4431 75.372 33.494 75.372 33.547C75.372 33.6 75.3509 33.6509 75.3134 33.6884C75.2759 33.7259 75.225 33.747 75.172 33.747Z" fill="black"/>
<path d="M68.251 31.916C68.198 31.916 68.1471 31.8949 68.1096 31.8574C68.0721 31.8199 68.051 31.769 68.051 31.716V27.966C68.051 27.913 68.0721 27.8621 68.1096 27.8246C68.1471 27.7871 68.198 27.766 68.251 27.766C68.3041 27.766 68.3549 27.7871 68.3924 27.8246C68.43 27.8621 68.451 27.913 68.451 27.966V31.716C68.451 31.769 68.43 31.8199 68.3924 31.8574C68.3549 31.8949 68.3041 31.916 68.251 31.916Z" fill="black"/>
<path d="M40.9449 41.68L37.5199 42.98C37.3679 43.038 37.2129 43.088 37.0579 43.138C36.7209 43.246 35.8469 43.698 35.775 45.473C35.775 45.473 35.675 47.526 36.9839 47.46C36.9839 47.46 37.7399 48.734 38.6329 48.227C38.6329 48.227 39.9099 48.941 40.2009 47.577C40.5163 47.3003 40.8343 47.0127 41.1549 46.714C41.6669 46.237 42.1499 45.763 42.6069 45.297L40.9449 41.68Z" fill="white"/>
<path d="M39.333 48.617C39.0911 48.6109 38.853 48.5558 38.633 48.455C37.882 48.796 37.192 48.143 36.872 47.665C36.5883 47.6595 36.318 47.5432 36.119 47.341C35.519 46.741 35.571 45.519 35.573 45.467C35.649 43.585 36.593 43.081 36.995 42.952C37.157 42.899 37.303 42.852 37.447 42.797L41.047 41.427L42.847 45.342L42.747 45.442C42.274 45.924 41.784 46.403 41.288 46.865C40.988 47.144 40.688 47.421 40.379 47.689C40.279 48.11 40.07 48.389 39.766 48.53C39.6294 48.5891 39.4818 48.6187 39.333 48.617V48.617ZM38.633 48.002L38.733 48.057C38.738 48.057 39.239 48.332 39.608 48.164C39.808 48.074 39.938 47.864 40.008 47.539L40.022 47.474L40.071 47.43C40.389 47.151 40.708 46.862 41.021 46.571C41.478 46.145 41.931 45.704 42.369 45.259L40.843 41.934L37.593 43.171C37.44 43.229 37.293 43.278 37.121 43.332C36.799 43.432 36.043 43.853 35.977 45.485C35.977 45.497 35.932 46.585 36.405 47.059C36.4794 47.1328 36.5691 47.1894 36.6678 47.2248C36.7664 47.2602 36.8716 47.2736 36.976 47.264L37.096 47.258L37.158 47.358C37.2828 47.5551 37.4358 47.733 37.612 47.886C37.942 48.164 38.245 48.219 38.537 48.053L38.633 48.002Z" fill="black"/>
<path d="M36.984 47.664C36.9447 47.664 36.9064 47.6524 36.8736 47.6307C36.8409 47.609 36.8153 47.5782 36.8 47.542C36.779 47.493 36.3 46.332 36.7 45.29C36.7094 45.2654 36.7235 45.243 36.7416 45.2239C36.7597 45.2048 36.7813 45.1894 36.8053 45.1787C36.8293 45.168 36.8552 45.1621 36.8815 45.1614C36.9078 45.1607 36.9339 45.1651 36.9585 45.1745C36.9831 45.1839 37.0055 45.198 37.0246 45.2161C37.0437 45.2342 37.0591 45.2558 37.0698 45.2798C37.0805 45.3038 37.0864 45.3297 37.0871 45.356C37.0879 45.3823 37.0834 45.4084 37.074 45.433C36.733 46.326 37.168 47.376 37.174 47.386C37.1947 47.4348 37.1951 47.4898 37.1752 47.5389C37.1553 47.5881 37.1168 47.6273 37.068 47.648C37.0415 47.6593 37.0128 47.6648 36.984 47.664Z" fill="black"/>
<path d="M38.759 48.4C38.7238 48.3999 38.6893 48.3906 38.659 48.373C38.04 48.017 37.682 47.387 37.625 46.551C37.6011 46.1688 37.6349 45.7852 37.725 45.413C37.7297 45.3858 37.7401 45.3599 37.7554 45.3369C37.7707 45.3139 37.7905 45.2944 37.8137 45.2794C37.837 45.2645 37.863 45.2546 37.8903 45.2502C37.9175 45.2458 37.9454 45.2471 37.9721 45.2541C37.9988 45.261 38.0238 45.2733 38.0455 45.2904C38.0672 45.3075 38.0851 45.3288 38.0982 45.3531C38.1112 45.3775 38.1191 45.4042 38.1213 45.4317C38.1235 45.4592 38.12 45.4869 38.111 45.513C38.111 45.532 37.645 47.323 38.861 48.023C38.899 48.0451 38.9287 48.079 38.9455 48.1197C38.9622 48.1603 38.9652 48.2053 38.9538 48.2478C38.9424 48.2903 38.9173 48.3278 38.8825 48.3546C38.8476 48.3814 38.8049 48.3959 38.761 48.396L38.759 48.4Z" fill="black"/>
<path d="M40.2 47.781C40.1849 47.781 40.1697 47.779 40.155 47.775C38.9 47.488 38.882 45.953 39.048 45.181C39.06 45.13 39.0916 45.0858 39.1358 45.0578C39.1801 45.0299 39.2335 45.0203 39.2847 45.0313C39.3359 45.0423 39.3807 45.073 39.4096 45.1167C39.4384 45.1603 39.449 45.2136 39.439 45.265C39.439 45.284 39.06 47.114 40.2391 47.386C40.287 47.3969 40.3292 47.4251 40.3576 47.4651C40.3861 47.5052 40.3988 47.5543 40.3934 47.6031C40.3879 47.652 40.3647 47.6971 40.3281 47.7299C40.2916 47.7627 40.2442 47.7809 40.1951 47.781H40.2Z" fill="black"/>
<path d="M50.5999 19.2H41.5199C41.4669 19.2 41.416 19.1789 41.3785 19.1414C41.341 19.1039 41.3199 19.053 41.3199 19C41.3199 18.947 41.341 18.8961 41.3785 18.8586C41.416 18.8211 41.4669 18.8 41.5199 18.8H50.5999C50.6529 18.8 50.7038 18.8211 50.7413 18.8586C50.7788 18.8961 50.7999 18.947 50.7999 19C50.7999 19.053 50.7788 19.1039 50.7413 19.1414C50.7038 19.1789 50.6529 19.2 50.5999 19.2Z" fill="black"/>
<path d="M78.734 29.422H73.494C72.9274 29.422 72.468 29.8814 72.468 30.448V34.729C72.468 35.2956 72.9274 35.755 73.494 35.755H78.734C79.3007 35.755 79.76 35.2956 79.76 34.729V30.448C79.76 29.8814 79.3007 29.422 78.734 29.422Z" fill="#FFC1EB"/>
<path d="M79.572 31.916H72.649C72.5959 31.916 72.5451 31.8949 72.5076 31.8574C72.47 31.8199 72.449 31.769 72.449 31.716C72.449 31.663 72.47 31.6121 72.5076 31.5746C72.5451 31.5371 72.5959 31.516 72.649 31.516H79.572C79.625 31.516 79.6759 31.5371 79.7134 31.5746C79.7509 31.6121 79.772 31.663 79.772 31.716C79.772 31.769 79.7509 31.8199 79.7134 31.8574C79.6759 31.8949 79.625 31.916 79.572 31.916Z" fill="#FB6D6D"/>
<path d="M76.115 35.954C76.062 35.954 76.0111 35.9329 75.9736 35.8954C75.9361 35.8579 75.915 35.807 75.915 35.754V29.422C75.915 29.369 75.9361 29.3181 75.9736 29.2806C76.0111 29.2431 76.062 29.222 76.115 29.222C76.1681 29.222 76.219 29.2431 76.2565 29.2806C76.294 29.3181 76.315 29.369 76.315 29.422V35.754C76.315 35.807 76.294 35.8579 76.2565 35.8954C76.219 35.9329 76.1681 35.954 76.115 35.954Z" fill="#FB6D6D"/>
<path d="M75.905 29.977L75.915 29.649C75.992 27.086 76.808 26.249 77.48 25.997C77.6324 25.9401 77.7951 25.9164 77.9574 25.9274C78.1197 25.9385 78.2777 25.984 78.421 26.061C78.558 26.1333 78.6779 26.2341 78.7727 26.3565C78.8676 26.479 78.9352 26.6203 78.971 26.771C79.331 28.313 76.329 29.771 76.201 29.835L75.905 29.977ZM77.62 26.371C77.091 26.571 76.453 27.247 76.33 29.32C77.23 28.829 78.794 27.771 78.582 26.862C78.5595 26.7663 78.5166 26.6767 78.4562 26.5992C78.3957 26.5217 78.3193 26.4582 78.232 26.413C78.1388 26.363 78.036 26.3333 77.9305 26.3261C77.825 26.3188 77.7191 26.3342 77.62 26.371V26.371Z" fill="#FB6D6D"/>
<path d="M76.2111 29.977L75.9111 29.835C75.7831 29.774 72.781 28.313 73.141 26.771C73.1768 26.6203 73.2444 26.479 73.3393 26.3565C73.4341 26.2341 73.5541 26.1333 73.691 26.061C73.8343 25.984 73.9924 25.9385 74.1546 25.9274C74.3169 25.9164 74.4797 25.9401 74.6321 25.997V25.997C75.3041 26.248 76.1211 27.086 76.1971 29.649L76.2111 29.977ZM74.2381 26.324C74.1145 26.3241 73.9929 26.3546 73.8841 26.413C73.7968 26.4582 73.7203 26.5217 73.6599 26.5992C73.5995 26.6767 73.5565 26.7663 73.534 26.862C73.322 27.772 74.8821 28.83 75.7871 29.32C75.6631 27.247 75.0251 26.569 74.4961 26.371C74.4136 26.3401 74.3262 26.3242 74.2381 26.324V26.324Z" fill="#FB6D6D"/>
<path d="M40.8641 42.383L42.1001 45.142C42.1001 45.142 42.3601 46.123 43.6261 45.996L41.2471 40.513C40.9001 40.772 40.5561 41.305 40.8641 42.383Z" fill="#6DC8C2"/>
<path d="M48.9229 37.859C48.8754 37.8589 48.8295 37.8419 48.7934 37.811C48.7573 37.7801 48.7333 37.7373 48.7259 37.6904C48.7184 37.6435 48.7279 37.5954 48.7527 37.5548C48.7774 37.5143 48.8158 37.4838 48.8609 37.469L51.4609 36.612C51.5113 36.5954 51.5662 36.5995 51.6136 36.6235C51.6609 36.6474 51.6968 36.6891 51.7134 36.7395C51.73 36.7899 51.7259 36.8448 51.702 36.8922C51.6781 36.9395 51.6363 36.9754 51.5859 36.992L48.9859 37.848C48.9657 37.855 48.9444 37.8587 48.9229 37.859Z" fill="white"/>
<path d="M83.246 57.101H66.369C65.9714 57.101 65.649 57.4231 65.649 57.8205C65.649 58.2179 65.9714 58.54 66.369 58.54H83.246C83.6437 58.54 83.966 58.2179 83.966 57.8205C83.966 57.4231 83.6437 57.101 83.246 57.101Z" fill="black"/>
<path d="M34.051 19.61H27.877C26.9817 19.61 26.256 20.3357 26.256 21.231C26.256 22.1263 26.9817 22.852 27.877 22.852H34.051C34.9462 22.852 35.672 22.1263 35.672 21.231C35.672 20.3357 34.9462 19.61 34.051 19.61Z" fill="white"/>
<path d="M34.051 23.053H27.877C27.4013 23.0419 26.9488 22.8451 26.6163 22.5047C26.2838 22.1643 26.0977 21.7073 26.0977 21.2315C26.0977 20.7557 26.2838 20.2987 26.6163 19.9583C26.9488 19.6179 27.4013 19.4211 27.877 19.41H34.051C34.5267 19.4211 34.9791 19.6179 35.3116 19.9583C35.6441 20.2987 35.8303 20.7557 35.8303 21.2315C35.8303 21.7073 35.6441 22.1643 35.3116 22.5047C34.9791 22.8451 34.5267 23.0419 34.051 23.053ZM27.877 19.81C27.5065 19.8198 27.1545 19.9739 26.8959 20.2394C26.6374 20.5049 26.4927 20.8609 26.4927 21.2315C26.4927 21.6021 26.6374 21.9581 26.8959 22.2236C27.1545 22.4891 27.5065 22.6432 27.877 22.653H34.051C34.4215 22.6432 34.7735 22.4891 35.032 22.2236C35.2906 21.9581 35.4353 21.6021 35.4353 21.2315C35.4353 20.8609 35.2906 20.5049 35.032 20.2394C34.7735 19.9739 34.4215 19.8198 34.051 19.81H27.877Z" fill="black"/>
<path d="M28.399 21.759C28.6906 21.759 28.927 21.5226 28.927 21.231C28.927 20.9394 28.6906 20.703 28.399 20.703C28.1074 20.703 27.871 20.9394 27.871 21.231C27.871 21.5226 28.1074 21.759 28.399 21.759Z" fill="#6DC8C2"/>
<path d="M30.964 21.759C31.2556 21.759 31.492 21.5226 31.492 21.231C31.492 20.9394 31.2556 20.703 30.964 20.703C30.6724 20.703 30.436 20.9394 30.436 21.231C30.436 21.5226 30.6724 21.759 30.964 21.759Z" fill="#6DC8C2"/>
<path d="M33.529 21.759C33.8206 21.759 34.057 21.5226 34.057 21.231C34.057 20.9394 33.8206 20.703 33.529 20.703C33.2374 20.703 33.001 20.9394 33.001 21.231C33.001 21.5226 33.2374 21.759 33.529 21.759Z" fill="#6DC8C2"/>
</svg>
