<svg width="35" height="35" viewBox="0 0 35 35" fill="none" xmlns="http://www.w3.org/2000/svg">
<g clip-path="url(#clip0_3_688)">
<path d="M17.9921 6.01563C17.9921 6.01563 16.6249 5.35937 15.4765 4.86719C14.3827 4.375 14.0546 3.71875 14.8749 3.44531C15.6405 3.17188 17.4452 3.0625 18.8671 3.11719C19.4687 3.17187 21.3827 3.28125 21.3827 3.28125C22.8046 3.33594 22.914 3.82813 21.6015 4.26563L17.9921 6.01563Z" fill="#42ADE2"/>
<path d="M4.53908 11.1562C4.53908 11.1562 3.1172 11.7031 3.00783 12.3594C2.84376 12.9062 2.35158 20.3984 34.0156 2.73437C35.875 1.69531 34.9453 0.546874 32.375 0.273437C24.6094 -0.601563 26.5235 -1.2815e-06 4.53908 11.1562Z" fill="#DAE3EA"/>
<path d="M11.5391 7.54688C11.5391 7.54688 4.53906 5.46875 2.24219 4.70313C0.765625 4.21094 0.0546875 5.85156 0.0546875 5.85156C0.0546875 5.85156 2.78906 12.5234 3.0625 12.3594L11.4844 8.03906C11.7578 7.875 11.7578 7.65625 11.5391 7.54688Z" fill="#42ADE2"/>
<path d="M19.0314 13.9453C19.0314 13.9453 13.3439 14.4375 9.46106 18.375C9.24231 18.5937 8.80481 19.1953 9.51575 19.5234C10.8829 19.9062 14.1095 20.2344 19.5782 17.6094L19.0314 13.9453Z" fill="#C5D0D8"/>
<path d="M19.6329 17.5547C19.1407 17.7188 18.5938 17.0625 18.3204 16.0781C18.1017 15.0938 18.2657 14.1641 18.7579 14C19.2501 13.8359 19.797 14.4922 20.0704 15.4766C20.2892 16.4609 20.1251 17.3906 19.6329 17.5547Z" fill="#94989B"/>
<path d="M18.211 8.3125C16.8438 8.91406 16.1875 9.24219 15.4219 10.5L9.73439 19.0312C8.96876 20.2891 9.51564 20.8906 10.9375 20.4531C12.3594 19.9609 14.3281 18.7031 15.2578 17.5547L24.2813 6.83594C25.211 5.6875 24.8828 5.30469 23.5156 5.90625L18.211 8.3125Z" fill="#42ADE2"/>
<path d="M19.1953 16.1875C19.0313 15.4766 18.7032 14.9297 18.3203 14.7656C18.2657 15.1484 18.2657 15.5859 18.375 16.0781C18.5391 16.7891 18.8672 17.3359 19.25 17.5C19.3047 17.1172 19.3047 16.6797 19.1953 16.1875ZM29.75 0.382812C29.4766 0.820312 28 2.07812 28 2.07812C28 2.07812 28.2735 2.57031 29.1485 2.29687C29.8594 2.07812 30.5703 1.42188 30.9532 0.65625L29.75 0.382812Z" fill="#3E4347"/>
<path d="M11.6484 10.0625C11.9505 10.0625 12.1953 9.81766 12.1953 9.51562C12.1953 9.21359 11.9505 8.96875 11.6484 8.96875C11.3464 8.96875 11.1016 9.21359 11.1016 9.51562C11.1016 9.81766 11.3464 10.0625 11.6484 10.0625Z" fill="#3E4347"/>
<path d="M13.6172 9.07812C13.9192 9.07812 14.1641 8.83328 14.1641 8.53125C14.1641 8.22922 13.9192 7.98438 13.6172 7.98438C13.3152 7.98438 13.0703 8.22922 13.0703 8.53125C13.0703 8.83328 13.3152 9.07812 13.6172 9.07812Z" fill="#3E4347"/>
<path d="M15.5859 8.03906C15.888 8.03906 16.1328 7.79422 16.1328 7.49219C16.1328 7.19016 15.888 6.94531 15.5859 6.94531C15.2839 6.94531 15.0391 7.19016 15.0391 7.49219C15.0391 7.79422 15.2839 8.03906 15.5859 8.03906Z" fill="#3E4347"/>
<path d="M17.6094 7C17.9114 7 18.1562 6.75516 18.1562 6.45312C18.1562 6.15109 17.9114 5.90625 17.6094 5.90625C17.3073 5.90625 17.0625 6.15109 17.0625 6.45312C17.0625 6.75516 17.3073 7 17.6094 7Z" fill="#3E4347"/>
<path d="M19.5781 5.96094C19.8802 5.96094 20.125 5.71609 20.125 5.41406C20.125 5.11203 19.8802 4.86719 19.5781 4.86719C19.2761 4.86719 19.0312 5.11203 19.0312 5.41406C19.0312 5.71609 19.2761 5.96094 19.5781 5.96094Z" fill="#3E4347"/>
<path d="M21.5469 4.97656C21.8489 4.97656 22.0938 4.73172 22.0938 4.42969C22.0938 4.12766 21.8489 3.88281 21.5469 3.88281C21.2448 3.88281 21 4.12766 21 4.42969C21 4.73172 21.2448 4.97656 21.5469 4.97656Z" fill="#3E4347"/>
<path d="M23.5156 3.9375C23.8177 3.9375 24.0625 3.69266 24.0625 3.39062C24.0625 3.08859 23.8177 2.84375 23.5156 2.84375C23.2136 2.84375 22.9688 3.08859 22.9688 3.39062C22.9688 3.69266 23.2136 3.9375 23.5156 3.9375Z" fill="#3E4347"/>
<path d="M17.5 35C24.93 35 30.9531 34.3879 30.9531 33.6328C30.9531 32.8777 24.93 32.2656 17.5 32.2656C10.07 32.2656 4.04688 32.8777 4.04688 33.6328C4.04688 34.3879 10.07 35 17.5 35Z" fill="#94989B"/>
</g>
<defs>
<clipPath id="clip0_3_688">
<rect width="35" height="35" fill="white"/>
</clipPath>
</defs>
</svg>
