<svg width="15" height="15" viewBox="0 0 15 15" fill="none" xmlns="http://www.w3.org/2000/svg">
<path d="M1.875 1.875C1.875 1.37772 2.07254 0.900806 2.42417 0.549175C2.77581 0.197544 3.25272 0 3.75 0L11.25 0C11.7473 0 12.2242 0.197544 12.5758 0.549175C12.9275 0.900806 13.125 1.37772 13.125 1.875V14.5313C13.125 14.616 13.1019 14.6992 13.0583 14.772C13.0147 14.8447 12.9523 14.9042 12.8775 14.9443C12.8028 14.9843 12.7185 15.0033 12.6339 14.9992C12.5492 14.9952 12.4672 14.9682 12.3966 14.9213L7.5 12.2822L2.60344 14.9213C2.53285 14.9682 2.45084 14.9952 2.36615 14.9992C2.28146 15.0033 2.19725 14.9843 2.1225 14.9443C2.04775 14.9042 1.98525 14.8447 1.94167 14.772C1.89809 14.6992 1.87504 14.616 1.875 14.5313V1.875ZM3.75 0.9375C3.50136 0.9375 3.2629 1.03627 3.08709 1.21209C2.91127 1.3879 2.8125 1.62636 2.8125 1.875V13.6556L7.24031 11.3288C7.31724 11.2776 7.40759 11.2502 7.5 11.2502C7.59241 11.2502 7.68276 11.2776 7.75969 11.3288L12.1875 13.6556V1.875C12.1875 1.62636 12.0887 1.3879 11.9129 1.21209C11.7371 1.03627 11.4986 0.9375 11.25 0.9375H3.75Z" fill="#CCCCCC"/>
</svg>
