<svg width="25" height="25" viewBox="0 0 25 25" fill="none" xmlns="http://www.w3.org/2000/svg">
<path d="M7.8125 12.5C7.8125 12.9144 7.64788 13.3118 7.35485 13.6049C7.06183 13.8979 6.6644 14.0625 6.25 14.0625C5.8356 14.0625 5.43817 13.8979 5.14515 13.6049C4.85212 13.3118 4.6875 12.9144 4.6875 12.5C4.6875 12.0856 4.85212 11.6882 5.14515 11.3951C5.43817 11.1021 5.8356 10.9375 6.25 10.9375C6.6644 10.9375 7.06183 11.1021 7.35485 11.3951C7.64788 11.6882 7.8125 12.0856 7.8125 12.5ZM14.0625 12.5C14.0625 12.9144 13.8979 13.3118 13.6049 13.6049C13.3118 13.8979 12.9144 14.0625 12.5 14.0625C12.0856 14.0625 11.6882 13.8979 11.3951 13.6049C11.1021 13.3118 10.9375 12.9144 10.9375 12.5C10.9375 12.0856 11.1021 11.6882 11.3951 11.3951C11.6882 11.1021 12.0856 10.9375 12.5 10.9375C12.9144 10.9375 13.3118 11.1021 13.6049 11.3951C13.8979 11.6882 14.0625 12.0856 14.0625 12.5ZM18.75 14.0625C19.1644 14.0625 19.5618 13.8979 19.8549 13.6049C20.1479 13.3118 20.3125 12.9144 20.3125 12.5C20.3125 12.0856 20.1479 11.6882 19.8549 11.3951C19.5618 11.1021 19.1644 10.9375 18.75 10.9375C18.3356 10.9375 17.9382 11.1021 17.6451 11.3951C17.3521 11.6882 17.1875 12.0856 17.1875 12.5C17.1875 12.9144 17.3521 13.3118 17.6451 13.6049C17.9382 13.8979 18.3356 14.0625 18.75 14.0625Z" fill="#CCCCCC"/>
<path d="M3.38281 24.6922L3.41406 24.6859C6.27344 24.1188 8.02031 23.3703 8.83281 22.9594C10.029 23.2784 11.262 23.4392 12.5 23.4375C19.4031 23.4375 25 18.5406 25 12.5C25 6.45938 19.4031 1.5625 12.5 1.5625C5.59687 1.5625 0 6.45938 0 12.5C0 15.25 1.16094 17.7656 3.07812 19.6875C2.944 20.922 2.6693 22.1372 2.25937 23.3094L2.25469 23.3266C2.13819 23.6623 2.01104 23.9942 1.87344 24.3219C1.75 24.6125 1.98906 24.9375 2.3 24.8875C2.66197 24.8283 3.02296 24.7632 3.38281 24.6922ZM4.63281 19.8359C4.6547 19.6072 4.62586 19.3764 4.54835 19.1601C4.47083 18.9438 4.34656 18.7472 4.18437 18.5844C2.52813 16.9219 1.5625 14.7938 1.5625 12.5C1.5625 7.5125 6.25625 3.125 12.5 3.125C18.7437 3.125 23.4375 7.5125 23.4375 12.5C23.4375 17.4891 18.7437 21.875 12.5 21.875C11.3986 21.8766 10.3017 21.7337 9.2375 21.45C8.86559 21.3503 8.46998 21.3915 8.12656 21.5656C7.52188 21.8719 6.18906 22.4563 4.01094 22.9609C4.31481 21.9408 4.523 20.8947 4.63281 19.8359Z" fill="#CCCCCC"/>
</svg>
