<svg width="25" height="25" viewBox="0 0 25 25" fill="none" xmlns="http://www.w3.org/2000/svg">
<path d="M6.25 3.125V20.1875L11.0359 16.3578C11.4515 16.0254 11.9678 15.8443 12.5 15.8443C13.0322 15.8443 13.5485 16.0254 13.9641 16.3578L18.75 20.1859V3.125H6.25ZM5.46875 1.5625H19.5312C19.7385 1.5625 19.9372 1.64481 20.0837 1.79132C20.2302 1.93784 20.3125 2.13655 20.3125 2.34375V21.8125C20.3123 21.9595 20.2706 22.1035 20.1922 22.2278C20.1139 22.3522 20.002 22.452 19.8695 22.5156C19.737 22.5793 19.5892 22.6042 19.4431 22.5877C19.2971 22.5711 19.1586 22.5136 19.0437 22.4219L12.9875 17.5781C12.8491 17.4676 12.6772 17.4074 12.5 17.4074C12.3228 17.4074 12.1509 17.4676 12.0125 17.5781L5.95625 22.4219C5.84137 22.5136 5.70295 22.5711 5.55688 22.5877C5.41081 22.6042 5.26302 22.5793 5.13051 22.5156C4.99799 22.452 4.88612 22.3522 4.80776 22.2278C4.72939 22.1035 4.68771 21.9595 4.6875 21.8125V2.34375C4.6875 2.13655 4.76981 1.93784 4.91632 1.79132C5.06284 1.64481 5.26155 1.5625 5.46875 1.5625Z" fill="#CCCCCC"/>
</svg>
