<svg width="26" height="20" viewBox="0 0 26 20" fill="none" xmlns="http://www.w3.org/2000/svg">
<g clip-path="url(#clip0_3_753)">
<path d="M21.7953 1.66804C20.108 0.878565 18.323 0.317608 16.4874 0C16.2587 0.413367 15.9916 0.969347 15.8074 1.41166C13.8283 1.11407 11.8674 1.11407 9.92464 1.41166C9.74052 0.969447 9.46736 0.413367 9.23661 0C7.39921 0.317754 5.61265 0.88014 3.92454 1.67216C0.565349 6.74844 -0.345305 11.6985 0.109972 16.5785C2.33801 18.2423 4.49721 19.2531 6.62002 19.9145C7.14759 19.189 7.61396 18.4209 8.01429 17.6181C7.25211 17.3279 6.51734 16.9703 5.81872 16.5495C6.00256 16.4133 6.18208 16.2713 6.35701 16.1237C10.5904 18.1038 15.1902 18.1038 19.3731 16.1237C19.5488 16.2703 19.7282 16.4123 19.9113 16.5495C19.2115 16.9714 18.4754 17.3297 17.7117 17.6202C18.1143 18.4262 18.5798 19.1951 19.106 19.9165C21.2308 19.2552 23.392 18.2444 25.62 16.5785C26.1543 10.9214 24.7075 6.01668 21.7953 1.66794V1.66804ZM8.59108 13.5774C7.32022 13.5774 6.27801 12.391 6.27801 10.9462C6.27801 9.50151 7.29801 8.31306 8.59108 8.31306C9.88424 8.31306 10.9264 9.4994 10.9041 10.9462C10.9062 12.391 9.88424 13.5774 8.59108 13.5774ZM17.1389 13.5774C15.8681 13.5774 14.826 12.391 14.826 10.9462C14.826 9.50151 15.8458 8.31306 17.1389 8.31306C18.4321 8.31306 19.4742 9.4994 19.452 10.9462C19.452 12.391 18.4321 13.5774 17.1389 13.5774Z" fill="#5865F2"/>
</g>
<defs>
<clipPath id="clip0_3_753">
<rect width="25.73" height="20" fill="white"/>
</clipPath>
</defs>
</svg>
