<svg width="20" height="20" viewBox="0 0 20 20" fill="none" xmlns="http://www.w3.org/2000/svg">
<path d="M9.99996 1.625C5.39996 1.625 1.66663 5.35833 1.66663 9.95833C1.66663 14.5583 5.39996 18.2917 9.99996 18.2917H14.1666V16.625H9.99996C6.38329 16.625 3.33329 13.575 3.33329 9.95833C3.33329 6.34167 6.38329 3.29167 9.99996 3.29167C13.6166 3.29167 16.6666 6.34167 16.6666 9.95833V11.15C16.6666 11.8083 16.075 12.4583 15.4166 12.4583C14.7583 12.4583 14.1666 11.8083 14.1666 11.15V9.95833C14.1666 7.65833 12.3 5.79167 9.99996 5.79167C7.69996 5.79167 5.83329 7.65833 5.83329 9.95833C5.83329 12.2583 7.69996 14.125 9.99996 14.125C11.15 14.125 12.2 13.6583 12.95 12.9C13.4916 13.6417 14.425 14.125 15.4166 14.125C17.0583 14.125 18.3333 12.7917 18.3333 11.15V9.95833C18.3333 5.35833 14.6 1.625 9.99996 1.625V1.625ZM9.99996 12.4583C8.61663 12.4583 7.49996 11.3417 7.49996 9.95833C7.49996 8.575 8.61663 7.45833 9.99996 7.45833C11.3833 7.45833 12.5 8.575 12.5 9.95833C12.5 11.3417 11.3833 12.4583 9.99996 12.4583Z" fill="#C5C5C5"/>
</svg>
