<svg width="20" height="20" viewBox="-10 0 35 25" fill="none" xmlns="http://www.w3.org/2000/svg">
<path d="M7.16667 3.66871C6.94565 3.66871 6.73369 3.75651 6.57741 3.91279C6.42113 4.06907 6.33333 4.28103 6.33333 4.50204C6.33333 4.72306 6.42113 4.93502 6.57741 5.0913C6.73369 5.24758 6.94565 5.33538 7.16667 5.33538C7.38768 5.33538 7.59964 5.24758 7.75592 5.0913C7.9122 4.93502 8 4.72306 8 4.50204C8 4.28103 7.9122 4.06907 7.75592 3.91279C7.59964 3.75651 7.38768 3.66871 7.16667 3.66871ZM4.80833 3.66871C4.9805 3.18076 5.29978 2.75824 5.72217 2.45937C6.14455 2.1605 6.64924 2 7.16667 2C7.68409 2 8.18878 2.1605 8.61117 2.45937C9.03355 2.75824 9.35283 3.18076 9.525 3.66871H15.5C15.721 3.66871 15.933 3.75651 16.0893 3.91279C16.2455 4.06907 16.3333 4.28103 16.3333 4.50204C16.3333 4.72306 16.2455 4.93502 16.0893 5.0913C15.933 5.24758 15.721 5.33538 15.5 5.33538H9.525C9.35283 5.82332 9.03355 6.24585 8.61117 6.54472C8.18878 6.84359 7.68409 7.00408 7.16667 7.00408C6.64924 7.00408 6.14455 6.84359 5.72217 6.54472C5.29978 6.24585 4.9805 5.82332 4.80833 5.33538H3.83333C3.61232 5.33538 3.40036 5.24758 3.24408 5.0913C3.0878 4.93502 3 4.72306 3 4.50204C3 4.28103 3.0878 4.06907 3.24408 3.91279C3.40036 3.75651 3.61232 3.66871 3.83333 3.66871H4.80833ZM12.1667 8.66871C11.9457 8.66871 11.7337 8.75651 11.5774 8.91279C11.4211 9.06907 11.3333 9.28103 11.3333 9.50204C11.3333 9.72306 11.4211 9.93502 11.5774 10.0913C11.7337 10.2476 11.9457 10.3354 12.1667 10.3354C12.3877 10.3354 12.5996 10.2476 12.7559 10.0913C12.9122 9.93502 13 9.72306 13 9.50204C13 9.28103 12.9122 9.06907 12.7559 8.91279C12.5996 8.75651 12.3877 8.66871 12.1667 8.66871ZM9.80833 8.66871C9.9805 8.18076 10.2998 7.75824 10.7222 7.45937C11.1446 7.1605 11.6492 7 12.1667 7C12.6841 7 13.1888 7.1605 13.6112 7.45937C14.0336 7.75824 14.3528 8.18076 14.525 8.66871H15.5C15.721 8.66871 15.933 8.75651 16.0893 8.91279C16.2455 9.06907 16.3333 9.28103 16.3333 9.50204C16.3333 9.72306 16.2455 9.93502 16.0893 10.0913C15.933 10.2476 15.721 10.3354 15.5 10.3354H14.525C14.3528 10.8233 14.0336 11.2458 13.6112 11.5447C13.1888 11.8436 12.6841 12.0041 12.1667 12.0041C11.6492 12.0041 11.1446 11.8436 10.7222 11.5447C10.2998 11.2458 9.9805 10.8233 9.80833 10.3354H3.83333C3.61232 10.3354 3.40036 10.2476 3.24408 10.0913C3.0878 9.93502 3 9.72306 3 9.50204C3 9.28103 3.0878 9.06907 3.24408 8.91279C3.40036 8.75651 3.61232 8.66871 3.83333 8.66871H9.80833ZM7.16667 13.6687C6.94565 13.6687 6.73369 13.7565 6.57741 13.9128C6.42113 14.0691 6.33333 14.281 6.33333 14.502C6.33333 14.7231 6.42113 14.935 6.57741 15.0913C6.73369 15.2476 6.94565 15.3354 7.16667 15.3354C7.38768 15.3354 7.59964 15.2476 7.75592 15.0913C7.9122 14.935 8 14.7231 8 14.502C8 14.281 7.9122 14.0691 7.75592 13.9128C7.59964 13.7565 7.38768 13.6687 7.16667 13.6687ZM4.80833 13.6687C4.9805 13.1808 5.29978 12.7582 5.72217 12.4594C6.14455 12.1605 6.64924 12 7.16667 12C7.68409 12 8.18878 12.1605 8.61117 12.4594C9.03355 12.7582 9.35283 13.1808 9.525 13.6687H15.5C15.721 13.6687 15.933 13.7565 16.0893 13.9128C16.2455 14.0691 16.3333 14.281 16.3333 14.502C16.3333 14.7231 16.2455 14.935 16.0893 15.0913C15.933 15.2476 15.721 15.3354 15.5 15.3354H9.525C9.35283 15.8233 9.03355 16.2458 8.61117 16.5447C8.18878 16.8436 7.68409 17.0041 7.16667 17.0041C6.64924 17.0041 6.14455 16.8436 5.72217 16.5447C5.29978 16.2458 4.9805 15.8233 4.80833 15.3354H3.83333C3.61232 15.3354 3.40036 15.2476 3.24408 15.0913C3.0878 14.935 3 14.7231 3 14.502C3 14.281 3.0878 14.0691 3.24408 13.9128C3.40036 13.7565 3.61232 13.6687 3.83333 13.6687H4.80833Z" fill="#CCCCCC"/>
</svg>
