<svg width="35" height="35" viewBox="0 0 35 35" fill="none" xmlns="http://www.w3.org/2000/svg">
<path d="M9.72349 11.1371C9.56763 12.7996 9.45826 15.7418 10.4399 16.9941C10.4399 16.9941 9.97779 13.7621 14.1204 9.70703C15.7883 8.07461 16.1739 5.8543 15.5915 4.18906C15.2606 3.2457 14.6563 2.46641 14.1313 1.92226C13.8251 1.60234 14.0602 1.07461 14.5059 1.09375C17.202 1.21406 21.5715 1.96328 23.4282 6.62265C24.243 8.66797 24.3032 10.7816 23.9149 12.9309C23.6688 14.3035 22.7938 17.3551 24.7899 17.7297C26.2145 17.9977 26.9036 16.8656 27.2126 16.0508C27.3411 15.7117 27.7868 15.627 28.0274 15.8977C30.4337 18.6348 30.6387 21.8586 30.1411 24.634C29.1786 29.9988 23.7454 33.9035 18.3477 33.9035C11.6047 33.9035 6.23716 30.0453 4.84537 23.0617C4.28482 20.2426 4.5692 14.6645 8.91685 10.727C9.23951 10.4316 9.76724 10.6941 9.72349 11.1371V11.1371Z" fill="url(#paint0_radial_3_744)"/>
<path d="M20.8113 21.1695C18.3257 17.9703 19.4386 14.3199 20.0484 12.8652C20.1304 12.6738 19.9117 12.4934 19.7394 12.6109C18.6703 13.3383 16.48 15.05 15.4601 17.459C14.0792 20.7156 14.1777 22.3098 14.9953 24.2566C15.4874 25.4297 14.916 25.6785 14.6288 25.7223C14.3499 25.766 14.0929 25.5801 13.8878 25.3859C13.2979 24.8195 12.8774 24.0999 12.6738 23.3078C12.63 23.1383 12.4085 23.0918 12.3074 23.2313C11.5417 24.2895 11.1453 25.9875 11.1261 27.1879C11.066 30.8984 14.1312 33.9063 17.839 33.9063C22.5121 33.9063 25.9163 28.7383 23.2312 24.418C22.4519 23.1602 21.7191 22.3371 20.8113 21.1695Z" fill="url(#paint1_radial_3_744)"/>
<defs>
<radialGradient id="paint0_radial_3_744" cx="0" cy="0" r="1" gradientUnits="userSpaceOnUse" gradientTransform="translate(17.0122 33.9885) rotate(-179.751) scale(19.3013 31.6696)">
<stop offset="0.314" stop-color="#FF9800"/>
<stop offset="0.662" stop-color="#FF6D00"/>
<stop offset="0.972" stop-color="#F44336"/>
</radialGradient>
<radialGradient id="paint1_radial_3_744" cx="0" cy="0" r="1" gradientUnits="userSpaceOnUse" gradientTransform="translate(18.096 14.7816) rotate(90.5787) scale(20.1951 15.1983)">
<stop offset="0.214" stop-color="#FFF176"/>
<stop offset="0.328" stop-color="#FFF27D"/>
<stop offset="0.487" stop-color="#FFF48F"/>
<stop offset="0.672" stop-color="#FFF7AD"/>
<stop offset="0.793" stop-color="#FFF9C4"/>
<stop offset="0.822" stop-color="#FFF8BD" stop-opacity="0.804"/>
<stop offset="0.863" stop-color="#FFF6AB" stop-opacity="0.529"/>
<stop offset="0.91" stop-color="#FFF38D" stop-opacity="0.209"/>
<stop offset="0.941" stop-color="#FFF176" stop-opacity="0"/>
</radialGradient>
</defs>
</svg>
