<svg width="10" height="10" viewBox="0 0 10 10" fill="none" xmlns="http://www.w3.org/2000/svg">
<path d="M4.99992 8.75C4.47364 8.3011 3.98583 7.80897 3.54159 7.27875C2.87492 6.4825 2.08325 5.29667 2.08325 4.16667C2.08296 3.58957 2.25388 3.02535 2.57437 2.54543C2.89487 2.0655 3.35053 1.69144 3.8837 1.47058C4.41686 1.24973 5.00356 1.192 5.56955 1.30471C6.13554 1.41742 6.65537 1.69549 7.06325 2.10375C7.33482 2.37411 7.55006 2.69564 7.69654 3.04974C7.84301 3.40384 7.91781 3.78347 7.91659 4.16667C7.91659 5.29667 7.12492 6.4825 6.45825 7.27875C6.014 7.80896 5.52619 8.3011 4.99992 8.75ZM4.99992 2.91667C4.6684 2.91667 4.35046 3.04836 4.11604 3.28278C3.88161 3.51721 3.74992 3.83515 3.74992 4.16667C3.74992 4.49819 3.88161 4.81613 4.11604 5.05055C4.35046 5.28497 4.6684 5.41667 4.99992 5.41667C5.33144 5.41667 5.64938 5.28497 5.8838 5.05055C6.11822 4.81613 6.24992 4.49819 6.24992 4.16667C6.24992 3.83515 6.11822 3.51721 5.8838 3.28278C5.64938 3.04836 5.33144 2.91667 4.99992 2.91667Z" fill="#CCCCCC"/>
</svg>
