<svg width="303" height="211" viewBox="0 0 303 211" fill="none" xmlns="http://www.w3.org/2000/svg">
<ellipse cx="73.5" cy="50.5" rx="19.5" ry="18.5" fill="#E1DAFB"/>
<ellipse cx="237.5" cy="105.5" rx="38.5" ry="36.5" fill="#E1DAFB"/>
<ellipse cx="175.5" cy="174.5" rx="23.5" ry="22.5" fill="#E1DAFB"/>
<path d="M172.18 25.5889H91.6129C89.6442 25.5889 88.0482 27.1583 88.0482 29.0943V86.9323C88.0482 88.8682 89.6442 90.4376 91.6129 90.4376H172.18C174.149 90.4376 175.745 88.8682 175.745 86.9323V29.0943C175.745 27.1583 174.149 25.5889 172.18 25.5889Z" fill="#F2F6FB"/>
<path d="M88.0482 29.0953C88.0482 27.1588 89.6436 25.5889 91.6119 25.5889H172.354C174.323 25.5889 175.918 27.158 175.918 29.0953V32.924H88.0482V29.0953Z" fill="#E1E5F0"/>
<path d="M93.161 30.9235C94.0703 30.9235 94.8075 30.2145 94.8075 29.3398C94.8075 28.4652 94.0703 27.7561 93.161 27.7561C92.2517 27.7561 91.5145 28.4652 91.5145 29.3398C91.5145 30.2145 92.2517 30.9235 93.161 30.9235Z" fill="#FF5645"/>
<path d="M98.5337 30.9235C99.443 30.9235 100.18 30.2145 100.18 29.3398C100.18 28.4652 99.443 27.7561 98.5337 27.7561C97.6244 27.7561 96.8872 28.4652 96.8872 29.3398C96.8872 30.2145 97.6244 30.9235 98.5337 30.9235Z" fill="#FFCB3D"/>
<path d="M104.08 30.9235C104.989 30.9235 105.726 30.2145 105.726 29.3398C105.726 28.4652 104.989 27.7561 104.08 27.7561C103.17 27.7561 102.433 28.4652 102.433 29.3398C102.433 30.2145 103.17 30.9235 104.08 30.9235Z" fill="#3ABF7C"/>
<path d="M92.3909 37.8747H94.8669C95.0638 37.8747 95.2234 38.0316 95.2234 38.2252V39.0598C95.2234 39.2534 95.0638 39.4104 94.8669 39.4104H92.3909C92.194 39.4104 92.0344 39.2534 92.0344 39.0598V38.2252C92.0344 38.0316 92.194 37.8747 92.3909 37.8747ZM160.156 37.8747H171.402C171.599 37.8747 171.759 38.0316 171.759 38.2252V39.0598C171.759 39.2534 171.599 39.4104 171.402 39.4104H160.156C159.96 39.4104 159.8 39.2534 159.8 39.0598V38.2252C159.8 38.0316 159.96 37.8747 160.156 37.8747ZM138.631 37.8747H149.877C150.074 37.8747 150.233 38.0316 150.233 38.2252V39.0598C150.233 39.2534 150.074 39.4104 149.877 39.4104H138.631C138.434 39.4104 138.274 39.2534 138.274 39.0598V38.2252C138.274 38.0316 138.434 37.8747 138.631 37.8747ZM152.184 37.8747H157.849C158.046 37.8747 158.206 38.0316 158.206 38.2252V39.0598C158.206 39.2534 158.046 39.4104 157.849 39.4104H152.184C151.987 39.4104 151.828 39.2534 151.828 39.0598V38.2252C151.828 38.0316 151.987 37.8747 152.184 37.8747Z" fill="#D8DEED"/>
<path d="M96.3771 49.0086H119.581C119.778 49.0086 119.938 49.1655 119.938 49.3591V51.7295C119.938 51.9231 119.778 52.08 119.581 52.08H96.3771C96.1802 52.08 96.0206 51.9231 96.0206 51.7295V49.3591C96.0206 49.1655 96.1802 49.0086 96.3771 49.0086ZM96.3771 53.9997H115.595C115.792 53.9997 115.952 54.1566 115.952 54.3502V56.7206C115.952 56.9142 115.792 57.0711 115.595 57.0711H96.3771C96.1802 57.0711 96.0206 56.9142 96.0206 56.7206V54.3502C96.0206 54.1566 96.1802 53.9997 96.3771 53.9997ZM96.3771 63.9818H107.623C107.82 63.9818 107.979 64.1388 107.979 64.3324V66.7027C107.979 66.8963 107.82 67.0533 107.623 67.0533H96.3771C96.1802 67.0533 96.0206 66.8963 96.0206 66.7027V64.3324C96.0206 64.1388 96.1802 63.9818 96.3771 63.9818ZM96.3771 58.9908H119.581C119.778 58.9908 119.938 59.1477 119.938 59.3413V61.7117C119.938 61.9053 119.778 62.0622 119.581 62.0622H96.3771C96.1802 62.0622 96.0206 61.9053 96.0206 61.7117V59.3413C96.0206 59.1477 96.1802 58.9908 96.3771 58.9908Z" fill="#E1E5F0"/>
<path d="M120.86 73.58H142.136C143.191 73.58 143.646 73.7021 144.082 73.9312C144.518 74.1603 144.86 74.4966 145.093 74.925C145.326 75.3534 145.45 75.8008 145.45 76.8381V78.0006C145.45 79.0379 145.326 79.4853 145.093 79.9137C144.86 80.3421 144.518 80.6784 144.082 80.9075C143.646 81.1366 143.191 81.2587 142.136 81.2587H120.86C119.805 81.2587 119.35 81.1366 118.914 80.9075C118.478 80.6784 118.136 80.3421 117.903 79.9137C117.67 79.4853 117.546 79.0379 117.546 78.0006V76.8381C117.546 75.8008 117.67 75.3534 117.903 74.925C118.136 74.4966 118.478 74.1603 118.914 73.9312C119.35 73.7021 119.805 73.58 120.86 73.58Z" fill="#3ABF7C"/>
<path d="M160.84 56.5243V60.5554C160.84 61.7406 160.082 62.7979 158.947 63.1964C156.285 64.1309 153.623 64.5981 150.961 64.5981C148.299 64.5981 145.637 64.1309 142.975 63.1964C141.84 62.7979 141.082 61.7406 141.082 60.5554V56.7716L133.135 54.0133C132.822 53.9045 132.577 53.6584 132.474 53.3474C132.291 52.7952 132.598 52.2017 133.16 52.0218L149.046 46.9324C150.405 46.497 151.874 46.5203 153.218 46.9988L167.358 52.0324C167.648 52.1353 167.878 52.3557 167.99 52.6373C168.206 53.1779 167.935 53.7882 167.385 54.0002L160.84 56.5243Z" fill="#474BFF"/>
<path opacity="0.176986" d="M160.84 56.5243V60.5554C160.84 61.7406 160.082 62.7979 158.947 63.1964C156.285 64.1309 153.623 64.5981 150.961 64.5981C148.299 64.5981 145.637 64.1309 142.975 63.1964C141.84 62.7979 141.082 61.7406 141.082 60.5554V56.7716L148.89 59.4816C150.344 59.9861 151.933 59.9592 153.368 59.4058L160.84 56.5243Z" fill="#444444"/>
<path d="M163.7 60.1737V55.6599L150.864 52.8349C150.631 52.7835 150.485 52.56 150.539 52.3356C150.592 52.1113 150.824 51.971 151.058 52.0223L164.23 54.9215C164.427 54.9648 164.566 55.1334 164.566 55.3277V60.1737C165.022 60.3415 165.346 60.7664 165.346 61.264C165.346 61.6929 165.106 62.0678 164.747 62.2706C164.778 62.325 164.802 62.3731 164.818 62.4149C165.574 64.3925 166.534 66.4895 164.341 66.5967C163.081 66.6583 162.877 65.2477 163.73 62.365C163.258 62.2052 162.92 61.7726 162.92 61.264C162.92 60.7664 163.244 60.3415 163.7 60.1737Z" fill="#474961"/>
<path d="M182.513 28.3924C182.513 27.4249 183.311 26.6405 184.295 26.6405H200.265L206.753 33.0113V53.1059C206.753 54.0738 205.953 54.8585 204.97 54.8585H184.295C183.311 54.8585 182.513 54.0743 182.513 53.1066V28.3924Z" fill="#F2F6FB"/>
<path d="M199.331 42.2347L191.249 46.2331C191.188 46.2635 191.113 46.2392 191.082 46.1786C191.073 46.1615 191.068 46.1426 191.068 46.1235V38.1268C191.068 38.059 191.124 38.0041 191.193 38.0041C191.212 38.0041 191.232 38.0086 191.249 38.0172L199.331 42.0155C199.392 42.046 199.417 42.1197 199.386 42.1803C199.374 42.2038 199.355 42.2229 199.331 42.2347Z" fill="#D8DEED"/>
<path d="M200.265 26.6405L206.753 33.0113L200.666 34.0896C199.696 34.2613 199.045 33.628 199.212 32.6735L200.265 26.6405Z" fill="#D8DEED"/>
<path d="M182.513 63.0952C182.513 62.1276 183.311 61.3433 184.295 61.3433H200.265L206.753 67.7141V87.8087C206.753 88.7766 205.953 89.5613 204.97 89.5613H184.295C183.311 89.5613 182.513 88.7771 182.513 87.8094V63.0952Z" fill="#F2F6FB"/>
<path d="M200.265 61.3433L206.753 67.7141L200.666 68.7924C199.696 68.9641 199.045 68.3308 199.212 67.3763L200.265 61.3433Z" fill="#D8DEED"/>
<path d="M188.038 80.7112V73.2703C188.038 73.1191 188.104 72.9753 188.22 72.8755C189.129 72.0887 190.24 71.7588 191.552 71.8858C192.952 72.0215 193.88 72.7202 194.337 73.982V82.1157C194.337 82.2125 194.257 82.291 194.158 82.291C194.103 82.291 194.05 82.2654 194.017 82.222C193.387 81.41 192.674 80.9021 191.877 80.6982C191.09 80.4968 190.058 80.6624 188.782 81.1952C188.51 81.3087 188.196 81.184 188.081 80.9167C188.053 80.8517 188.038 80.7818 188.038 80.7112ZM201.304 80.7112C201.304 80.7818 201.289 80.8517 201.261 80.9167C201.146 81.184 200.832 81.3087 200.56 81.1952C199.284 80.6624 198.253 80.4968 197.465 80.6982C196.668 80.9021 195.955 81.41 195.325 82.222C195.292 82.2654 195.239 82.291 195.184 82.291C195.085 82.291 195.005 82.2125 195.005 82.1157V73.982C195.462 72.7202 196.39 72.0215 197.79 71.8858C199.102 71.7588 200.213 72.0887 201.122 72.8755C201.238 72.9753 201.304 73.1191 201.304 73.2703V80.7112Z" fill="#D8DEED"/>
<path d="M83.0594 149.678H211.817L220.951 112.381C222.644 105.47 229.441 100.988 236.585 102.072C236.908 102.121 237.228 102.184 237.545 102.259C243.864 103.755 247.752 110.005 246.23 116.218L235.941 158.231C234.248 165.142 227.451 169.624 220.307 168.539C219.984 168.49 219.664 168.428 219.347 168.353C215.502 167.443 212.557 164.772 211.183 161.421H83.6929C82.3191 164.772 79.3741 167.443 75.5294 168.353C75.2122 168.428 74.8918 168.49 74.5693 168.539C67.4249 169.624 60.6278 165.142 58.9352 158.231L48.6456 116.218C47.1239 110.005 51.0124 103.755 57.3306 102.259C57.6479 102.184 57.9682 102.121 58.2907 102.072C65.4351 100.988 72.2322 105.47 73.9248 112.381L83.0594 149.678Z" fill="#E1E5F0"/>
<mask id="mask0_1_415" style="mask-type:alpha" maskUnits="userSpaceOnUse" x="75" y="102" width="145" height="48">
<path d="M93.0389 102.005H201.762C211.606 102.005 219.586 109.852 219.586 119.532V149.678H75.2153V119.532C75.2153 109.852 83.1952 102.005 93.0389 102.005Z" fill="white"/>
</mask>
<g mask="url(#mask0_1_415)">
<path d="M93.0389 102.005H201.762C211.606 102.005 219.586 109.852 219.586 119.532V149.678H75.2153V119.532C75.2153 109.852 83.1952 102.005 93.0389 102.005Z" fill="#F2F6FB"/>
</g>
<path d="M70.8482 171.06L65.9338 179.43C65.1709 180.73 63.4813 181.175 62.16 180.425C60.8386 179.675 60.3859 178.013 61.1488 176.714L65.0681 170.038C63.9217 169.156 63.1848 167.783 63.1848 166.24C63.1848 163.579 65.3793 161.421 68.0863 161.421H226.359C229.066 161.421 231.261 163.579 231.261 166.24C231.261 167.688 230.611 168.987 229.584 169.871L233.602 176.714C234.364 178.013 233.912 179.675 232.59 180.425C231.269 181.175 229.579 180.73 228.816 179.43L223.902 171.06H70.8482Z" fill="#D8DEED"/>
<path d="M144.793 180.206C144.868 180.183 144.947 180.171 145.029 180.171H154.921C155.366 180.171 155.741 180.539 155.741 180.977C155.741 181.415 155.366 181.783 154.921 181.783H146.42H117.903C117.46 181.783 117.101 181.43 117.101 180.994C117.101 180.559 117.46 180.206 117.903 180.206H144.793Z" fill="#FFCB3D"/>
<path d="M146.411 180.206H145.029C144.947 180.206 144.868 180.218 144.793 180.241H117.903C117.773 180.241 117.651 180.271 117.543 180.325L117.279 168.979L130.622 169.166L133.15 162.153L144.878 165.649C145.463 167.606 146.067 169.564 146.67 171.539C146.989 172.57 147.309 173.583 147.628 174.597C148.622 174.982 149.474 175.331 150.077 175.593C151.231 176.083 152.207 176.537 153.271 177.219C153.271 177.219 154.194 177.778 154.709 178.582C154.869 178.844 155.011 179.141 155.099 179.456C155.135 179.596 155.135 179.735 155.152 179.858C155.147 179.972 155.121 180.101 155.087 180.223C155.033 180.212 154.978 180.206 154.921 180.206H146.415C146.422 180.181 146.426 180.155 146.426 180.129C146.425 180.155 146.42 180.181 146.411 180.206Z" fill="#474961"/>
<path opacity="0.176986" d="M146.443 180.206C146.455 180.166 146.457 180.125 146.448 180.083C146.431 179.943 146.431 179.803 146.395 179.68C146.181 178.839 145.504 178.138 145.112 177.77C144.31 177.261 143.508 176.806 142.634 176.402C139.479 174.86 138.57 174.878 136.503 173.493C135.647 172.915 134.863 172.266 134.132 171.53L131.066 169.181L130.646 169.176L133.178 162.153L144.906 165.649C145.491 167.606 146.095 169.564 146.698 171.539C147.018 172.57 147.337 173.583 147.656 174.597C148.65 174.982 149.502 175.331 150.105 175.593C151.259 176.083 152.235 176.537 153.3 177.219C153.3 177.219 154.222 177.778 154.737 178.582C154.897 178.844 155.039 179.141 155.127 179.456C155.163 179.596 155.163 179.735 155.181 179.858C155.175 179.974 155.148 180.105 155.113 180.229C155.051 180.214 154.987 180.206 154.921 180.206H146.443Z" fill="#444444"/>
<path d="M134.653 157.351C134.717 158.846 134.803 160.09 134.926 161.003C134.947 161.231 134.935 162.911 134.616 163.507C133.625 165.333 128.129 164.797 123.235 164.931C118.341 165.065 115.643 165.535 114.186 164.427C113.388 163.823 113.27 162.739 113.222 162.361C113.004 160.434 112.75 158.482 112.482 156.52C106.381 158.9 102.545 160.312 100.972 160.755C99.4156 161.193 97.6911 161.311 96.1227 161.383C82.7577 166.157 75.5619 158.455 74.804 156.625C71.9091 149.637 72.8063 143.887 75.2633 139.807C76.8478 137.175 88.9975 130.805 111.712 120.695C112.222 120.468 113.341 119.909 115.069 119.018C117.086 117.957 119.743 117.364 123.043 117.24C123.805 117.211 124.567 117.266 125.317 117.402C130.079 118.267 132.644 119.936 133.012 122.407C133.017 122.437 133.02 122.452 133.025 122.482C133.188 123.545 133.331 124.664 133.456 125.827C134.286 125.655 135.073 125.473 135.818 125.283C135.82 125.281 135.823 125.279 135.825 125.278C137.784 123.95 145.022 122.853 148.559 124.364C152.932 126.233 155.5 130.74 154.837 135.383H154.837C153.891 142.011 153.349 145.604 153.213 146.162C153.009 147.018 150.536 156.689 149.633 160.239C149.435 161.044 148.566 161.655 147.451 161.766C146.223 161.894 138.728 159.012 134.653 157.351V157.351Z" fill="#A339FF"/>
<path opacity="0.176986" d="M134.721 157.378C134.422 149.772 134.638 136.055 133.531 125.836C134.348 125.666 135.124 125.486 135.858 125.298C135.86 125.297 135.863 125.295 135.865 125.293C137.824 123.965 145.062 122.869 148.599 124.38C152.972 126.248 155.54 130.756 154.877 135.398V135.398C153.931 142.027 153.389 145.62 153.253 146.178C153.049 147.033 150.576 156.705 149.673 160.254C149.475 161.06 148.606 161.671 147.491 161.781C146.266 161.91 138.802 159.041 134.721 157.378V157.378ZM112.554 156.523C106.435 158.911 102.588 160.327 101.012 160.771C99.5276 161.189 97.8901 161.316 96.381 161.389C96.6384 161.295 96.8981 161.197 97.16 161.094C102.857 158.852 107.726 155.446 111.765 150.875V150.875C112.028 152.758 112.297 154.645 112.554 156.523Z" fill="#444444"/>
<path d="M94.3704 128.72C84.6463 133.417 78.6152 136.793 76.2772 138.848L75.572 139.193C72.0144 134.54 70.5752 128.24 71.2545 120.292C69.5551 119.883 68.0978 119.465 67.432 119.158C66.1003 118.545 65.7398 117.203 66.3505 115.134C66.8619 113.145 67.8967 110.839 69.4547 108.215C71.3065 105.097 73.9188 105.006 75.6049 105.214C77.0776 104.136 84.2557 104.014 85.6024 104.282C87.7211 104.72 90.8629 105.333 92.5844 107.846C93.1371 108.63 93.3942 109.391 93.528 109.935C93.528 109.935 93.785 110.697 93.9676 111.527C94.3872 113.424 95.2192 120.064 94.3704 128.72Z" fill="#FFCB3D"/>
<path d="M115.403 103.755L97.6538 119.47C97.2515 119.826 97.219 120.435 97.5812 120.831C97.9435 121.227 98.5633 121.259 98.9657 120.902L116.715 105.187C117.117 104.831 117.149 104.222 116.787 103.826C116.425 103.43 115.805 103.398 115.403 103.755Z" fill="#474961"/>
<path d="M109.198 108.977L98.6035 102.252C97.9452 101.834 97.0867 101.888 96.4878 102.385L86.1155 110.988C85.363 111.612 85.2676 112.718 85.9022 113.458C86.0085 113.582 86.1318 113.691 86.2686 113.781L98.145 121.651L109.418 111.757C110.152 111.112 110.216 110.004 109.561 109.282C109.454 109.165 109.332 109.062 109.198 108.977Z" fill="#474BFF"/>
<path d="M79.9456 97.88C79.4126 97.2011 78.935 96.5627 78.6814 96.0375C78.3054 95.2727 78.5013 93.043 79.2122 92.1535C79.9232 91.2639 85.5605 87.1496 85.6316 87.1447C86.2324 87.0507 89.6172 86.6598 91.5362 89.0228C91.7112 89.2216 91.8696 89.4391 92.0139 89.7103C92.3266 90.3388 92.5008 91.0296 92.4972 91.7327L92.4696 94.8619C92.4564 95.1791 92.4254 95.4974 92.3755 95.7996C92.0165 98.038 91.3089 99.8963 90.5007 101.094C89.9038 101.996 89.2274 102.534 88.6063 102.595C88.4297 102.624 87.4684 102.673 86.3246 102.418C86.25 102.399 86.2696 102.414 85.8043 102.252L85.8995 104.314C87.4426 104.632 89.4404 105.07 91.0475 106.222C88.7531 107.422 86.2122 107.962 83.4247 107.842C82.2257 107.791 80.9615 107.632 79.6321 107.368C78.6454 106.219 77.4431 105.543 76.772 105.434C76.4661 105.384 76.0514 105.302 75.5657 105.247C75.5742 105.24 75.5826 105.233 75.5912 105.226C76.1775 104.751 77.8629 104.456 79.7025 104.295L79.8171 97.8403L79.9456 97.88ZM94.98 122.998C95.0213 122.998 95.0626 122.996 95.1037 122.991C95.0639 122.993 95.0241 122.993 94.9844 122.991C94.9829 122.993 94.9814 122.996 94.98 122.998ZM97.3642 121.083L98.1202 121.577L98.8224 120.963C98.8454 120.946 98.8679 120.928 98.8898 120.908L99.3095 120.537L109.337 111.763C109.477 111.641 109.592 111.502 109.683 111.352L112.715 108.667C114.088 108 115.154 107.736 115.509 108.228C115.509 108.228 110.193 113.897 107.386 116.872C106.651 118.765 105.563 121.187 104.12 124.136C100.525 125.788 97.2658 127.321 94.3408 128.734C94.5291 126.887 94.6399 125.13 94.6935 123.491C91.2015 129.373 85.8038 134.343 78.5004 138.403C69.1605 143.594 67.6381 125.895 67.3958 119.062C67.4301 119.079 67.4652 119.095 67.5009 119.111C69.4163 119.954 78.2989 121.898 79.9447 121.635C79.992 121.629 80.0377 121.618 80.0817 121.602L79.8019 125.848L90.1645 118.611C90.1667 118.608 90.1688 118.605 90.1709 118.602L95.3284 112.111C95.7223 111.615 96.4504 111.527 96.9546 111.915C97.1125 112.036 97.2298 112.19 97.3042 112.359L97.4534 112.141C97.8112 111.62 98.5313 111.482 99.0617 111.834C99.4115 112.066 99.5915 112.453 99.5709 112.839C99.8491 112.813 100.138 112.885 100.378 113.063L100.382 113.066C100.871 113.428 100.968 114.111 100.6 114.592C100.59 114.605 100.58 114.618 100.57 114.63L100.494 114.72C100.858 114.635 101.258 114.725 101.553 114.996C102.021 115.425 102.046 116.145 101.61 116.606L97.3642 121.083ZM135.274 157.529C138.402 158.794 143.09 160.598 145.725 161.364L144.878 165.649L134.857 162.662C134.935 162.141 134.932 161.613 134.919 161.47C134.806 160.638 134.727 159.525 134.668 158.191C134.659 157.928 134.648 157.655 134.637 157.369L135.274 157.529ZM117.283 165.137C118.753 165.159 120.684 165 123.235 164.931C125.056 164.881 126.96 164.924 128.685 164.903L130.776 168.739L130.622 169.166L117.295 168.98L117.283 165.137Z" fill="#F2A98A"/>
<path opacity="0.2" d="M94.6433 123.361C94.7144 123.24 94.7847 123.118 94.8542 122.997C95.1856 123.015 95.5224 122.893 95.7665 122.636L97.2666 121.054L98.0659 121.577L98.7681 120.963C98.7911 120.946 98.8136 120.928 98.8355 120.908L99.2552 120.537L109.283 111.763C109.422 111.641 109.538 111.502 109.629 111.352L112.661 108.667C114.034 108 115.099 107.736 115.455 108.228C115.455 108.228 110.144 113.891 107.336 116.868C106.602 118.771 105.515 121.212 104.098 124.121C100.491 125.779 97.2204 127.317 94.2865 128.734C94.4798 126.838 94.5914 125.038 94.6433 123.361Z" fill="#8C2A00"/>
<path d="M85.8049 102.258L83.3254 101.434L85.8889 104.31L85.8049 102.258Z" fill="#482D1F"/>
<path d="M88.6338 87.2265C89.6297 87.4771 90.6762 87.9834 91.4711 88.9622C91.646 89.161 91.8044 89.3785 91.9488 89.6497C92.0867 89.9268 92.1976 90.2161 92.2783 90.5131L83.2497 93.6093L84.4076 87.6288C86.1349 87.3814 87.5436 87.2473 88.6338 87.2265Z" fill="#482D1F"/>
<path d="M89.3324 87.6028C86.171 90.647 84.1578 92.6359 83.2929 93.5695C83.2609 93.6148 83.2289 93.6617 83.1967 93.7101C83.1584 93.5513 83.0099 93.0347 82.6024 92.536C82.5644 92.5035 82.2348 92.1396 81.7588 91.9791C80.9008 91.7218 79.8245 92.1648 79.2734 92.9582C78.6881 93.7715 78.7614 94.803 79.1552 95.5666C79.549 96.3301 80.2329 96.6521 80.4715 96.7411L81.4313 96.9211L81.5282 96.8777C80.8226 98.3458 80.1795 99.6668 79.7678 99.7625C79.0192 99.9365 77.8649 98.3646 77.0499 97.6031C76.532 97.1192 75.2878 95.5359 74.9156 93.3309C74.805 92.6014 74.3941 90.1274 75.9393 88.1785C76.4786 87.5013 77.119 87.1469 77.3822 86.993C78.2778 86.5237 81.7162 86.2554 84.3578 86.1133C83.8546 85.3466 83.5487 83.7579 83.44 81.3471C83.4364 81.2678 83.4603 81.1896 83.5078 81.1254C83.6236 80.9688 83.8465 80.9342 84.0057 81.048C86.1943 82.6125 87.5872 83.7492 88.1843 84.458C88.6227 83.7719 89.902 82.9726 92.0221 82.0602C92.0967 82.0281 92.1801 82.0221 92.2586 82.0431C92.4485 82.0938 92.5607 82.2864 92.5091 82.4733C91.6297 85.6546 90.9607 87.3259 90.5019 87.4871C90.2497 87.5757 89.8599 87.6143 89.3324 87.6028Z" fill="#DE3190"/>
<path d="M91.604 95.4726C91.6425 95.2591 91.8446 95.0871 92.0605 95.1074C92.204 95.1151 92.3181 95.2126 92.3888 95.4538C92.4857 96.062 91.8648 96.8778 91.6431 96.5241C91.4847 96.3065 91.5553 95.7922 91.604 95.4726ZM87.6918 95.2607C87.7302 95.0472 87.9324 94.8752 88.1482 94.8955C88.2917 94.9032 88.4058 95.0008 88.4766 95.2419C88.5734 95.8501 87.9525 96.6659 87.7308 96.3122C87.5724 96.0947 87.643 95.5803 87.6918 95.2607Z" fill="#482D1F"/>
<path d="M90.2779 95.6996L90.42 97.4467C90.4205 97.4533 90.3953 97.4818 90.3868 97.4824C90.2895 97.4891 90.1897 97.4896 90.0335 97.4855C90.0031 97.4848 89.9714 97.4838 89.9257 97.4824C89.8681 97.4806 89.8366 97.4796 89.8064 97.4787C89.703 97.4756 89.6174 97.4735 89.526 97.472C89.4276 97.4703 89.3465 97.5475 89.3448 97.6442C89.3431 97.741 89.4216 97.8208 89.52 97.8225C89.6096 97.8239 89.6937 97.826 89.7955 97.8291C89.8255 97.83 89.8568 97.831 89.9145 97.8328C89.9607 97.8342 89.9929 97.8351 90.024 97.836C90.1907 97.8403 90.3006 97.8397 90.4117 97.8321C90.6165 97.818 90.7898 97.622 90.7755 97.4205L90.6332 95.6716C90.6254 95.5751 90.5395 95.5032 90.4413 95.5109C90.3432 95.5186 90.27 95.6031 90.2779 95.6996Z" fill="#482D1F"/>
<path d="M89.2495 98.8256C89.1213 98.7817 88.8091 98.6626 88.7789 98.489C88.7764 98.454 88.7549 98.4028 88.7892 98.3829C88.8719 98.2893 89.0915 98.3621 89.4177 98.4275C89.9966 98.5283 90.4614 98.5314 90.4614 98.5314C90.4614 98.5314 90.3035 98.8234 90.2018 98.9007C90.0034 99.1252 89.4335 98.9008 89.2495 98.8256Z" fill="#482D1F"/>
<path d="M84.9281 94.7886L83.8638 94.546C83.72 94.5132 83.6304 94.372 83.6637 94.2305C83.6971 94.0891 83.8407 94.001 83.9845 94.0338L85.1289 94.2946C85.5247 93.5608 86.285 93.0382 87.1898 92.976C88.5842 92.8802 89.7936 93.914 89.8911 95.2852C89.8934 95.3179 89.8951 95.3505 89.8961 95.3831L90.438 95.411C90.601 94.2724 91.5546 93.3611 92.7679 93.2777C94.1623 93.1818 95.3717 94.2156 95.4692 95.5868C95.5667 96.958 94.5154 98.1473 93.121 98.2431C91.7275 98.339 90.5187 97.3065 90.4198 95.9366L89.8564 95.9076C89.6537 96.9994 88.7207 97.8605 87.5429 97.9415C86.1485 98.0374 84.939 97.0035 84.8415 95.6324C84.8207 95.3399 84.8522 95.0557 84.9281 94.7886ZM85.5019 94.7558C85.4006 95.0153 85.3539 95.3001 85.3749 95.5957C85.4518 96.6772 86.4058 97.4926 87.5056 97.417C88.6054 97.3413 89.4346 96.4033 89.3577 95.3218C89.2808 94.2403 88.3269 93.4249 87.2271 93.5006C86.4719 93.5525 85.8444 94.011 85.5501 94.6433C85.5491 94.6488 85.548 94.6542 85.5467 94.6597C85.5383 94.6955 85.5228 94.7279 85.5019 94.7558ZM90.9481 95.7479C90.9479 95.7974 90.9495 95.8472 90.9531 95.8973C91.03 96.9788 91.9839 97.7942 93.0837 97.7186C94.1835 97.643 95.0127 96.705 94.9358 95.6235C94.8589 94.542 93.905 93.7266 92.8052 93.8022C91.7927 93.8718 91.0095 94.6723 90.9516 95.6428C90.9548 95.6616 90.956 95.6811 90.955 95.7009C90.9541 95.717 90.9518 95.7327 90.9481 95.7479Z" fill="#482D1F"/>
<path d="M111.93 150.997L110.394 136.362C110.379 136.218 110.247 136.113 110.101 136.128C109.954 136.142 109.847 136.272 109.862 136.416L111.398 151.051C111.414 151.195 111.545 151.3 111.692 151.285C111.839 151.27 111.945 151.141 111.93 150.997Z" fill="#482D1F"/>
<path d="M81.1622 117.474C81.1622 117.474 81.3215 120.432 80.1277 121.52" stroke="#482D1F" stroke-width="3" stroke-linecap="round" stroke-linejoin="round"/>
<path d="M172.71 150.729H205.327C206.115 150.729 206.753 151.357 206.753 152.131V154.936C206.753 155.71 206.115 156.338 205.327 156.338H172.71C171.922 156.338 171.284 155.71 171.284 154.936V152.131C171.284 151.357 171.922 150.729 172.71 150.729ZM170.928 128.295H203.545C204.332 128.295 204.971 128.923 204.971 129.697V132.502C204.971 133.276 204.332 133.904 203.545 133.904H170.928C170.14 133.904 169.502 133.276 169.502 132.502V129.697C169.502 128.923 170.14 128.295 170.928 128.295ZM167.185 139.512H199.802C200.589 139.512 201.228 140.14 201.228 140.914V143.719C201.228 144.493 200.589 145.121 199.802 145.121H167.185C166.397 145.121 165.759 144.493 165.759 143.719V140.914C165.759 140.14 166.397 139.512 167.185 139.512Z" fill="#474BFF"/>
<path d="M175.918 145.121H208.535C209.323 145.121 209.961 145.749 209.961 146.523V149.327C209.961 150.102 209.323 150.729 208.535 150.729H175.918C175.131 150.729 174.492 150.102 174.492 149.327V146.523C174.492 145.749 175.131 145.121 175.918 145.121ZM176.988 133.904H209.605C210.392 133.904 211.031 134.531 211.031 135.306V138.11C211.031 138.885 210.392 139.512 209.605 139.512H176.988C176.2 139.512 175.562 138.885 175.562 138.11V135.306C175.562 134.531 176.2 133.904 176.988 133.904Z" fill="#474961"/>
<path d="M172.621 130.398H204.971V131.976H172.621C172.178 131.976 171.819 131.623 171.819 131.187C171.819 130.752 172.178 130.398 172.621 130.398ZM175.562 136.007H207.288V137.584H175.562V136.007ZM169.502 141.615H201.228V143.193H169.502V141.615ZM174.492 147.224H206.218V148.801H174.492V147.224ZM175.027 152.833H206.753V154.41H175.027V152.833Z" fill="#D8DEED"/>
</svg>
