<svg width="20" height="20" viewBox="0 0 35 25" fill="none" xmlns="http://www.w3.org/2000/svg">
<path d="M0.833252 10C0.833252 10 4.32325 5 9.99992 5C10.7891 5 11.5324 5.10083 12.2316 5.26833L6.96659 10.5333C6.77005 10.1045 6.66775 9.63843 6.66659 9.16667C6.66659 8.38583 6.94575 7.6775 7.39575 7.10917C5.40242 7.78583 3.88409 9.09667 3.01742 10C3.7557 10.7703 4.59039 11.4419 5.50075 11.9983L4.28992 13.2092C2.08075 11.775 0.833252 10 0.833252 10ZM19.1666 10C19.1666 10 15.6766 15 9.99992 15C9.21159 15 8.46992 14.8967 7.76992 14.7308L4.16659 18.3333L2.91659 17.0833L17.0833 2.91667L18.3333 4.16667L15.7108 6.78917C17.9174 8.22417 19.1666 10 19.1666 10ZM16.9874 10.005C16.2478 9.23262 15.4111 8.55949 14.4983 8.0025L13.3333 9.16667C13.3333 10.0507 12.9821 10.8986 12.3569 11.5237C11.7318 12.1488 10.884 12.5 9.99992 12.5L9.21075 13.2892C9.46909 13.315 9.73075 13.3333 9.99992 13.3333C13.3149 13.3333 15.7858 11.2683 16.9874 10.005Z" fill="#C5C5C5"/>
</svg>
