<svg width="80" height="80" viewBox="0 0 80 80" fill="none" xmlns="http://www.w3.org/2000/svg">
<path d="M45.6456 9.216L6.81919 46.144C4.05758 48.7704 5.17439 53.4016 8.83039 54.48L60.224 69.6408C63.88 70.72 67.332 67.44 66.4376 63.7312L53.8704 11.6424C52.9768 7.9376 48.4072 6.5896 45.6456 9.216Z" fill="#FFC1EB"/>
<path d="M45.2583 55.2536H28.4407C25.8878 60.2943 24.6102 65.8843 24.7199 71.5336L48.5999 71.5552C48.5137 68.5736 48.1522 65.6063 47.5199 62.6912C46.9663 60.1555 46.21 57.6683 45.2583 55.2536Z" fill="#6DC8C2"/>
<path d="M43.7895 35.0128H30.3447V49.3448H43.7895V35.0128Z" fill="black"/>
<path d="M38.4888 32.6248H35.2312C34.1986 32.6248 33.2082 32.2146 32.4781 31.4844C31.7479 30.7542 31.3376 29.7639 31.3376 28.7312V24.6152C31.3376 23.6076 31.7379 22.6413 32.4504 21.9288C33.1629 21.2163 34.1292 20.816 35.1368 20.816H38.4752C39.8064 20.816 41.0831 21.3448 42.0244 22.2861C42.9656 23.2274 43.4944 24.504 43.4944 25.8352V27.6192C43.4944 28.9468 42.9671 30.22 42.0283 31.1587C41.0896 32.0974 39.8164 32.6248 38.4888 32.6248Z" fill="black"/>
<path d="M42.5439 31.2488L44.5383 24.6552C44.5662 24.5631 44.614 24.4782 44.6783 24.4067C44.7427 24.3351 44.8221 24.2786 44.9108 24.2413C44.9995 24.2039 45.0953 24.1866 45.1915 24.1905C45.2877 24.1944 45.3818 24.2195 45.4671 24.264L47.6207 25.384C47.7142 25.4326 47.7945 25.503 47.8549 25.5893C47.9154 25.6757 47.954 25.7753 47.9677 25.8797C47.9814 25.9842 47.9696 26.0904 47.9334 26.1893C47.8973 26.2883 47.8377 26.377 47.7599 26.448L42.5439 31.2488Z" fill="#FB6D6D"/>
<path d="M42.0327 30.9904L47.7263 27.4456C47.8147 27.3906 47.9144 27.3563 48.0179 27.3451C48.1215 27.3339 48.2262 27.3462 48.3243 27.381C48.4224 27.4158 48.5115 27.4723 48.5848 27.5462C48.6581 27.6201 48.7139 27.7096 48.7479 27.808L49.5031 29.9944C49.539 30.0982 49.5497 30.2091 49.5343 30.3179C49.5189 30.4267 49.4779 30.5302 49.4146 30.62C49.3513 30.7098 49.2676 30.7833 49.1703 30.8343C49.073 30.8854 48.965 30.9125 48.8551 30.9136L42.0327 30.9904Z" fill="#FB6D6D"/>
<path d="M43.7897 31.468C43.5596 31.468 43.3347 31.3998 43.1434 31.272C42.9521 31.1441 42.803 30.9625 42.715 30.7499C42.627 30.5374 42.6039 30.3035 42.6488 30.0779C42.6937 29.8522 42.8045 29.645 42.9672 29.4823C43.1298 29.3196 43.3371 29.2088 43.5627 29.164C43.7884 29.1191 44.0222 29.1421 44.2348 29.2301C44.4473 29.3182 44.629 29.4673 44.7568 29.6586C44.8846 29.8498 44.9528 30.0747 44.9528 30.3048C44.9524 30.6132 44.8297 30.9088 44.6117 31.1268C44.3936 31.3449 44.098 31.4676 43.7897 31.468ZM43.7897 29.4616C43.6229 29.4616 43.4599 29.5111 43.3212 29.6037C43.1825 29.6964 43.0745 29.828 43.0106 29.9821C42.9468 30.1362 42.9301 30.3057 42.9627 30.4693C42.9952 30.6329 43.0755 30.7831 43.1934 30.901C43.3114 31.019 43.4616 31.0993 43.6252 31.1318C43.7887 31.1643 43.9583 31.1476 44.1123 31.0838C44.2664 31.02 44.3981 30.9119 44.4907 30.7733C44.5834 30.6346 44.6328 30.4716 44.6328 30.3048C44.6324 30.0813 44.5435 29.8671 44.3854 29.709C44.2274 29.551 44.0132 29.462 43.7897 29.4616Z" fill="black"/>
<path d="M41.6849 28.5352C41.7311 28.0985 41.6035 27.6611 41.3297 27.3178C41.0558 26.9745 40.6578 26.7528 40.2217 26.7008L40.2321 25.572C40.2377 25.214 40.1726 24.8584 40.0405 24.5256C39.9083 24.1929 39.7118 23.8894 39.4621 23.6328C39.2125 23.3762 38.9146 23.1713 38.5856 23.0301C38.2566 22.8888 37.9029 22.8139 37.5449 22.8096L33.3849 22.78C32.84 22.7794 32.317 22.9948 31.9307 23.3792C31.5444 23.7636 31.3262 24.2854 31.3241 24.8304L31.2801 29.9112C31.274 30.3373 31.3519 30.7605 31.5095 31.1565C31.667 31.5525 31.9011 31.9135 32.1983 32.219C32.4955 32.5244 32.85 32.7683 33.2416 32.9366C33.6331 33.105 34.054 33.1945 34.4801 33.2H34.6721L34.6465 36.016L40.1433 36.0552L40.1737 32.72H40.1689L40.1937 30.0376C40.5772 29.9971 40.935 29.8255 41.2067 29.5518C41.4784 29.2781 41.6473 28.919 41.6849 28.5352Z" fill="white"/>
<path d="M52.3799 42.6192L45.7871 46.5056L49.8815 54.9728C49.8815 54.9728 51.7295 58.4816 55.1951 56.8368C55.8944 56.4987 56.5179 56.0224 57.028 55.4366C57.5382 54.8509 57.9243 54.1679 58.1631 53.4288L61.7255 42.6192C61.7255 42.6192 66.9591 40.8424 67.7351 36.2696C67.7651 36.1247 67.7675 35.9754 67.7423 35.8296C67.7027 35.6115 67.6033 35.4088 67.4551 35.244C67.5083 35.1233 67.5511 34.9983 67.5831 34.8704C67.6551 34.58 67.7239 34.2968 67.4887 34.0568C67.3909 33.9508 67.2559 33.8867 67.1119 33.8777C66.968 33.8688 66.8261 33.9157 66.7159 34.0088C66.7703 33.7112 66.6887 33.4488 66.5055 33.3336C66.4302 33.2892 66.3431 33.2689 66.2559 33.2752C65.8423 33.3 65.5415 33.8672 65.4559 34.0256C65.1055 34.6656 64.3655 35.748 63.2695 37.2656C63.2695 37.2656 64.8463 35.1272 64.0071 34.5384C63.7567 34.3632 63.4575 34.6088 63.2927 34.7832C62.9879 35.1032 62.8703 35.5456 62.6439 35.9136C62.3454 36.3751 61.9464 36.7632 61.4767 37.0488C60.7367 37.5192 59.9175 37.7688 59.2423 38.3424C58.9349 38.6008 58.6608 38.8964 58.4263 39.2224C58.1519 39.608 58.0551 40.0632 57.8183 40.4528L54.1535 46.4488L52.3799 42.6192Z" fill="white"/>
<path d="M53.4065 57.4344C51.0305 57.4344 49.7553 55.0768 49.7401 55.0472L45.5801 46.4424L52.4513 42.392L54.1729 46.1128L57.6801 40.3712C57.7775 40.202 57.8615 40.0255 57.9313 39.8432C58.0251 39.5934 58.147 39.3551 58.2945 39.1328C58.5364 38.795 58.8193 38.4887 59.1369 38.2208C59.5593 37.8608 60.0377 37.624 60.4969 37.3952C60.8017 37.2511 61.0987 37.0909 61.3865 36.9152C61.8373 36.6436 62.2204 36.2729 62.5065 35.8312C62.5855 35.6972 62.6568 35.5589 62.7201 35.4168C62.8409 35.16 62.9657 34.8952 63.1753 34.6744C63.6273 34.1944 63.9473 34.304 64.0977 34.4096C64.1793 34.4672 64.2482 34.5411 64.3 34.6266C64.3517 34.7121 64.3853 34.8073 64.3985 34.9064C64.4214 35.0819 64.4116 35.2601 64.3697 35.432C64.8193 34.7752 65.1281 34.2904 65.3145 33.9504L65.3193 33.94C65.4265 33.744 65.7521 33.1464 66.2457 33.1176C66.3657 33.1076 66.4857 33.1356 66.5889 33.1976C66.6772 33.2582 66.7501 33.3386 66.8019 33.4323C66.8537 33.5261 66.883 33.6306 66.8873 33.7376C67.0141 33.7057 67.147 33.7081 67.2725 33.7446C67.3981 33.781 67.5117 33.8501 67.6017 33.9448C67.9017 34.2496 67.8105 34.6152 67.7377 34.9088C67.712 35.0134 67.6792 35.116 67.6393 35.216C67.757 35.3681 67.8405 35.5439 67.884 35.7313C67.9275 35.9186 67.93 36.1132 67.8913 36.3016C67.5713 38.208 66.4057 39.9344 64.5313 41.2888C63.7046 41.8877 62.8038 42.3768 61.8513 42.744L58.3153 53.4784C58.0687 54.2378 57.6713 54.9395 57.1468 55.5415C56.6223 56.1435 55.9817 56.6333 55.2633 56.9816C54.6859 57.2693 54.0515 57.424 53.4065 57.4344ZM45.9953 46.5688L50.0257 54.9032C50.3622 55.4839 50.81 55.9925 51.3433 56.4C52.4785 57.2472 53.7513 57.3456 55.1265 56.692C55.8056 56.3623 56.4112 55.8989 56.9069 55.3295C57.4026 54.7601 57.7783 54.0965 58.0113 53.3784L61.6001 42.4936L61.6761 42.468C61.7273 42.4504 66.8289 40.6664 67.5793 36.2424C67.606 36.1157 67.6084 35.9852 67.5865 35.8576C67.552 35.6688 67.4658 35.4933 67.3377 35.3504L67.2689 35.2704L67.3105 35.176C67.3601 35.0639 67.4 34.9477 67.4297 34.8288C67.5041 34.5272 67.5417 34.3344 67.3761 34.1656C67.3073 34.0893 67.2117 34.0424 67.1092 34.0347C67.0067 34.0269 66.9052 34.0589 66.8257 34.124L66.4753 34.444L66.5609 33.9784C66.6025 33.7504 66.5473 33.5448 66.4233 33.4688C66.3762 33.4412 66.3216 33.4292 66.2673 33.4344C66.0577 33.4464 65.8337 33.668 65.6033 34.0912L65.5977 34.1008C65.2657 34.7072 64.5985 35.7008 63.4377 37.3096L63.4017 37.36L63.1433 37.1712L63.1953 37.0992C63.5153 36.6432 64.1841 35.5496 64.0873 34.9552C64.0808 34.8983 64.0624 34.8434 64.0333 34.7941C64.0042 34.7447 63.9651 34.7021 63.9185 34.6688C63.7585 34.5568 63.5113 34.788 63.4121 34.8928C63.2377 35.0752 63.1297 35.3064 63.0121 35.5512C62.943 35.7037 62.8658 35.8525 62.7809 35.9968C62.4705 36.4794 62.0544 36.8851 61.5641 37.1832C61.2652 37.3653 60.9568 37.5311 60.6401 37.68C60.1745 37.9112 59.7345 38.1288 59.3417 38.4632C59.0467 38.7144 58.7841 39.0015 58.5601 39.3176C58.4267 39.5205 58.3166 39.7379 58.2321 39.9656C58.1555 40.1632 58.064 40.3546 57.9585 40.5384L54.1377 46.7896L52.3129 42.8472L45.9953 46.5688Z" fill="black"/>
<path d="M40 29.1744C39.9779 29.1755 39.9557 29.1755 39.9336 29.1744C39.8044 29.1612 39.682 29.1101 39.5819 29.0274C39.4817 28.9447 39.4084 28.8342 39.371 28.7098C39.3337 28.5855 39.334 28.4528 39.372 28.3287C39.4101 28.2045 39.484 28.0944 39.5846 28.0122C39.6852 27.9301 39.8079 27.8796 39.9371 27.8672C40.0664 27.8547 40.1964 27.8809 40.3108 27.9423C40.4252 28.0038 40.5189 28.0978 40.5799 28.2124C40.6409 28.327 40.6665 28.4572 40.6536 28.5864C40.6372 28.7482 40.5613 28.8982 40.4408 29.0074C40.3202 29.1166 40.1635 29.1772 40.0008 29.1776L40 29.1744ZM40 28.1808C39.9348 28.1808 39.871 28.1997 39.8164 28.2353C39.7618 28.2708 39.7186 28.3214 39.6922 28.381C39.6658 28.4406 39.6572 28.5066 39.6675 28.5709C39.6778 28.6353 39.7066 28.6952 39.7504 28.7436C39.7941 28.7919 39.8509 28.8265 39.9139 28.8432C39.9769 28.8598 40.0434 28.8579 40.1053 28.8375C40.1672 28.8171 40.2219 28.7792 40.2627 28.7284C40.3035 28.6776 40.3287 28.616 40.3352 28.5512C40.3439 28.4623 40.3171 28.3736 40.2605 28.3045C40.204 28.2354 40.1224 28.1915 40.0336 28.1824L40 28.1808Z" fill="black"/>
<path d="M34.7441 33.044L38.0241 32.964C38.0454 32.9632 38.0663 32.9701 38.0829 32.9834C38.0996 32.9967 38.1109 33.0156 38.1148 33.0366C38.1186 33.0575 38.1148 33.0792 38.1041 33.0976C38.0933 33.116 38.0762 33.1299 38.0561 33.1368L34.7305 34.3368L34.7441 33.044Z" fill="black"/>
<path d="M39.5087 28.7584C39.4689 28.7586 39.4305 28.744 39.4009 28.7173C39.3713 28.6907 39.3527 28.654 39.3487 28.6144C39.3307 28.4369 39.3597 28.2577 39.4328 28.0949C39.506 27.9322 39.6207 27.7915 39.7655 27.6872C39.9045 27.5924 40.0642 27.5322 40.2312 27.5117C40.3983 27.4913 40.5678 27.5111 40.7255 27.5696C40.746 27.5766 40.7647 27.5877 40.7808 27.6022C40.7968 27.6166 40.8097 27.6342 40.8188 27.6538C40.8279 27.6734 40.8329 27.6946 40.8335 27.7162C40.8341 27.7378 40.8304 27.7593 40.8225 27.7794C40.8146 27.7995 40.8028 27.8178 40.7876 27.8332C40.7725 27.8486 40.7543 27.8607 40.7344 27.8689C40.7144 27.8771 40.693 27.8812 40.6714 27.8809C40.6498 27.8806 40.6285 27.876 40.6087 27.8672C40.5007 27.8285 40.3851 27.8155 40.2712 27.8294C40.1573 27.8433 40.0483 27.8837 39.9527 27.9472C39.8537 28.0186 39.7752 28.1148 39.7252 28.2262C39.6752 28.3376 39.6554 28.4602 39.6679 28.5816C39.67 28.6025 39.668 28.6236 39.6619 28.6437C39.6559 28.6639 39.6459 28.6826 39.6326 28.6989C39.6193 28.7151 39.603 28.7286 39.5844 28.7386C39.5659 28.7485 39.5456 28.7547 39.5247 28.7568L39.5087 28.7584Z" fill="black"/>
<path d="M23.3968 42.1512L29.9896 46.0376L25.8952 54.5048C25.8952 54.5048 24.0464 58.0136 20.5816 56.3688C19.8821 56.0309 19.2585 55.5547 18.7483 54.9689C18.2382 54.3832 17.8521 53.7 17.6136 52.9608L14.0504 42.1512C14.0504 42.1512 8.81675 40.3744 8.04155 35.8016C8.01157 35.6567 8.00912 35.5074 8.03435 35.3616C8.07349 35.1437 8.17236 34.941 8.31995 34.776C8.26678 34.6553 8.22396 34.5303 8.19195 34.4024C8.11995 34.1128 8.05115 33.8288 8.28715 33.5888C8.38496 33.483 8.51976 33.419 8.66354 33.4101C8.80731 33.4012 8.949 33.448 9.05916 33.5408C9.00476 33.2432 9.08716 32.9808 9.26956 32.8656C9.34504 32.8216 9.43199 32.8013 9.51916 32.8072C9.93276 32.832 10.2336 33.3992 10.3192 33.5576C10.6704 34.1976 11.4104 35.2808 12.5056 36.7976C12.5056 36.7976 10.9288 34.6592 11.768 34.0704C12.0184 33.8952 12.3176 34.1416 12.4832 34.3152C12.788 34.6352 12.9048 35.0784 13.1312 35.4456C13.4301 35.9068 13.829 36.2948 14.2984 36.5808C15.0384 37.0512 15.8576 37.3008 16.5336 37.8744C16.8407 38.133 17.1148 38.4286 17.3496 38.7544C17.6232 39.14 17.7208 39.5944 17.9576 39.984L21.6216 45.98L23.3968 42.1512Z" fill="white"/>
<path d="M22.3703 56.9664C21.725 56.9566 21.0902 56.8018 20.5127 56.5136C19.7944 56.1652 19.1539 55.6754 18.6296 55.0734C18.1053 54.4714 17.708 53.7697 17.4615 53.0104L13.9199 42.276C12.9673 41.9092 12.0664 41.42 11.2399 40.8208C9.36632 39.4672 8.20472 37.74 7.87992 35.828C7.842 35.6405 7.84495 35.4471 7.88858 35.2608C7.93221 35.0746 8.01548 34.8999 8.13272 34.7488C8.09369 34.6485 8.06083 34.5459 8.03432 34.4416C7.96152 34.1472 7.87432 33.7824 8.17032 33.4768C8.26046 33.3822 8.37407 33.3132 8.49956 33.2768C8.62506 33.2404 8.75796 33.2379 8.88472 33.2696C8.88918 33.1626 8.91846 33.0581 8.97025 32.9644C9.02204 32.8707 9.09491 32.7903 9.18312 32.7296C9.28633 32.6677 9.40637 32.6397 9.52632 32.6496C10.0199 32.6792 10.3455 33.276 10.4527 33.472L10.4583 33.4824C10.6479 33.8288 10.9519 34.308 11.4031 34.9656C11.3608 34.7932 11.351 34.6144 11.3743 34.4384C11.3872 34.3392 11.4206 34.2439 11.4724 34.1583C11.5242 34.0728 11.5932 33.999 11.6751 33.9416C11.8255 33.836 12.1455 33.7304 12.5975 34.2064C12.8063 34.4272 12.9319 34.6928 13.0527 34.9488C13.1157 35.091 13.187 35.2294 13.2663 35.3632C13.5512 35.8048 13.9328 36.1757 14.3823 36.448C14.6704 36.6232 14.9673 36.7834 15.2719 36.928C15.7343 37.1568 16.2127 37.3944 16.6319 37.7536C16.9495 38.0217 17.2327 38.328 17.4751 38.6656C17.6224 38.8879 17.744 39.1262 17.8375 39.376C17.9081 39.5584 17.9923 39.7351 18.0895 39.9048L21.5975 45.6456L23.3191 41.9248L30.1911 45.976L26.0311 54.5752C26.0215 54.608 24.7455 56.9664 22.3703 56.9664ZM8.71272 33.5664C8.59561 33.5687 8.4841 33.6169 8.40232 33.7008C8.23592 33.8696 8.27352 34.0632 8.34872 34.364C8.37782 34.483 8.41744 34.5992 8.46712 34.7112L8.50872 34.8056L8.44072 34.8856C8.31191 35.028 8.2257 35.2038 8.19192 35.3928C8.16965 35.5184 8.17182 35.6472 8.19832 35.772C8.95032 40.2056 14.0503 41.9856 14.1023 42.0032L14.1775 42.0288L17.7655 52.9136C17.9984 53.6319 18.3739 54.2957 18.8696 54.8652C19.3654 55.4348 19.971 55.8983 20.6503 56.228C22.0287 56.8824 23.3047 56.7824 24.4415 55.9288C24.973 55.5216 25.4188 55.0135 25.7535 54.4336L29.7807 46.104L23.4679 42.3824L21.6431 46.32L17.8223 40.068C17.7163 39.8845 17.6249 39.693 17.5487 39.4952C17.4639 39.2677 17.3538 39.0503 17.2207 38.8472C16.9935 38.5333 16.7283 38.2487 16.4311 38C16.0383 37.6656 15.5991 37.448 15.1335 37.2168C14.8185 37.0678 14.5116 36.9019 14.2143 36.72C13.7238 36.4219 13.3074 36.0162 12.9967 35.5336C12.9116 35.3895 12.8347 35.2407 12.7663 35.088C12.6511 34.8432 12.5423 34.6128 12.3663 34.4296C12.2671 34.3248 12.0191 34.0936 11.8591 34.2056C11.8126 34.239 11.7736 34.2817 11.7445 34.331C11.7154 34.3803 11.697 34.4351 11.6903 34.492C11.5935 35.0864 12.2567 36.172 12.5807 36.6336L12.6343 36.708L12.3759 36.8968L12.3399 36.8464C11.1767 35.2336 10.5095 34.2432 10.1799 33.6384L10.1743 33.628C9.94312 33.2048 9.71992 32.984 9.50952 32.9712C9.45522 32.9664 9.40076 32.9784 9.35352 33.0056C9.22952 33.0856 9.17432 33.2872 9.21672 33.516L9.30152 33.9808L8.95192 33.6608C8.88699 33.6002 8.80152 33.5665 8.71272 33.5664Z" fill="black"/>
<path d="M32.0095 28.0728C32.1885 28.0728 32.3335 27.9277 32.3335 27.7488C32.3335 27.5699 32.1885 27.4248 32.0095 27.4248C31.8306 27.4248 31.6855 27.5699 31.6855 27.7488C31.6855 27.9277 31.8306 28.0728 32.0095 28.0728Z" fill="black"/>
<path d="M35.4849 28.02C35.6638 28.02 35.8089 27.8749 35.8089 27.696C35.8089 27.5171 35.6638 27.372 35.4849 27.372C35.3059 27.372 35.1609 27.5171 35.1609 27.696C35.1609 27.8749 35.3059 28.02 35.4849 28.02Z" fill="black"/>
<path d="M33.2912 29.1816C33.2729 29.1815 33.2547 29.1783 33.2376 29.172C32.9976 29.092 32.7576 28.9736 32.7576 28.764C32.7603 28.7248 32.7708 28.6866 32.7883 28.6514C32.8059 28.6163 32.8303 28.5849 32.86 28.5592C32.8807 28.5382 32.9002 28.516 32.9184 28.4928C32.9995 28.3877 33.0482 28.2612 33.0584 28.1288L33.1928 26.7248C33.1968 26.6824 33.2175 26.6433 33.2504 26.6161C33.2832 26.589 33.3255 26.576 33.368 26.58C33.4104 26.584 33.4495 26.6048 33.4766 26.6376C33.5038 26.6705 33.5168 26.7128 33.5128 26.7552L33.3768 28.16C33.3607 28.3521 33.2896 28.5354 33.172 28.688C33.1472 28.72 33.1256 28.744 33.1072 28.764C33.1827 28.8088 33.2633 28.8445 33.3472 28.8704C33.3829 28.8828 33.4132 28.9075 33.4325 28.9401C33.4518 28.9727 33.4589 29.011 33.4526 29.0484C33.4462 29.0857 33.4269 29.1196 33.3979 29.144C33.3689 29.1684 33.3322 29.1817 33.2944 29.1816H33.2912Z" fill="black"/>
<path d="M33.7743 30.58C33.5292 30.5732 33.2902 30.5017 33.0815 30.3728C33.063 30.3618 33.0469 30.3471 33.0342 30.3297C33.0215 30.3123 33.0124 30.2925 33.0076 30.2716C33.0027 30.2506 33.0021 30.2288 33.0058 30.2076C33.0096 30.1864 33.0176 30.1661 33.0293 30.1481C33.0411 30.13 33.0563 30.1145 33.0742 30.1025C33.0921 30.0905 33.1122 30.0822 33.1334 30.0782C33.1546 30.0741 33.1763 30.0744 33.1974 30.079C33.2184 30.0836 33.2384 30.0923 33.2559 30.1048C33.2615 30.1088 33.5911 30.316 33.9151 30.2448C34.0038 30.2224 34.0869 30.182 34.1594 30.1263C34.2319 30.0706 34.2922 30.0007 34.3367 29.9208C34.3594 29.8849 34.3955 29.8596 34.4369 29.8503C34.4783 29.841 34.5217 29.8485 34.5575 29.8712C34.5934 29.8939 34.6188 29.9299 34.6281 29.9713C34.6374 30.0127 34.6298 30.0561 34.6071 30.092C34.5251 30.2407 34.4044 30.3646 34.2578 30.4505C34.1112 30.5364 33.9442 30.5811 33.7743 30.58Z" fill="black"/>
<path d="M28.4408 55.2536L27.0408 48.4536C26.8025 47.2972 26.8631 46.0992 27.2168 44.9728L30.3448 35.012H33.1344L33.7744 36.4328C35.148 39.4832 39.5016 39.4176 40.7832 36.328L41.3288 35.012H43.7896L46.872 45.1392C47.2697 46.4445 47.2894 47.8359 46.9288 49.152L45.2584 55.2536H28.4408Z" fill="#6DC8C2"/>
<path d="M37.3999 25.0992H35.8543C35.3765 25.0992 34.9183 24.9094 34.5804 24.5715C34.2425 24.2337 34.0527 23.7754 34.0527 23.2976V22.1392H37.3999V25.0992Z" fill="black"/>
<path d="M43.7896 35.0128L47.0752 45.9864L53.2543 42.3408C52.5716 41.0888 51.8131 39.8796 50.9831 38.72C49.5183 36.6752 48.7591 35.6424 47.4727 35.12C46.1055 34.56 44.732 34.7544 43.7896 35.0128Z" fill="black"/>
<path d="M41.6935 26.8448H38.9175C38.6498 26.8447 38.3848 26.7919 38.1375 26.6893C37.8902 26.5868 37.6656 26.4366 37.4764 26.2472C37.2871 26.0578 37.1371 25.8331 37.0347 25.5857C36.9324 25.3384 36.8798 25.0733 36.8799 24.8056V23.884H41.6943L41.6935 26.8448Z" fill="black"/>
<path d="M40.7127 22.1392H35.9287V25.1H40.7127V22.1392Z" fill="black"/>
<path d="M43.0088 37.996C45.111 37.996 46.8152 36.2918 46.8152 34.1896C46.8152 32.0874 45.111 30.3832 43.0088 30.3832C40.9066 30.3832 39.2024 32.0874 39.2024 34.1896C39.2024 36.2918 40.9066 37.996 43.0088 37.996Z" fill="black"/>
<path d="M40.2264 40.6496C41.7829 40.6496 43.0448 39.3878 43.0448 37.8312C43.0448 36.2746 41.7829 35.0128 40.2264 35.0128C38.6698 35.0128 37.408 36.2746 37.408 37.8312C37.408 39.3878 38.6698 40.6496 40.2264 40.6496Z" fill="black"/>
<path d="M45.2864 40.8096C46.843 40.8096 48.1048 39.5478 48.1048 37.9912C48.1048 36.4346 46.843 35.1728 45.2864 35.1728C43.7299 35.1728 42.468 36.4346 42.468 37.9912C42.468 39.5478 43.7299 40.8096 45.2864 40.8096Z" fill="black"/>
<path d="M39.5424 50.368H34.5912C33.8527 50.3672 33.1448 50.0734 32.6227 49.5511C32.1006 49.0289 31.807 48.3209 31.8064 47.5824V44.2336C31.8064 43.875 31.9487 43.5311 32.202 43.2773C32.4553 43.0235 32.799 42.8806 33.1576 42.88H40.976C41.3344 42.8804 41.6781 43.023 41.9315 43.2765C42.185 43.5299 42.3276 43.8736 42.328 44.232V47.5808C42.3276 48.3196 42.034 49.0281 41.5117 49.5506C40.9895 50.0732 40.2812 50.3672 39.5424 50.368ZM33.1576 43.2C32.8841 43.2004 32.6219 43.3093 32.4286 43.5028C32.2353 43.6963 32.1266 43.9585 32.1264 44.232V47.5808C32.127 48.2344 32.3869 48.861 32.849 49.3233C33.3111 49.7855 33.9376 50.0456 34.5912 50.0464H39.5424C40.1961 50.0458 40.8229 49.7858 41.2851 49.3235C41.7474 48.8613 42.0074 48.2345 42.008 47.5808V44.2336C42.008 43.9598 41.8993 43.6971 41.7058 43.5033C41.5123 43.3095 41.2498 43.2004 40.976 43.2H33.1576Z" fill="white"/>
<path d="M42.4681 44.4856C44.0246 44.4856 45.2865 43.2238 45.2865 41.6672C45.2865 40.1106 44.0246 38.8488 42.4681 38.8488C40.9115 38.8488 39.6497 40.1106 39.6497 41.6672C39.6497 43.2238 40.9115 44.4856 42.4681 44.4856Z" fill="black"/>
<path d="M52.356 49.2648C52.327 49.2647 52.2985 49.2567 52.2737 49.2417C52.2489 49.2267 52.2286 49.2052 52.2151 49.1796C52.2015 49.1539 52.1952 49.1251 52.1968 49.0961C52.1983 49.0672 52.2077 49.0392 52.224 49.0152L54.02 46.3616C54.0317 46.3442 54.0468 46.3292 54.0644 46.3176C54.0819 46.306 54.1016 46.298 54.1222 46.2939C54.1429 46.2899 54.1641 46.29 54.1847 46.2942C54.2053 46.2984 54.2249 46.3066 54.2424 46.3184C54.2598 46.3302 54.2748 46.3453 54.2864 46.3628C54.298 46.3803 54.306 46.4 54.31 46.4207C54.314 46.4413 54.3139 46.4625 54.3097 46.4832C54.3055 46.5038 54.2973 46.5234 54.2856 46.5408L52.4888 49.1944C52.4741 49.2161 52.4543 49.2338 52.4312 49.2461C52.408 49.2584 52.3822 49.2648 52.356 49.2648Z" fill="black"/>
<path d="M65.7143 38.64C65.682 38.6401 65.6504 38.6304 65.6237 38.6122C65.597 38.5939 65.5765 38.568 65.5648 38.5379C65.5531 38.5078 65.5508 38.4748 65.5582 38.4433C65.5656 38.4118 65.5824 38.3834 65.6063 38.3616C66.5911 37.464 67.2687 35.28 67.2751 35.2584C67.2813 35.2383 67.2913 35.2196 67.3047 35.2033C67.3181 35.1871 67.3345 35.1737 67.3531 35.1638C67.3717 35.1539 67.392 35.1478 67.4129 35.1458C67.4339 35.1437 67.455 35.1459 67.4751 35.152C67.4953 35.1582 67.514 35.1682 67.5302 35.1816C67.5464 35.195 67.5599 35.2114 67.5698 35.23C67.5796 35.2485 67.5858 35.2689 67.5878 35.2898C67.5898 35.3108 67.5877 35.3319 67.5815 35.352C67.5527 35.4448 66.8719 37.6408 65.8215 38.5984C65.7922 38.6251 65.754 38.6399 65.7143 38.64Z" fill="black"/>
<path d="M64.72 37.7744C64.6868 37.7745 64.6544 37.7643 64.6272 37.7452C64.6001 37.7261 64.5796 37.6991 64.5685 37.6678C64.5574 37.6365 64.5564 37.6025 64.5654 37.5706C64.5745 37.5387 64.5933 37.5104 64.6192 37.4896C65.5304 36.7504 66.5544 33.9808 66.5648 33.9536C66.5811 33.9163 66.611 33.8866 66.6485 33.8706C66.6859 33.8545 66.7281 33.8534 66.7663 33.8674C66.8046 33.8813 66.8361 33.9094 66.8544 33.9458C66.8726 33.9822 66.8764 34.0242 66.8648 34.0632C66.8216 34.1808 65.8 36.9432 64.8208 37.7384C64.7923 37.7616 64.7567 37.7743 64.72 37.7744Z" fill="black"/>
<path d="M23.42 48.8C23.394 48.8 23.3684 48.7937 23.3454 48.7815C23.3224 48.7694 23.3027 48.7518 23.288 48.7304L21.4912 46.076C21.4784 46.0587 21.4692 46.0389 21.4643 46.0179C21.4593 45.9969 21.4586 45.9752 21.4623 45.9539C21.4659 45.9327 21.4738 45.9124 21.4855 45.8943C21.4972 45.8762 21.5124 45.8606 21.5303 45.8485C21.5481 45.8364 21.5683 45.8281 21.5894 45.824C21.6106 45.8199 21.6323 45.8201 21.6534 45.8246C21.6745 45.8291 21.6945 45.8378 21.7121 45.8502C21.7297 45.8626 21.7446 45.8785 21.756 45.8968L23.5528 48.5504C23.5691 48.5745 23.5785 48.6025 23.58 48.6316C23.5815 48.6606 23.5751 48.6895 23.5615 48.7151C23.5478 48.7408 23.5274 48.7623 23.5025 48.7772C23.4776 48.7922 23.4491 48.8 23.42 48.8Z" fill="black"/>
<path d="M10.0615 38.1728C10.0219 38.1727 9.98366 38.1579 9.95432 38.1312C8.90472 37.1712 8.22312 34.9776 8.19432 34.8848C8.18696 34.8644 8.18382 34.8427 8.18509 34.8211C8.18636 34.7995 8.19201 34.7783 8.2017 34.7589C8.21139 34.7395 8.22492 34.7223 8.24147 34.7083C8.25802 34.6943 8.27723 34.6838 8.29796 34.6775C8.31868 34.6711 8.34048 34.6691 8.36203 34.6714C8.38358 34.6737 8.40443 34.6804 8.42331 34.6911C8.4422 34.7017 8.45873 34.716 8.4719 34.7333C8.48506 34.7505 8.4946 34.7702 8.49992 34.7912C8.50712 34.8128 9.18472 36.9968 10.1687 37.8952C10.1924 37.917 10.2089 37.9454 10.2161 37.9767C10.2234 38.0081 10.221 38.0409 10.2093 38.0708C10.1977 38.1008 10.1773 38.1265 10.1508 38.1447C10.1242 38.1629 10.0929 38.1727 10.0607 38.1728H10.0615Z" fill="black"/>
<path d="M11.0553 37.3064C11.0186 37.3063 10.983 37.2936 10.9545 37.2704C9.97451 36.476 8.95451 33.7128 8.90971 33.596C8.90246 33.5762 8.89918 33.5553 8.90004 33.5342C8.9009 33.5132 8.90589 33.4926 8.91473 33.4735C8.92357 33.4544 8.93609 33.4372 8.95156 33.423C8.96703 33.4087 8.98516 33.3976 9.00491 33.3904C9.02466 33.3831 9.04565 33.3799 9.06667 33.3807C9.08769 33.3816 9.10834 33.3866 9.12743 33.3954C9.14652 33.4043 9.16368 33.4168 9.17794 33.4322C9.19219 33.4477 9.20326 33.4658 9.21051 33.4856C9.22091 33.5136 10.2441 36.2856 11.1561 37.0224C11.1817 37.0432 11.2002 37.0715 11.2091 37.1033C11.218 37.1351 11.2168 37.1688 11.2058 37.1999C11.1947 37.231 11.1744 37.2579 11.1474 37.277C11.1205 37.2961 11.0883 37.3063 11.0553 37.3064Z" fill="black"/>
<path d="M36.66 71.704C36.6176 71.704 36.5769 71.6871 36.5469 71.6571C36.5169 71.6271 36.5 71.5864 36.5 71.544V63.8008C36.5 63.7584 36.5169 63.7177 36.5469 63.6877C36.5769 63.6577 36.6176 63.6408 36.66 63.6408C36.7024 63.6408 36.7431 63.6577 36.7731 63.6877C36.8031 63.7177 36.82 63.7584 36.82 63.8008V71.544C36.82 71.5864 36.8031 71.6271 36.7731 71.6571C36.7431 71.6871 36.7024 71.704 36.66 71.704Z" fill="white"/>
<path d="M36.66 59.12C36.6176 59.12 36.5769 59.1031 36.5469 59.0731C36.5169 59.0431 36.5 59.0024 36.5 58.96V55.2536C36.5 55.2112 36.5169 55.1705 36.5469 55.1405C36.5769 55.1105 36.6176 55.0936 36.66 55.0936C36.7024 55.0936 36.7431 55.1105 36.7731 55.1405C36.8031 55.1705 36.82 55.2112 36.82 55.2536V58.96C36.82 59.0024 36.8031 59.0431 36.7731 59.0731C36.7431 59.1031 36.7024 59.12 36.66 59.12Z" fill="white"/>
<path d="M46.624 59.3784C46.6147 59.3792 46.6054 59.3792 46.596 59.3784C44.6193 59.0312 43.5881 57.9384 43.0721 57.0768C42.7337 56.526 42.5116 55.9118 42.4193 55.272C42.4172 55.251 42.4192 55.2298 42.4253 55.2095C42.4314 55.1893 42.4414 55.1705 42.4548 55.1542C42.4682 55.1378 42.4846 55.1243 42.5032 55.1143C42.5219 55.1043 42.5422 55.0981 42.5633 55.096C42.5843 55.0939 42.6055 55.096 42.6257 55.1021C42.6459 55.1082 42.6647 55.1182 42.6811 55.1315C42.6974 55.1449 42.711 55.1614 42.721 55.18C42.7309 55.1986 42.7372 55.219 42.7393 55.24C42.8316 55.8352 43.041 56.4062 43.3553 56.92C44.0577 58.0784 45.1672 58.7984 46.6536 59.06C46.6961 59.0636 46.7353 59.0839 46.7628 59.1165C46.7903 59.149 46.8037 59.1912 46.8 59.2336C46.7964 59.276 46.7761 59.3153 46.7436 59.3427C46.711 59.3702 46.6689 59.3836 46.6264 59.38L46.624 59.3784Z" fill="white"/>
<path d="M27.3712 59.5912C27.1323 59.5904 26.8937 59.5747 26.6568 59.544C26.6143 59.5386 26.5758 59.5165 26.5496 59.4827C26.5234 59.4489 26.5118 59.406 26.5172 59.3636C26.5226 59.3212 26.5446 59.2826 26.5785 59.2564C26.6123 59.2303 26.6551 59.2186 26.6976 59.224C27.888 59.3768 28.8464 59.1384 29.5464 58.5176C30.84 57.3696 30.8392 55.2736 30.8392 55.2528C30.8392 55.2104 30.856 55.1697 30.886 55.1397C30.916 55.1097 30.9567 55.0928 30.9992 55.0928C31.0416 55.0928 31.0823 55.1097 31.1123 55.1397C31.1423 55.1697 31.1592 55.2104 31.1592 55.2528C31.1592 55.344 31.1592 57.512 29.76 58.7576C29.136 59.312 28.3344 59.5912 27.3712 59.5912Z" fill="white"/>
<path d="M22.4417 42.0264L27.2689 44.8072L30.3449 35.0128C30.3449 35.0128 26.0801 33.824 22.4417 42.0264Z" fill="black"/>
<path d="M24.4312 32.212H12.0312C11.4099 32.2114 10.8143 31.9643 10.375 31.525C9.9357 31.0857 9.68863 30.4901 9.68799 29.8688V19.9488C9.68757 19.6406 9.7479 19.3353 9.86554 19.0504C9.98318 18.7655 10.1558 18.5066 10.3736 18.2884C10.5914 18.0703 10.85 17.8972 11.1347 17.7791C11.4194 17.661 11.7246 17.6001 12.0328 17.6H24.4328C25.054 17.6006 25.6497 17.8477 26.089 18.287C26.5283 18.7263 26.7753 19.3219 26.776 19.9432V29.8632C26.7764 30.1714 26.7161 30.4767 26.5984 30.7616C26.4808 31.0465 26.3082 31.3054 26.0904 31.5236C25.8726 31.7417 25.614 31.9148 25.3293 32.0329C25.0446 32.151 24.7394 32.2119 24.4312 32.212ZM12.0328 17.92C11.4964 17.9206 10.9822 18.134 10.6029 18.5133C10.2236 18.8926 10.0102 19.4068 10.0096 19.9432V29.8632C10.0102 30.3996 10.2236 30.9138 10.6029 31.2931C10.9822 31.6724 11.4964 31.8858 12.0328 31.8864H24.4328C24.9692 31.886 25.4836 31.6727 25.8629 31.2934C26.2423 30.914 26.4556 30.3997 26.456 29.8632V19.9432C26.4556 19.4065 26.242 18.8919 25.8624 18.5125C25.4827 18.1331 24.9679 17.92 24.4312 17.92H12.0328Z" fill="black"/>
<path d="M25.3601 23.2648H21.1617C21.1193 23.2648 21.0786 23.2479 21.0486 23.2179C21.0186 23.1879 21.0017 23.1472 21.0017 23.1048C21.0017 23.0624 21.0186 23.0217 21.0486 22.9917C21.0786 22.9617 21.1193 22.9448 21.1617 22.9448H25.3601C25.4025 22.9448 25.4432 22.9617 25.4732 22.9917C25.5033 23.0217 25.5201 23.0624 25.5201 23.1048C25.5201 23.1472 25.5033 23.1879 25.4732 23.2179C25.4432 23.2479 25.4025 23.2648 25.3601 23.2648Z" fill="black"/>
<path d="M25.3601 24.9176H21.1617C21.1193 24.9176 21.0786 24.9007 21.0486 24.8707C21.0186 24.8407 21.0017 24.8 21.0017 24.7576C21.0017 24.7152 21.0186 24.6745 21.0486 24.6445C21.0786 24.6145 21.1193 24.5976 21.1617 24.5976H25.3601C25.4025 24.5976 25.4432 24.6145 25.4732 24.6445C25.5033 24.6745 25.5201 24.7152 25.5201 24.7576C25.5201 24.8 25.5033 24.8407 25.4732 24.8707C25.4432 24.9007 25.4025 24.9176 25.3601 24.9176Z" fill="black"/>
<path d="M24.2649 26.5696H21.1617C21.1193 26.5696 21.0786 26.5527 21.0486 26.5227C21.0186 26.4927 21.0017 26.452 21.0017 26.4096C21.0017 26.3672 21.0186 26.3265 21.0486 26.2965C21.0786 26.2665 21.1193 26.2496 21.1617 26.2496H24.2649C24.3073 26.2496 24.348 26.2665 24.378 26.2965C24.4081 26.3265 24.4249 26.3672 24.4249 26.4096C24.4249 26.452 24.4081 26.4927 24.378 26.5227C24.348 26.5527 24.3073 26.5696 24.2649 26.5696Z" fill="black"/>
<path d="M18.7608 28.1416H13.28L12.78 26.3816H19.1L18.7608 28.1416ZM13.5184 27.8216H18.4968L18.7104 26.7016H13.2L13.5184 27.8216Z" fill="black"/>
<path d="M16.0753 28.1416C16.0328 28.1416 15.9922 28.1247 15.9621 28.0947C15.9321 28.0647 15.9153 28.024 15.9153 27.9816V26.5416C15.9153 26.4992 15.9321 26.4585 15.9621 26.4285C15.9922 26.3984 16.0328 26.3816 16.0753 26.3816C16.1177 26.3816 16.1584 26.3984 16.1884 26.4285C16.2184 26.4585 16.2353 26.4992 16.2353 26.5416V27.9816C16.2353 28.024 16.2184 28.0647 16.1884 28.0947C16.1584 28.1247 16.1177 28.1416 16.0753 28.1416Z" fill="black"/>
<path d="M18.4696 28.4208C18.71 28.4208 18.9048 28.2242 18.9048 27.9816C18.9048 27.739 18.71 27.5424 18.4696 27.5424C18.2293 27.5424 18.0344 27.739 18.0344 27.9816C18.0344 28.2242 18.2293 28.4208 18.4696 28.4208Z" fill="black"/>
<path d="M16.072 28.4208C16.3146 28.4208 16.5112 28.2242 16.5112 27.9816C16.5112 27.739 16.3146 27.5424 16.072 27.5424C15.8294 27.5424 15.6328 27.739 15.6328 27.9816C15.6328 28.2242 15.8294 28.4208 16.072 28.4208Z" fill="black"/>
<path d="M13.564 28.4208C13.804 28.4208 13.9984 28.2242 13.9984 27.9816C13.9984 27.739 13.804 27.5424 13.564 27.5424C13.3241 27.5424 13.1296 27.739 13.1296 27.9816C13.1296 28.2242 13.3241 28.4208 13.564 28.4208Z" fill="black"/>
<path d="M12.1441 23.5248C12.1193 23.5249 12.0948 23.5192 12.0726 23.5083C12.0504 23.4973 12.031 23.4813 12.0161 23.4616L11.1201 22.2768C11.0786 22.2216 11.0534 22.1559 11.0472 22.0872C11.0409 22.0185 11.054 21.9494 11.0847 21.8876C11.1155 21.8258 11.1629 21.7738 11.2216 21.7375C11.2802 21.7011 11.3478 21.6817 11.4169 21.6816H14.1537C14.2593 21.6816 14.3634 21.7067 14.4574 21.7549C14.5514 21.803 14.6327 21.8727 14.6945 21.9584L15.9313 23.2504C15.957 23.2815 15.9699 23.3213 15.9676 23.3616C15.9652 23.4019 15.9477 23.4398 15.9186 23.4677C15.8894 23.4957 15.8508 23.5116 15.8104 23.5122C15.77 23.5128 15.7309 23.4982 15.7009 23.4712L14.4361 22.152C14.4042 22.1056 14.3616 22.0677 14.3118 22.0415C14.2621 22.0153 14.2067 22.0016 14.1505 22.0016H11.4137C11.404 22.0014 11.3944 22.0041 11.3862 22.0092C11.378 22.0143 11.3714 22.0216 11.3673 22.0304C11.363 22.0389 11.3612 22.0484 11.362 22.0579C11.3629 22.0673 11.3664 22.0764 11.3721 22.084L12.2713 23.268C12.2841 23.2847 12.2935 23.3038 12.2989 23.3242C12.3043 23.3446 12.3056 23.3658 12.3028 23.3867C12.3 23.4076 12.293 23.4277 12.2824 23.4459C12.2718 23.4641 12.2577 23.4801 12.2409 23.4928C12.2129 23.5137 12.179 23.525 12.1441 23.5248Z" fill="black"/>
<path d="M16.0752 26.7368H19.0624L19.808 23.3912C19.8195 23.3381 19.819 23.2832 19.8063 23.2304C19.7937 23.1775 19.7694 23.1282 19.7351 23.0861C19.7008 23.044 19.6575 23.0102 19.6084 22.9871C19.5592 22.964 19.5055 22.9523 19.4512 22.9528H16.0752V26.7368Z" fill="#C7B8F8"/>
<path d="M12.84 26.7368H16.0752V22.9528H12.08C12.0207 22.9526 11.9621 22.9666 11.9092 22.9936C11.8563 23.0206 11.8106 23.0598 11.7758 23.1079C11.7411 23.1561 11.7184 23.2119 11.7095 23.2706C11.7006 23.3293 11.7059 23.3893 11.7248 23.4456L12.84 26.7368Z" fill="#C7B8F8"/>
<path d="M16.0753 26.2912C16.0328 26.2912 15.9922 26.2743 15.9621 26.2443C15.9321 26.2143 15.9153 26.1736 15.9153 26.1312V23.36C15.9153 23.3176 15.9321 23.2769 15.9621 23.2469C15.9922 23.2169 16.0328 23.2 16.0753 23.2C16.1177 23.2 16.1584 23.2169 16.1884 23.2469C16.2184 23.2769 16.2353 23.3176 16.2353 23.36V26.128C16.2357 26.1493 16.2319 26.1704 16.224 26.1902C16.2162 26.21 16.2045 26.228 16.1896 26.2432C16.1747 26.2584 16.1569 26.2705 16.1373 26.2787C16.1176 26.287 16.0966 26.2912 16.0753 26.2912Z" fill="black"/>
<path d="M14.8177 58.8352H9.68005C9.42296 58.835 9.17646 58.7328 8.99467 58.551C8.81288 58.3692 8.71066 58.1227 8.71045 57.8656V52.7288C8.71087 52.4719 8.81319 52.2256 8.99495 52.0439C9.17672 51.8623 9.4231 51.7602 9.68005 51.76H14.8161C15.0731 51.7602 15.3196 51.8624 15.5014 52.0442C15.6832 52.226 15.7854 52.4725 15.7857 52.7296V57.8664C15.7852 58.1231 15.6831 58.3691 15.5017 58.5507C15.3203 58.7323 15.0743 58.8346 14.8177 58.8352ZM9.68005 52.08C9.50783 52.0802 9.34272 52.1487 9.22095 52.2705C9.09917 52.3923 9.03066 52.5574 9.03045 52.7296V57.8664C9.03066 58.0386 9.09917 58.2037 9.22095 58.3255C9.34272 58.4473 9.50783 58.5158 9.68005 58.516H14.8161C14.9883 58.5158 15.1534 58.4473 15.2752 58.3255C15.3969 58.2037 15.4654 58.0386 15.4657 57.8664V52.7288C15.4654 52.5566 15.3969 52.3915 15.2752 52.2697C15.1534 52.1479 14.9883 52.0794 14.8161 52.0792L9.68005 52.08Z" fill="black"/>
<path d="M11.0897 54.7368C10.9301 54.7369 10.7741 54.6897 10.6414 54.6012C10.5086 54.5126 10.4051 54.3867 10.344 54.2393C10.2829 54.092 10.2668 53.9298 10.2979 53.7733C10.329 53.6168 10.4058 53.473 10.5187 53.3602C10.6315 53.2474 10.7752 53.1705 10.9317 53.1394C11.0882 53.1084 11.2505 53.1244 11.3978 53.1855C11.5452 53.2467 11.6712 53.3501 11.7597 53.4829C11.8482 53.6156 11.8954 53.7716 11.8953 53.9312C11.8951 54.1448 11.8101 54.3495 11.6591 54.5006C11.508 54.6516 11.3033 54.7366 11.0897 54.7368ZM11.0897 53.4448C10.9934 53.4446 10.8993 53.473 10.8192 53.5264C10.7391 53.5797 10.6767 53.6556 10.6397 53.7445C10.6028 53.8333 10.593 53.9312 10.6117 54.0256C10.6304 54.12 10.6767 54.2067 10.7447 54.2748C10.8126 54.3429 10.8993 54.3893 10.9937 54.4082C11.0881 54.427 11.1859 54.4174 11.2748 54.3806C11.3637 54.3438 11.4398 54.2815 11.4932 54.2015C11.5467 54.1215 11.5753 54.0274 11.5753 53.9312C11.5753 53.8023 11.5241 53.6787 11.4331 53.5875C11.342 53.4963 11.2185 53.445 11.0897 53.4448Z" fill="black"/>
<path d="M13.4096 57.2127C13.2503 57.2127 13.0945 57.1655 12.962 57.077C12.8296 56.9885 12.7263 56.8626 12.6653 56.7154C12.6044 56.5682 12.5884 56.4063 12.6195 56.25C12.6506 56.0937 12.7273 55.9502 12.84 55.8375C12.9526 55.7249 13.0962 55.6482 13.2524 55.6171C13.4087 55.586 13.5707 55.6019 13.7179 55.6629C13.8651 55.7239 13.9909 55.8271 14.0794 55.9596C14.168 56.0921 14.2152 56.2478 14.2152 56.4072C14.215 56.6208 14.1301 56.8255 13.979 56.9766C13.828 57.1276 13.6232 57.2125 13.4096 57.2127ZM13.4096 55.9216C13.3136 55.9216 13.2197 55.9501 13.1398 56.0034C13.06 56.0568 12.9977 56.1326 12.961 56.2213C12.9242 56.3101 12.9146 56.4077 12.9333 56.5019C12.9521 56.5961 12.9983 56.6826 13.0662 56.7505C13.1341 56.8184 13.2207 56.8647 13.3149 56.8834C13.4091 56.9022 13.5067 56.8925 13.5954 56.8558C13.6842 56.819 13.76 56.7568 13.8134 56.6769C13.8667 56.5971 13.8952 56.5032 13.8952 56.4072C13.8954 56.3433 13.883 56.28 13.8587 56.2209C13.8344 56.1618 13.7987 56.108 13.7535 56.0628C13.7084 56.0175 13.6548 55.9816 13.5958 55.9571C13.5368 55.9326 13.4735 55.92 13.4096 55.92V55.9216Z" fill="black"/>
<path d="M10.7199 57.6872C10.6917 57.6867 10.6641 57.6786 10.6399 57.664C10.6037 57.6421 10.5777 57.6067 10.5675 57.5656C10.5573 57.5245 10.5638 57.4811 10.5855 57.4448L13.2719 52.9848C13.2939 52.9484 13.3294 52.9222 13.3707 52.912C13.4119 52.9018 13.4555 52.9084 13.4919 52.9304C13.5283 52.9524 13.5545 52.9879 13.5647 53.0291C13.5749 53.0704 13.5683 53.114 13.5463 53.1504L10.8599 57.6096C10.8455 57.6337 10.8249 57.6535 10.8003 57.6672C10.7758 57.6808 10.748 57.6877 10.7199 57.6872Z" fill="black"/>
<path d="M71.8336 60.3048H64.8736C64.3999 60.3044 63.9458 60.116 63.6108 59.7811C63.2759 59.4462 63.0876 58.992 63.0872 58.5184V44.7448C63.088 44.272 63.2761 43.8187 63.6103 43.4842C63.9445 43.1498 64.3975 42.9613 64.8704 42.96H71.8304C72.304 42.9604 72.7581 43.1488 73.0931 43.4837C73.428 43.8186 73.6163 44.2727 73.6168 44.7464V58.5184C73.6161 58.9914 73.4282 59.445 73.094 59.7797C72.7598 60.1145 72.3066 60.3033 71.8336 60.3048ZM64.8704 43.28C64.4816 43.2804 64.1088 43.435 63.8339 43.71C63.559 43.9849 63.4044 44.3576 63.404 44.7464V58.5184C63.4044 58.9072 63.559 59.2799 63.8339 59.5548C64.1088 59.8297 64.4816 59.9844 64.8704 59.9848H71.8304C72.2191 59.9844 72.5919 59.8297 72.8668 59.5548C73.1417 59.2799 73.2963 58.9072 73.2968 58.5184V44.7448C73.2959 44.3568 73.1415 43.985 72.8674 43.7105C72.5932 43.436 72.2215 43.2813 71.8336 43.28H64.8704Z" fill="black"/>
<path d="M70.4776 53.2296H66.2264C65.8173 53.2296 65.4856 53.5613 65.4856 53.9704V56.5376C65.4856 56.9467 65.8173 57.2784 66.2264 57.2784H70.4776C70.8867 57.2784 71.2184 56.9467 71.2184 56.5376V53.9704C71.2184 53.5613 70.8867 53.2296 70.4776 53.2296Z" fill="#C7B8F8"/>
<path d="M71.0689 54.8416H65.6473C65.6049 54.8416 65.5642 54.8247 65.5342 54.7947C65.5042 54.7647 65.4873 54.724 65.4873 54.6816C65.4873 54.6392 65.5042 54.5985 65.5342 54.5685C65.5642 54.5385 65.6049 54.5216 65.6473 54.5216H71.0689C71.1113 54.5216 71.152 54.5385 71.1821 54.5685C71.2121 54.5985 71.2289 54.6392 71.2289 54.6816C71.2289 54.724 71.2121 54.7647 71.1821 54.7947C71.152 54.8247 71.1113 54.8416 71.0689 54.8416Z" fill="black"/>
<path d="M67.3185 56.7792H66.6233C66.4758 56.7737 66.3362 56.7112 66.2338 56.6049C66.1314 56.4986 66.0742 56.3568 66.0742 56.2092C66.0742 56.0616 66.1314 55.9198 66.2338 55.8135C66.3362 55.7072 66.4758 55.6447 66.6233 55.6392H67.3185C67.4659 55.6447 67.6055 55.7072 67.7079 55.8135C67.8103 55.9198 67.8675 56.0616 67.8675 56.2092C67.8675 56.3568 67.8103 56.4986 67.7079 56.6049C67.6055 56.7112 67.4659 56.7737 67.3185 56.7792ZM66.6233 55.9592C66.5594 55.9628 66.4993 55.9907 66.4554 56.0372C66.4115 56.0837 66.387 56.1452 66.387 56.2092C66.387 56.2732 66.4115 56.3347 66.4554 56.3812C66.4993 56.4277 66.5594 56.4556 66.6233 56.4592H67.3185C67.3823 56.4556 67.4424 56.4277 67.4863 56.3812C67.5302 56.3347 67.5547 56.2732 67.5547 56.2092C67.5547 56.1452 67.5302 56.0837 67.4863 56.0372C67.4424 55.9907 67.3823 55.9628 67.3185 55.9592H66.6233Z" fill="black"/>
<path d="M70.7183 46.0488H65.9759C65.5668 46.0488 65.2351 46.3805 65.2351 46.7896V49.3568C65.2351 49.7659 65.5668 50.0976 65.9759 50.0976H70.7183C71.1274 50.0976 71.4591 49.7659 71.4591 49.3568V46.7896C71.4591 46.3805 71.1274 46.0488 70.7183 46.0488Z" fill="#6DC8C2"/>
<path d="M68.3471 49.096C68.1443 49.096 67.946 49.0358 67.7773 48.9232C67.6087 48.8105 67.4772 48.6503 67.3996 48.4629C67.322 48.2755 67.3017 48.0693 67.3412 47.8703C67.3808 47.6714 67.4785 47.4886 67.6219 47.3452C67.7654 47.2018 67.9481 47.1041 68.147 47.0645C68.346 47.0249 68.5522 47.0452 68.7396 47.1229C68.927 47.2005 69.0872 47.3319 69.1999 47.5006C69.3126 47.6693 69.3727 47.8676 69.3727 48.0704C69.3725 48.3423 69.2644 48.6031 69.0721 48.7954C68.8798 48.9877 68.6191 49.0958 68.3471 49.096ZM68.3471 47.3648C68.2076 47.3648 68.0712 47.4062 67.9551 47.4837C67.8391 47.5612 67.7486 47.6714 67.6952 47.8004C67.6418 47.9293 67.6279 48.0712 67.6551 48.2081C67.6823 48.3449 67.7495 48.4707 67.8482 48.5693C67.9469 48.668 68.0726 48.7352 68.2095 48.7624C68.3463 48.7897 68.4882 48.7757 68.6172 48.7223C68.7461 48.6689 68.8563 48.5784 68.9338 48.4624C69.0113 48.3464 69.0527 48.21 69.0527 48.0704C69.0525 47.8833 68.9781 47.704 68.8458 47.5717C68.7135 47.4394 68.5342 47.365 68.3471 47.3648Z" fill="black"/>
<path d="M65.8215 49.096H65.2351V48.776H65.8215C65.9779 48.7584 66.1223 48.6839 66.2272 48.5665C66.3321 48.4492 66.3901 48.2974 66.3901 48.14C66.3901 47.9826 66.3321 47.8308 66.2272 47.7134C66.1223 47.5961 65.9779 47.5216 65.8215 47.504H65.2351V47.184H65.8215C66.06 47.2058 66.2817 47.316 66.4431 47.4929C66.6045 47.6697 66.694 47.9005 66.694 48.14C66.694 48.3794 66.6045 48.6103 66.4431 48.7871C66.2817 48.964 66.06 49.0742 65.8215 49.096Z" fill="black"/>
<path d="M71.4689 49.1008H70.8801C70.6408 49.08 70.4179 48.9702 70.2556 48.7932C70.0932 48.6161 70.0032 48.3846 70.0032 48.1444C70.0032 47.9042 70.0932 47.6727 70.2556 47.4956C70.4179 47.3185 70.6408 47.2088 70.8801 47.188H71.4665V47.508H70.8801C70.723 47.5247 70.5776 47.599 70.472 47.7165C70.3663 47.834 70.3079 47.9864 70.3079 48.1444C70.3079 48.3024 70.3663 48.4548 70.472 48.5723C70.5776 48.6898 70.723 48.7641 70.8801 48.7808H71.4665L71.4689 49.1008Z" fill="black"/>
<path d="M72.5409 32.7848H52.9337C52.3208 32.7831 51.7334 32.5389 51.2999 32.1056C50.8664 31.6722 50.622 31.0849 50.6201 30.472V18.4576C50.6218 17.8445 50.8661 17.257 51.2996 16.8235C51.7331 16.39 52.3206 16.1457 52.9337 16.144H72.5409C73.154 16.1457 73.7415 16.39 74.175 16.8235C74.6085 17.257 74.8528 17.8445 74.8545 18.4576V30.472C74.8526 31.0849 74.6082 31.6722 74.1747 32.1056C73.7412 32.5389 73.1539 32.7831 72.5409 32.7848ZM52.9337 16.4648C52.4055 16.4665 51.8994 16.6771 51.5259 17.0506C51.1524 17.4241 50.9418 17.9302 50.9401 18.4584V30.472C50.9408 31.0005 51.151 31.5071 51.5248 31.8807C51.8985 32.2543 52.4052 32.4644 52.9337 32.4648H72.5409C73.0694 32.4644 73.5761 32.2543 73.9498 31.8807C74.3236 31.5071 74.5339 31.0005 74.5345 30.472V18.4576C74.5328 17.9294 74.3222 17.4233 73.9487 17.0498C73.5752 16.6763 73.0691 16.4657 72.5409 16.464L52.9337 16.4648Z" fill="black"/>
<path d="M60.824 19.3632H54.6688C54.0347 19.3632 53.5208 19.8772 53.5208 20.5112V27.7384C53.5208 28.3724 54.0347 28.8864 54.6688 28.8864H60.824C61.458 28.8864 61.972 28.3724 61.972 27.7384V20.5112C61.972 19.8772 61.458 19.3632 60.824 19.3632Z" fill="#C7B8F8"/>
<path d="M57.9064 24.4648H57.5864V28.8872H57.9064V24.4648Z" fill="black"/>
<path d="M65.6817 19.5632H64.1921C63.969 19.5632 63.7881 19.7441 63.7881 19.9672V21.4568C63.7881 21.6799 63.969 21.8608 64.1921 21.8608H65.6817C65.9048 21.8608 66.0857 21.6799 66.0857 21.4568V19.9672C66.0857 19.7441 65.9048 19.5632 65.6817 19.5632Z" fill="#6DC8C2"/>
<path d="M68.9041 19.5632H67.4145C67.1914 19.5632 67.0105 19.7441 67.0105 19.9672V21.4568C67.0105 21.6799 67.1914 21.8608 67.4145 21.8608H68.9041C69.1272 21.8608 69.3081 21.6799 69.3081 21.4568V19.9672C69.3081 19.7441 69.1272 19.5632 68.9041 19.5632Z" fill="#6DC8C2"/>
<path d="M72.1272 19.5632H70.6376C70.4145 19.5632 70.2336 19.7441 70.2336 19.9672V21.4568C70.2336 21.6799 70.4145 21.8608 70.6376 21.8608H72.1272C72.3504 21.8608 72.5312 21.6799 72.5312 21.4568V19.9672C72.5312 19.7441 72.3504 19.5632 72.1272 19.5632Z" fill="#6DC8C2"/>
<path d="M72.5319 24.1136H63.9471C63.9047 24.1136 63.864 24.0968 63.834 24.0667C63.804 24.0367 63.7871 23.996 63.7871 23.9536C63.7871 23.9112 63.804 23.8705 63.834 23.8405C63.864 23.8105 63.9047 23.7936 63.9471 23.7936H72.5319C72.5743 23.7936 72.615 23.8105 72.645 23.8405C72.6751 23.8705 72.6919 23.9112 72.6919 23.9536C72.6919 23.996 72.6751 24.0367 72.645 24.0667C72.615 24.0968 72.5743 24.1136 72.5319 24.1136Z" fill="black"/>
<path d="M72.5319 25.8072H63.9471C63.9047 25.8072 63.864 25.7903 63.834 25.7603C63.804 25.7303 63.7871 25.6896 63.7871 25.6472C63.7871 25.6048 63.804 25.5641 63.834 25.5341C63.864 25.5041 63.9047 25.4872 63.9471 25.4872H72.5319C72.5743 25.4872 72.615 25.5041 72.645 25.5341C72.6751 25.5641 72.6919 25.6048 72.6919 25.6472C72.6919 25.6896 72.6751 25.7303 72.645 25.7603C72.615 25.7903 72.5743 25.8072 72.5319 25.8072Z" fill="black"/>
<path d="M69.5439 27.5008H63.9439C63.9015 27.5008 63.8608 27.4839 63.8308 27.4539C63.8008 27.4239 63.7839 27.3832 63.7839 27.3408C63.7839 27.2984 63.8008 27.2577 63.8308 27.2277C63.8608 27.1977 63.9015 27.1808 63.9439 27.1808H69.5439C69.5864 27.1808 69.6271 27.1977 69.6571 27.2277C69.6871 27.2577 69.7039 27.2984 69.7039 27.3408C69.7039 27.3832 69.6871 27.4239 69.6571 27.4539C69.6271 27.4839 69.5864 27.5008 69.5439 27.5008Z" fill="black"/>
<path d="M59.34 24.4648H56.1336C56.1 24.4648 56.0668 24.4582 56.0358 24.4453C56.0048 24.4324 55.9766 24.4136 55.9529 24.3898C55.9292 24.366 55.9104 24.3378 55.8976 24.3067C55.8848 24.2757 55.8783 24.2424 55.8784 24.2088V22.5872C55.8784 22.5488 55.8937 22.512 55.9208 22.4848C55.948 22.4577 55.9848 22.4424 56.0232 22.4424H59.4496C59.4687 22.4423 59.4876 22.446 59.5052 22.4532C59.5229 22.4604 59.539 22.4711 59.5525 22.4845C59.566 22.498 59.5768 22.514 59.5841 22.5316C59.5914 22.5492 59.5952 22.5681 59.5952 22.5872V24.2088C59.5953 24.2424 59.5888 24.2757 59.576 24.3067C59.5632 24.3378 59.5444 24.366 59.5207 24.3898C59.497 24.4136 59.4689 24.4324 59.4378 24.4453C59.4068 24.4582 59.3736 24.4648 59.34 24.4648Z" fill="#FFBB45"/>
<path d="M57.7368 23.0232C58.7632 23.0232 59.5952 22.7632 59.5952 22.4424C59.5952 22.1216 58.7632 21.8616 57.7368 21.8616C56.7105 21.8616 55.8784 22.1216 55.8784 22.4424C55.8784 22.7632 56.7105 23.0232 57.7368 23.0232Z" fill="black"/>
<path d="M45.0071 55.4136H28.6871C28.6447 55.4136 28.604 55.3967 28.574 55.3667C28.544 55.3367 28.5271 55.296 28.5271 55.2536C28.5271 55.2112 28.544 55.1705 28.574 55.1405C28.604 55.1105 28.6447 55.0936 28.6871 55.0936H45.0071C45.0495 55.0936 45.0902 55.1105 45.1202 55.1405C45.1502 55.1705 45.1671 55.2112 45.1671 55.2536C45.1671 55.296 45.1502 55.3367 45.1202 55.3667C45.0902 55.3967 45.0495 55.4136 45.0071 55.4136Z" fill="white"/>
</svg>
